<svg width="512" height="512" viewBox="0 0 512 512" fill="none" xmlns="http://www.w3.org/2000/svg">
<path d="M492 276C503.047 276 512 267.047 512 256C512 244.953 503.047 236 492 236H433.332V197.332H492C503.047 197.332 512 188.379 512 177.332C512 166.285 503.047 157.332 492 157.332H433.332V98.668C433.332 87.6211 424.379 78.668 413.332 78.668H354.668V20C354.668 8.95312 345.715 0 334.668 0C323.621 0 314.668 8.95312 314.668 20V78.668H276V20C276 8.95312 267.047 0 256 0C244.953 0 236 8.95312 236 20V78.668H197.332V20C197.332 8.95312 188.379 0 177.332 0C166.285 0 157.332 8.95312 157.332 20V78.668H98.668C87.6211 78.668 78.668 87.6211 78.668 98.668V157.336H20C8.95312 157.336 0 166.289 0 177.336C0 188.379 8.95312 197.336 20 197.336H78.668V236H20C8.95312 236 0 244.953 0 256C0 267.047 8.95312 276 20 276H78.668V314.668H20C8.95312 314.668 0 323.621 0 334.668C0 345.715 8.95312 354.668 20 354.668H78.668V413.336C78.668 424.379 87.6211 433.336 98.668 433.336H157.336V492C157.336 503.047 166.289 512 177.336 512C188.379 512 197.336 503.047 197.336 492V433.332H236V492C236 503.047 244.953 512 256 512C267.047 512 276 503.047 276 492V433.332H314.668V492C314.668 503.047 323.621 512 334.668 512C345.715 512 354.668 503.047 354.668 492V433.332H413.332C424.379 433.332 433.332 424.379 433.332 413.332V354.664H492C503.047 354.664 512 345.711 512 334.664C512 323.621 503.047 314.664 492 314.664H433.332V276H492ZM393.332 393.332H118.668V118.668H393.336V393.332H393.332Z" fill="white"/>
</svg>
