<svg width="512" height="512" viewBox="0 0 512 512" fill="none" xmlns="http://www.w3.org/2000/svg">
<g clip-path="url(#clip0)">
<path d="M492 93.7305H79.332V64C79.332 52.9531 70.3789 44 59.332 44H20C8.95312 44 0 52.9531 0 64C0 75.0469 8.95312 84 20 84H39.332V447.648C39.332 458.695 48.2852 467.648 59.332 467.648C70.3789 467.648 79.332 458.695 79.332 447.648V408.234H492C503.047 408.234 512 399.281 512 388.234V113.73C512 102.684 503.047 93.7305 492 93.7305V93.7305ZM472 368.234H79.332V133.73H472V368.234ZM236.668 447.648C236.668 458.695 227.715 467.648 216.668 467.648H138C126.953 467.648 118 458.695 118 447.648C118 436.605 126.953 427.648 138 427.648H216.668C227.711 427.648 236.668 436.605 236.668 447.648ZM472.668 447.648C472.668 458.695 463.715 467.648 452.668 467.648H295.332C284.285 467.648 275.332 458.695 275.332 447.648C275.332 436.605 284.285 427.648 295.332 427.648H452.664C463.711 427.648 472.668 436.605 472.668 447.648ZM374 329.984C417.562 329.984 453 294.543 453 250.984C453 207.422 417.562 171.984 374 171.984C330.438 171.984 295 207.422 295 250.984C295 294.543 330.438 329.984 374 329.984ZM374 211.984C395.504 211.984 413 229.477 413 250.984C413 272.488 395.504 289.984 374 289.984C352.496 289.984 335 272.488 335 250.984C335 229.477 352.496 211.984 374 211.984ZM177.332 329.984C220.895 329.984 256.332 294.543 256.332 250.984C256.332 207.422 220.895 171.984 177.332 171.984C133.773 171.984 98.332 207.422 98.332 250.984C98.332 294.543 133.773 329.984 177.332 329.984V329.984ZM177.332 211.984C198.84 211.984 216.332 229.477 216.332 250.984C216.332 272.488 198.84 289.984 177.332 289.984C155.828 289.984 138.332 272.488 138.332 250.984C138.332 229.477 155.828 211.984 177.332 211.984Z" fill="white"/>
</g>
<defs>
<clipPath id="clip0">
<rect width="512" height="512" fill="white"/>
</clipPath>
</defs>
</svg>
