<svg width="512" height="512" viewBox="0 0 512 512" fill="none" xmlns="http://www.w3.org/2000/svg">
<path d="M469.309 376.245L377.733 137.245L433.91 29.228C437.135 23.028 436.889 15.595 433.263 9.621C429.636 3.647 423.155 0 416.167 0C373.194 0 351.41 6.528 330.344 12.842C311.196 18.58 293.111 24 256.003 24C218.895 24 200.81 18.58 181.663 12.842C160.597 6.528 138.813 0 95.84 0C88.851 0 82.37 3.647 78.744 9.621C75.118 15.595 74.872 23.028 78.097 29.228L134.274 137.246L42.698 376.246C17.601 441.745 66.169 512 136.163 512H375.843C445.998 512 494.353 441.607 469.309 376.245ZM129.777 41.909C146.26 43.989 158.005 47.509 170.181 51.158C191.247 57.472 213.03 64 256.003 64C298.976 64 320.76 57.472 341.826 51.158C354.002 47.509 365.747 43.989 382.23 41.909L343.697 116H168.31L129.777 41.909ZM375.843 472H136.163C94.031 472 64.947 429.971 80.048 390.558L169.923 156H342.084L431.958 390.557C447.028 429.89 418.05 472 375.843 472Z" fill="white"/>
<path d="M268.503 294H243.503C239.367 294 236.003 290.636 236.003 286.5C236.003 282.364 239.368 279 243.503 279H296.002C307.048 279 316.002 270.046 316.002 259C316.002 247.954 307.048 239 296.002 239H276.002V234C276.002 222.954 267.048 214 256.002 214C244.956 214 236.002 222.954 236.002 234V239.598C213.363 243.205 196.003 262.861 196.003 286.5C196.003 312.691 217.311 334 243.502 334H268.502C272.638 334 276.002 337.364 276.002 341.5C276.002 345.636 272.638 349 268.502 349H216.003C204.957 349 196.003 357.954 196.003 369C196.003 380.046 204.957 389 216.003 389H236.003V394C236.003 405.046 244.957 414 256.003 414C267.049 414 276.003 405.046 276.003 394V388.402C298.642 384.795 316.002 365.139 316.002 341.5C316.002 315.309 294.694 294 268.503 294Z" fill="white"/>
</svg>
