<svg width="512" height="512" viewBox="0 0 512 512" fill="none" xmlns="http://www.w3.org/2000/svg">
<g clip-path="url(#clip0)">
<path d="M482.422 136.528L506.121 112.828C518.676 100.274 509.785 78.6838 491.98 78.6838H433.316V20.0237C433.316 2.26587 411.762 -6.70679 399.172 5.87915L375.473 29.5784C338.801 10.2073 297.812 0.023679 255.988 0.023679C114.512 0.023679 0 114.516 0 256.012C0 397.489 114.492 512 255.988 512C397.465 512 511.977 397.508 511.977 256.012C511.977 214.188 501.797 173.203 482.422 136.528V136.528ZM413.316 118.684H443.695L405.031 157.348H354.652V106.969L393.316 68.3049V98.6838C393.316 109.731 402.27 118.684 413.316 118.684V118.684ZM255.988 472.004C136.617 472.004 40 375.399 40 256.012C40 136.641 136.602 40.0198 255.988 40.0198C287.09 40.0198 317.633 46.6838 345.613 59.4416L320.512 84.5432C316.762 88.2932 314.652 93.3791 314.652 98.6838V169.063L241.848 241.871C234.039 249.68 234.039 262.344 241.848 270.153C249.656 277.961 262.32 277.965 270.133 270.153L342.938 197.348H413.316C418.621 197.348 423.707 195.239 427.457 191.492L452.562 166.387C465.32 194.367 471.98 224.91 471.98 256.012C471.98 375.383 375.379 472.004 255.988 472.004V472.004ZM413.699 256.012C413.699 342.973 342.953 413.723 255.988 413.723C169.027 413.723 98.2773 342.973 98.2773 256.012C98.2773 169.051 169.027 98.301 255.988 98.301C267.035 98.301 275.988 107.254 275.988 118.301C275.988 129.348 267.035 138.301 255.988 138.301C191.082 138.301 138.277 191.106 138.277 256.012C138.277 320.918 191.082 373.723 255.988 373.723C320.895 373.723 373.703 320.918 373.703 256.012C373.703 244.965 382.656 236.012 393.699 236.012C404.746 236.012 413.699 244.965 413.699 256.012V256.012Z" fill="white"/>
</g>
<defs>
<clipPath id="clip0">
<rect width="512" height="512" fill="white"/>
</clipPath>
</defs>
</svg>
