<?xml version="1.0" encoding="iso-8859-1"?>
<!-- Generator: Adobe Illustrator 19.0.0, SVG Export Plug-In . SVG Version: 6.00 Build 0)  -->
<svg version="1.1" id="Capa_1" xmlns="http://www.w3.org/2000/svg" xmlns:xlink="http://www.w3.org/1999/xlink" x="0px" y="0px"
	 viewBox="0 0 512 512" style="enable-background:new 0 0 512 512;" xml:space="preserve">
<g>
	<g>
		<path style="fill:#5E5F62;" d="M441.379,0H70.621c-4.875,0-8.828,3.952-8.828,8.828v459.034c0,4.875,3.952,8.828,8.828,8.828
			h17.655v26.483c0,4.875,3.952,8.828,8.828,8.828h317.793c4.875,0,8.828-3.952,8.828-8.828V476.69h17.655
			c4.875,0,8.828-3.952,8.828-8.828V8.828C450.207,3.952,446.255,0,441.379,0z"/>
		<rect x="256" y="123.586" style="fill:#5E5F62;" width="194.207" height="211.862"/>
	</g>
	<polyline style="fill:#90BAE1;" points="256,158.897 414.897,158.897 414.897,300.138 256,300.138 	"/>
	<path style="fill:#BDC3C7;" d="M61.793,406.069H256v70.621H70.621c-4.875,0-8.828-3.952-8.828-8.828V406.069z"/>
	<g>
		<rect x="61.793" y="335.448" style="fill:#A5A5A4;" width="194.207" height="70.621"/>
		<path style="fill:#A5A5A4;" d="M256,406.069h194.207v61.793c0,4.875-3.952,8.828-8.828,8.828H256V406.069z"/>
	</g>
	<rect x="61.793" y="264.828" style="fill:#BDC3C7;" width="194.207" height="70.621"/>
	<rect x="61.793" y="194.207" style="fill:#A5A5A4;" width="194.207" height="70.621"/>
	<rect x="61.793" y="123.586" style="fill:#BDC3C7;" width="194.207" height="70.621"/>
	<rect x="61.793" y="52.966" style="fill:#A5A5A4;" width="194.207" height="70.621"/>
	<g>
		<rect x="256" y="335.448" style="fill:#BDC3C7;" width="194.207" height="70.621"/>
		<rect x="256" y="52.966" style="fill:#BDC3C7;" width="194.207" height="70.621"/>
	</g>
	<g>
		<path style="fill:#4C8056;" d="M97.103,450.207c-1.153-0.014-2.293-0.254-3.353-0.707c-1.07-0.447-2.056-1.074-2.914-1.854
			c-0.776-0.881-1.431-1.86-1.948-2.914c-0.422-1.067-0.63-2.206-0.612-3.353c-0.032-1.158,0.21-2.307,0.707-3.353
			c0.447-1.07,1.074-2.056,1.854-2.914c0.418-0.379,0.859-0.733,1.319-1.06c0.493-0.336,1.03-0.603,1.595-0.793
			c0.5-0.255,1.034-0.435,1.586-0.534c1.132-0.259,2.308-0.259,3.44,0c0.586,0.086,1.153,0.267,1.681,0.534
			c0.563,0.191,1.096,0.457,1.586,0.793c0.463,0.327,0.906,0.681,1.328,1.06c0.78,0.858,1.407,1.844,1.854,2.914
			c1.163,2.715,0.876,5.833-0.762,8.29S100.056,450.236,97.103,450.207z"/>
		<path style="fill:#4C8056;" d="M132.414,450.207c-1.153-0.014-2.293-0.254-3.353-0.707c-1.07-0.447-2.056-1.074-2.914-1.854
			c-0.776-0.881-1.431-1.86-1.948-2.914c-0.422-1.067-0.63-2.206-0.612-3.353c-0.032-1.158,0.21-2.307,0.707-3.353
			c0.447-1.07,1.074-2.056,1.854-2.914c0.418-0.379,0.859-0.733,1.319-1.06c0.493-0.336,1.03-0.603,1.595-0.793
			c0.5-0.255,1.034-0.435,1.586-0.534c1.132-0.259,2.308-0.259,3.44,0c0.586,0.086,1.153,0.267,1.681,0.534
			c0.563,0.191,1.096,0.457,1.586,0.793c0.463,0.327,0.906,0.681,1.328,1.06c0.78,0.858,1.407,1.844,1.854,2.914
			c1.163,2.715,0.876,5.833-0.762,8.29S135.367,450.236,132.414,450.207z"/>
		<path style="fill:#4C8056;" d="M97.103,379.586c-2.348,0.023-4.607-0.899-6.268-2.56c-0.778-0.859-1.405-1.845-1.854-2.914
			c-0.943-2.136-0.943-4.571,0-6.707c0.426-1.081,1.055-2.07,1.854-2.914c0.418-0.379,0.859-0.733,1.319-1.06
			c0.493-0.336,1.03-0.603,1.595-0.793c0.525-0.268,1.09-0.448,1.672-0.535c1.103-0.259,2.251-0.259,3.353,0
			c0.586,0.086,1.153,0.267,1.681,0.535c0.563,0.191,1.096,0.457,1.586,0.793c0.463,0.327,0.907,0.68,1.328,1.06
			c1.611,1.693,2.525,3.931,2.56,6.268c-0.014,1.153-0.254,2.293-0.707,3.353c-0.804,2.217-2.55,3.963-4.767,4.767
			C99.396,379.332,98.257,379.572,97.103,379.586z"/>
		<path style="fill:#4C8056;" d="M132.414,379.586c-1.153-0.014-2.293-0.254-3.353-0.707c-1.081-0.426-2.07-1.055-2.914-1.854
			c-0.776-0.881-1.431-1.86-1.948-2.914c-0.422-1.067-0.63-2.206-0.612-3.353c-0.032-1.158,0.21-2.307,0.707-3.353
			c0.426-1.081,1.055-2.07,1.854-2.914c2.535-2.51,6.334-3.242,9.621-1.854c1.069,0.449,2.054,1.075,2.914,1.854
			c1.611,1.693,2.525,3.931,2.56,6.267c-0.014,1.153-0.254,2.293-0.707,3.353c-0.804,2.217-2.55,3.963-4.767,4.767
			C134.707,379.332,133.567,379.572,132.414,379.586z"/>
		<path style="fill:#4C8056;" d="M97.103,308.966c-2.348,0.023-4.607-0.899-6.268-2.56c-0.778-0.859-1.405-1.845-1.854-2.914
			c-0.943-2.136-0.943-4.571,0-6.707c0.426-1.081,1.055-2.07,1.854-2.914c3.539-3.267,8.995-3.267,12.534,0
			c0.799,0.844,1.428,1.833,1.854,2.914c0.943,2.136,0.943,4.571,0,6.707c-0.449,1.069-1.075,2.054-1.854,2.914
			C101.708,308.063,99.451,308.985,97.103,308.966z"/>
		<path style="fill:#4C8056;" d="M132.414,308.966c-1.158,0.028-2.306-0.214-3.353-0.707c-1.07-0.447-2.056-1.074-2.914-1.854
			c-0.776-0.881-1.431-1.86-1.948-2.914c-0.422-1.067-0.63-2.206-0.612-3.353c0.031-2.338,0.945-4.577,2.56-6.268
			c0.829-0.817,1.822-1.449,2.914-1.854c3.286-1.387,7.085-0.655,9.621,1.854c0.799,0.844,1.428,1.833,1.854,2.914
			c0.943,2.136,0.943,4.571,0,6.707c-0.804,2.217-2.55,3.963-4.767,4.767C134.72,308.751,133.572,308.993,132.414,308.966z"/>
		<path style="fill:#4C8056;" d="M97.103,238.345c-1.153-0.014-2.293-0.254-3.353-0.707c-1.081-0.426-2.07-1.055-2.914-1.854
			c-1.661-1.66-2.584-3.919-2.56-6.267c-0.032-1.158,0.21-2.307,0.707-3.353c0.426-1.081,1.055-2.07,1.854-2.914
			c0.418-0.379,0.859-0.733,1.319-1.06c0.493-0.336,1.03-0.603,1.595-0.793c0.5-0.255,1.034-0.435,1.586-0.535
			c2.909-0.59,5.92,0.305,8.035,2.388c0.799,0.844,1.428,1.833,1.854,2.914c1.409,3.284,0.675,7.096-1.854,9.621
			c-0.859,0.778-1.845,1.405-2.914,1.854C99.396,238.091,98.257,238.331,97.103,238.345z"/>
		<path style="fill:#4C8056;" d="M132.414,238.345c-1.153-0.014-2.293-0.254-3.353-0.707c-1.07-0.447-2.056-1.074-2.914-1.854
			c-1.661-1.66-2.584-3.919-2.56-6.267c-0.032-1.158,0.21-2.307,0.707-3.353c0.426-1.081,1.055-2.07,1.854-2.914
			c0.418-0.379,0.859-0.733,1.319-1.06c0.493-0.336,1.03-0.603,1.595-0.793c0.5-0.255,1.034-0.435,1.586-0.535
			c2.909-0.59,5.92,0.305,8.035,2.388c0.799,0.844,1.428,1.833,1.854,2.914c1.409,3.284,0.675,7.096-1.854,9.621
			c-0.859,0.778-1.845,1.405-2.914,1.854C134.707,238.091,133.567,238.331,132.414,238.345z"/>
		<path style="fill:#4C8056;" d="M97.103,167.724c-2.348,0.023-4.607-0.9-6.267-2.56c-1.66-1.66-2.583-3.919-2.56-6.267
			c-0.032-1.158,0.21-2.307,0.707-3.353c0.426-1.081,1.055-2.07,1.854-2.914c0.418-0.379,0.859-0.733,1.319-1.06
			c0.493-0.336,1.03-0.603,1.595-0.793c0.5-0.255,1.034-0.435,1.586-0.535c4.157-0.943,8.373,1.318,9.888,5.302
			c1.163,2.715,0.876,5.832-0.762,8.289C102.824,166.29,100.056,167.753,97.103,167.724z"/>
		<path style="fill:#4C8056;" d="M132.414,167.724c-1.158,0.028-2.306-0.214-3.353-0.707c-1.07-0.447-2.056-1.074-2.914-1.854
			c-2.528-2.525-3.263-6.337-1.854-9.621c0.804-2.217,2.55-3.963,4.767-4.767c1.609-0.708,3.4-0.895,5.121-0.535
			c0.552,0.101,1.086,0.281,1.586,0.535c0.563,0.191,1.096,0.457,1.586,0.793c0.464,0.327,0.907,0.681,1.329,1.06
			c0.799,0.844,1.428,1.833,1.854,2.914c1.409,3.284,0.675,7.096-1.854,9.621c-0.859,0.778-1.845,1.405-2.914,1.854
			C134.72,167.511,133.571,167.752,132.414,167.724z"/>
		<path style="fill:#4C8056;" d="M97.103,97.103c-2.348,0.023-4.607-0.899-6.268-2.56c-0.778-0.859-1.405-1.845-1.854-2.914
			c-0.943-2.136-0.943-4.571,0-6.707c0.426-1.081,1.055-2.07,1.854-2.914c0.418-0.379,0.859-0.733,1.319-1.06
			c0.493-0.336,1.03-0.603,1.595-0.793c0.525-0.268,1.09-0.448,1.672-0.535c2.882-0.577,5.862,0.318,7.949,2.387
			c0.78,0.858,1.407,1.844,1.854,2.914c0.943,2.136,0.943,4.571,0,6.707c-0.449,1.069-1.075,2.054-1.854,2.914
			C101.709,96.201,99.451,97.123,97.103,97.103z"/>
		<path style="fill:#4C8056;" d="M132.414,97.103c-1.153-0.014-2.293-0.254-3.353-0.707c-1.081-0.426-2.07-1.055-2.914-1.854
			c-0.778-0.859-1.405-1.845-1.854-2.914c-0.943-2.136-0.943-4.571,0-6.707c0.426-1.081,1.055-2.07,1.854-2.914
			c3.539-3.267,8.995-3.267,12.534,0c0.78,0.858,1.407,1.844,1.854,2.914c0.943,2.136,0.943,4.571,0,6.707
			c-0.449,1.069-1.075,2.054-1.854,2.914C137.019,96.201,134.761,97.123,132.414,97.103z"/>
		<path style="fill:#4C8056;" d="M414.897,450.207c-2.348,0.023-4.607-0.9-6.267-2.56c-1.66-1.66-2.583-3.919-2.56-6.267
			c-0.032-1.158,0.21-2.307,0.707-3.353c0.447-1.07,1.074-2.056,1.854-2.914c3.539-3.267,8.995-3.267,12.534,0
			c0.78,0.858,1.407,1.844,1.854,2.914c1.409,3.284,0.675,7.095-1.854,9.621c-0.859,0.778-1.845,1.405-2.914,1.854
			C417.189,449.953,416.05,450.193,414.897,450.207z"/>
		<path style="fill:#4C8056;" d="M379.586,450.207c-2.348,0.023-4.607-0.9-6.267-2.56c-1.66-1.66-2.583-3.919-2.56-6.267
			c-0.032-1.158,0.21-2.307,0.707-3.353c0.447-1.07,1.074-2.056,1.854-2.914c3.539-3.267,8.995-3.267,12.534,0
			c0.78,0.858,1.407,1.844,1.854,2.914c1.409,3.284,0.675,7.095-1.854,9.621c-0.859,0.778-1.845,1.405-2.914,1.854
			C381.879,449.953,380.74,450.193,379.586,450.207z"/>
		<path style="fill:#4C8056;" d="M414.897,379.586c-1.153-0.014-2.293-0.254-3.353-0.707c-1.081-0.426-2.07-1.055-2.914-1.854
			c-0.776-0.881-1.431-1.86-1.948-2.914c-0.422-1.067-0.63-2.206-0.612-3.353c-0.032-1.158,0.21-2.307,0.707-3.353
			c0.426-1.081,1.055-2.07,1.854-2.914c3.539-3.267,8.995-3.267,12.534,0c0.78,0.858,1.407,1.844,1.854,2.914
			c0.943,2.136,0.943,4.571,0,6.707c-0.804,2.217-2.55,3.963-4.767,4.767C417.19,379.332,416.05,379.572,414.897,379.586z"/>
		<path style="fill:#4C8056;" d="M379.586,379.586c-1.153-0.014-2.293-0.254-3.353-0.707c-1.081-0.426-2.07-1.055-2.914-1.854
			c-0.778-0.859-1.405-1.845-1.854-2.914c-0.943-2.136-0.943-4.571,0-6.707c0.426-1.081,1.055-2.07,1.854-2.914
			c0.418-0.379,0.859-0.733,1.319-1.06c0.493-0.336,1.03-0.603,1.595-0.793c0.5-0.255,1.034-0.435,1.586-0.535
			c1.132-0.259,2.308-0.259,3.44,0c0.586,0.086,1.153,0.267,1.681,0.535c0.563,0.191,1.096,0.457,1.586,0.793
			c0.463,0.327,0.907,0.681,1.328,1.06c0.799,0.844,1.428,1.833,1.854,2.914c0.943,2.136,0.943,4.571,0,6.707
			c-0.804,2.217-2.55,3.963-4.767,4.767C381.88,379.332,380.74,379.572,379.586,379.586z"/>
		<path style="fill:#4C8056;" d="M414.897,97.103c-2.348,0.023-4.607-0.899-6.268-2.56c-0.804-0.858-1.462-1.843-1.948-2.914
			c-0.422-1.067-0.63-2.207-0.612-3.354c-0.032-1.158,0.21-2.307,0.707-3.353c0.804-2.217,2.55-3.963,4.767-4.767
			c1.577-0.703,3.336-0.89,5.026-0.535c0.586,0.086,1.153,0.267,1.681,0.535c0.543,0.174,1.051,0.442,1.5,0.793
			c0.506,0.304,0.98,0.659,1.415,1.06c0.78,0.858,1.407,1.844,1.854,2.914c0.943,2.136,0.943,4.571,0,6.707
			c-0.449,1.069-1.075,2.054-1.854,2.914C419.502,96.201,417.244,97.123,414.897,97.103z"/>
		<path style="fill:#4C8056;" d="M379.586,97.103c-2.348,0.023-4.607-0.899-6.268-2.56c-0.804-0.858-1.462-1.843-1.948-2.914
			c-0.422-1.067-0.63-2.207-0.612-3.354c-0.032-1.158,0.21-2.307,0.707-3.353c0.447-1.07,1.074-2.056,1.854-2.914
			c2.114-2.084,5.126-2.979,8.035-2.388c0.552,0.101,1.086,0.281,1.586,0.535c0.563,0.191,1.096,0.457,1.586,0.793
			c0.463,0.327,0.906,0.681,1.328,1.06c0.78,0.858,1.407,1.844,1.854,2.914c0.943,2.136,0.943,4.571,0,6.707
			c-0.804,2.217-2.55,3.963-4.767,4.767C381.88,96.849,380.74,97.089,379.586,97.103z"/>
	</g>
	<g>
		<path style="fill:#E64C3C;" d="M220.69,450.207h-52.966c-4.875,0-8.828-3.952-8.828-8.828s3.952-8.828,8.828-8.828h52.966
			c4.875,0,8.828,3.952,8.828,8.828S225.565,450.207,220.69,450.207z"/>
		<path style="fill:#E64C3C;" d="M220.69,379.586h-52.966c-4.875,0-8.828-3.952-8.828-8.828s3.952-8.828,8.828-8.828h52.966
			c4.875,0,8.828,3.952,8.828,8.828S225.565,379.586,220.69,379.586z"/>
		<path style="fill:#E64C3C;" d="M220.69,308.966h-52.966c-4.875,0-8.828-3.952-8.828-8.828s3.952-8.828,8.828-8.828h52.966
			c4.875,0,8.828,3.952,8.828,8.828S225.565,308.966,220.69,308.966z"/>
		<path style="fill:#E64C3C;" d="M220.69,238.345h-52.966c-4.875,0-8.828-3.952-8.828-8.828s3.952-8.828,8.828-8.828h52.966
			c4.875,0,8.828,3.952,8.828,8.828S225.565,238.345,220.69,238.345z"/>
		<path style="fill:#E64C3C;" d="M220.69,167.724h-52.966c-4.875,0-8.828-3.952-8.828-8.828s3.952-8.828,8.828-8.828h52.966
			c4.875,0,8.828,3.952,8.828,8.828S225.565,167.724,220.69,167.724z"/>
		<path style="fill:#E64C3C;" d="M220.69,97.103h-52.966c-4.875,0-8.828-3.952-8.828-8.828c0-4.875,3.952-8.828,8.828-8.828h52.966
			c4.875,0,8.828,3.952,8.828,8.828C229.517,93.151,225.565,97.103,220.69,97.103z"/>
		<path style="fill:#E64C3C;" d="M344.276,450.207H291.31c-4.875,0-8.828-3.952-8.828-8.828s3.952-8.828,8.828-8.828h52.966
			c4.875,0,8.828,3.952,8.828,8.828S349.151,450.207,344.276,450.207z"/>
		<path style="fill:#E64C3C;" d="M344.276,379.586H291.31c-4.875,0-8.828-3.952-8.828-8.828s3.952-8.828,8.828-8.828h52.966
			c4.875,0,8.828,3.952,8.828,8.828S349.151,379.586,344.276,379.586z"/>
		<path style="fill:#E64C3C;" d="M344.276,97.103H291.31c-4.875,0-8.828-3.952-8.828-8.828c0-4.875,3.952-8.828,8.828-8.828h52.966
			c4.875,0,8.828,3.952,8.828,8.828C353.103,93.151,349.151,97.103,344.276,97.103z"/>
	</g>
	<g>
		<path style="fill:#B0D3F0;" d="M291.31,211.862c-3.57-0.001-6.788-2.152-8.154-5.45c-1.366-3.298-0.611-7.094,1.913-9.619
			l8.828-8.828c2.223-2.264,5.49-3.16,8.556-2.348s5.462,3.207,6.274,6.274c0.812,3.067-0.085,6.333-2.348,8.556l-8.828,8.828
			C295.898,210.934,293.652,211.865,291.31,211.862z"/>
		<path style="fill:#B0D3F0;" d="M291.31,256c-3.57-0.001-6.788-2.152-8.154-5.45c-1.366-3.298-0.611-7.094,1.913-9.619
			l52.966-52.966c2.223-2.264,5.49-3.16,8.556-2.348c3.067,0.812,5.462,3.207,6.274,6.274c0.812,3.067-0.085,6.333-2.348,8.556
			l-52.966,52.966C295.898,255.072,293.652,256.003,291.31,256z"/>
	</g>
</g>
<g>
</g>
<g>
</g>
<g>
</g>
<g>
</g>
<g>
</g>
<g>
</g>
<g>
</g>
<g>
</g>
<g>
</g>
<g>
</g>
<g>
</g>
<g>
</g>
<g>
</g>
<g>
</g>
<g>
</g>
</svg>
