<?xml version="1.0" encoding="iso-8859-1"?>
<!-- Generator: Adobe Illustrator 19.0.0, SVG Export Plug-In . SVG Version: 6.00 Build 0)  -->
<svg version="1.1" id="Capa_1" xmlns="http://www.w3.org/2000/svg" xmlns:xlink="http://www.w3.org/1999/xlink" x="0px" y="0px"
	 viewBox="0 0 512 512" style="enable-background:new 0 0 512 512;" xml:space="preserve">
<g>
	<path style="fill:#A5A5A4;" d="M439.703,91.101C425.061,37.339,376.251,0.026,320.53,0H191.47
		C135.749,0.026,86.939,37.339,72.297,91.101l-26.041,95.161l64.088-28.954l16.508-60.47c19.401-12.036,41.786-18.397,64.617-18.361
		h129.06c22.831-0.036,45.216,6.325,64.617,18.361l16.508,60.47l64.088,29.042v-0.088L439.703,91.101z"/>
	<path style="fill:#5E5F62;" d="M465.743,186.262v0.088l-64.088-29.042l-16.508-60.47l-1.943-7.151
		c-7.333-26.91-31.783-45.573-59.674-45.55H188.469c-27.891-0.023-52.341,18.64-59.674,45.55l-1.943,7.151l-16.508,60.47
		l-64.088,28.954l26.041-95.161C86.939,37.339,135.75,0.026,191.47,0h129.06c55.72,0.026,104.531,37.339,119.172,91.101
		L465.743,186.262z"/>
	<path style="fill:#35495E;" d="M0,344.276l25.547-117.518c10.293-47.349,56.829-77.55,104.266-67.667l108.183,22.538
		c11.875,2.474,24.133,2.474,36.008,0l108.183-22.538c47.436-9.883,93.972,20.318,104.266,67.667L512,344.276H0z"/>
	<path style="fill:#8697CB;" d="M70.621,282.483h370.759c39.003,0,70.621,31.618,70.621,70.621v88.276
		C512,480.382,480.382,512,441.379,512H70.621C31.618,512,0,480.382,0,441.379v-88.276C0,314.101,31.618,282.483,70.621,282.483z"/>
	<g>
		<path style="fill:#B0D3F0;" d="M35.31,379.586c-3.57-0.001-6.788-2.152-8.154-5.45c-1.366-3.298-0.611-7.094,1.913-9.619
			l26.483-26.483c3.456-3.394,9.001-3.369,12.426,0.056c3.425,3.425,3.45,8.97,0.056,12.426L41.551,377
			C39.898,378.658,37.652,379.589,35.31,379.586z"/>
		<path style="fill:#B0D3F0;" d="M88.276,326.621c-2.34-0.017-4.585-0.933-6.268-2.56c-0.776-0.881-1.431-1.86-1.948-2.914
			c-0.422-1.067-0.63-2.207-0.612-3.354c0.031-2.338,0.945-4.577,2.56-6.268c0.844-0.799,1.833-1.428,2.914-1.854
			c1.609-0.708,3.4-0.895,5.121-0.535c0.552,0.101,1.086,0.281,1.586,0.535c0.543,0.174,1.051,0.442,1.5,0.793
			c0.507,0.304,0.981,0.66,1.415,1.061c1.627,1.683,2.543,3.927,2.56,6.268c-0.014,1.153-0.254,2.293-0.707,3.353
			c-0.804,2.217-2.55,3.963-4.767,4.767C90.569,326.366,89.429,326.606,88.276,326.621z"/>
		<path style="fill:#B0D3F0;" d="M44.138,423.724c-3.57-0.001-6.788-2.152-8.154-5.45c-1.366-3.298-0.611-7.094,1.913-9.619
			L135,311.552c3.456-3.394,9.001-3.369,12.426,0.056s3.45,8.97,0.056,12.426l-97.103,97.103
			C48.726,422.796,46.48,423.727,44.138,423.724z"/>
	</g>
</g>
<g>
</g>
<g>
</g>
<g>
</g>
<g>
</g>
<g>
</g>
<g>
</g>
<g>
</g>
<g>
</g>
<g>
</g>
<g>
</g>
<g>
</g>
<g>
</g>
<g>
</g>
<g>
</g>
<g>
</g>
</svg>
