<?xml version="1.0" encoding="iso-8859-1"?>
<!-- Generator: Adobe Illustrator 19.0.0, SVG Export Plug-In . SVG Version: 6.00 Build 0)  -->
<svg version="1.1" id="Capa_1" xmlns="http://www.w3.org/2000/svg" xmlns:xlink="http://www.w3.org/1999/xlink" x="0px" y="0px"
	 viewBox="0 0 512 512" style="enable-background:new 0 0 512 512;" xml:space="preserve">
<g>
	<path style="fill:#CC4B4C;" d="M308.068,512H203.932c-81.438-0.091-147.435-66.087-147.525-147.525V199.593
		c0-4.793,3.885-8.678,8.678-8.678s8.678,3.885,8.678,8.678v164.881c0.078,71.858,58.311,130.091,130.169,130.169h104.136
		c71.858-0.078,130.091-58.311,130.169-130.169V225.627c0-4.793,3.885-8.678,8.678-8.678s8.678,3.885,8.678,8.678v138.847
		C455.502,445.913,389.506,511.909,308.068,512z"/>
	<g>
		<path style="fill:#5E5F62;" d="M308.068,477.288H203.932c-62.275-0.072-112.742-50.538-112.814-112.814V199.593
			c0-4.793,3.885-8.678,8.678-8.678c4.793,0,8.678,3.885,8.678,8.678v164.881c0.06,52.695,42.763,95.398,95.458,95.458h104.136
			c52.695-0.06,95.398-42.763,95.458-95.458V225.627c0-4.793,3.885-8.678,8.678-8.678c4.793,0,8.678,3.885,8.678,8.678v138.847
			C420.809,426.75,370.343,477.216,308.068,477.288z"/>
		<path style="fill:#5E5F62;" d="M308.068,442.576H203.932c-43.115-0.047-78.055-34.987-78.102-78.102V199.593
			c0-4.793,3.885-8.678,8.678-8.678c4.793,0,8.678,3.885,8.678,8.678v164.881c0.041,33.532,27.214,60.705,60.746,60.746h104.136
			c33.532-0.041,60.705-27.214,60.746-60.746V225.627c0-4.793,3.885-8.678,8.678-8.678c4.793,0,8.678,3.885,8.678,8.678v138.847
			C386.122,407.589,351.183,442.529,308.068,442.576z"/>
	</g>
	<path style="fill:#F0C419;" d="M308.068,407.864H203.932c-23.952-0.028-43.362-19.438-43.39-43.39V199.593
		c0-4.793,3.885-8.678,8.678-8.678c4.793,0,8.678,3.885,8.678,8.678v164.881c0.016,14.372,11.662,26.018,26.034,26.034h104.136
		c14.372-0.016,26.018-11.662,26.034-26.034V225.627c0-4.793,3.885-8.678,8.678-8.678s8.678,3.885,8.678,8.678v138.847
		C351.43,388.426,332.02,407.836,308.068,407.864z"/>
	<rect x="290.712" style="fill:#D1D4D1;" width="190.915" height="225.627"/>
	<path style="fill:#A5A5A4;" d="M212.61,164.881V69.424h-8.678V8.678c0-4.793-3.885-8.678-8.678-8.678H39.051
		c-4.793,0-8.678,3.885-8.678,8.678v60.746h-8.678v95.458h-8.678c-4.793,0-8.678,3.885-8.678,8.678v17.356
		c0,4.793,3.885,8.678,8.678,8.678h208.271c4.793,0,8.678-3.885,8.678-8.678v-17.356c0-4.793-3.885-8.678-8.678-8.678H212.61z"/>
	<g>
		<path style="fill:#5E5F62;" d="M13.017,164.881h208.271c4.793,0,8.678,3.885,8.678,8.678v17.356c0,4.793-3.885,8.678-8.678,8.678
			H13.017c-4.793,0-8.678-3.885-8.678-8.678v-17.356C4.339,168.767,8.224,164.881,13.017,164.881z"/>
		<path style="fill:#5E5F62;" d="M39.051,0h156.203c4.793,0,8.678,3.885,8.678,8.678v60.746H30.373V8.678
			C30.373,3.885,34.258,0,39.051,0z"/>
	</g>
	<path style="fill:#E6E7E8;" d="M446.915,78.102v147.525h-17.356V78.102c0-4.793,3.885-8.678,8.678-8.678
		C443.03,69.424,446.915,73.309,446.915,78.102z"/>
	<path style="fill:#BDC3C7;" d="M282.034,60.746h208.271c9.585,0,17.356,7.771,17.356,17.356l0,0
		c0,9.585-7.771,17.356-17.356,17.356H282.034c-9.585,0-17.356-7.771-17.356-17.356l0,0
		C264.678,68.516,272.448,60.746,282.034,60.746z"/>
</g>
<g>
</g>
<g>
</g>
<g>
</g>
<g>
</g>
<g>
</g>
<g>
</g>
<g>
</g>
<g>
</g>
<g>
</g>
<g>
</g>
<g>
</g>
<g>
</g>
<g>
</g>
<g>
</g>
<g>
</g>
</svg>
