<?xml version="1.0" encoding="iso-8859-1"?>
<!-- Generator: Adobe Illustrator 19.0.0, SVG Export Plug-In . SVG Version: 6.00 Build 0)  -->
<svg version="1.1" id="Capa_1" xmlns="http://www.w3.org/2000/svg" xmlns:xlink="http://www.w3.org/1999/xlink" x="0px" y="0px"
	 viewBox="0 0 512 512" style="enable-background:new 0 0 512 512;" xml:space="preserve">
<g>
	<g>
		<path style="fill:#B19046;" d="M455.593,26.034v104.136H316.746V34.712c0.014-4.787,3.891-8.664,8.678-8.678H455.593z"/>
		<path style="fill:#B19046;" d="M282.034,34.712v95.458H56.407V26.034h216.949C278.143,26.048,282.02,29.925,282.034,34.712z"/>
	</g>
	<g>
		<path style="fill:#E4C05C;" d="M360.136,121.492c-2.302,0.001-4.51-0.913-6.138-2.54c-1.628-1.628-2.542-3.836-2.54-6.138V60.746
			c0-4.793,3.885-8.678,8.678-8.678s8.678,3.885,8.678,8.678v52.068c0.001,2.302-0.913,4.51-2.54,6.138
			C364.646,120.579,362.438,121.493,360.136,121.492z"/>
		<path style="fill:#E4C05C;" d="M394.847,121.492c-2.302,0.001-4.51-0.913-6.138-2.54c-1.628-1.628-2.542-3.836-2.54-6.138V60.746
			c0-4.793,3.885-8.678,8.678-8.678c4.793,0,8.678,3.885,8.678,8.678v52.068c0.001,2.302-0.913,4.51-2.54,6.138
			C399.357,120.579,397.149,121.493,394.847,121.492z"/>
		<path style="fill:#E4C05C;" d="M212.61,121.492c-2.302,0.001-4.51-0.913-6.138-2.54c-1.628-1.628-2.542-3.836-2.54-6.138V60.746
			c0-4.793,3.885-8.678,8.678-8.678s8.678,3.885,8.678,8.678v52.068c0.001,2.302-0.913,4.51-2.54,6.138
			C217.12,120.579,214.912,121.493,212.61,121.492z"/>
		<path style="fill:#E4C05C;" d="M177.898,121.492c-2.302,0.001-4.51-0.913-6.138-2.54c-1.628-1.628-2.542-3.836-2.54-6.138V60.746
			c0-4.793,3.885-8.678,8.678-8.678c4.793,0,8.678,3.885,8.678,8.678v52.068c0.001,2.302-0.913,4.51-2.54,6.138
			C182.408,120.579,180.2,121.493,177.898,121.492z"/>
		<path style="fill:#E4C05C;" d="M143.186,121.492c-2.302,0.001-4.51-0.913-6.138-2.54c-1.628-1.628-2.542-3.836-2.54-6.138V60.746
			c0-4.793,3.885-8.678,8.678-8.678c4.793,0,8.678,3.885,8.678,8.678v52.068c0.001,2.302-0.913,4.51-2.54,6.138
			C147.696,120.579,145.488,121.493,143.186,121.492z"/>
		<path style="fill:#E4C05C;" d="M108.475,121.492c-2.302,0.001-4.51-0.913-6.138-2.54c-1.628-1.628-2.542-3.836-2.54-6.138V60.746
			c0-4.793,3.885-8.678,8.678-8.678c4.793,0,8.678,3.885,8.678,8.678v52.068c0.001,2.302-0.913,4.51-2.54,6.138
			C112.985,120.579,110.777,121.493,108.475,121.492z"/>
		<path style="fill:#E4C05C;" d="M247.322,121.492c-2.302,0.001-4.51-0.913-6.138-2.54c-1.628-1.628-2.542-3.836-2.54-6.138V60.746
			c0-4.793,3.885-8.678,8.678-8.678S256,55.953,256,60.746v52.068c0.001,2.302-0.913,4.51-2.54,6.138
			C251.832,120.579,249.624,121.493,247.322,121.492z"/>
	</g>
	<g>
		<path style="fill:#A5A5A4;" d="M73.763,8.678v121.492H21.695V8.678C21.709,3.891,25.586,0.014,30.373,0h34.712
			C69.872,0.014,73.749,3.891,73.763,8.678z"/>
		<path style="fill:#A5A5A4;" d="M490.305,8.678v121.492h-52.068V8.678c0.014-4.787,3.891-8.664,8.678-8.678h34.712
			C486.414,0.014,490.291,3.891,490.305,8.678z"/>
	</g>
	<path style="fill:#CC4B4C;" d="M117.153,269.017h121.492v225.627c0,4.793-3.885,8.678-8.678,8.678H125.831
		c-4.793,0-8.678-3.885-8.678-8.678V269.017z"/>
	<path style="fill:#F0C419;" d="M290.712,512c-2.302,0.001-4.51-0.913-6.138-2.54c-1.628-1.628-2.542-3.836-2.54-6.138V286.373
		c0-4.793,3.885-8.678,8.678-8.678c4.793,0,8.678,3.885,8.678,8.678v216.949c0.001,2.302-0.913,4.51-2.54,6.138
		C295.222,511.087,293.014,512.001,290.712,512z"/>
	<path style="fill:#CC4B4C;" d="M342.78,512c-2.302,0.001-4.51-0.913-6.138-2.54c-1.628-1.628-2.542-3.836-2.54-6.138V286.373
		c0-4.793,3.885-8.678,8.678-8.678s8.678,3.885,8.678,8.678v216.949c0.001,2.302-0.913,4.51-2.54,6.138
		C347.29,511.087,345.082,512.001,342.78,512z"/>
	<path style="fill:#5E5F62;" d="M394.847,512c-2.302,0.001-4.51-0.913-6.138-2.54c-1.628-1.628-2.542-3.836-2.54-6.138V286.373
		c0-4.793,3.885-8.678,8.678-8.678c4.793,0,8.678,3.885,8.678,8.678v216.949c0.001,2.302-0.913,4.51-2.54,6.138
		C399.357,511.087,397.149,512.001,394.847,512z"/>
	<path style="fill:#802F34;" d="M39.051,234.305h433.898v43.39c0,4.793-3.885,8.678-8.678,8.678H47.729
		c-4.793,0-8.678-3.885-8.678-8.678V234.305z"/>
	<path style="fill:#5E5F62;" d="M498.983,112.814H13.017c-4.787,0.014-8.664,3.891-8.678,8.678v121.492
		c0.014,4.787,3.891,8.664,8.678,8.678h485.966c4.787-0.014,8.664-3.891,8.678-8.678V121.492
		C507.647,116.705,503.77,112.827,498.983,112.814z"/>
	<g>
		<rect x="160.542" y="112.814" style="fill:#A5A5A4;" width="190.915" height="69.424"/>
		<path style="fill:#A5A5A4;" d="M507.661,216.949v26.034c-0.014,4.787-3.891,8.664-8.678,8.678H13.017
			c-4.787-0.014-8.664-3.891-8.678-8.678v-26.034H507.661z"/>
	</g>
</g>
<g>
</g>
<g>
</g>
<g>
</g>
<g>
</g>
<g>
</g>
<g>
</g>
<g>
</g>
<g>
</g>
<g>
</g>
<g>
</g>
<g>
</g>
<g>
</g>
<g>
</g>
<g>
</g>
<g>
</g>
</svg>
