<?xml version="1.0" encoding="iso-8859-1"?>
<!-- Generator: Adobe Illustrator 19.0.0, SVG Export Plug-In . SVG Version: 6.00 Build 0)  -->
<svg version="1.1" id="Capa_1" xmlns="http://www.w3.org/2000/svg" xmlns:xlink="http://www.w3.org/1999/xlink" x="0px" y="0px"
	 viewBox="0 0 512 512" style="enable-background:new 0 0 512 512;" xml:space="preserve">
<g>
	<path style="fill:#4482C3;" d="M388.414,148.568v29.484c-0.005,1.945,0.766,3.811,2.141,5.186c1.375,1.375,3.241,2.146,5.186,2.141
		h19.156V373.76c0.01,3.889-1.531,7.622-4.281,10.372c-2.75,2.75-6.483,4.291-10.372,4.281h-38.312v-17.655H167.724v17.655h-55.967
		c-3.889,0.01-7.622-1.531-10.372-4.281c-2.75-2.75-4.291-6.483-4.281-10.372V185.468h19.156c1.945,0.005,3.811-0.766,5.186-2.141
		c1.375-1.375,2.145-3.242,2.141-5.187V77.948c0.005-1.945-0.766-3.811-2.141-5.186c-1.375-1.375-3.241-2.146-5.186-2.141H97.103
		V14.653c-0.009-3.889,1.531-7.622,4.282-10.372S107.868-0.01,111.757,0h244.966l58.174,58.439v82.803h-19.156
		c-1.945-0.005-3.811,0.766-5.186,2.141C389.18,144.757,388.409,146.624,388.414,148.568z"/>
	<path style="fill:#285680;" d="M308.966,370.759h52.966v-35.31c-0.029-9.739-7.916-17.627-17.655-17.655H185.379
		c-9.739,0.029-17.627,7.916-17.655,17.655v35.31H308.966z"/>
	<path style="fill:#35495E;" d="M326.621,512H220.69c-4.875,0-8.828-3.952-8.828-8.828V361.931c0-4.875,3.952-8.828,8.828-8.828
		h70.621c4.875,0,8.828,3.952,8.828,8.828v35.31l35.31,8.828v26.483h-17.655v26.483l17.655,17.655v26.483
		C335.448,508.048,331.496,512,326.621,512z"/>
	<path style="fill:#3B97D3;" d="M176.552,52.966h158.897c9.751,0,17.655,7.904,17.655,17.655v194.207
		c0,9.751-7.904,17.655-17.655,17.655H176.552c-9.751,0-17.655-7.904-17.655-17.655V70.621
		C158.897,60.87,166.801,52.966,176.552,52.966z"/>
	<g>
		<path style="fill:#ECF0F1;" d="M264.828,97.103h-70.621c-4.875,0-8.828-3.952-8.828-8.828c0-4.875,3.952-8.828,8.828-8.828h70.621
			c4.875,0,8.828,3.952,8.828,8.828C273.655,93.151,269.703,97.103,264.828,97.103z"/>
		<path style="fill:#ECF0F1;" d="M317.793,97.103h-17.655c-4.875,0-8.828-3.952-8.828-8.828c0-4.875,3.952-8.828,8.828-8.828h17.655
			c4.875,0,8.828,3.952,8.828,8.828C326.621,93.151,322.668,97.103,317.793,97.103z"/>
		<path style="fill:#ECF0F1;" d="M317.793,132.414h-79.448c-4.875,0-8.828-3.952-8.828-8.828c0-4.875,3.952-8.828,8.828-8.828
			h79.448c4.875,0,8.828,3.952,8.828,8.828C326.621,128.462,322.668,132.414,317.793,132.414z"/>
		<path style="fill:#ECF0F1;" d="M203.035,132.414h-8.828c-4.875,0-8.828-3.952-8.828-8.828c0-4.875,3.952-8.828,8.828-8.828h8.828
			c4.875,0,8.828,3.952,8.828,8.828C211.862,128.462,207.91,132.414,203.035,132.414z"/>
	</g>
</g>
<g>
</g>
<g>
</g>
<g>
</g>
<g>
</g>
<g>
</g>
<g>
</g>
<g>
</g>
<g>
</g>
<g>
</g>
<g>
</g>
<g>
</g>
<g>
</g>
<g>
</g>
<g>
</g>
<g>
</g>
</svg>
