<?xml version="1.0" encoding="iso-8859-1"?>
<!-- Generator: Adobe Illustrator 19.0.0, SVG Export Plug-In . SVG Version: 6.00 Build 0)  -->
<svg version="1.1" id="Capa_1" xmlns="http://www.w3.org/2000/svg" xmlns:xlink="http://www.w3.org/1999/xlink" x="0px" y="0px"
	 viewBox="0 0 512 512" style="enable-background:new 0 0 512 512;" xml:space="preserve">
<g>
	<path style="fill:#35495E;" d="M512,126.85v102.206c0,10.922-6.705,20.723-16.884,24.682l-43.296,16.837
		c-59.515,23.145-98.716,80.452-98.716,144.308v0.013C353.103,468.525,309.629,512,256,512s-97.103-43.475-97.103-97.103v-0.013
		c0-63.856-39.202-121.163-98.716-144.308l-43.296-16.837C6.705,249.78,0,239.978,0,229.056V126.851
		c0-12.163,8.587-22.635,20.514-25.017l0.017-0.003c62.612-13.613,121.351-41.161,171.852-80.597
		c37.687-28.31,89.547-28.31,127.233,0c50.501,39.436,109.24,66.984,171.852,80.597l0.017,0.003
		C503.413,104.216,512,114.687,512,126.85z"/>
	<g>
		<path style="fill:#2C3E50;" d="M114.759,123.552v123.666c-0.004,3.18-1.722,6.11-4.495,7.665c-2.773,1.555-6.17,1.494-8.885-0.161
			c-9.056-5.377-18.548-9.984-28.374-13.774l-32.065-12.465c-3.394-1.319-5.629-4.587-5.629-8.228v-76.712
			c0.005-4.07,2.812-7.601,6.775-8.524c20.6-4.967,40.787-11.511,60.383-19.574c2.725-1.154,5.846-0.868,8.316,0.761
			C113.255,117.836,114.746,120.593,114.759,123.552z"/>
		<path style="fill:#2C3E50;" d="M397.241,123.552v123.666c0.004,3.18,1.722,6.11,4.495,7.665c2.773,1.555,6.17,1.494,8.885-0.161
			c9.056-5.377,18.548-9.984,28.374-13.774l32.065-12.465c3.394-1.319,5.629-4.587,5.629-8.228v-76.712
			c-0.005-4.07-2.812-7.601-6.775-8.524c-20.6-4.967-40.787-11.511-60.383-19.574c-2.725-1.154-5.846-0.868-8.316,0.761
			C398.745,117.836,397.254,120.593,397.241,123.552z"/>
	</g>
	<path style="fill:#BDC3C7;" d="M361.924,168.929c-0.182,19.265-5.64,38.112-15.782,54.493
		c-18.002,27.997-27.821,60.469-28.349,93.75v68.687c0.502,34.055-25.959,62.439-59.966,64.322
		c-16.702,0.506-32.895-5.778-44.884-17.417c-11.989-11.639-18.749-27.64-18.737-44.349v-70.116
		c-0.541-33.791-10.439-66.77-28.595-95.274c-20.392-33.377-20.742-75.273-0.911-108.986s56.62-53.762,95.701-52.155
		C317.374,64.782,362.045,111.883,361.924,168.929z"/>
	<circle style="fill:#4482C3;" cx="256" cy="167.724" r="70.621"/>
	<g>
		<path style="fill:#B0D3F0;" d="M221.811,167.724c-0.746,0.002-1.49-0.093-2.211-0.285c-2.267-0.584-4.208-2.045-5.397-4.061
			c-1.189-2.016-1.529-4.422-0.944-6.689c5.033-19.489,22.613-33.105,42.741-33.103c4.875,0,8.828,3.952,8.828,8.828
			s-3.952,8.828-8.828,8.828c-12.078-0.002-22.627,8.168-25.647,19.862C229.347,164.999,225.834,167.721,221.811,167.724z"/>
		<path style="fill:#B0D3F0;" d="M257.116,211.862c-4.875,0-8.828-3.952-8.828-8.828s3.952-8.828,8.828-8.828
			c12.078,0.002,22.627-8.168,25.647-19.862c1.219-4.721,6.034-7.559,10.754-6.34c4.721,1.219,7.559,6.034,6.341,10.754
			C294.825,198.248,277.245,211.864,257.116,211.862z"/>
	</g>
	<g>
		<path style="fill:#E6E7E8;" d="M282.483,388.414h-52.966c-4.875,0-8.828-3.952-8.828-8.828s3.952-8.828,8.828-8.828h52.966
			c4.875,0,8.828,3.952,8.828,8.828S287.358,388.414,282.483,388.414z"/>
		<path style="fill:#E6E7E8;" d="M264.828,423.724h-17.655c-4.875,0-8.828-3.952-8.828-8.828s3.952-8.828,8.828-8.828h17.655
			c4.875,0,8.828,3.952,8.828,8.828S269.703,423.724,264.828,423.724z"/>
	</g>
</g>
<g>
</g>
<g>
</g>
<g>
</g>
<g>
</g>
<g>
</g>
<g>
</g>
<g>
</g>
<g>
</g>
<g>
</g>
<g>
</g>
<g>
</g>
<g>
</g>
<g>
</g>
<g>
</g>
<g>
</g>
</svg>
