<?xml version="1.0" encoding="iso-8859-1"?>
<!-- Generator: Adobe Illustrator 19.0.0, SVG Export Plug-In . SVG Version: 6.00 Build 0)  -->
<svg version="1.1" id="Capa_1" xmlns="http://www.w3.org/2000/svg" xmlns:xlink="http://www.w3.org/1999/xlink" x="0px" y="0px"
	 viewBox="0 0 512 512" style="enable-background:new 0 0 512 512;" xml:space="preserve">
<g>
	<path style="fill:#4482C3;" d="M512,300.138v141.241C512,480.382,480.382,512,441.379,512s-70.621-31.618-70.621-70.621V300.138
		c-0.003-9.366,3.717-18.348,10.339-24.971c6.623-6.623,15.605-10.342,24.971-10.339h70.621c9.366-0.003,18.348,3.717,24.971,10.339
		S512.003,290.772,512,300.138z"/>
	<path style="fill:#2980BA;" d="M512,300.138v44.138h-70.621v-79.448h35.31c9.366-0.003,18.348,3.717,24.971,10.339
		S512.003,290.772,512,300.138z"/>
	<path style="fill:#3B97D3;" d="M441.379,264.828v79.448h-70.621v-44.138c-0.003-9.366,3.717-18.348,10.339-24.971
		c6.623-6.623,15.605-10.342,24.971-10.339H441.379z"/>
	<rect x="317.793" y="97.103" style="fill:#D1D4D1;" width="79.448" height="61.793"/>
	<path style="fill:#35495E;" d="M388.414,79.448h35.31c4.875,0,8.828,3.952,8.828,8.828v79.448c0,4.875-3.952,8.828-8.828,8.828
		h-35.31c-4.875,0-8.828-3.952-8.828-8.828V88.276C379.586,83.401,383.538,79.448,388.414,79.448z"/>
	<path style="fill:#95A5A5;" d="M335.448,0v467.862c-0.009,24.373-19.765,44.129-44.138,44.138H0V0H335.448z"/>
	<g>
		<path style="fill:#7F8C8D;" d="M282.483,0v176.552c0.003,9.366-3.717,18.348-10.339,24.971
			c-6.623,6.623-15.605,10.342-24.971,10.339H0V0H282.483z"/>
		<path style="fill:#7F8C8D;" d="M44.138,264.828v194.207c-0.029,9.739-7.916,17.627-17.655,17.655H0V247.172h26.483
			C36.222,247.201,44.109,255.089,44.138,264.828z"/>
	</g>
	<g>
		<path style="fill:#5E5F62;" d="M44.138,141.241h17.655c4.875,0,8.828,3.952,8.828,8.828v17.655c0,4.875-3.952,8.828-8.828,8.828
			H44.138c-4.875,0-8.828-3.952-8.828-8.828v-17.655C35.31,145.194,39.263,141.241,44.138,141.241z"/>
		<path style="fill:#5E5F62;" d="M44.138,70.621h17.655c4.875,0,8.828,3.952,8.828,8.828v17.655c0,4.875-3.952,8.828-8.828,8.828
			H44.138c-4.875,0-8.828-3.952-8.828-8.828V79.448C35.31,74.573,39.263,70.621,44.138,70.621z"/>
		<path style="fill:#5E5F62;" d="M35.31,0v26.483c-0.015,4.869-3.958,8.813-8.828,8.828H8.828C3.958,35.296,0.015,31.352,0,26.483V0
			H35.31z"/>
		<path style="fill:#5E5F62;" d="M70.621,0h35.31v26.483c0,4.875-3.952,8.828-8.828,8.828H79.448c-4.875,0-8.828-3.952-8.828-8.828
			V0z"/>
		<path style="fill:#5E5F62;" d="M141.241,0h35.31v26.483c0,4.875-3.952,8.828-8.828,8.828h-17.655
			c-4.875,0-8.828-3.952-8.828-8.828V0z"/>
		<path style="fill:#5E5F62;" d="M211.862,0h35.31v26.483c0,4.875-3.952,8.828-8.828,8.828H220.69c-4.875,0-8.828-3.952-8.828-8.828
			V0z"/>
		<path style="fill:#5E5F62;" d="M114.759,70.621h17.655c4.875,0,8.828,3.952,8.828,8.828v17.655c0,4.875-3.952,8.828-8.828,8.828
			h-17.655c-4.875,0-8.828-3.952-8.828-8.828V79.448C105.931,74.573,109.883,70.621,114.759,70.621z"/>
		<path style="fill:#5E5F62;" d="M185.379,70.621h52.966c4.875,0,8.828,3.952,8.828,8.828v17.655c0,4.875-3.952,8.828-8.828,8.828
			h-52.966c-4.875,0-8.828-3.952-8.828-8.828V79.448C176.552,74.573,180.504,70.621,185.379,70.621z"/>
		<path style="fill:#5E5F62;" d="M114.759,141.241h123.586c4.875,0,8.828,3.952,8.828,8.828v17.655c0,4.875-3.952,8.828-8.828,8.828
			H114.759c-4.875,0-8.828-3.952-8.828-8.828v-17.655C105.931,145.194,109.883,141.241,114.759,141.241z"/>
	</g>
</g>
<g>
</g>
<g>
</g>
<g>
</g>
<g>
</g>
<g>
</g>
<g>
</g>
<g>
</g>
<g>
</g>
<g>
</g>
<g>
</g>
<g>
</g>
<g>
</g>
<g>
</g>
<g>
</g>
<g>
</g>
</svg>
