<?xml version="1.0" encoding="iso-8859-1"?>
<!-- Generator: Adobe Illustrator 19.0.0, SVG Export Plug-In . SVG Version: 6.00 Build 0)  -->
<svg version="1.1" id="Capa_1" xmlns="http://www.w3.org/2000/svg" xmlns:xlink="http://www.w3.org/1999/xlink" x="0px" y="0px"
	 viewBox="0 0 512 512" style="enable-background:new 0 0 512 512;" xml:space="preserve">
<g>
	<path style="fill:#7F8C8D;" d="M308.966,0h158.897c4.875,0,8.828,3.952,8.828,8.828v88.276H300.138V8.828
		C300.138,3.952,304.09,0,308.966,0z"/>
	<path style="fill:#BDC3C7;" d="M441.379,0v79.448H335.448V0h35.31v17.655c0,9.751,7.905,17.655,17.655,17.655
		s17.655-7.904,17.655-17.655V0H441.379z"/>
	<g>
		<path style="fill:#CC4B4C;" d="M70.621,264.828h105.931v238.345c0,4.875-3.952,8.828-8.828,8.828H79.448
			c-4.875,0-8.828-3.952-8.828-8.828V264.828z"/>
		<path style="fill:#CC4B4C;" d="M335.448,264.828h105.931v238.345c0,4.875-3.952,8.828-8.828,8.828h-88.276
			c-4.875,0-8.828-3.952-8.828-8.828V264.828z"/>
	</g>
	<g>
		<path style="fill:#802F34;" d="M52.966,273.655h141.241v44.138c0,4.875-3.952,8.828-8.828,8.828H61.793
			c-4.875,0-8.828-3.952-8.828-8.828V273.655z"/>
		<path style="fill:#802F34;" d="M317.793,273.655h141.241v44.138c0,4.875-3.952,8.828-8.828,8.828H326.621
			c-4.875,0-8.828-3.952-8.828-8.828V273.655z"/>
	</g>
	<path style="fill:#7F8C8D;" d="M44.138,0h158.897c4.875,0,8.828,3.952,8.828,8.828v88.276H35.31V8.828
		C35.31,3.952,39.263,0,44.138,0z"/>
	<path style="fill:#5E5F62;" d="M26.483,79.448H220.69c4.875,0,8.828,3.952,8.828,8.828v194.207c0,4.875-3.952,8.828-8.828,8.828
		H26.483c-4.875,0-8.828-3.952-8.828-8.828V88.276C17.655,83.401,21.607,79.448,26.483,79.448z"/>
	<g>
		<rect x="52.966" y="79.448" style="fill:#A5A5A4;" width="141.241" height="105.931"/>
		<path style="fill:#A5A5A4;" d="M194.207,229.517H52.966c-4.875,0-8.828-3.952-8.828-8.828s3.952-8.828,8.828-8.828h141.241
			c4.875,0,8.828,3.952,8.828,8.828S199.082,229.517,194.207,229.517z"/>
		<path style="fill:#A5A5A4;" d="M194.207,264.828H52.966c-4.875,0-8.828-3.952-8.828-8.828s3.952-8.828,8.828-8.828h141.241
			c4.875,0,8.828,3.952,8.828,8.828S199.082,264.828,194.207,264.828z"/>
	</g>
	<path style="fill:#5E5F62;" d="M291.31,79.448h194.207c4.875,0,8.828,3.952,8.828,8.828v194.207c0,4.875-3.952,8.828-8.828,8.828
		H291.31c-4.875,0-8.828-3.952-8.828-8.828V88.276C282.483,83.401,286.435,79.448,291.31,79.448z"/>
	<g>
		<rect x="317.793" y="79.448" style="fill:#A5A5A4;" width="141.241" height="105.931"/>
		<path style="fill:#A5A5A4;" d="M459.034,229.517H317.793c-4.875,0-8.828-3.952-8.828-8.828s3.952-8.828,8.828-8.828h141.241
			c4.875,0,8.828,3.952,8.828,8.828S463.91,229.517,459.034,229.517z"/>
		<path style="fill:#A5A5A4;" d="M459.034,264.828H317.793c-4.875,0-8.828-3.952-8.828-8.828s3.952-8.828,8.828-8.828h141.241
			c4.875,0,8.828,3.952,8.828,8.828S463.91,264.828,459.034,264.828z"/>
	</g>
	<path style="fill:#BDC3C7;" d="M176.552,0v79.448H70.621V0h35.31v17.655c0,9.751,7.904,17.655,17.655,17.655
		s17.655-7.904,17.655-17.655V0H176.552z"/>
</g>
<g>
</g>
<g>
</g>
<g>
</g>
<g>
</g>
<g>
</g>
<g>
</g>
<g>
</g>
<g>
</g>
<g>
</g>
<g>
</g>
<g>
</g>
<g>
</g>
<g>
</g>
<g>
</g>
<g>
</g>
</svg>
