<?xml version="1.0" encoding="iso-8859-1"?>
<!-- Generator: Adobe Illustrator 19.0.0, SVG Export Plug-In . SVG Version: 6.00 Build 0)  -->
<svg version="1.1" id="Capa_1" xmlns="http://www.w3.org/2000/svg" xmlns:xlink="http://www.w3.org/1999/xlink" x="0px" y="0px"
	 viewBox="0 0 512 512" style="enable-background:new 0 0 512 512;" xml:space="preserve">
<g>
	<circle style="fill:#4482C3;" cx="256" cy="256" r="256"/>
	<circle style="fill:#BDC3C7;" cx="256" cy="256" r="220.69"/>
	<path style="fill:#5E5F62;" d="M441.379,256c0.064,34.316-9.509,67.961-27.63,97.103h-69.473v65.854
		c-55.054,29.897-121.498,29.897-176.552,0v-65.854H98.251C80.13,323.961,70.557,290.316,70.621,256
		c0.058-85.349,58.354-159.641,141.241-179.994v29.926h88.276V76.006C383.025,96.359,441.322,170.651,441.379,256z"/>
	<g>
		<circle style="fill:#2C2F38;" cx="220.69" cy="361.931" r="17.655"/>
		<circle style="fill:#2C2F38;" cx="176.552" cy="167.724" r="17.655"/>
		<circle style="fill:#2C2F38;" cx="150.069" cy="264.828" r="17.655"/>
		<circle style="fill:#2C2F38;" cx="335.448" cy="167.724" r="17.655"/>
		<circle style="fill:#2C2F38;" cx="361.931" cy="264.828" r="17.655"/>
		<circle style="fill:#2C2F38;" cx="291.31" cy="361.931" r="17.655"/>
		<path style="fill:#2C2F38;" d="M247.172,141.241h17.655c4.875,0,8.828,3.952,8.828,8.828v52.966c0,4.875-3.952,8.828-8.828,8.828
			h-17.655c-4.875,0-8.828-3.952-8.828-8.828v-52.966C238.345,145.194,242.297,141.241,247.172,141.241z"/>
	</g>
</g>
<g>
</g>
<g>
</g>
<g>
</g>
<g>
</g>
<g>
</g>
<g>
</g>
<g>
</g>
<g>
</g>
<g>
</g>
<g>
</g>
<g>
</g>
<g>
</g>
<g>
</g>
<g>
</g>
<g>
</g>
</svg>
