<?xml version="1.0" encoding="iso-8859-1"?>
<!-- Generator: Adobe Illustrator 19.0.0, SVG Export Plug-In . SVG Version: 6.00 Build 0)  -->
<svg version="1.1" id="Capa_1" xmlns="http://www.w3.org/2000/svg" xmlns:xlink="http://www.w3.org/1999/xlink" x="0px" y="0px"
	 viewBox="0 0 512 512" style="enable-background:new 0 0 512 512;" xml:space="preserve">
<g transform="translate(-1)">
	<rect x="252.634" y="397.241" style="fill:#A5A5A4;" width="88.276" height="114.759"/>
	<g>
		<path style="fill:#5E5F62;" d="M287.944,476.69c-0.014,4.87-3.958,8.814-8.828,8.828h-26.483v-17.655h26.483
			C283.986,467.876,287.93,471.82,287.944,476.69z"/>
		<path style="fill:#5E5F62;" d="M340.91,467.862v17.655h-26.483c-4.875,0-8.828-3.952-8.828-8.828s3.952-8.828,8.828-8.828H340.91z
			"/>
	</g>
	<rect x="173.185" y="256" style="fill:#95A5A5;" width="70.621" height="35.31"/>
	<path style="fill:#BDC3C7;" d="M182.013,0h-18.185c-4.767,0.014-8.668,3.798-8.828,8.563l-0.706,26.748l-7.68,291.046
		c-0.094,2.393,0.797,4.72,2.465,6.438c1.668,1.718,3.968,2.678,6.362,2.654h26.571c4.87-0.014,8.814-3.958,8.828-8.828V8.828
		C190.827,3.958,186.883,0.014,182.013,0z"/>
	<g>
		<path style="fill:#E64C3C;" d="M190.841,8.828V35.31h-36.546l0.706-26.748c0.16-4.764,4.061-8.548,8.828-8.563h18.185
			C186.883,0.014,190.827,3.958,190.841,8.828z"/>
		<path style="fill:#E64C3C;" d="M270.289,79.448h52.966c24.377,0,44.138,19.761,44.138,44.138v291.31
			c0,4.875-3.952,8.828-8.828,8.828H234.979c-4.875,0-8.828-3.952-8.828-8.828v-291.31
			C226.151,99.209,245.912,79.448,270.289,79.448z"/>
	</g>
	<path style="fill:#E6E7E8;" d="M332.082,317.793v35.31c-0.014,4.87-3.958,8.814-8.828,8.828h-52.966
		c-4.87-0.014-8.814-3.958-8.828-8.828v-35.31H332.082z"/>
	<path style="fill:#A5A5A4;" d="M332.082,220.69v97.103h-70.621V220.69c0.014-4.87,3.958-8.814,8.828-8.828h52.966
		C328.124,211.876,332.068,215.82,332.082,220.69z"/>
</g>
<g>
</g>
<g>
</g>
<g>
</g>
<g>
</g>
<g>
</g>
<g>
</g>
<g>
</g>
<g>
</g>
<g>
</g>
<g>
</g>
<g>
</g>
<g>
</g>
<g>
</g>
<g>
</g>
<g>
</g>
</svg>
