<?xml version="1.0" encoding="iso-8859-1"?>
<!-- Generator: Adobe Illustrator 19.0.0, SVG Export Plug-In . SVG Version: 6.00 Build 0)  -->
<svg version="1.1" id="Capa_1" xmlns="http://www.w3.org/2000/svg" xmlns:xlink="http://www.w3.org/1999/xlink" x="0px" y="0px"
	 viewBox="0 0 512 512" style="enable-background:new 0 0 512 512;" xml:space="preserve">
<g>
	<path style="fill:#BDC3C7;" d="M220.69,233.931c0-19.501,15.809-35.31,35.31-35.31s35.31,15.809,35.31,35.31H220.69z"/>
	<path style="fill:#95A5A5;" d="M26.483,225.103h459.034c14.626,0,26.483,11.857,26.483,26.483v194.207
		c0,14.626-11.857,26.483-26.483,26.483H26.483C11.857,472.276,0,460.419,0,445.793V251.586C0,236.96,11.857,225.103,26.483,225.103
		z"/>
	<g>
		<path style="fill:#4482C3;" d="M70.621,260.414h17.655c4.875,0,8.828,3.952,8.828,8.828v17.655c0,4.875-3.952,8.828-8.828,8.828
			H70.621c-4.875,0-8.828-3.952-8.828-8.828v-17.655C61.793,264.366,65.745,260.414,70.621,260.414z"/>
		<path style="fill:#4482C3;" d="M141.241,260.414h17.655c4.875,0,8.828,3.952,8.828,8.828v17.655c0,4.875-3.952,8.828-8.828,8.828
			h-17.655c-4.875,0-8.828-3.952-8.828-8.828v-17.655C132.414,264.366,136.366,260.414,141.241,260.414z"/>
		<path style="fill:#4482C3;" d="M211.862,260.414h17.655c4.875,0,8.828,3.952,8.828,8.828v17.655c0,4.875-3.952,8.828-8.828,8.828
			h-17.655c-4.875,0-8.828-3.952-8.828-8.828v-17.655C203.034,264.366,206.987,260.414,211.862,260.414z"/>
		<path style="fill:#4482C3;" d="M282.483,260.414h17.655c4.875,0,8.828,3.952,8.828,8.828v17.655c0,4.875-3.952,8.828-8.828,8.828
			h-17.655c-4.875,0-8.828-3.952-8.828-8.828v-17.655C273.655,264.366,277.607,260.414,282.483,260.414z"/>
		<path style="fill:#4482C3;" d="M353.103,260.414h17.655c4.875,0,8.828,3.952,8.828,8.828v17.655c0,4.875-3.952,8.828-8.828,8.828
			h-17.655c-4.875,0-8.828-3.952-8.828-8.828v-17.655C344.276,264.366,348.228,260.414,353.103,260.414z"/>
		<path style="fill:#4482C3;" d="M423.724,260.414h17.655c4.875,0,8.828,3.952,8.828,8.828v17.655c0,4.875-3.952,8.828-8.828,8.828
			h-17.655c-4.875,0-8.828-3.952-8.828-8.828v-17.655C414.897,264.366,418.849,260.414,423.724,260.414z"/>
		<path style="fill:#4482C3;" d="M70.621,401.655h17.655c4.875,0,8.828,3.952,8.828,8.828v17.655c0,4.875-3.952,8.828-8.828,8.828
			H70.621c-4.875,0-8.828-3.952-8.828-8.828v-17.655C61.793,405.607,65.745,401.655,70.621,401.655z"/>
		<path style="fill:#4482C3;" d="M141.241,401.655h229.517c4.875,0,8.828,3.952,8.828,8.828v17.655c0,4.875-3.952,8.828-8.828,8.828
			H141.241c-4.875,0-8.828-3.952-8.828-8.828v-17.655C132.414,405.607,136.366,401.655,141.241,401.655z"/>
		<path style="fill:#4482C3;" d="M423.724,401.655h17.655c4.875,0,8.828,3.952,8.828,8.828v17.655c0,4.875-3.952,8.828-8.828,8.828
			h-17.655c-4.875,0-8.828-3.952-8.828-8.828v-17.655C414.897,405.607,418.849,401.655,423.724,401.655z"/>
		<path style="fill:#4482C3;" d="M105.931,331.034h17.655c4.875,0,8.828,3.952,8.828,8.828v17.655c0,4.875-3.952,8.828-8.828,8.828
			h-17.655c-4.875,0-8.828-3.952-8.828-8.828v-17.655C97.103,334.987,101.056,331.034,105.931,331.034z"/>
		<path style="fill:#4482C3;" d="M176.552,331.034h17.655c4.875,0,8.828,3.952,8.828,8.828v17.655c0,4.875-3.952,8.828-8.828,8.828
			h-17.655c-4.875,0-8.828-3.952-8.828-8.828v-17.655C167.724,334.987,171.676,331.034,176.552,331.034z"/>
		<path style="fill:#4482C3;" d="M247.172,331.034h17.655c4.875,0,8.828,3.952,8.828,8.828v17.655c0,4.875-3.952,8.828-8.828,8.828
			h-17.655c-4.875,0-8.828-3.952-8.828-8.828v-17.655C238.345,334.987,242.297,331.034,247.172,331.034z"/>
		<path style="fill:#4482C3;" d="M317.793,331.034h17.655c4.875,0,8.828,3.952,8.828,8.828v17.655c0,4.875-3.952,8.828-8.828,8.828
			h-17.655c-4.875,0-8.828-3.952-8.828-8.828v-17.655C308.966,334.987,312.918,331.034,317.793,331.034z"/>
		<path style="fill:#4482C3;" d="M388.414,331.034h17.655c4.875,0,8.828,3.952,8.828,8.828v17.655c0,4.875-3.952,8.828-8.828,8.828
			h-17.655c-4.875,0-8.828-3.952-8.828-8.828v-17.655C379.586,334.987,383.538,331.034,388.414,331.034z"/>
		<path style="fill:#4482C3;" d="M344.302,82.164c-1.622,0.002-3.212-0.446-4.595-1.293c-51.41-31.322-116.004-31.322-167.414,0
			c-4.16,2.519-9.573,1.201-12.108-2.949c-2.535-4.15-1.238-9.568,2.901-12.12c57.063-34.77,128.764-34.77,185.828,0
			c3.377,2.063,4.969,6.12,3.895,9.929C351.735,79.54,348.259,82.169,344.302,82.164L344.302,82.164z"/>
	</g>
	<path id="SVGCleanerId_0" style="fill:#4482C3;" d="M288.043,133.698c-1.032,0-2.056-0.181-3.026-0.535
		c-18.748-6.793-39.286-6.793-58.034,0c-2.963,1.081-6.277,0.499-8.695-1.526s-3.571-5.187-3.026-8.293s2.706-5.686,5.669-6.767
		c22.659-8.207,47.479-8.207,70.138,0c4.024,1.468,6.413,5.612,5.668,9.83C295.992,130.625,292.326,133.699,288.043,133.698z"/>
	<g>
		<path id="SVGCleanerId_0_1_" style="fill:#4482C3;" d="M288.043,133.698c-1.032,0-2.056-0.181-3.026-0.535
			c-18.748-6.793-39.286-6.793-58.034,0c-2.963,1.081-6.277,0.499-8.695-1.526s-3.571-5.187-3.026-8.293s2.706-5.686,5.669-6.767
			c22.659-8.207,47.479-8.207,70.138,0c4.024,1.468,6.413,5.612,5.668,9.83C295.992,130.625,292.326,133.699,288.043,133.698z"/>
	</g>
	<g>
		<path style="fill:#4482C3;" d="M316.595,107.5c-1.411-0.001-2.8-0.341-4.052-0.991c-35.472-18.31-77.614-18.31-113.086,0
			c-4.328,2.242-9.654,0.552-11.897-3.776s-0.552-9.654,3.776-11.897c40.541-21.046,88.787-21.046,129.328,0
			c3.614,1.873,5.479,5.976,4.513,9.931C324.211,104.721,320.666,107.503,316.595,107.5L316.595,107.5z"/>
		<path style="fill:#4482C3;" d="M256,163.31c-1.153-0.014-2.293-0.254-3.353-0.707c-1.07-0.447-2.056-1.074-2.914-1.854
			c-0.778-0.859-1.405-1.845-1.854-2.914c-0.497-1.046-0.739-2.195-0.707-3.353c0.014-1.153,0.254-2.293,0.707-3.353
			c0.447-1.07,1.074-2.056,1.854-2.914c3.506-3.267,8.942-3.267,12.448,0c2.501,2.526,3.25,6.303,1.903,9.592
			C262.737,161.097,259.554,163.264,256,163.31z"/>
	</g>
</g>
<g>
</g>
<g>
</g>
<g>
</g>
<g>
</g>
<g>
</g>
<g>
</g>
<g>
</g>
<g>
</g>
<g>
</g>
<g>
</g>
<g>
</g>
<g>
</g>
<g>
</g>
<g>
</g>
<g>
</g>
</svg>
