<?xml version="1.0" encoding="iso-8859-1"?>
<!-- Generator: Adobe Illustrator 19.0.0, SVG Export Plug-In . SVG Version: 6.00 Build 0)  -->
<svg version="1.1" id="Capa_1" xmlns="http://www.w3.org/2000/svg" xmlns:xlink="http://www.w3.org/1999/xlink" x="0px" y="0px"
	 viewBox="0 0 512.026 512.026" style="enable-background:new 0 0 512.026 512.026;" xml:space="preserve">
<g transform="translate(-1)">
	<path style="fill:#7F8C8D;" d="M398.819,187.882l-36.795-36.795l-36.881-36.881c-13.001-13.041-30.659-20.371-49.074-20.371
		s-36.072,7.33-49.074,20.371l-73.763,73.676L36.601,304.514C13.807,327.295,1,358.2,1,390.426s12.807,63.131,35.601,85.912
		l0.087,0.086c22.78,22.795,53.685,35.602,85.912,35.602s63.132-12.807,85.912-35.602l116.632-116.631l73.676-73.763
		c13.041-13.001,20.371-30.659,20.371-49.074S411.861,200.883,398.819,187.882z"/>
	<path style="fill:#95A5A5;" d="M398.819,286.03l-73.676,73.763l-85.912-85.911v-0.087l79.75-79.751l43.043-42.957l36.795,36.795
		c13.041,13.001,20.371,30.659,20.371,49.074S411.861,273.029,398.819,286.03z"/>
	<path style="fill:#BDC3C7;" d="M362.025,151.087l-43.043,42.957l-79.75,79.751v0.087l-85.999-86l73.763-73.676
		c13.001-13.041,30.659-20.371,49.074-20.371s36.072,7.33,49.074,20.371L362.025,151.087z"/>
	<path style="fill:#ECF0F1;" d="M306.746,230.838l-18.397,18.397c-3.41,3.385-8.912,3.385-12.323,0l-12.236-12.235
		c-3.384-3.41-3.384-8.912,0-12.323l18.397-18.397L306.746,230.838z"/>
	<path style="fill:#FFFFFF;" d="M325.143,212.441l-18.397,18.397l-24.559-24.559l18.397-18.398c3.411-3.384,8.912-3.384,12.323,0
		l12.236,12.237C328.528,203.529,328.528,209.031,325.143,212.441z"/>
	<path style="fill:#4482C3;" d="M504.335,140.132c-4.007-0.004-7.491-2.749-8.432-6.644
		c-13.951-57.51-58.854-102.413-116.364-116.364c-4.657-1.127-7.52-5.814-6.398-10.472c1.122-4.658,5.806-7.526,10.466-6.409
		c63.841,15.491,113.687,65.337,129.178,129.178c1.119,4.661-1.747,9.348-6.407,10.474
		C505.708,140.052,505.023,140.132,504.335,140.132z"/>
	<path id="SVGCleanerId_0" style="fill:#4482C3;" d="M427.225,139.038c-3.377,0.004-6.45-1.954-7.873-5.017
		c-8.291-17.771-22.576-32.056-40.347-40.347c-4.343-2.022-6.225-7.182-4.203-11.525c2.022-4.343,7.182-6.225,11.525-4.203
		c21.48,10.011,38.743,27.274,48.754,48.754c1.248,2.686,1.041,5.822-0.55,8.32C432.94,137.518,430.186,139.033,427.225,139.038
		L427.225,139.038z"/>
	<g>
		<path id="SVGCleanerId_0_1_" style="fill:#4482C3;" d="M427.225,139.038c-3.377,0.004-6.45-1.954-7.873-5.017
			c-8.291-17.771-22.576-32.056-40.347-40.347c-4.343-2.022-6.225-7.182-4.203-11.525c2.022-4.343,7.182-6.225,11.525-4.203
			c21.48,10.011,38.743,27.274,48.754,48.754c1.248,2.686,1.041,5.822-0.55,8.32C432.94,137.518,430.186,139.033,427.225,139.038
			L427.225,139.038z"/>
	</g>
	<g>
		<path style="fill:#4482C3;" d="M467.471,138.479c-3.781,0.002-7.128-2.446-8.271-6.051c-11.841-37.435-41.167-66.76-78.602-78.602
			c-2.955-0.939-5.185-3.382-5.849-6.411c-0.665-3.028,0.337-6.181,2.627-8.271s5.522-2.799,8.476-1.86
			c42.805,13.551,76.339,47.085,89.89,89.89c0.838,2.638,0.368,5.517-1.267,7.751C472.841,137.159,470.239,138.479,467.471,138.479z
			"/>
		<path style="fill:#4482C3;" d="M386.496,135.208c-1.134-0.014-2.254-0.25-3.297-0.695c-1.058-0.419-2.008-1.071-2.78-1.907
			c-1.637-1.602-2.572-3.786-2.602-6.076c0.025-2.316,0.96-4.529,2.602-6.161c0.352-0.441,0.797-0.797,1.305-1.042
			c0.459-0.342,0.954-0.635,1.475-0.873c0.534-0.194,1.084-0.338,1.644-0.432c2.833-0.567,5.762,0.313,7.814,2.347
			c0.831,0.809,1.481,1.786,1.907,2.864c0.814,2.122,0.814,4.471,0,6.593c-0.452,1.04-1.1,1.983-1.907,2.78
			C391.032,134.259,388.814,135.196,386.496,135.208z"/>
	</g>
</g>
<g>
</g>
<g>
</g>
<g>
</g>
<g>
</g>
<g>
</g>
<g>
</g>
<g>
</g>
<g>
</g>
<g>
</g>
<g>
</g>
<g>
</g>
<g>
</g>
<g>
</g>
<g>
</g>
<g>
</g>
</svg>
