<?xml version="1.0" encoding="iso-8859-1"?>
<!-- Generator: Adobe Illustrator 19.0.0, SVG Export Plug-In . SVG Version: 6.00 Build 0)  -->
<svg version="1.1" id="Capa_1" xmlns="http://www.w3.org/2000/svg" xmlns:xlink="http://www.w3.org/1999/xlink" x="0px" y="0px"
	 viewBox="0 0 512 512" style="enable-background:new 0 0 512 512;" xml:space="preserve">
<g>
	<path style="fill:#4482C3;" d="M498.302,185.379c2.719,0.041,4.895,2.27,4.87,4.99v104.78c0.024,2.719-2.151,4.948-4.87,4.99
		h-63.315c-1.361-0.017-2.451-1.133-2.435-2.495v-12.666c0.016-1.361-1.074-2.478-2.435-2.495h-39.267
		c-1.361,0.017-2.451,1.133-2.435,2.495v15.16h-30.44c-2.719-0.041-4.895-2.27-4.87-4.99v-89.811l26.483-19.958H498.302z"/>
	<rect x="326.621" y="79.448" style="fill:#D1D4D1;" width="105.931" height="52.966"/>
	<path style="fill:#95A5A5;" d="M344.276,0H0v388.414h61.793C62.929,428.25,37.819,464.122,0,476.69V512h238.345
		c9.721-0.071,17.584-7.934,17.655-17.655c-0.028-9.739-7.916-17.627-17.655-17.655h-26.483
		c-37.819-12.568-62.929-48.439-61.793-88.276h194.207c9.739-0.029,17.627-7.916,17.655-17.655V17.655
		C361.903,7.916,354.015,0.028,344.276,0z"/>
	<path style="fill:#90BAE1;" d="M361.931,17.655v308.966H0V0h344.276C354.015,0.028,361.903,7.916,361.931,17.655z"/>
	<g>
		<path style="fill:#B0D3F0;" d="M326.621,97.103c-2.342,0.003-4.588-0.928-6.241-2.586l-26.483-26.483
			c-3.394-3.456-3.369-9.001,0.056-12.426c3.425-3.425,8.97-3.45,12.426-0.056l26.483,26.483c2.524,2.525,3.279,6.321,1.913,9.619
			S330.191,97.103,326.621,97.103z"/>
		<path style="fill:#B0D3F0;" d="M273.655,44.138c-1.153-0.014-2.293-0.254-3.353-0.707c-1.07-0.446-2.056-1.073-2.914-1.853
			c-1.661-1.66-2.584-3.919-2.56-6.268c-0.032-1.158,0.21-2.307,0.707-3.353c0.446-1.07,1.073-2.056,1.853-2.914
			c0.418-0.379,0.859-0.733,1.319-1.06c0.493-0.336,1.03-0.603,1.595-0.793c0.5-0.255,1.034-0.435,1.586-0.535
			c1.132-0.259,2.308-0.259,3.44,0c0.586,0.086,1.153,0.267,1.681,0.535c0.543,0.174,1.051,0.442,1.5,0.793
			c0.507,0.304,0.98,0.66,1.415,1.06c0.78,0.858,1.407,1.844,1.854,2.914c1.409,3.284,0.675,7.096-1.854,9.621
			c-0.859,0.778-1.845,1.405-2.914,1.854C275.948,43.884,274.809,44.124,273.655,44.138z"/>
		<path style="fill:#B0D3F0;" d="M317.793,141.241c-2.342,0.003-4.588-0.928-6.241-2.586l-97.103-97.103
			c-3.394-3.456-3.369-9.001,0.056-12.426c3.425-3.425,8.97-3.45,12.426-0.056l97.103,97.103c2.524,2.525,3.279,6.321,1.913,9.619
			C324.581,139.09,321.363,141.241,317.793,141.241z"/>
	</g>
	<path style="fill:#7F8C8D;" d="M0,476.69c37.819-12.568,62.929-48.439,61.793-88.276h88.276
		c-1.136,39.836,23.974,75.708,61.793,88.276H0z"/>
	<path style="fill:#CC4B4C;" d="M397.241,70.621h79.448c19.501,0,35.31,15.809,35.31,35.31s-15.809,35.31-35.31,35.31h-79.448
		V70.621z"/>
</g>
<g>
</g>
<g>
</g>
<g>
</g>
<g>
</g>
<g>
</g>
<g>
</g>
<g>
</g>
<g>
</g>
<g>
</g>
<g>
</g>
<g>
</g>
<g>
</g>
<g>
</g>
<g>
</g>
<g>
</g>
</svg>
