<?xml version="1.0" encoding="iso-8859-1"?>
<!-- Generator: Adobe Illustrator 19.0.0, SVG Export Plug-In . SVG Version: 6.00 Build 0)  -->
<svg version="1.1" id="Capa_1" xmlns="http://www.w3.org/2000/svg" xmlns:xlink="http://www.w3.org/1999/xlink" x="0px" y="0px"
	 viewBox="0 0 512 512" style="enable-background:new 0 0 512 512;" xml:space="preserve">
<g>
	<g>
		<rect x="44.138" y="317.793" style="fill:#D1D4D1;" width="52.966" height="176.552"/>
		<rect x="414.897" y="317.793" style="fill:#D1D4D1;" width="52.966" height="176.552"/>
	</g>
	<path style="fill:#A5A5A4;" d="M503.172,0H8.828C3.958,0.014,0.014,3.958,0,8.828v317.793c0.014,4.869,3.958,8.813,8.828,8.828
		h494.345c4.869-0.014,8.813-3.958,8.828-8.828V8.828C511.986,3.958,508.042,0.014,503.172,0z"/>
	<path style="fill:#5E5F62;" d="M512,8.828V35.31H0V8.828C0.014,3.958,3.958,0.014,8.828,0h494.345
		C508.042,0.014,511.986,3.958,512,8.828z"/>
	<rect x="141.241" y="35.31" style="fill:#7F8C8D;" width="229.517" height="264.828"/>
	<path style="fill:#5E5F62;" d="M512,300.138v26.483c-0.014,4.869-3.958,8.813-8.828,8.828H8.828
		c-4.869-0.014-8.813-3.958-8.828-8.828v-26.483H512z"/>
	<g>
		<circle style="fill:#7F8C8D;" cx="88.276" cy="114.759" r="17.655"/>
		<path style="fill:#7F8C8D;" d="M35.31,105.931c-1.155-0.014-2.296-0.254-3.358-0.707c-1.068-0.447-2.053-1.074-2.91-1.853
			c-0.78-0.859-1.408-1.844-1.858-2.914c-0.937-2.137-0.937-4.569,0-6.707c0.427-1.081,1.058-2.071,1.858-2.915
			c0.857-0.779,1.841-1.406,2.909-1.854c2.149-0.888,4.562-0.888,6.711,0c2.217,0.804,3.963,2.55,4.767,4.767
			c0.943,2.136,0.943,4.571,0,6.707c-0.45,1.068-1.077,2.053-1.854,2.914c-0.859,0.779-1.844,1.406-2.914,1.854
			C37.602,105.676,36.463,105.917,35.31,105.931z"/>
		<path style="fill:#7F8C8D;" d="M35.31,141.241c-1.159,0.028-2.309-0.214-3.358-0.707c-1.068-0.447-2.053-1.074-2.91-1.853
			c-1.661-1.66-2.584-3.919-2.56-6.268c0.033-2.337,0.947-4.576,2.56-6.268c2.535-2.509,6.334-3.241,9.621-1.854
			c1.07,0.448,2.055,1.075,2.914,1.854c1.612,1.693,2.526,3.931,2.561,6.268c0.023,2.348-0.9,4.607-2.56,6.267
			C39.917,140.341,37.658,141.264,35.31,141.241z"/>
		<path style="fill:#7F8C8D;" d="M35.31,247.172c-2.341,0.001-4.587-0.929-6.243-2.585c-1.656-1.656-2.585-3.901-2.585-6.243
			v-70.621c0-4.875,3.952-8.828,8.828-8.828s8.828,3.952,8.828,8.828v70.621c0.001,2.341-0.929,4.587-2.585,6.243
			C39.897,246.243,37.652,247.173,35.31,247.172z"/>
		<path style="fill:#7F8C8D;" d="M105.931,176.552h-35.31c-4.875,0-8.828-3.952-8.828-8.828s3.952-8.828,8.828-8.828h35.31
			c4.875,0,8.828,3.952,8.828,8.828S110.806,176.552,105.931,176.552z"/>
		<path style="fill:#7F8C8D;" d="M105.931,211.862h-35.31c-4.875,0-8.828-3.952-8.828-8.828s3.952-8.828,8.828-8.828h35.31
			c4.875,0,8.828,3.952,8.828,8.828S110.806,211.862,105.931,211.862z"/>
		<path style="fill:#7F8C8D;" d="M105.931,247.172h-35.31c-4.875,0-8.828-3.952-8.828-8.828c0-4.875,3.952-8.828,8.828-8.828h35.31
			c4.875,0,8.828,3.952,8.828,8.828C114.759,243.22,110.806,247.172,105.931,247.172z"/>
		<circle style="fill:#7F8C8D;" cx="423.724" cy="114.759" r="17.655"/>
		<path style="fill:#7F8C8D;" d="M476.69,105.931c-1.153-0.014-2.293-0.254-3.353-0.707c-1.07-0.447-2.056-1.074-2.914-1.854
			c-1.661-1.66-2.584-3.919-2.56-6.267c0.031-2.338,0.945-4.577,2.56-6.268c0.844-0.799,1.833-1.428,2.914-1.854
			c2.147-0.888,4.559-0.888,6.707,0c1.069,0.449,2.054,1.075,2.914,1.854c0.799,0.844,1.428,1.833,1.854,2.914
			c1.409,3.284,0.675,7.096-1.853,9.621C481.273,104.995,479.029,105.911,476.69,105.931z"/>
		<path style="fill:#7F8C8D;" d="M476.69,141.241c-2.953,0.031-5.722-1.433-7.361-3.89c-1.638-2.457-1.924-5.576-0.76-8.291
			c0.426-1.081,1.055-2.07,1.854-2.914l1.319-1.06c0.493-0.336,1.03-0.603,1.595-0.793c0.5-0.255,1.034-0.435,1.586-0.535
			c1.721-0.36,3.511-0.173,5.121,0.535c1.08,0.428,2.069,1.057,2.914,1.854c1.611,1.693,2.525,3.93,2.56,6.267
			c0.02,2.348-0.902,4.605-2.56,6.268c-0.859,0.778-1.845,1.405-2.914,1.854C478.996,141.028,477.847,141.27,476.69,141.241z"/>
		<path style="fill:#7F8C8D;" d="M476.69,247.172c-2.342,0.001-4.588-0.928-6.244-2.584c-1.656-1.656-2.585-3.902-2.584-6.244
			v-70.621c0-4.875,3.952-8.828,8.828-8.828s8.828,3.952,8.828,8.828v70.621c0.001,2.342-0.928,4.588-2.584,6.244
			C481.277,246.244,479.031,247.174,476.69,247.172z"/>
		<path style="fill:#7F8C8D;" d="M441.379,176.552h-35.31c-4.875,0-8.828-3.952-8.828-8.828s3.952-8.828,8.828-8.828h35.31
			c4.875,0,8.828,3.952,8.828,8.828S446.255,176.552,441.379,176.552z"/>
		<path style="fill:#7F8C8D;" d="M441.379,211.862h-35.31c-4.875,0-8.828-3.952-8.828-8.828s3.952-8.828,8.828-8.828h35.31
			c4.875,0,8.828,3.952,8.828,8.828S446.255,211.862,441.379,211.862z"/>
		<path style="fill:#7F8C8D;" d="M441.379,247.172h-35.31c-4.875,0-8.828-3.952-8.828-8.828c0-4.875,3.952-8.828,8.828-8.828h35.31
			c4.875,0,8.828,3.952,8.828,8.828C450.207,243.22,446.255,247.172,441.379,247.172z"/>
	</g>
	<polygon style="fill:#90BAE1;" points="335.448,88.276 335.448,247.172 317.793,247.172 282.483,194.207 264.828,211.862 
		238.345,185.379 194.207,247.172 176.552,247.172 176.552,88.276 	"/>
	<polygon style="fill:#46B29D;" points="317.793,247.172 194.207,247.172 238.345,185.379 264.828,211.862 282.483,194.207 	"/>
	<circle style="fill:#F0C419;" cx="282.483" cy="141.241" r="17.655"/>
	<g>
		<path style="fill:#A5A5A4;" d="M114.759,423.724c0,9.71-3.972,17.655-8.828,17.655H35.31c-4.855,0-8.828-7.945-8.828-17.655
			c0-9.71,3.972-17.655,8.828-17.655h70.621C110.786,406.069,114.759,414.013,114.759,423.724z"/>
		<path style="fill:#A5A5A4;" d="M485.517,423.724c0,9.71-3.972,17.655-8.828,17.655h-70.621c-4.855,0-8.828-7.945-8.828-17.655
			c0-9.71,3.972-17.655,8.828-17.655h70.621C481.545,406.069,485.517,414.013,485.517,423.724z"/>
	</g>
	<path style="fill:#5E5F62;" d="M35.31,476.69H476.69c19.501,0,35.31,15.809,35.31,35.31H0C0,492.499,15.809,476.69,35.31,476.69z"
		/>
</g>
<g>
</g>
<g>
</g>
<g>
</g>
<g>
</g>
<g>
</g>
<g>
</g>
<g>
</g>
<g>
</g>
<g>
</g>
<g>
</g>
<g>
</g>
<g>
</g>
<g>
</g>
<g>
</g>
<g>
</g>
</svg>
