<?xml version="1.0" encoding="iso-8859-1"?>
<!-- Generator: Adobe Illustrator 19.0.0, SVG Export Plug-In . SVG Version: 6.00 Build 0)  -->
<svg version="1.1" id="Capa_1" xmlns="http://www.w3.org/2000/svg" xmlns:xlink="http://www.w3.org/1999/xlink" x="0px" y="0px"
	 viewBox="0 0 512 512" style="enable-background:new 0 0 512 512;" xml:space="preserve">
<g>
	<path style="fill:#556080;" d="M317.793,0h114.759c14.626,0,26.483,11.857,26.483,26.483v459.034
		c0,14.626-11.857,26.483-26.483,26.483H317.793V0z"/>
	<path style="fill:#90BAE1;" d="M79.448,0h247.172c14.626,0,26.483,11.857,26.483,26.483v459.034
		c0,14.626-11.857,26.483-26.483,26.483H79.448c-14.626,0-26.483-11.857-26.483-26.483V26.483C52.966,11.857,64.822,0,79.448,0z"/>
	<rect x="88.276" y="194.207" style="fill:#F0785A;" width="114.759" height="176.552"/>
	<rect x="203.034" y="194.207" style="fill:#BDC3C7;" width="114.759" height="176.552"/>
	<path style="fill:#E6E7E8;" d="M317.793,44.138v150.069H88.276V44.138c0.014-4.869,3.958-8.813,8.828-8.828h211.862
		C313.835,35.324,317.779,39.268,317.793,44.138z"/>
	<circle style="fill:#BDC3C7;" cx="238.345" cy="114.759" r="44.138"/>
	<circle style="fill:#5E5F62;" cx="260.414" cy="278.069" r="22.069"/>
	<g>
		<polygon style="fill:#35495E;" points="123.586,123.586 158.897,123.586 158.897,150.069 141.241,158.897 123.586,150.069 		"/>
		<path style="fill:#35495E;" d="M150.069,88.276h-17.655c-4.875,0-8.828-3.952-8.828-8.828c0-4.875,3.952-8.828,8.828-8.828h17.655
			c4.875,0,8.828,3.952,8.828,8.828C158.897,84.324,154.944,88.276,150.069,88.276z"/>
	</g>
	<rect x="88.276" y="370.759" style="fill:#F09372;" width="229.517" height="35.31"/>
	<rect x="88.276" y="406.069" style="fill:#E6E7E8;" width="229.517" height="35.31"/>
	<path style="fill:#F09372;" d="M317.793,441.379v26.483c-0.014,4.869-3.958,8.813-8.828,8.828H97.103
		c-4.869-0.014-8.813-3.958-8.828-8.828v-26.483H317.793z"/>
	<g>
		<path style="fill:#5E5F62;" d="M317.793,358.223v12.535h-12.535l-20.215-20.215c-3.461-3.461-3.461-9.074,0-12.535
			s9.074-3.461,12.535,0L317.793,358.223z"/>
		<path style="fill:#5E5F62;" d="M235.785,350.543l-20.215,20.215h-12.535v-12.535l20.215-20.215c3.461-3.461,9.074-3.461,12.535,0
			C239.246,341.47,239.246,347.082,235.785,350.543z"/>
		<path style="fill:#5E5F62;" d="M235.785,226.957c-3.481,3.414-9.054,3.414-12.535,0l-20.215-20.215v-12.535h12.535l20.215,20.215
			C239.228,217.891,239.228,223.488,235.785,226.957z"/>
		<path style="fill:#5E5F62;" d="M317.793,194.207v12.534l-20.215,20.215c-3.481,3.414-9.054,3.414-12.535,0
			c-3.442-3.469-3.442-9.065,0-12.534l20.215-20.215H317.793z"/>
	</g>
	<g>
		<path style="fill:#35495E;" d="M123.586,238.345c-3.567-0.01-6.776-2.172-8.125-5.474c-0.492-1.048-0.732-2.196-0.703-3.353
			c0.013-1.153,0.251-2.292,0.703-3.353c0.448-1.07,1.076-2.056,1.857-2.914c3.539-3.267,8.995-3.267,12.534,0
			c0.779,0.859,1.406,1.844,1.854,2.914c0.943,2.136,0.943,4.571,0,6.707c-0.431,1.053-1.06,2.013-1.854,2.828
			C128.224,237.415,125.953,238.374,123.586,238.345z"/>
		<path style="fill:#35495E;" d="M158.897,238.345c-2.367,0.029-4.638-0.93-6.268-2.647c-1.673-1.617-2.6-3.855-2.56-6.181
			c0.013-1.153,0.251-2.292,0.703-3.353c0.448-1.07,1.076-2.056,1.857-2.914c3.539-3.267,8.995-3.267,12.534,0
			c0.779,0.859,1.406,1.844,1.854,2.914c1.089,2.716,0.77,5.794-0.853,8.229C164.541,236.827,161.822,238.305,158.897,238.345z"/>
		<path style="fill:#35495E;" d="M123.586,291.31c-2.341,0.001-4.587-0.929-6.243-2.585c-1.656-1.656-2.585-3.901-2.585-6.243
			v-17.655c0-4.875,3.952-8.828,8.828-8.828c4.875,0,8.828,3.952,8.828,8.828v17.655c0.001,2.341-0.929,4.587-2.585,6.243
			C128.173,290.381,125.928,291.311,123.586,291.31z"/>
		<path style="fill:#35495E;" d="M123.586,344.276c-2.341,0.001-4.587-0.929-6.243-2.585c-1.656-1.656-2.585-3.901-2.585-6.243
			v-17.655c0-4.875,3.952-8.828,8.828-8.828c4.875,0,8.828,3.952,8.828,8.828v17.655c0.001,2.341-0.929,4.587-2.585,6.243
			C128.173,343.347,125.928,344.276,123.586,344.276z"/>
		<path style="fill:#35495E;" d="M158.897,344.276c-2.341,0.001-4.587-0.929-6.243-2.585c-1.656-1.656-2.585-3.901-2.585-6.243
			v-17.655c0-4.875,3.952-8.828,8.828-8.828s8.828,3.952,8.828,8.828v17.655c0.001,2.341-0.929,4.587-2.585,6.243
			C163.484,343.347,161.238,344.276,158.897,344.276z"/>
		<path style="fill:#35495E;" d="M132.414,282.483h-8.828c-4.875,0-8.828-3.952-8.828-8.828s3.952-8.828,8.828-8.828h8.828
			c4.875,0,8.828,3.952,8.828,8.828S137.289,282.483,132.414,282.483z"/>
	</g>
</g>
<g>
</g>
<g>
</g>
<g>
</g>
<g>
</g>
<g>
</g>
<g>
</g>
<g>
</g>
<g>
</g>
<g>
</g>
<g>
</g>
<g>
</g>
<g>
</g>
<g>
</g>
<g>
</g>
<g>
</g>
</svg>
