<?xml version="1.0" encoding="iso-8859-1"?>
<!-- Generator: Adobe Illustrator 19.0.0, SVG Export Plug-In . SVG Version: 6.00 Build 0)  -->
<svg version="1.1" id="Capa_1" xmlns="http://www.w3.org/2000/svg" xmlns:xlink="http://www.w3.org/1999/xlink" x="0px" y="0px"
	 viewBox="0 0 512 512" style="enable-background:new 0 0 512 512;" xml:space="preserve">
<g>
	<path style="fill:#8697CB;" d="M507.586,167.724c-0.026,73.119-59.295,132.387-132.414,132.414
		c-5.904,0.022-11.803-0.362-17.655-1.148V167.724c0,9.751,7.905,17.655,17.655,17.655s17.655-7.904,17.655-17.655
		s-7.904-17.655-17.655-17.655c-9.739,0.029-17.627,7.916-17.655,17.655V36.458c5.852-0.786,11.751-1.169,17.655-1.148
		C448.292,35.337,507.56,94.605,507.586,167.724z"/>
	<g>
		<path style="fill:#B0D3F0;" d="M428.138,167.724c-0.023,29.243-23.723,52.943-52.966,52.966
			c-6.021,0.016-11.998-1.03-17.655-3.091v-49.875c0,9.751,7.905,17.655,17.655,17.655s17.655-7.904,17.655-17.655
			s-7.904-17.655-17.655-17.655c-9.739,0.029-17.627,7.916-17.655,17.655v-49.876c5.658-2.059,11.634-3.105,17.655-3.09
			C404.415,114.782,428.115,138.482,428.138,167.724z"/>
		<path style="fill:#B0D3F0;" d="M472.276,176.552c-2.341,0.001-4.587-0.929-6.243-2.585c-1.656-1.656-2.585-3.901-2.585-6.243
			c0.002-5.384-0.488-10.757-1.461-16.052c-0.573-3.101,0.552-6.273,2.952-8.32c2.4-2.047,5.709-2.658,8.681-1.603
			c2.972,1.055,5.156,3.615,5.729,6.716c1.168,6.353,1.755,12.799,1.754,19.259c0.001,2.341-0.929,4.587-2.585,6.243
			C476.863,175.622,474.617,176.552,472.276,176.552z"/>
		<path style="fill:#B0D3F0;" d="M456.535,123.586c-2.985,0.006-5.77-1.499-7.401-4c-13.228-20.24-34.141-34.207-57.905-38.673
			c-4.782-0.896-7.937-5.491-7.056-10.275c0.881-4.784,5.467-7.954,10.254-7.087c28.514,5.349,53.612,22.1,69.491,46.379
			c1.769,2.713,1.911,6.176,0.371,9.024C462.749,121.804,459.773,123.581,456.535,123.586z"/>
	</g>
	<path style="fill:#95A5A5;" d="M348.69,0H4.414v388.414h61.793c1.136,39.836-23.974,75.708-61.793,88.276V512h238.345
		c9.721-0.071,17.584-7.934,17.655-17.655c-0.028-9.739-7.916-17.627-17.655-17.655h-26.483
		c-37.819-12.568-62.929-48.439-61.793-88.276H348.69c9.739-0.029,17.626-7.916,17.655-17.655V17.655
		C366.317,7.916,358.429,0.028,348.69,0z"/>
	<path style="fill:#67B9CC;" d="M366.345,17.655v308.966H4.414V0H348.69C358.429,0.028,366.317,7.916,366.345,17.655z"/>
	<g>
		<path style="fill:#B0D3F0;" d="M331.034,97.103c-2.342,0.003-4.588-0.928-6.241-2.586l-26.483-26.483
			c-3.394-3.456-3.369-9.001,0.056-12.426c3.425-3.425,8.97-3.45,12.426-0.056l26.483,26.483c2.524,2.525,3.279,6.321,1.913,9.619
			C337.822,94.952,334.604,97.103,331.034,97.103z"/>
		<path style="fill:#B0D3F0;" d="M278.069,44.138c-1.153-0.014-2.293-0.254-3.353-0.707c-1.07-0.446-2.056-1.073-2.914-1.853
			c-1.661-1.66-2.584-3.919-2.56-6.268c-0.032-1.158,0.21-2.307,0.707-3.353c0.446-1.07,1.073-2.056,1.853-2.914
			c0.418-0.379,0.859-0.733,1.319-1.06c0.493-0.336,1.03-0.603,1.595-0.793c0.5-0.255,1.034-0.435,1.586-0.535
			c1.132-0.259,2.308-0.259,3.44,0c0.586,0.086,1.153,0.267,1.681,0.535c0.543,0.174,1.051,0.442,1.5,0.793
			c0.507,0.304,0.98,0.66,1.415,1.06c0.78,0.858,1.407,1.844,1.854,2.914c1.409,3.284,0.675,7.096-1.854,9.621
			c-0.859,0.778-1.845,1.405-2.914,1.854C280.362,43.884,279.222,44.124,278.069,44.138z"/>
		<path style="fill:#B0D3F0;" d="M322.207,141.241c-2.342,0.003-4.588-0.928-6.241-2.586l-97.103-97.103
			c-3.394-3.456-3.369-9.001,0.056-12.426c3.425-3.425,8.97-3.45,12.426-0.056l97.103,97.103c2.524,2.525,3.279,6.321,1.913,9.619
			C328.995,139.09,325.777,141.241,322.207,141.241z"/>
	</g>
	<path style="fill:#7F8C8D;" d="M4.414,476.69c37.819-12.568,62.929-48.439,61.793-88.276h88.276
		c-1.136,39.836,23.974,75.708,61.793,88.276H4.414z"/>
</g>
<g>
</g>
<g>
</g>
<g>
</g>
<g>
</g>
<g>
</g>
<g>
</g>
<g>
</g>
<g>
</g>
<g>
</g>
<g>
</g>
<g>
</g>
<g>
</g>
<g>
</g>
<g>
</g>
<g>
</g>
</svg>
