<?xml version="1.0" encoding="iso-8859-1"?>
<!-- Generator: Adobe Illustrator 19.0.0, SVG Export Plug-In . SVG Version: 6.00 Build 0)  -->
<svg version="1.1" id="Capa_1" xmlns="http://www.w3.org/2000/svg" xmlns:xlink="http://www.w3.org/1999/xlink" x="0px" y="0px"
	 viewBox="0 0 512 512" style="enable-background:new 0 0 512 512;" xml:space="preserve">
<g>
	<polygon style="fill:#A5A5A4;" points="467.862,0 370.759,0 335.448,0 44.138,0 0,194.207 0,300.138 0,406.069 0,512 35.31,512 
		467.862,512 512,512 512,406.069 512,300.138 512,194.207 	"/>
	<rect x="35.31" y="300.138" style="fill:#BDC3C7;" width="432.552" height="105.931"/>
	<rect x="467.862" y="406.069" style="fill:#7F8C8D;" width="44.138" height="105.931"/>
	<rect x="35.31" y="406.069" style="fill:#D1D4D1;" width="432.552" height="105.931"/>
	<rect y="406.069" style="fill:#7F8C8D;" width="35.31" height="105.931"/>
	<circle style="fill:#67B9CC;" cx="88.276" cy="459.034" r="17.655"/>
	<g>
		<rect y="300.138" style="fill:#A5A5A4;" width="35.31" height="105.931"/>
		<rect x="467.862" y="300.138" style="fill:#A5A5A4;" width="44.138" height="105.931"/>
	</g>
	<circle style="fill:#67B9CC;" cx="88.276" cy="353.103" r="17.655"/>
	<rect x="467.862" y="194.207" style="fill:#7F8C8D;" width="44.138" height="105.931"/>
	<rect x="35.31" y="194.207" style="fill:#D1D4D1;" width="432.552" height="105.931"/>
	<rect y="194.207" style="fill:#7F8C8D;" width="35.31" height="105.931"/>
	<circle style="fill:#67B9CC;" cx="88.276" cy="247.172" r="17.655"/>
	<g>
		<path style="fill:#41767F;" d="M220.69,485.517c-2.341,0.001-4.587-0.929-6.243-2.585c-1.656-1.656-2.585-3.901-2.585-6.243
			v-35.31c0-4.875,3.952-8.828,8.828-8.828s8.828,3.952,8.828,8.828v35.31c0.001,2.341-0.929,4.587-2.585,6.243
			C225.277,484.588,223.031,485.518,220.69,485.517z"/>
		<path style="fill:#41767F;" d="M256,485.517c-2.341,0.001-4.587-0.929-6.243-2.585c-1.656-1.656-2.585-3.901-2.585-6.243v-35.31
			c0-4.875,3.952-8.828,8.828-8.828s8.828,3.952,8.828,8.828v35.31c0.001,2.341-0.929,4.587-2.585,6.243
			C260.587,484.588,258.341,485.518,256,485.517z"/>
		<path style="fill:#41767F;" d="M291.31,485.517c-2.341,0.001-4.587-0.929-6.243-2.585c-1.656-1.656-2.585-3.901-2.585-6.243
			v-35.31c0-4.875,3.952-8.828,8.828-8.828s8.828,3.952,8.828,8.828v35.31c0.001,2.341-0.929,4.587-2.585,6.243
			C295.897,484.588,293.652,485.518,291.31,485.517z"/>
		<path style="fill:#41767F;" d="M326.621,485.517c-2.341,0.001-4.587-0.929-6.243-2.585c-1.656-1.656-2.585-3.901-2.585-6.243
			v-35.31c0-4.875,3.952-8.828,8.828-8.828s8.828,3.952,8.828,8.828v35.31c0.001,2.341-0.929,4.587-2.585,6.243
			C331.208,484.588,328.962,485.518,326.621,485.517z"/>
		<path style="fill:#41767F;" d="M361.931,485.517c-2.341,0.001-4.587-0.929-6.243-2.585c-1.656-1.656-2.585-3.901-2.585-6.243
			v-35.31c0-4.875,3.952-8.828,8.828-8.828s8.828,3.952,8.828,8.828v35.31c0.001,2.341-0.929,4.587-2.585,6.243
			C366.518,484.588,364.272,485.518,361.931,485.517z"/>
		<path style="fill:#41767F;" d="M220.69,379.586c-2.341,0.001-4.587-0.929-6.243-2.585c-1.656-1.656-2.585-3.901-2.585-6.243
			v-35.31c0-4.875,3.952-8.828,8.828-8.828s8.828,3.952,8.828,8.828v35.31c0.001,2.341-0.929,4.587-2.585,6.243
			C225.277,378.657,223.031,379.587,220.69,379.586z"/>
		<path style="fill:#41767F;" d="M256,379.586c-2.341,0.001-4.587-0.929-6.243-2.585c-1.656-1.656-2.585-3.901-2.585-6.243v-35.31
			c0-4.875,3.952-8.828,8.828-8.828s8.828,3.952,8.828,8.828v35.31c0.001,2.341-0.929,4.587-2.585,6.243
			C260.587,378.657,258.341,379.587,256,379.586z"/>
		<path style="fill:#41767F;" d="M291.31,379.586c-2.341,0.001-4.587-0.929-6.243-2.585c-1.656-1.656-2.585-3.901-2.585-6.243
			v-35.31c0-4.875,3.952-8.828,8.828-8.828s8.828,3.952,8.828,8.828v35.31c0.001,2.341-0.929,4.587-2.585,6.243
			C295.897,378.657,293.652,379.587,291.31,379.586z"/>
		<path style="fill:#41767F;" d="M326.621,379.586c-2.341,0.001-4.587-0.929-6.243-2.585c-1.656-1.656-2.585-3.901-2.585-6.243
			v-35.31c0-4.875,3.952-8.828,8.828-8.828s8.828,3.952,8.828,8.828v35.31c0.001,2.341-0.929,4.587-2.585,6.243
			C331.208,378.657,328.962,379.587,326.621,379.586z"/>
		<path style="fill:#41767F;" d="M361.931,379.586c-2.341,0.001-4.587-0.929-6.243-2.585c-1.656-1.656-2.585-3.901-2.585-6.243
			v-35.31c0-4.875,3.952-8.828,8.828-8.828s8.828,3.952,8.828,8.828v35.31c0.001,2.341-0.929,4.587-2.585,6.243
			C366.518,378.657,364.272,379.587,361.931,379.586z"/>
		<path style="fill:#41767F;" d="M220.69,273.655c-2.341,0.001-4.587-0.929-6.243-2.585c-1.656-1.656-2.585-3.901-2.585-6.243
			v-35.31c0-4.875,3.952-8.828,8.828-8.828s8.828,3.952,8.828,8.828v35.31c0.001,2.341-0.929,4.587-2.585,6.243
			C225.277,272.726,223.031,273.656,220.69,273.655z"/>
		<path style="fill:#41767F;" d="M256,273.655c-2.341,0.001-4.587-0.929-6.243-2.585c-1.656-1.656-2.585-3.901-2.585-6.243v-35.31
			c0-4.875,3.952-8.828,8.828-8.828s8.828,3.952,8.828,8.828v35.31c0.001,2.341-0.929,4.587-2.585,6.243
			C260.587,272.726,258.341,273.656,256,273.655z"/>
		<path style="fill:#41767F;" d="M291.31,273.655c-2.341,0.001-4.587-0.929-6.243-2.585c-1.656-1.656-2.585-3.901-2.585-6.243
			v-35.31c0-4.875,3.952-8.828,8.828-8.828s8.828,3.952,8.828,8.828v35.31c0.001,2.341-0.929,4.587-2.585,6.243
			C295.897,272.726,293.652,273.656,291.31,273.655z"/>
		<path style="fill:#41767F;" d="M326.621,273.655c-2.341,0.001-4.587-0.929-6.243-2.585c-1.656-1.656-2.585-3.901-2.585-6.243
			v-35.31c0-4.875,3.952-8.828,8.828-8.828s8.828,3.952,8.828,8.828v35.31c0.001,2.341-0.929,4.587-2.585,6.243
			C331.208,272.726,328.962,273.656,326.621,273.655z"/>
		<path style="fill:#41767F;" d="M361.931,273.655c-2.341,0.001-4.587-0.929-6.243-2.585c-1.656-1.656-2.585-3.901-2.585-6.243
			v-35.31c0-4.875,3.952-8.828,8.828-8.828s8.828,3.952,8.828,8.828v35.31c0.001,2.341-0.929,4.587-2.585,6.243
			C366.518,272.726,364.272,273.656,361.931,273.655z"/>
	</g>
	<g>
		<path style="fill:#BDC3C7;" d="M44.138,167.724c-2.348,0.023-4.607-0.9-6.267-2.56c-1.66-1.66-2.583-3.919-2.56-6.267
			c0.033-2.337,0.947-4.576,2.56-6.268c2.535-2.509,6.334-3.241,9.621-1.854c1.07,0.448,2.055,1.074,2.914,1.854
			c1.612,1.693,2.526,3.931,2.561,6.268c0.022,2.348-0.9,4.606-2.56,6.268c-0.859,0.779-1.844,1.406-2.914,1.854
			C46.444,167.511,45.296,167.752,44.138,167.724z"/>
		<path style="fill:#BDC3C7;" d="M70.621,44.138c-1.155-0.014-2.296-0.254-3.358-0.707c-1.068-0.447-2.053-1.074-2.91-1.853
			c-0.78-0.859-1.408-1.844-1.858-2.914c-0.937-2.137-0.937-4.569,0-6.707c0.448-1.071,1.076-2.056,1.858-2.915
			c2.535-2.509,6.334-3.241,9.621-1.854c1.081,0.427,2.07,1.056,2.915,1.854c0.779,0.859,1.406,1.844,1.854,2.914
			c0.495,1.047,0.737,2.196,0.706,3.354c0.022,2.348-0.9,4.606-2.56,6.268c-0.859,0.779-1.844,1.406-2.914,1.854
			C72.913,43.884,71.774,44.124,70.621,44.138z"/>
		<path style="fill:#BDC3C7;" d="M467.862,167.724c-1.159,0.028-2.309-0.214-3.358-0.707c-1.068-0.448-2.052-1.075-2.909-1.854
			c-2.525-2.527-3.261-6.335-1.858-9.621c0.427-1.081,1.058-2.07,1.857-2.914c0.857-0.779,1.841-1.406,2.909-1.854
			c3.288-1.387,7.088-0.655,9.625,1.854c1.612,1.693,2.526,3.931,2.561,6.268c0.022,2.348-0.9,4.606-2.56,6.268
			c-0.859,0.779-1.844,1.406-2.914,1.854C470.168,167.511,469.02,167.752,467.862,167.724z"/>
		<path style="fill:#BDC3C7;" d="M441.379,44.138c-1.155-0.014-2.296-0.254-3.358-0.707c-1.068-0.447-2.053-1.074-2.91-1.853
			c-2.525-2.527-3.261-6.335-1.858-9.621c0.448-1.071,1.076-2.056,1.858-2.915c0.419-0.38,0.861-0.735,1.323-1.06
			c0.491-0.335,1.024-0.602,1.586-0.793c0.501-0.255,1.037-0.435,1.59-0.535c2.908-0.577,5.914,0.316,8.035,2.388
			c0.779,0.859,1.406,1.844,1.854,2.914c1.409,3.284,0.675,7.096-1.854,9.621c-0.859,0.779-1.844,1.406-2.914,1.854
			C443.672,43.884,442.533,44.124,441.379,44.138z"/>
	</g>
	<path style="fill:#D1D4D1;" d="M370.759,0v97.103c0,34.163-53.319,61.793-119.172,61.793s-119.172-27.63-119.172-61.793
		S185.732,35.31,251.586,35.31c25.643-0.363,51.107,4.316,74.946,13.771h0.088L335.448,0H370.759z"/>
	<ellipse style="fill:#ECF0F1;" cx="251.586" cy="97.103" rx="66.207" ry="26.483"/>
</g>
<g>
</g>
<g>
</g>
<g>
</g>
<g>
</g>
<g>
</g>
<g>
</g>
<g>
</g>
<g>
</g>
<g>
</g>
<g>
</g>
<g>
</g>
<g>
</g>
<g>
</g>
<g>
</g>
<g>
</g>
</svg>
