<?xml version="1.0" encoding="iso-8859-1"?>
<!-- Generator: Adobe Illustrator 19.0.0, SVG Export Plug-In . SVG Version: 6.00 Build 0)  -->
<svg version="1.1" id="Capa_1" xmlns="http://www.w3.org/2000/svg" xmlns:xlink="http://www.w3.org/1999/xlink" x="0px" y="0px"
	 viewBox="0 0 512 512" style="enable-background:new 0 0 512 512;" xml:space="preserve">
<g>
	<path style="fill:#71C285;" d="M8.828,97.103h494.345c4.875,0,8.828,3.952,8.828,8.828v300.138c0,4.875-3.952,8.828-8.828,8.828
		H8.828c-4.875,0-8.828-3.952-8.828-8.828V105.931C0,101.056,3.952,97.103,8.828,97.103z"/>
	<path style="fill:#35495E;" d="M459.034,203.034v105.931h17.655v17.655c0,9.751-7.905,17.655-17.655,17.655H52.966
		c-9.751,0-17.655-7.904-17.655-17.655v-17.655h17.655V203.034H35.31v-17.655c0-9.751,7.904-17.655,17.655-17.655h406.069
		c9.751,0,17.655,7.904,17.655,17.655v17.655H459.034z"/>
	<rect x="88.276" y="203.034" style="fill:#90BAE1;" width="335.448" height="105.931"/>
	<g>
		<path style="fill:#F9EAB0;" d="M79.448,97.103v35.31c0,4.875-3.952,8.828-8.828,8.828s-8.828-3.952-8.828-8.828v-35.31H79.448z"/>
		<path style="fill:#F9EAB0;" d="M114.759,97.103v35.31c0,4.875-3.952,8.828-8.828,8.828c-4.875,0-8.828-3.952-8.828-8.828v-35.31
			H114.759z"/>
		<path style="fill:#F9EAB0;" d="M150.069,97.103v35.31c0,4.875-3.952,8.828-8.828,8.828s-8.828-3.952-8.828-8.828v-35.31H150.069z"
			/>
		<path style="fill:#F9EAB0;" d="M185.379,97.103v35.31c0,4.875-3.952,8.828-8.828,8.828s-8.828-3.952-8.828-8.828v-35.31H185.379z"
			/>
		<path style="fill:#F9EAB0;" d="M220.69,97.103v35.31c0,4.875-3.952,8.828-8.828,8.828c-4.875,0-8.828-3.952-8.828-8.828v-35.31
			H220.69z"/>
		<path style="fill:#F9EAB0;" d="M256,97.103v35.31c0,4.875-3.952,8.828-8.828,8.828s-8.828-3.952-8.828-8.828v-35.31H256z"/>
		<path style="fill:#F9EAB0;" d="M291.31,97.103v35.31c0,4.875-3.952,8.828-8.828,8.828s-8.828-3.952-8.828-8.828v-35.31H291.31z"/>
		<path style="fill:#F9EAB0;" d="M476.69,141.241c-2.952,0.028-5.72-1.436-7.358-3.892c-1.638-2.456-1.927-5.573-0.767-8.289
			c0.427-1.081,1.058-2.07,1.857-2.914c0.857-0.779,1.841-1.406,2.909-1.854c2.131-0.974,4.58-0.974,6.711,0
			c1.08,0.427,2.069,1.056,2.914,1.854c1.612,1.693,2.526,3.931,2.561,6.268c0.022,2.348-0.9,4.606-2.56,6.268
			c-0.859,0.779-1.844,1.406-2.914,1.854C478.996,141.028,477.847,141.27,476.69,141.241z"/>
		<path style="fill:#F9EAB0;" d="M476.69,388.414c-2.952,0.028-5.72-1.436-7.358-3.892c-1.638-2.456-1.927-5.573-0.767-8.289
			c0.448-1.071,1.076-2.056,1.857-2.914c2.063-2.143,5.078-3.084,7.994-2.493c2.916,0.59,5.327,2.63,6.394,5.407
			c0.453,1.061,0.693,2.2,0.707,3.354c0.038,2.326-0.889,4.563-2.56,6.181C481.305,387.451,479.048,388.403,476.69,388.414z"/>
		<path style="fill:#F9EAB0;" d="M35.31,141.241c-1.159,0.028-2.309-0.214-3.358-0.707c-1.068-0.447-2.053-1.074-2.91-1.853
			c-2.525-2.527-3.261-6.335-1.858-9.621c0.807-2.215,2.552-3.96,4.767-4.767c2.131-0.974,4.58-0.974,6.711,0
			c1.07,0.448,2.055,1.075,2.914,1.854c0.797,0.845,1.426,1.834,1.854,2.914c1.162,2.714,0.875,5.832-0.763,8.288
			C41.03,139.806,38.263,141.27,35.31,141.241z"/>
		<path style="fill:#F9EAB0;" d="M35.31,388.414c-2.952,0.028-5.72-1.436-7.358-3.892c-1.638-2.456-1.927-5.573-0.767-8.289
			c0.448-1.071,1.076-2.056,1.857-2.914c2.063-2.143,5.078-3.084,7.994-2.493c2.916,0.59,5.327,2.63,6.394,5.407
			c0.453,1.061,0.693,2.2,0.707,3.354c0.038,2.326-0.889,4.563-2.56,6.181C39.926,387.451,37.669,388.403,35.31,388.414z"/>
	</g>
	<g>
		<path style="fill:#B0D3F0;" d="M123.586,256c-3.57-0.001-6.788-2.152-8.154-5.45c-1.366-3.298-0.611-7.094,1.913-9.619
			l8.828-8.828c3.456-3.394,9.001-3.369,12.426,0.056c3.425,3.425,3.45,8.97,0.056,12.426l-8.828,8.828
			C128.174,255.072,125.928,256.003,123.586,256z"/>
		<path style="fill:#B0D3F0;" d="M141.241,282.483c-3.57-0.001-6.788-2.152-8.154-5.45c-1.366-3.298-0.611-7.094,1.913-9.619
			l35.31-35.31c3.456-3.394,9.001-3.369,12.426,0.056c3.425,3.425,3.45,8.97,0.056,12.426l-35.31,35.31
			C145.829,281.555,143.583,282.485,141.241,282.483z"/>
	</g>
</g>
<g>
</g>
<g>
</g>
<g>
</g>
<g>
</g>
<g>
</g>
<g>
</g>
<g>
</g>
<g>
</g>
<g>
</g>
<g>
</g>
<g>
</g>
<g>
</g>
<g>
</g>
<g>
</g>
<g>
</g>
</svg>
