<?xml version="1.0" encoding="iso-8859-1"?>
<!-- Generator: Adobe Illustrator 19.0.0, SVG Export Plug-In . SVG Version: 6.00 Build 0)  -->
<svg version="1.1" id="Capa_1" xmlns="http://www.w3.org/2000/svg" xmlns:xlink="http://www.w3.org/1999/xlink" x="0px" y="0px"
	 viewBox="0 0 512 512" style="enable-background:new 0 0 512 512;" xml:space="preserve">
<g>
	<rect x="123.586" y="414.897" style="fill:#F29C1F;" width="264.828" height="70.621"/>
	<g>
		<polyline style="fill:#285680;" points="79.448,494.345 79.448,326.621 167.724,326.621 167.724,494.345 		"/>
		<polyline style="fill:#285680;" points="344.276,494.345 344.276,326.621 432.552,326.621 432.552,494.345 		"/>
	</g>
	<path style="fill:#4482C3;" d="M450.207,79.448v282.483c-0.014,4.87-3.958,8.814-8.828,8.828h-97.103
		c0-48.753-39.522-88.276-88.276-88.276s-88.276,39.522-88.276,88.276H70.621c-4.87-0.014-8.814-3.958-8.828-8.828V79.448H450.207z"
		/>
	<path style="fill:#285680;" d="M459.034,0v88.276c0,4.875-3.952,8.828-8.828,8.828H61.793c-4.875,0-8.828-3.952-8.828-8.828V0
		H459.034z"/>
	<g>
		<path style="fill:#4482C3;" d="M35.31,450.207h158.897c4.875,0,8.828,3.952,8.828,8.828v44.138c0,4.875-3.952,8.828-8.828,8.828
			H35.31c-4.875,0-8.828-3.952-8.828-8.828v-44.138C26.483,454.159,30.435,450.207,35.31,450.207z"/>
		<path style="fill:#4482C3;" d="M317.793,450.207H476.69c4.875,0,8.828,3.952,8.828,8.828v44.138c0,4.875-3.952,8.828-8.828,8.828
			H317.793c-4.875,0-8.828-3.952-8.828-8.828v-44.138C308.966,454.159,312.918,450.207,317.793,450.207z"/>
	</g>
</g>
<g>
</g>
<g>
</g>
<g>
</g>
<g>
</g>
<g>
</g>
<g>
</g>
<g>
</g>
<g>
</g>
<g>
</g>
<g>
</g>
<g>
</g>
<g>
</g>
<g>
</g>
<g>
</g>
<g>
</g>
</svg>
