<?xml version="1.0" encoding="iso-8859-1"?>
<!-- Generator: Adobe Illustrator 19.0.0, SVG Export Plug-In . SVG Version: 6.00 Build 0)  -->
<svg version="1.1" id="Capa_1" xmlns="http://www.w3.org/2000/svg" xmlns:xlink="http://www.w3.org/1999/xlink" x="0px" y="0px"
	 viewBox="0 0 512 512" style="enable-background:new 0 0 512 512;" xml:space="preserve">
<g>
	<path style="fill:#35495E;" d="M459.034,26.483h26.483c4.875,0,8.828,3.952,8.828,8.828v397.241c0,4.875-3.952,8.828-8.828,8.828
		H26.483c-4.875,0-8.828-3.952-8.828-8.828V35.31c0-4.875,3.952-8.828,8.828-8.828H459.034z"/>
	<path style="fill:#71C285;" d="M441.379,0H70.621c-9.739,0.028-17.627,7.916-17.655,17.655v476.69
		c0.029,9.739,7.916,17.627,17.655,17.655h370.759c9.739-0.029,17.627-7.916,17.655-17.655V17.655
		C459.006,7.916,451.118,0.028,441.379,0z"/>
	<rect x="52.966" y="264.828" style="fill:#4C8056;" width="406.069" height="194.207"/>
	<path style="fill:#71C285;" d="M52.966,459.034h406.069v35.31c-0.029,9.739-7.916,17.627-17.655,17.655H70.621
		c-9.739-0.029-17.627-7.916-17.655-17.655V459.034z"/>
	<g>
		<path style="fill:#35495E;" d="M167.724,44.138L167.724,44.138c9.751,0,17.655,7.904,17.655,17.655v26.483
			c0,9.751-7.904,17.655-17.655,17.655l0,0c-9.751,0-17.655-7.904-17.655-17.655V61.793
			C150.069,52.042,157.973,44.138,167.724,44.138z"/>
		<path style="fill:#35495E;" d="M344.276,44.138L344.276,44.138c9.751,0,17.655,7.904,17.655,17.655v26.483
			c0,9.751-7.905,17.655-17.655,17.655l0,0c-9.751,0-17.655-7.904-17.655-17.655V61.793
			C326.621,52.042,334.525,44.138,344.276,44.138z"/>
	</g>
	<rect x="220.69" y="44.138" style="fill:#BDC3C7;" width="70.621" height="35.31"/>
	<path style="fill:#35495E;" d="M97.103,123.586h35.31c4.875,0,8.828,3.952,8.828,8.828v88.276c0,4.875-3.952,8.828-8.828,8.828
		h-35.31c-4.875,0-8.828-3.952-8.828-8.828v-88.276C88.276,127.538,92.228,123.586,97.103,123.586z"/>
	<g>
		<path style="fill:#E4C05C;" d="M114.759,158.897c-0.014,4.87-3.958,8.814-8.828,8.828H88.276v-17.655h17.655
			C110.801,150.083,114.745,154.027,114.759,158.897z"/>
		<path style="fill:#E4C05C;" d="M114.759,194.207c-0.014,4.87-3.958,8.814-8.828,8.828H88.276v-17.655h17.655
			C110.801,185.393,114.745,189.337,114.759,194.207z"/>
	</g>
	<path style="fill:#ECF0F1;" d="M264.828,229.517v35.31h-17.655v-35.31c0-4.875,3.952-8.828,8.828-8.828
		S264.828,224.642,264.828,229.517z"/>
	<g>
		<path style="fill:#BDC3C7;" d="M220.69,326.621c-2.342,0.001-4.588-0.928-6.244-2.584c-1.656-1.656-2.585-3.902-2.584-6.244
			v-17.655c0-4.875,3.952-8.828,8.828-8.828s8.828,3.952,8.828,8.828v17.655c0.001,2.342-0.928,4.588-2.584,6.244
			C225.277,325.692,223.031,326.622,220.69,326.621z"/>
		<path style="fill:#BDC3C7;" d="M256,326.621c-2.342,0.001-4.588-0.928-6.244-2.584c-1.656-1.656-2.585-3.902-2.584-6.244v-17.655
			c0-4.875,3.952-8.828,8.828-8.828s8.828,3.952,8.828,8.828v17.655c0.001,2.342-0.928,4.588-2.584,6.244
			C260.588,325.692,258.342,326.622,256,326.621z"/>
		<path style="fill:#BDC3C7;" d="M291.31,326.621c-2.342,0.001-4.588-0.928-6.243-2.584c-1.656-1.656-2.585-3.902-2.584-6.244
			v-17.655c0-4.875,3.952-8.828,8.828-8.828s8.828,3.952,8.828,8.828v17.655c0.001,2.342-0.928,4.588-2.584,6.244
			C295.898,325.692,293.652,326.622,291.31,326.621z"/>
		<path style="fill:#BDC3C7;" d="M220.69,432.552c-2.342,0.001-4.588-0.928-6.244-2.584c-1.656-1.656-2.585-3.902-2.584-6.244
			v-17.655c0-4.875,3.952-8.828,8.828-8.828s8.828,3.952,8.828,8.828v17.655c0.001,2.342-0.928,4.588-2.584,6.244
			C225.277,431.623,223.031,432.553,220.69,432.552z"/>
		<path style="fill:#BDC3C7;" d="M256,432.552c-2.342,0.001-4.588-0.928-6.244-2.584c-1.656-1.656-2.585-3.902-2.584-6.244v-17.655
			c0-4.875,3.952-8.828,8.828-8.828s8.828,3.952,8.828,8.828v17.655c0.001,2.342-0.928,4.588-2.584,6.244
			C260.588,431.623,258.342,432.553,256,432.552z"/>
		<path style="fill:#BDC3C7;" d="M291.31,432.552c-2.342,0.001-4.588-0.928-6.243-2.584c-1.656-1.656-2.585-3.902-2.584-6.244
			v-17.655c0-4.875,3.952-8.828,8.828-8.828s8.828,3.952,8.828,8.828v17.655c0.001,2.342-0.928,4.588-2.584,6.244
			C295.898,431.623,293.652,432.553,291.31,432.552z"/>
		<path style="fill:#BDC3C7;" d="M211.862,406.069h-17.655c-4.875,0-8.828-3.952-8.828-8.828c0-4.875,3.952-8.828,8.828-8.828
			h17.655c4.875,0,8.828,3.952,8.828,8.828C220.69,402.117,216.737,406.069,211.862,406.069z"/>
		<path style="fill:#BDC3C7;" d="M211.862,370.759h-17.655c-4.875,0-8.828-3.952-8.828-8.828s3.952-8.828,8.828-8.828h17.655
			c4.875,0,8.828,3.952,8.828,8.828S216.737,370.759,211.862,370.759z"/>
		<path style="fill:#BDC3C7;" d="M211.862,335.448h-17.655c-4.875,0-8.828-3.952-8.828-8.828s3.952-8.828,8.828-8.828h17.655
			c4.875,0,8.828,3.952,8.828,8.828S216.737,335.448,211.862,335.448z"/>
		<path style="fill:#BDC3C7;" d="M317.793,406.069h-17.655c-4.875,0-8.828-3.952-8.828-8.828c0-4.875,3.952-8.828,8.828-8.828
			h17.655c4.875,0,8.828,3.952,8.828,8.828C326.621,402.117,322.668,406.069,317.793,406.069z"/>
		<path style="fill:#BDC3C7;" d="M317.793,370.759h-17.655c-4.875,0-8.828-3.952-8.828-8.828s3.952-8.828,8.828-8.828h17.655
			c4.875,0,8.828,3.952,8.828,8.828S322.668,370.759,317.793,370.759z"/>
		<path style="fill:#BDC3C7;" d="M317.793,335.448h-17.655c-4.875,0-8.828-3.952-8.828-8.828s3.952-8.828,8.828-8.828h17.655
			c4.875,0,8.828,3.952,8.828,8.828S322.668,335.448,317.793,335.448z"/>
		<path style="fill:#BDC3C7;" d="M370.759,361.931c-2.342,0.001-4.588-0.928-6.244-2.584c-1.656-1.656-2.585-3.902-2.584-6.244
			v-17.655c0-4.875,3.952-8.828,8.828-8.828s8.828,3.952,8.828,8.828v17.655c0.001,2.342-0.928,4.588-2.584,6.244
			C375.346,361.003,373.1,361.932,370.759,361.931z"/>
		<path style="fill:#BDC3C7;" d="M406.069,361.931c-2.342,0.001-4.588-0.928-6.244-2.584c-1.656-1.656-2.585-3.902-2.584-6.244
			v-17.655c0-4.875,3.952-8.828,8.828-8.828s8.828,3.952,8.828,8.828v17.655c0.001,2.342-0.928,4.588-2.584,6.244
			C410.657,361.003,408.411,361.932,406.069,361.931z"/>
		<path style="fill:#BDC3C7;" d="M370.759,432.552c-2.342,0.001-4.588-0.928-6.244-2.584c-1.656-1.656-2.585-3.902-2.584-6.244
			v-17.655c0-4.875,3.952-8.828,8.828-8.828s8.828,3.952,8.828,8.828v17.655c0.001,2.342-0.928,4.588-2.584,6.244
			C375.346,431.623,373.1,432.553,370.759,432.552z"/>
		<path style="fill:#BDC3C7;" d="M406.069,432.552c-2.342,0.001-4.588-0.928-6.244-2.584c-1.656-1.656-2.585-3.902-2.584-6.244
			v-17.655c0-4.875,3.952-8.828,8.828-8.828s8.828,3.952,8.828,8.828v17.655c0.001,2.342-0.928,4.588-2.584,6.244
			C410.657,431.623,408.411,432.553,406.069,432.552z"/>
		<path style="fill:#BDC3C7;" d="M123.586,326.621c-2.342,0.001-4.588-0.928-6.244-2.584c-1.656-1.656-2.585-3.902-2.584-6.244
			v-17.655c0-4.875,3.952-8.828,8.828-8.828s8.828,3.952,8.828,8.828v17.655c0.001,2.342-0.928,4.588-2.584,6.244
			C128.174,325.692,125.928,326.622,123.586,326.621z"/>
		<path style="fill:#BDC3C7;" d="M123.586,379.586c-2.342,0.001-4.588-0.928-6.244-2.584c-1.656-1.656-2.585-3.902-2.584-6.244
			v-17.655c0-4.875,3.952-8.828,8.828-8.828s8.828,3.952,8.828,8.828v17.655c0.001,2.342-0.928,4.588-2.584,6.244
			C128.174,378.658,125.928,379.588,123.586,379.586z"/>
		<path style="fill:#BDC3C7;" d="M105.931,344.276H88.276c-4.875,0-8.828-3.952-8.828-8.828s3.952-8.828,8.828-8.828h17.655
			c4.875,0,8.828,3.952,8.828,8.828S110.806,344.276,105.931,344.276z"/>
		<path style="fill:#BDC3C7;" d="M158.897,344.276h-17.655c-4.875,0-8.828-3.952-8.828-8.828s3.952-8.828,8.828-8.828h17.655
			c4.875,0,8.828,3.952,8.828,8.828S163.772,344.276,158.897,344.276z"/>
		<path style="fill:#BDC3C7;" d="M406.069,308.966h-35.31c-4.875,0-8.828-3.952-8.828-8.828s3.952-8.828,8.828-8.828h35.31
			c4.875,0,8.828,3.952,8.828,8.828S410.944,308.966,406.069,308.966z"/>
		<path style="fill:#BDC3C7;" d="M97.103,423.724c-1.153-0.014-2.293-0.254-3.353-0.707c-1.07-0.447-2.056-1.074-2.914-1.854
			c-1.661-1.66-2.584-3.919-2.56-6.267c0.031-2.338,0.945-4.577,2.56-6.268c0.844-0.799,1.833-1.428,2.914-1.854
			c1.577-0.703,3.336-0.89,5.026-0.535c0.586,0.086,1.153,0.267,1.681,0.535c0.543,0.174,1.051,0.442,1.5,0.793
			c2.48,1.612,3.976,4.37,3.975,7.328c-0.014,1.153-0.254,2.293-0.707,3.353c-0.448,1.09-1.107,2.08-1.94,2.914
			C101.619,422.763,99.412,423.677,97.103,423.724z"/>
		<path style="fill:#BDC3C7;" d="M158.897,423.724h-26.483c-4.875,0-8.828-3.952-8.828-8.828s3.952-8.828,8.828-8.828h26.483
			c4.875,0,8.828,3.952,8.828,8.828S163.772,423.724,158.897,423.724z"/>
	</g>
	<g>
		<circle style="fill:#D1D4D1;" cx="44.138" cy="88.276" r="26.483"/>
		<circle style="fill:#D1D4D1;" cx="44.138" cy="379.586" r="26.483"/>
		<circle style="fill:#D1D4D1;" cx="467.862" cy="88.276" r="26.483"/>
		<circle style="fill:#D1D4D1;" cx="467.862" cy="317.793" r="26.483"/>
	</g>
	<path style="fill:#B19046;" d="M370.759,185.379c-1.153-0.014-2.293-0.254-3.353-0.707c-1.081-0.426-2.07-1.055-2.914-1.854
		c-1.661-1.66-2.584-3.919-2.56-6.267c0.031-2.338,0.945-4.577,2.56-6.268c0.829-0.817,1.822-1.449,2.914-1.854
		c2.146-0.959,4.593-0.992,6.764-0.09c2.171,0.902,3.875,2.659,4.71,4.856c0.943,2.136,0.943,4.571,0,6.707
		c-0.804,2.217-2.55,3.963-4.767,4.767C373.051,185.124,371.912,185.365,370.759,185.379z"/>
	<g>
		<rect x="211.862" y="317.793" style="fill:#35495E;" width="88.276" height="88.276"/>
		<rect x="353.103" y="353.103" style="fill:#35495E;" width="70.621" height="52.966"/>
		<rect x="105.931" y="317.793" style="fill:#35495E;" width="35.31" height="35.31"/>
	</g>
	<circle style="fill:#BDC3C7;" cx="256" cy="176.552" r="52.966"/>
	<circle style="fill:#ECF0F1;" cx="256" cy="176.552" r="17.655"/>
</g>
<g>
</g>
<g>
</g>
<g>
</g>
<g>
</g>
<g>
</g>
<g>
</g>
<g>
</g>
<g>
</g>
<g>
</g>
<g>
</g>
<g>
</g>
<g>
</g>
<g>
</g>
<g>
</g>
<g>
</g>
</svg>
