<?xml version="1.0" encoding="iso-8859-1"?>
<!-- Generator: Adobe Illustrator 19.0.0, SVG Export Plug-In . SVG Version: 6.00 Build 0)  -->
<svg version="1.1" id="Capa_1" xmlns="http://www.w3.org/2000/svg" xmlns:xlink="http://www.w3.org/1999/xlink" x="0px" y="0px"
	 viewBox="0 0 512 512" style="enable-background:new 0 0 512 512;" xml:space="preserve">
<g>
	<g>
		<rect x="335.448" y="17.655" style="fill:#BDC3C7;" width="132.414" height="35.31"/>
		<path style="fill:#BDC3C7;" d="M70.621,44.138H8.828C3.952,44.138,0,40.186,0,35.31s3.952-8.828,8.828-8.828h61.793
			c4.875,0,8.828,3.952,8.828,8.828S75.496,44.138,70.621,44.138z"/>
	</g>
	<path style="fill:#35495E;" d="M494.345,88.276H344.276c3.723-0.415,7.013-2.609,8.828-5.886
		c5.763-10.163,8.746-21.665,8.651-33.348c0.149-1.63,0.208-3.267,0.177-4.904c0.313-11.78-1.915-23.488-6.532-34.33
		c-0.667-1.363-1.434-2.674-2.295-3.923c-1.815-3.276-5.105-5.469-8.828-5.885H167.724c-3.722,0.415-7.012,2.609-8.828,5.885
		c-0.861,1.249-1.628,2.561-2.295,3.923c-4.618,10.841-6.846,22.55-6.532,34.33c-0.031,1.637,0.028,3.274,0.177,4.904
		c-0.095,11.683,2.888,23.185,8.651,33.348c1.815,3.277,5.105,5.471,8.828,5.886H17.655C7.904,88.276,0,96.18,0,105.931v388.414
		C0,504.095,7.905,512,17.655,512h476.69c9.751,0,17.655-7.905,17.655-17.655V105.931C512,96.18,504.095,88.276,494.345,88.276z"/>
	<path style="fill:#3F5C6C;" d="M44.138,211.862h423.724c4.875,0,8.828,3.952,8.828,8.828v247.172c0,4.875-3.952,8.828-8.828,8.828
		H44.138c-4.875,0-8.828-3.952-8.828-8.828V220.69C35.31,215.814,39.263,211.862,44.138,211.862z"/>
	<g>
		<path style="fill:#E6E7E8;" d="M79.448,264.828c-1.153-0.014-2.293-0.254-3.353-0.707c-1.081-0.426-2.07-1.055-2.914-1.853
			c-2.467-2.554-3.228-6.308-1.948-9.621c0.494-1.067,1.152-2.05,1.948-2.915c2.539-2.502,6.333-3.233,9.621-1.854
			c1.069,0.449,2.054,1.075,2.914,1.854c0.78,0.858,1.407,1.844,1.854,2.914c1.163,2.714,0.876,5.833-0.762,8.29
			S82.401,264.857,79.448,264.828z"/>
		<path style="fill:#E6E7E8;" d="M79.448,300.138c-1.153-0.014-2.293-0.254-3.353-0.707c-1.07-0.446-2.056-1.073-2.914-1.853
			c-1.661-1.66-2.584-3.919-2.56-6.268c0-4.875,3.952-8.828,8.828-8.828c4.875,0,8.828,3.952,8.828,8.828
			c0.023,2.348-0.9,4.607-2.56,6.267C84.055,299.238,81.796,300.161,79.448,300.138z"/>
		<path style="fill:#E6E7E8;" d="M79.448,335.448c-2.953,0.031-5.722-1.433-7.361-3.89c-1.638-2.457-1.924-5.576-0.76-8.291
			c0.426-1.081,1.055-2.07,1.853-2.914c3.539-3.267,8.995-3.267,12.534,0c0.799,0.844,1.428,1.833,1.854,2.914
			c0.943,2.136,0.943,4.571,0,6.707c-0.449,1.069-1.075,2.054-1.854,2.914C84.053,334.546,81.796,335.468,79.448,335.448z"/>
		<path style="fill:#E6E7E8;" d="M79.448,370.759c-2.348,0.023-4.607-0.899-6.268-2.56c-0.778-0.859-1.405-1.845-1.854-2.914
			c-0.943-2.136-0.943-4.571,0-6.707c0.426-1.081,1.055-2.071,1.854-2.914c3.539-3.267,8.995-3.267,12.534,0
			c0.799,0.844,1.428,1.833,1.854,2.914c0.943,2.136,0.943,4.571,0,6.707c-0.449,1.069-1.075,2.054-1.854,2.914
			C84.053,369.856,81.796,370.778,79.448,370.759z"/>
		<path style="fill:#E6E7E8;" d="M79.448,406.069c-1.153-0.014-2.293-0.254-3.353-0.707c-1.07-0.446-2.056-1.073-2.914-1.853
			c-1.661-1.66-2.584-3.919-2.56-6.268c0.031-2.338,0.945-4.577,2.56-6.268l1.319-1.06c0.493-0.336,1.03-0.603,1.595-0.793
			c0.5-0.255,1.034-0.435,1.586-0.535c1.164-0.259,2.371-0.259,3.535,0c0.552,0.101,1.086,0.281,1.586,0.535
			c0.563,0.191,1.096,0.457,1.586,0.793c0.44,0.353,0.888,0.707,1.328,1.06c1.612,1.693,2.526,3.931,2.561,6.268
			c0.02,2.348-0.902,4.605-2.56,6.268c-0.859,0.778-1.845,1.405-2.914,1.854C81.741,405.815,80.602,406.055,79.448,406.069z"/>
		<path style="fill:#E6E7E8;" d="M79.448,441.379c-2.953,0.031-5.722-1.433-7.361-3.89c-1.638-2.457-1.924-5.576-0.76-8.291
			c0.446-1.07,1.073-2.056,1.853-2.914c0.844-0.799,1.833-1.428,2.914-1.854c1.577-0.703,3.336-0.89,5.026-0.535
			c0.586,0.086,1.153,0.267,1.681,0.535c0.543,0.174,1.051,0.442,1.5,0.793c0.507,0.304,0.981,0.66,1.415,1.061
			c0.78,0.858,1.407,1.844,1.854,2.914c1.163,2.715,0.876,5.833-0.762,8.29C85.169,439.945,82.401,441.409,79.448,441.379z"/>
		<path style="fill:#E6E7E8;" d="M114.759,264.828c-2.348,0.023-4.607-0.9-6.267-2.56c-1.66-1.66-2.583-3.919-2.56-6.267
			c-0.032-1.158,0.21-2.307,0.707-3.353c0.447-1.07,1.074-2.056,1.854-2.914l1.319-1.06c0.493-0.336,1.03-0.603,1.595-0.793
			c0.5-0.255,1.034-0.435,1.586-0.535c1.721-0.36,3.511-0.173,5.121,0.535c1.069,0.449,2.054,1.075,2.914,1.854
			c0.799,0.844,1.428,1.833,1.854,2.914c1.409,3.284,0.675,7.095-1.854,9.621c-0.859,0.778-1.845,1.405-2.914,1.854
			C117.051,264.574,115.912,264.814,114.759,264.828z"/>
		<path style="fill:#E6E7E8;" d="M114.759,300.138c-1.153-0.014-2.293-0.254-3.353-0.707c-1.07-0.447-2.056-1.074-2.914-1.854
			c-1.661-1.66-2.584-3.919-2.56-6.267c0-4.875,3.952-8.828,8.828-8.828s8.828,3.952,8.828,8.828c0.02,2.348-0.902,4.605-2.56,6.268
			c-0.859,0.778-1.845,1.405-2.914,1.854C117.051,299.884,115.912,300.124,114.759,300.138z"/>
		<path style="fill:#E6E7E8;" d="M114.759,335.448c-2.348,0.023-4.607-0.9-6.267-2.56c-1.66-1.66-2.583-3.919-2.56-6.267
			c-0.032-1.158,0.21-2.307,0.707-3.353c0.804-2.217,2.55-3.963,4.767-4.767c3.287-1.378,7.081-0.647,9.621,1.854
			c0.799,0.844,1.428,1.833,1.854,2.914c1.162,2.714,0.875,5.832-0.763,8.289C120.479,334.014,117.711,335.477,114.759,335.448z"/>
		<path style="fill:#E6E7E8;" d="M114.759,370.759c-2.348,0.023-4.607-0.899-6.268-2.56c-0.776-0.881-1.431-1.86-1.948-2.914
			c-0.422-1.067-0.63-2.207-0.612-3.354c-0.032-1.158,0.21-2.307,0.707-3.353c0.426-1.081,1.055-2.07,1.854-2.914
			c3.539-3.267,8.995-3.267,12.534,0c0.799,0.844,1.428,1.833,1.854,2.914c0.943,2.136,0.943,4.571,0,6.707
			c-0.449,1.069-1.075,2.054-1.854,2.914C119.364,369.856,117.106,370.778,114.759,370.759z"/>
		<path style="fill:#E6E7E8;" d="M114.759,406.069c-2.348,0.023-4.607-0.9-6.267-2.56c-1.66-1.66-2.583-3.919-2.56-6.267
			c0.031-2.338,0.945-4.577,2.56-6.268c3.518-3.322,9.017-3.322,12.534,0c1.612,1.693,2.526,3.931,2.561,6.268
			c0.02,2.348-0.902,4.605-2.56,6.268c-0.859,0.778-1.845,1.405-2.914,1.854C117.051,405.815,115.912,406.055,114.759,406.069z"/>
		<path style="fill:#E6E7E8;" d="M114.759,441.379c-1.153-0.014-2.293-0.254-3.353-0.707c-1.07-0.447-2.056-1.074-2.914-1.854
			c-1.647-1.669-2.568-3.922-2.56-6.267c-0.018-1.147,0.19-2.287,0.612-3.353c0.515-1.055,1.17-2.035,1.948-2.914
			c2.09-2.057,5.061-2.951,7.94-2.388c0.586,0.086,1.153,0.267,1.681,0.535c0.543,0.174,1.051,0.442,1.5,0.793
			c0.507,0.304,0.98,0.66,1.415,1.06c0.78,0.858,1.407,1.844,1.854,2.914c1.409,3.284,0.675,7.096-1.854,9.621
			c-0.859,0.778-1.845,1.405-2.914,1.854C117.051,441.125,115.912,441.365,114.759,441.379z"/>
		<path style="fill:#E6E7E8;" d="M150.069,264.828c-2.953,0.031-5.722-1.433-7.361-3.89c-1.638-2.457-1.924-5.576-0.76-8.291
			c0.426-1.081,1.055-2.07,1.854-2.914c2.114-2.084,5.126-2.979,8.035-2.388c0.552,0.101,1.086,0.281,1.586,0.535
			c0.563,0.191,1.096,0.457,1.586,0.793c0.44,0.353,0.888,0.707,1.328,1.06c0.78,0.858,1.407,1.844,1.854,2.914
			c1.409,3.284,0.675,7.096-1.854,9.621c-0.859,0.778-1.845,1.405-2.914,1.854C152.362,264.574,151.222,264.814,150.069,264.828z"/>
		<path style="fill:#E6E7E8;" d="M150.069,300.138c-2.348,0.023-4.607-0.9-6.267-2.56c-1.66-1.66-2.583-3.919-2.56-6.267
			c0.031-2.338,0.945-4.577,2.56-6.268c0.844-0.799,1.833-1.428,2.914-1.854c1.577-0.703,3.336-0.89,5.026-0.535
			c0.586,0.086,1.153,0.267,1.681,0.535c0.543,0.174,1.051,0.442,1.5,0.793c0.507,0.304,0.98,0.66,1.415,1.061
			c1.611,1.693,2.525,3.931,2.56,6.268c0.02,2.348-0.902,4.605-2.56,6.268c-0.859,0.778-1.845,1.405-2.914,1.854
			C152.362,299.884,151.222,300.124,150.069,300.138z"/>
		<path style="fill:#E6E7E8;" d="M150.069,335.448c-1.153-0.014-2.293-0.254-3.353-0.707c-1.081-0.426-2.07-1.055-2.914-1.854
			c-2.528-2.525-3.263-6.337-1.854-9.621c0.426-1.081,1.055-2.07,1.854-2.914l1.319-1.06c0.493-0.336,1.03-0.603,1.595-0.793
			c0.5-0.255,1.034-0.435,1.586-0.535c1.132-0.259,2.308-0.259,3.44,0c0.586,0.086,1.153,0.267,1.681,0.535
			c0.543,0.174,1.051,0.442,1.5,0.793c0.526,0.353,0.974,0.707,1.414,1.06c0.799,0.844,1.428,1.833,1.854,2.914
			c1.409,3.284,0.675,7.096-1.853,9.621c-0.859,0.778-1.845,1.405-2.914,1.854C152.362,335.194,151.222,335.434,150.069,335.448z"/>
		<path style="fill:#E6E7E8;" d="M150.069,370.759c-2.348,0.023-4.607-0.899-6.268-2.56c-0.778-0.859-1.405-1.845-1.854-2.914
			c-0.943-2.136-0.943-4.571,0-6.707c0.426-1.081,1.055-2.07,1.854-2.914c3.539-3.267,8.995-3.267,12.534,0
			c0.799,0.844,1.428,1.833,1.854,2.914c0.943,2.136,0.943,4.571,0,6.707c-0.449,1.069-1.075,2.054-1.854,2.914
			C154.674,369.856,152.416,370.778,150.069,370.759z"/>
		<path style="fill:#E6E7E8;" d="M150.069,406.069c-1.153-0.014-2.293-0.254-3.353-0.707c-1.07-0.447-2.056-1.074-2.914-1.854
			c-1.661-1.66-2.584-3.919-2.56-6.267c0.031-2.338,0.945-4.577,2.56-6.268c2.083-2.069,5.061-2.965,7.94-2.388
			c0.586,0.086,1.153,0.267,1.681,0.535c0.543,0.174,1.051,0.442,1.5,0.793c0.526,0.353,0.974,0.707,1.414,1.06
			c1.612,1.693,2.526,3.931,2.561,6.268c-0.014,1.153-0.254,2.293-0.707,3.353c-0.804,2.217-2.55,3.963-4.767,4.767
			C152.362,405.814,151.222,406.055,150.069,406.069z"/>
		<path style="fill:#E6E7E8;" d="M150.069,441.379c-1.153-0.014-2.293-0.254-3.353-0.707c-1.07-0.447-2.056-1.074-2.914-1.854
			c-1.661-1.66-2.584-3.919-2.56-6.267c-0.032-1.158,0.21-2.307,0.707-3.353c0.447-1.07,1.074-2.056,1.854-2.914
			c0.418-0.379,0.859-0.733,1.319-1.06c0.493-0.336,1.03-0.603,1.595-0.793c0.5-0.255,1.034-0.435,1.586-0.534
			c1.132-0.259,2.308-0.259,3.44,0c0.586,0.086,1.153,0.267,1.681,0.534c0.543,0.174,1.051,0.442,1.5,0.793
			c0.506,0.304,0.98,0.659,1.414,1.06c0.78,0.858,1.407,1.844,1.854,2.914c1.409,3.284,0.675,7.096-1.854,9.621
			c-0.859,0.778-1.845,1.405-2.914,1.854C152.362,441.125,151.222,441.365,150.069,441.379z"/>
		<path style="fill:#E6E7E8;" d="M185.379,264.828c-1.153-0.014-2.293-0.254-3.353-0.707c-1.07-0.447-2.056-1.074-2.914-1.854
			c-2.528-2.525-3.263-6.337-1.854-9.621c0.447-1.07,1.074-2.056,1.854-2.914c3.539-3.267,8.995-3.267,12.534,0
			c0.78,0.858,1.407,1.844,1.854,2.914c1.409,3.284,0.675,7.096-1.853,9.621c-0.859,0.778-1.845,1.405-2.914,1.854
			C187.672,264.574,186.533,264.814,185.379,264.828z"/>
		<path style="fill:#E6E7E8;" d="M185.379,300.138c-2.348,0.023-4.607-0.899-6.268-2.56c-0.778-0.859-1.405-1.845-1.854-2.914
			c-0.497-1.047-0.739-2.196-0.706-3.354c-0.021-3.586,2.13-6.829,5.442-8.204c3.312-1.375,7.127-0.61,9.653,1.937
			c1.627,1.683,2.543,3.927,2.56,6.268c0.023,2.348-0.9,4.607-2.56,6.267C189.986,299.238,187.727,300.161,185.379,300.138z"/>
		<path style="fill:#E6E7E8;" d="M185.379,335.448c-1.153-0.014-2.293-0.254-3.353-0.707c-1.07-0.447-2.056-1.074-2.914-1.854
			c-2.528-2.525-3.263-6.337-1.854-9.621c0.426-1.081,1.055-2.07,1.854-2.914c3.539-3.267,8.995-3.267,12.534,0
			c0.799,0.844,1.428,1.833,1.854,2.914c1.409,3.284,0.675,7.096-1.853,9.621c-0.859,0.778-1.845,1.405-2.914,1.854
			C187.672,335.194,186.533,335.434,185.379,335.448z"/>
		<path style="fill:#E6E7E8;" d="M185.379,370.759c-1.153-0.014-2.293-0.254-3.353-0.707c-1.07-0.447-2.056-1.074-2.914-1.854
			c-0.804-0.858-1.462-1.843-1.948-2.914c-0.422-1.067-0.63-2.206-0.612-3.353c-0.032-1.158,0.21-2.307,0.707-3.353
			c0.426-1.081,1.055-2.07,1.854-2.914c2.083-2.069,5.061-2.965,7.94-2.388c0.586,0.086,1.153,0.267,1.681,0.534
			c0.543,0.174,1.051,0.442,1.5,0.793c0.506,0.304,0.98,0.659,1.414,1.06c0.799,0.844,1.428,1.833,1.854,2.914
			c0.943,2.136,0.943,4.571,0,6.707c-0.804,2.217-2.55,3.963-4.767,4.767C187.673,370.504,186.533,370.744,185.379,370.759z"/>
		<path style="fill:#E6E7E8;" d="M185.379,406.069c-1.153-0.014-2.293-0.254-3.353-0.707c-1.07-0.447-2.056-1.074-2.914-1.854
			c-1.661-1.66-2.584-3.919-2.56-6.267c0.031-2.338,0.945-4.577,2.56-6.268l1.319-1.06c0.493-0.336,1.03-0.603,1.595-0.793
			c0.5-0.255,1.034-0.435,1.586-0.535c1.164-0.259,2.371-0.259,3.535,0c0.552,0.101,1.086,0.281,1.586,0.535
			c0.563,0.191,1.096,0.457,1.586,0.793c0.44,0.353,0.888,0.707,1.328,1.06c1.612,1.693,2.526,3.931,2.561,6.268
			c0.02,2.348-0.902,4.605-2.56,6.268c-0.859,0.778-1.845,1.405-2.914,1.854C187.672,405.815,186.533,406.055,185.379,406.069z"/>
		<path style="fill:#E6E7E8;" d="M185.379,441.379c-1.153-0.014-2.293-0.254-3.353-0.707c-1.07-0.447-2.056-1.074-2.914-1.854
			c-1.661-1.66-2.584-3.919-2.56-6.267c-0.032-1.158,0.21-2.307,0.707-3.353c0.447-1.07,1.074-2.056,1.854-2.914
			c0.418-0.379,0.859-0.733,1.319-1.06c0.493-0.336,1.03-0.603,1.595-0.793c0.5-0.255,1.034-0.435,1.586-0.534
			c1.721-0.36,3.511-0.173,5.121,0.534c1.069,0.449,2.054,1.075,2.914,1.854c0.78,0.858,1.407,1.844,1.854,2.914
			c0.943,2.136,0.943,4.571,0,6.707c-0.804,2.217-2.55,3.963-4.767,4.767C187.673,441.125,186.533,441.365,185.379,441.379z"/>
		<path style="fill:#E6E7E8;" d="M220.69,264.828c-1.153-0.014-2.293-0.254-3.353-0.707c-1.07-0.447-2.056-1.074-2.914-1.854
			c-2.528-2.525-3.263-6.337-1.854-9.621c0.447-1.07,1.074-2.056,1.854-2.914c3.539-3.267,8.995-3.267,12.534,0
			c0.78,0.858,1.407,1.844,1.854,2.914c1.409,3.284,0.675,7.096-1.853,9.621c-0.859,0.778-1.845,1.405-2.914,1.854
			C222.982,264.574,221.843,264.814,220.69,264.828z"/>
		<path style="fill:#E6E7E8;" d="M220.69,300.138c-2.348,0.023-4.607-0.9-6.267-2.56c-1.66-1.66-2.583-3.919-2.56-6.267
			c0.031-2.338,0.945-4.577,2.56-6.268c0.418-0.379,0.859-0.733,1.319-1.06c0.493-0.336,1.03-0.603,1.595-0.793
			c0.5-0.255,1.034-0.435,1.586-0.535c1.132-0.259,2.308-0.259,3.44,0c0.586,0.086,1.153,0.267,1.681,0.535
			c0.543,0.174,1.051,0.442,1.5,0.793c0.507,0.304,0.98,0.66,1.415,1.06c1.611,1.693,2.525,3.931,2.56,6.268
			c0.023,2.348-0.9,4.607-2.56,6.267C225.296,299.238,223.038,300.161,220.69,300.138z"/>
		<path style="fill:#E6E7E8;" d="M220.69,335.448c-2.348,0.023-4.607-0.9-6.267-2.56c-1.66-1.66-2.583-3.919-2.56-6.267
			c-0.032-1.158,0.21-2.307,0.707-3.353c0.426-1.081,1.055-2.07,1.854-2.914c3.539-3.267,8.995-3.267,12.534,0
			c0.799,0.844,1.428,1.833,1.854,2.914c1.163,2.715,0.876,5.833-0.762,8.29S223.643,335.478,220.69,335.448z"/>
		<path style="fill:#E6E7E8;" d="M220.69,370.759c-1.153-0.014-2.293-0.254-3.353-0.707c-1.07-0.447-2.056-1.074-2.914-1.854
			c-0.778-0.859-1.405-1.845-1.854-2.914c-0.943-2.136-0.943-4.571,0-6.707c0.426-1.081,1.055-2.07,1.854-2.914
			c3.539-3.267,8.995-3.267,12.534,0c0.799,0.844,1.428,1.833,1.854,2.914c0.943,2.136,0.943,4.571,0,6.707
			c-0.449,1.069-1.075,2.054-1.854,2.914C225.295,369.856,223.037,370.778,220.69,370.759z"/>
		<path style="fill:#E6E7E8;" d="M220.69,406.069c-2.348,0.023-4.607-0.9-6.267-2.56c-1.66-1.66-2.583-3.919-2.56-6.267
			c0.031-2.338,0.945-4.577,2.56-6.268c3.518-3.322,9.017-3.322,12.534,0c1.612,1.693,2.526,3.931,2.561,6.268
			c0.02,2.348-0.902,4.605-2.56,6.268c-0.859,0.778-1.845,1.405-2.914,1.854C222.982,405.815,221.843,406.055,220.69,406.069z"/>
		<path style="fill:#E6E7E8;" d="M220.69,441.379c-2.348,0.023-4.607-0.899-6.268-2.56c-0.778-0.859-1.405-1.845-1.854-2.914
			c-0.943-2.136-0.943-4.571,0-6.707c0.447-1.07,1.074-2.056,1.854-2.914c0.418-0.379,0.859-0.733,1.319-1.06
			c0.493-0.336,1.03-0.603,1.595-0.793c0.5-0.255,1.034-0.435,1.586-0.535c2.908-0.577,5.914,0.316,8.035,2.387
			c1.611,1.693,2.525,3.931,2.56,6.268c0.02,2.348-0.902,4.605-2.56,6.268c-0.859,0.778-1.845,1.405-2.914,1.854
			C222.982,441.125,221.843,441.365,220.69,441.379z"/>
		<path style="fill:#E6E7E8;" d="M256,264.828c-1.153-0.014-2.293-0.254-3.353-0.707c-1.07-0.447-2.056-1.074-2.914-1.854
			c-2.528-2.525-3.263-6.337-1.854-9.621c0.447-1.07,1.074-2.056,1.854-2.914c3.539-3.267,8.995-3.267,12.534,0
			c0.78,0.858,1.407,1.844,1.854,2.914c1.409,3.284,0.675,7.096-1.853,9.621c-0.859,0.778-1.845,1.405-2.914,1.854
			C258.293,264.574,257.153,264.814,256,264.828z"/>
		<path style="fill:#E6E7E8;" d="M256,300.138c-1.153-0.014-2.293-0.254-3.353-0.707c-1.07-0.447-2.056-1.074-2.914-1.854
			c-1.661-1.66-2.584-3.919-2.56-6.267c0.031-2.338,0.945-4.577,2.56-6.268c2.535-2.51,6.334-3.242,9.621-1.854
			c1.069,0.449,2.054,1.075,2.914,1.854c1.612,1.693,2.526,3.931,2.561,6.268c0.023,2.348-0.9,4.607-2.56,6.267
			C260.607,299.238,258.348,300.161,256,300.138z"/>
		<path style="fill:#E6E7E8;" d="M256,335.448c-1.153-0.014-2.293-0.254-3.353-0.707c-1.081-0.426-2.07-1.055-2.914-1.854
			c-2.528-2.525-3.263-6.337-1.854-9.621c0.426-1.081,1.055-2.07,1.854-2.914l1.319-1.06c0.493-0.336,1.03-0.603,1.595-0.793
			c0.5-0.255,1.034-0.435,1.586-0.535c2.909-0.59,5.92,0.305,8.035,2.388c0.799,0.844,1.428,1.833,1.854,2.914
			c1.163,2.715,0.876,5.833-0.762,8.29C261.721,334.014,258.953,335.478,256,335.448z"/>
		<path style="fill:#E6E7E8;" d="M256,370.759c-1.153-0.014-2.293-0.254-3.353-0.707c-1.07-0.447-2.056-1.074-2.914-1.854
			c-0.804-0.858-1.462-1.843-1.948-2.914c-0.422-1.067-0.63-2.206-0.612-3.353c-0.032-1.158,0.21-2.307,0.707-3.353
			c0.426-1.081,1.055-2.07,1.854-2.914c2.083-2.069,5.061-2.965,7.94-2.388c0.586,0.086,1.153,0.267,1.681,0.534
			c0.543,0.174,1.051,0.442,1.5,0.793c0.506,0.304,0.98,0.659,1.414,1.06c0.799,0.844,1.428,1.833,1.854,2.914
			c0.943,2.136,0.943,4.571,0,6.707c-0.804,2.217-2.55,3.963-4.767,4.767C258.293,370.504,257.154,370.744,256,370.759z"/>
		<path style="fill:#E6E7E8;" d="M256,406.069c-1.153-0.014-2.293-0.254-3.353-0.707c-1.07-0.447-2.056-1.074-2.914-1.854
			c-1.661-1.66-2.584-3.919-2.56-6.267c0.031-2.338,0.945-4.577,2.56-6.268c2.083-2.069,5.061-2.965,7.94-2.388
			c0.586,0.086,1.153,0.267,1.681,0.535c0.543,0.174,1.051,0.442,1.5,0.793c0.526,0.353,0.974,0.707,1.414,1.06
			c1.612,1.693,2.526,3.931,2.561,6.268c-0.014,1.153-0.254,2.293-0.707,3.353c-0.804,2.217-2.55,3.963-4.767,4.767
			C258.293,405.814,257.153,406.055,256,406.069z"/>
		<path style="fill:#E6E7E8;" d="M256,441.379c-2.953,0.031-5.722-1.433-7.361-3.89s-1.924-5.576-0.76-8.291
			c0.447-1.07,1.074-2.056,1.854-2.914c0.844-0.799,1.833-1.428,2.914-1.854c3.258-1.396,7.037-0.661,9.535,1.854
			c1.652,1.673,2.599,3.916,2.646,6.267c0.028,2.366-0.931,4.637-2.647,6.268C260.515,440.419,258.309,441.333,256,441.379z"/>
		<path style="fill:#E6E7E8;" d="M291.31,264.828c-2.953,0.031-5.722-1.433-7.361-3.89c-1.638-2.457-1.924-5.576-0.76-8.291
			c0.447-1.07,1.074-2.056,1.854-2.914l1.319-1.06c0.493-0.336,1.03-0.603,1.595-0.793c0.5-0.255,1.034-0.435,1.586-0.535
			c2.909-0.59,5.92,0.305,8.035,2.388c0.78,0.858,1.407,1.844,1.854,2.914c1.409,3.284,0.675,7.096-1.854,9.621
			c-0.859,0.778-1.845,1.405-2.914,1.854C293.603,264.574,292.464,264.814,291.31,264.828z"/>
		<path style="fill:#E6E7E8;" d="M291.31,300.138c-1.153-0.014-2.293-0.254-3.353-0.707c-1.07-0.447-2.056-1.074-2.914-1.854
			c-1.661-1.66-2.584-3.919-2.56-6.267c0.031-2.338,0.945-4.577,2.56-6.268c0.844-0.799,1.833-1.428,2.914-1.854
			c3.287-1.378,7.081-0.647,9.621,1.854c1.612,1.693,2.526,3.931,2.561,6.268c0.02,2.348-0.902,4.605-2.56,6.268
			c-0.859,0.778-1.845,1.405-2.914,1.854C293.603,299.884,292.464,300.124,291.31,300.138z"/>
		<path style="fill:#E6E7E8;" d="M291.31,335.448c-1.153-0.014-2.293-0.254-3.353-0.707c-1.07-0.447-2.056-1.074-2.914-1.854
			c-1.661-1.66-2.584-3.919-2.56-6.267c-0.032-1.158,0.21-2.307,0.707-3.353c0.804-2.217,2.55-3.963,4.767-4.767
			c3.287-1.378,7.081-0.647,9.621,1.854c0.799,0.844,1.428,1.833,1.854,2.914c1.409,3.284,0.675,7.095-1.853,9.62
			c-0.859,0.778-1.845,1.405-2.914,1.854C293.603,335.194,292.464,335.434,291.31,335.448z"/>
		<path style="fill:#E6E7E8;" d="M291.31,370.759c-1.153-0.014-2.293-0.254-3.353-0.707c-1.07-0.447-2.056-1.074-2.914-1.854
			c-0.778-0.859-1.405-1.845-1.854-2.914c-0.943-2.136-0.943-4.571,0-6.707c0.426-1.081,1.055-2.07,1.854-2.914
			c2.083-2.069,5.061-2.965,7.94-2.388c0.586,0.086,1.153,0.267,1.681,0.535c0.543,0.174,1.051,0.442,1.5,0.793
			c0.506,0.304,0.98,0.66,1.414,1.06c0.799,0.844,1.428,1.833,1.854,2.914c0.943,2.136,0.943,4.571,0,6.707
			c-0.449,1.069-1.075,2.054-1.854,2.914C295.916,369.856,293.658,370.778,291.31,370.759z"/>
		<path style="fill:#E6E7E8;" d="M291.31,406.069c-1.153-0.014-2.293-0.254-3.353-0.707c-1.07-0.447-2.056-1.074-2.914-1.854
			c-1.661-1.66-2.584-3.919-2.56-6.267c0.031-2.338,0.945-4.577,2.56-6.268l1.319-1.06c0.493-0.336,1.03-0.603,1.595-0.793
			c0.5-0.255,1.034-0.435,1.586-0.535c2.909-0.59,5.921,0.305,8.035,2.388c1.611,1.693,2.526,3.931,2.56,6.268
			c0.02,2.348-0.902,4.605-2.56,6.268c-0.859,0.778-1.845,1.405-2.914,1.854C293.603,405.815,292.464,406.055,291.31,406.069z"/>
		<path style="fill:#E6E7E8;" d="M291.31,441.379c-1.153-0.014-2.293-0.254-3.353-0.707c-1.081-0.426-2.07-1.055-2.914-1.854
			c-2.528-2.525-3.263-6.337-1.854-9.621c0.447-1.07,1.074-2.056,1.854-2.914c0.844-0.799,1.833-1.428,2.914-1.854
			c1.609-0.708,3.4-0.895,5.121-0.535c0.552,0.101,1.086,0.281,1.586,0.535c0.543,0.174,1.051,0.442,1.5,0.793
			c0.506,0.304,0.98,0.66,1.414,1.061c0.78,0.858,1.407,1.844,1.854,2.914c0.943,2.136,0.943,4.571,0,6.707
			c-0.804,2.217-2.55,3.963-4.767,4.767C293.604,441.125,292.464,441.365,291.31,441.379z"/>
		<path style="fill:#E6E7E8;" d="M326.621,264.828c-2.953,0.031-5.722-1.433-7.361-3.89c-1.638-2.457-1.924-5.576-0.76-8.291
			c0.804-2.217,2.55-3.963,4.767-4.767c1.577-0.703,3.336-0.89,5.026-0.535c0.586,0.086,1.153,0.267,1.681,0.535
			c0.543,0.174,1.051,0.442,1.5,0.793c0.526,0.353,0.974,0.707,1.414,1.06c0.78,0.858,1.407,1.844,1.854,2.914
			c0.493,1.048,0.735,2.196,0.707,3.353c0.023,2.348-0.9,4.607-2.56,6.267C331.227,263.928,328.969,264.85,326.621,264.828z"/>
		<path style="fill:#E6E7E8;" d="M326.621,300.138c-2.348,0.023-4.607-0.9-6.267-2.56c-1.66-1.66-2.583-3.919-2.56-6.267
			c0.031-2.338,0.945-4.577,2.56-6.268c2.083-2.069,5.061-2.965,7.94-2.388c0.586,0.086,1.153,0.267,1.681,0.535
			c0.543,0.174,1.051,0.442,1.5,0.793c0.507,0.304,0.98,0.66,1.415,1.06c1.611,1.693,2.525,3.931,2.56,6.268
			c0.023,2.348-0.9,4.607-2.56,6.267C331.227,299.238,328.969,300.161,326.621,300.138z"/>
		<path style="fill:#E6E7E8;" d="M326.621,335.448c-2.348,0.023-4.607-0.899-6.268-2.56c-0.776-0.881-1.431-1.86-1.948-2.914
			c-0.816-2.161-0.816-4.546,0-6.707c0.494-1.067,1.152-2.05,1.948-2.914c2.083-2.069,5.061-2.965,7.94-2.388
			c0.586,0.086,1.153,0.267,1.681,0.535c0.543,0.174,1.051,0.442,1.5,0.793c0.526,0.353,0.974,0.707,1.414,1.06
			c0.799,0.844,1.428,1.833,1.854,2.914c1.409,3.284,0.675,7.096-1.853,9.621c-0.859,0.778-1.845,1.405-2.914,1.854
			C328.913,335.194,327.774,335.434,326.621,335.448z"/>
		<path style="fill:#E6E7E8;" d="M326.621,370.759c-1.153-0.014-2.293-0.254-3.353-0.707c-1.07-0.447-2.056-1.074-2.914-1.854
			c-0.804-0.858-1.462-1.843-1.948-2.914c-0.422-1.067-0.63-2.206-0.612-3.353c-0.032-1.158,0.21-2.307,0.707-3.353
			c0.804-2.217,2.55-3.963,4.767-4.767c2.13-0.974,4.577-0.974,6.707,0c1.069,0.449,2.054,1.075,2.914,1.854
			c0.799,0.844,1.428,1.833,1.854,2.914c0.943,2.136,0.943,4.571,0,6.707c-0.804,2.217-2.55,3.963-4.767,4.767
			C328.913,370.505,327.774,370.745,326.621,370.759z"/>
		<path style="fill:#E6E7E8;" d="M326.621,406.069c-2.348,0.023-4.607-0.9-6.267-2.56c-1.66-1.66-2.583-3.919-2.56-6.267
			c0.031-2.338,0.945-4.577,2.56-6.268c3.518-3.322,9.017-3.322,12.534,0c1.612,1.693,2.526,3.931,2.561,6.268
			c0.02,2.348-0.902,4.605-2.56,6.268c-0.859,0.778-1.845,1.405-2.914,1.854C328.913,405.815,327.774,406.055,326.621,406.069z"/>
		<path style="fill:#E6E7E8;" d="M326.621,441.379c-1.153-0.014-2.293-0.254-3.353-0.707c-1.07-0.447-2.056-1.074-2.914-1.854
			c-0.804-0.858-1.462-1.843-1.948-2.914c-0.422-1.067-0.63-2.206-0.612-3.353c-0.032-1.158,0.21-2.307,0.707-3.353
			c0.447-1.07,1.074-2.056,1.854-2.914c0.844-0.799,1.833-1.428,2.914-1.854c1.577-0.703,3.336-0.89,5.026-0.535
			c0.586,0.086,1.153,0.267,1.681,0.535c0.543,0.174,1.051,0.442,1.5,0.793c0.506,0.304,0.98,0.66,1.414,1.06
			c0.78,0.858,1.407,1.844,1.854,2.914c1.409,3.284,0.675,7.096-1.854,9.621c-0.859,0.778-1.845,1.405-2.914,1.854
			C328.913,441.125,327.774,441.365,326.621,441.379z"/>
		<path style="fill:#E6E7E8;" d="M361.931,264.828c-2.348,0.023-4.607-0.9-6.267-2.56c-1.66-1.66-2.583-3.919-2.56-6.267
			c-0.032-1.158,0.21-2.307,0.707-3.353c0.447-1.07,1.074-2.056,1.854-2.914c0.844-0.799,1.833-1.428,2.914-1.854
			c3.287-1.378,7.081-0.647,9.621,1.854c0.799,0.844,1.428,1.833,1.854,2.914c1.409,3.284,0.675,7.096-1.854,9.621
			c-0.859,0.778-1.845,1.405-2.914,1.854C364.224,264.574,363.084,264.814,361.931,264.828z"/>
		<path style="fill:#E6E7E8;" d="M361.931,300.138c-2.348,0.023-4.607-0.9-6.267-2.56c-1.66-1.66-2.583-3.919-2.56-6.267
			c0.013-2.341,0.93-4.587,2.56-6.268c0.418-0.379,0.859-0.733,1.319-1.06c0.493-0.336,1.03-0.603,1.595-0.793
			c0.5-0.255,1.034-0.435,1.586-0.535c2.909-0.59,5.921,0.305,8.035,2.388c1.611,1.693,2.525,3.931,2.56,6.268
			c0.023,2.348-0.9,4.607-2.56,6.267C366.538,299.238,364.279,300.161,361.931,300.138z"/>
		<path style="fill:#E6E7E8;" d="M361.931,335.448c-1.153-0.014-2.293-0.254-3.353-0.707c-1.07-0.447-2.056-1.074-2.914-1.854
			c-2.528-2.525-3.263-6.337-1.854-9.621c0.426-1.081,1.055-2.07,1.854-2.914l1.319-1.06c0.493-0.336,1.03-0.603,1.595-0.793
			c0.5-0.255,1.034-0.435,1.586-0.535c2.909-0.59,5.92,0.305,8.035,2.388c0.799,0.844,1.428,1.833,1.854,2.914
			c0.943,2.136,0.943,4.571,0,6.707c-0.449,1.069-1.075,2.054-1.854,2.914C366.536,334.546,364.279,335.468,361.931,335.448z"/>
		<path style="fill:#E6E7E8;" d="M361.931,370.759c-1.153-0.014-2.293-0.254-3.353-0.707c-1.07-0.447-2.056-1.074-2.914-1.854
			c-0.778-0.859-1.405-1.845-1.854-2.914c-0.943-2.136-0.943-4.571,0-6.707c0.426-1.081,1.055-2.07,1.854-2.914
			c0.418-0.379,0.859-0.733,1.319-1.06c0.493-0.336,1.03-0.603,1.595-0.793c0.5-0.255,1.034-0.435,1.586-0.535
			c1.132-0.259,2.308-0.259,3.44,0c0.586,0.086,1.153,0.267,1.681,0.535c0.543,0.174,1.051,0.442,1.5,0.793
			c0.506,0.304,0.98,0.66,1.414,1.06c0.799,0.844,1.428,1.833,1.854,2.914c0.943,2.136,0.943,4.571,0,6.707
			c-0.449,1.069-1.075,2.054-1.854,2.914C366.536,369.856,364.279,370.778,361.931,370.759z"/>
		<path style="fill:#E6E7E8;" d="M361.931,406.069c-1.153-0.014-2.293-0.254-3.353-0.707c-1.07-0.447-2.056-1.074-2.914-1.854
			c-1.661-1.66-2.584-3.919-2.56-6.267c0.031-2.338,0.945-4.577,2.56-6.268c2.083-2.069,5.061-2.965,7.94-2.388
			c0.586,0.086,1.153,0.267,1.681,0.535c0.543,0.174,1.051,0.442,1.5,0.793c0.526,0.353,0.974,0.707,1.414,1.06
			c1.612,1.693,2.526,3.931,2.561,6.268c0.02,2.348-0.902,4.605-2.56,6.268c-0.859,0.778-1.845,1.405-2.914,1.854
			C364.224,405.815,363.084,406.055,361.931,406.069z"/>
		<path style="fill:#E6E7E8;" d="M361.931,441.379c-1.153-0.014-2.293-0.254-3.353-0.707c-1.07-0.447-2.056-1.074-2.914-1.854
			c-1.661-1.66-2.584-3.919-2.56-6.267c-0.032-1.158,0.21-2.307,0.707-3.353c0.447-1.07,1.074-2.056,1.854-2.914
			c0.418-0.379,0.859-0.733,1.319-1.06c0.493-0.336,1.03-0.603,1.595-0.793c0.5-0.255,1.034-0.435,1.586-0.534
			c1.132-0.259,2.308-0.259,3.44,0c0.586,0.086,1.153,0.267,1.681,0.534c0.563,0.191,1.096,0.457,1.586,0.793
			c0.463,0.327,0.906,0.681,1.328,1.06c0.78,0.858,1.407,1.844,1.854,2.914c1.409,3.284,0.675,7.096-1.854,9.621
			c-0.859,0.778-1.845,1.405-2.914,1.854C364.224,441.125,363.084,441.365,361.931,441.379z"/>
		<path style="fill:#E6E7E8;" d="M397.241,264.828c-2.348,0.023-4.607-0.9-6.267-2.56c-1.66-1.66-2.583-3.919-2.56-6.267
			c-0.032-1.158,0.21-2.307,0.707-3.353c0.447-1.07,1.074-2.056,1.854-2.914l1.319-1.06c0.493-0.336,1.03-0.603,1.595-0.793
			c0.525-0.268,1.09-0.448,1.672-0.535c2.882-0.577,5.861,0.318,7.948,2.388c0.78,0.858,1.407,1.844,1.854,2.914
			c0.452,1.061,0.692,2.2,0.706,3.354c0.004,2.344-0.916,4.596-2.56,6.268C401.847,263.925,399.589,264.848,397.241,264.828z"/>
		<path style="fill:#E6E7E8;" d="M397.241,300.138c-1.153-0.014-2.293-0.254-3.353-0.707c-1.07-0.447-2.056-1.074-2.914-1.854
			c-1.661-1.66-2.584-3.919-2.56-6.267c0-4.875,3.952-8.828,8.828-8.828c4.875,0,8.828,3.952,8.828,8.828
			c0.023,2.348-0.9,4.607-2.56,6.267C401.848,299.238,399.59,300.161,397.241,300.138z"/>
		<path style="fill:#E6E7E8;" d="M397.241,335.448c-2.348,0.023-4.607-0.9-6.267-2.56c-1.66-1.66-2.583-3.919-2.56-6.267
			c-0.032-1.158,0.21-2.307,0.707-3.353c0.804-2.217,2.55-3.963,4.767-4.767c1.609-0.708,3.4-0.895,5.121-0.535
			c0.552,0.101,1.086,0.281,1.586,0.535c0.563,0.191,1.096,0.457,1.586,0.793c0.44,0.353,0.888,0.707,1.328,1.06
			c0.799,0.844,1.428,1.833,1.854,2.914c1.162,2.714,0.876,5.832-0.762,8.289C402.962,334.014,400.194,335.477,397.241,335.448z"/>
		<path style="fill:#E6E7E8;" d="M397.241,370.759c-1.153-0.014-2.293-0.254-3.353-0.707c-1.07-0.447-2.056-1.074-2.914-1.854
			c-0.804-0.858-1.462-1.843-1.948-2.914c-0.422-1.067-0.63-2.206-0.612-3.353c-0.032-1.158,0.21-2.307,0.707-3.353
			c0.804-2.217,2.55-3.963,4.767-4.767c3.287-1.378,7.081-0.647,9.621,1.854c0.799,0.844,1.428,1.833,1.854,2.914
			c0.452,1.061,0.693,2.2,0.707,3.353c0.004,2.344-0.916,4.596-2.56,6.268c-0.859,0.778-1.845,1.405-2.914,1.854
			C399.534,370.505,398.395,370.745,397.241,370.759z"/>
		<path style="fill:#E6E7E8;" d="M397.241,406.069c-1.153-0.014-2.293-0.254-3.353-0.707c-1.07-0.447-2.056-1.074-2.914-1.854
			c-1.661-1.66-2.584-3.919-2.56-6.267c0.031-2.338,0.945-4.577,2.56-6.268l1.319-1.06c0.493-0.336,1.03-0.603,1.595-0.793
			c0.5-0.255,1.034-0.435,1.586-0.535c2.909-0.59,5.921,0.305,8.035,2.388c1.611,1.693,2.526,3.931,2.56,6.268
			c0.02,2.348-0.902,4.605-2.56,6.268c-0.859,0.778-1.845,1.405-2.914,1.854C399.534,405.815,398.395,406.055,397.241,406.069z"/>
		<path style="fill:#E6E7E8;" d="M397.241,441.379c-1.153-0.014-2.293-0.254-3.353-0.707c-1.081-0.426-2.07-1.055-2.914-1.854
			c-1.661-1.66-2.584-3.919-2.56-6.267c-0.032-1.158,0.21-2.307,0.707-3.353c0.447-1.07,1.074-2.056,1.854-2.914
			c0.418-0.379,0.859-0.733,1.319-1.06c0.493-0.336,1.03-0.603,1.595-0.793c0.5-0.255,1.034-0.435,1.586-0.534
			c2.908-0.577,5.914,0.316,8.035,2.388c0.78,0.858,1.407,1.844,1.854,2.914c0.493,1.048,0.735,2.196,0.706,3.354
			c0.004,2.344-0.916,4.596-2.56,6.268c-0.859,0.778-1.845,1.405-2.914,1.854C399.534,441.125,398.395,441.365,397.241,441.379z"/>
		<path style="fill:#E6E7E8;" d="M432.552,264.828c-2.348,0.023-4.607-0.9-6.267-2.56c-1.66-1.66-2.583-3.919-2.56-6.267
			c-0.032-1.158,0.21-2.307,0.707-3.353c0.447-1.07,1.074-2.056,1.854-2.914c3.539-3.267,8.995-3.267,12.534,0
			c0.78,0.858,1.407,1.844,1.854,2.914c1.163,2.715,0.876,5.833-0.762,8.29C438.273,263.393,435.505,264.857,432.552,264.828z"/>
		<path style="fill:#E6E7E8;" d="M432.552,300.138c-1.153-0.014-2.293-0.254-3.353-0.707c-1.07-0.447-2.056-1.074-2.914-1.854
			c-1.661-1.66-2.584-3.919-2.56-6.267c0.013-2.341,0.93-4.587,2.56-6.268c0.418-0.379,0.859-0.733,1.319-1.06
			c0.493-0.336,1.03-0.603,1.595-0.793c0.5-0.255,1.034-0.435,1.586-0.535c2.909-0.59,5.921,0.305,8.035,2.388
			c1.611,1.693,2.525,3.931,2.56,6.268c0.02,2.348-0.902,4.605-2.56,6.268c-0.859,0.778-1.845,1.405-2.914,1.854
			C434.844,299.884,433.705,300.124,432.552,300.138z"/>
		<path style="fill:#E6E7E8;" d="M432.552,335.448c-1.153-0.014-2.293-0.254-3.353-0.707c-1.07-0.447-2.056-1.074-2.914-1.854
			c-2.528-2.525-3.263-6.337-1.854-9.621c0.426-1.081,1.055-2.07,1.854-2.914c2.083-2.069,5.061-2.965,7.94-2.388
			c0.586,0.086,1.153,0.267,1.681,0.535c0.543,0.174,1.051,0.442,1.5,0.793c0.526,0.353,0.974,0.707,1.414,1.06
			c0.799,0.844,1.428,1.833,1.854,2.914c1.163,2.715,0.876,5.833-0.762,8.29C438.273,334.014,435.505,335.478,432.552,335.448z"/>
		<path style="fill:#E6E7E8;" d="M432.552,370.759c-1.153-0.014-2.293-0.254-3.353-0.707c-1.07-0.447-2.056-1.074-2.914-1.854
			c-0.778-0.859-1.405-1.845-1.854-2.914c-0.943-2.136-0.943-4.571,0-6.707c0.426-1.081,1.055-2.07,1.854-2.914
			c0.418-0.379,0.859-0.733,1.319-1.06c0.493-0.336,1.03-0.603,1.595-0.793c0.5-0.255,1.034-0.435,1.586-0.535
			c1.132-0.259,2.308-0.259,3.44,0c0.586,0.086,1.153,0.267,1.681,0.535c0.543,0.174,1.051,0.442,1.5,0.793
			c0.506,0.304,0.98,0.66,1.414,1.06c0.799,0.844,1.428,1.833,1.854,2.914c0.943,2.136,0.943,4.571,0,6.707
			c-0.449,1.069-1.075,2.054-1.854,2.914C437.157,369.856,434.899,370.778,432.552,370.759z"/>
		<path style="fill:#E6E7E8;" d="M432.552,406.069c-2.348,0.023-4.607-0.9-6.267-2.56c-1.66-1.66-2.583-3.919-2.56-6.267
			c0.031-2.338,0.945-4.577,2.56-6.268c3.518-3.322,9.017-3.322,12.534,0c1.612,1.693,2.526,3.931,2.561,6.268
			c0.02,2.348-0.902,4.605-2.56,6.268c-0.859,0.778-1.845,1.405-2.914,1.854C434.844,405.815,433.705,406.055,432.552,406.069z"/>
		<path style="fill:#E6E7E8;" d="M432.552,441.379c-2.953,0.031-5.722-1.433-7.361-3.89c-1.638-2.457-1.924-5.576-0.76-8.291
			c0.447-1.07,1.074-2.056,1.854-2.914c0.418-0.379,0.859-0.733,1.319-1.06c0.493-0.336,1.03-0.603,1.595-0.793
			c0.525-0.268,1.09-0.448,1.672-0.534c2.881-0.564,5.855,0.329,7.948,2.388c0.78,0.858,1.407,1.844,1.854,2.914
			c1.163,2.715,0.876,5.833-0.762,8.29C438.273,439.945,435.505,441.409,432.552,441.379z"/>
	</g>
	<g>
		<path style="fill:#2C3E50;" d="M58.14,128.759L58.14,128.759c6.895-6.895,18.073-6.895,24.968,0L97.11,142.76
			c6.895,6.895,6.895,18.073,0,24.968l0,0c-6.895,6.895-18.073,6.895-24.968,0L58.14,153.727
			C51.246,146.833,51.246,135.654,58.14,128.759z"/>
		<path style="fill:#2C3E50;" d="M414.918,167.705c-6.895-6.895-6.895-18.073,0-24.968l13.999-13.999
			c6.895-6.895,18.073-6.895,24.968,0c6.895,6.895,6.895,18.074,0,24.968l-13.999,13.999
			C432.992,174.6,421.813,174.6,414.918,167.705z"/>
	</g>
	<path style="fill:#3F5C6C;" d="M167.724,17.655H44.138c-9.722,0.07-17.585,7.934-17.655,17.655
		c0.029,9.739,7.916,17.627,17.655,17.655h120.497L167.724,17.655z"/>
	<path style="fill:#35495E;" d="M503.172,35.31c-0.071,9.721-7.934,17.584-17.655,17.655h-35.31v-35.31h35.31
		C495.256,17.684,503.144,25.571,503.172,35.31z"/>
	<path style="fill:#2C3E50;" d="M361.931,44.138c0.031,1.637-0.028,3.274-0.177,4.904c0.095,11.683-2.888,23.185-8.651,33.348
		c-1.815,3.277-5.105,5.471-8.828,5.886H167.724c-3.723-0.415-7.013-2.609-8.828-5.886c-5.763-10.163-8.746-21.665-8.651-33.348
		c-0.149-1.63-0.208-3.268-0.177-4.904c-0.313-11.78,1.915-23.488,6.532-34.33c0.667-1.363,1.434-2.674,2.295-3.924
		c1.815-3.276,5.105-5.469,8.828-5.885h176.552c3.722,0.415,7.012,2.609,8.828,5.885c0.861,1.249,1.628,2.561,2.295,3.924
		C360.016,20.65,362.244,32.358,361.931,44.138z"/>
</g>
<g>
</g>
<g>
</g>
<g>
</g>
<g>
</g>
<g>
</g>
<g>
</g>
<g>
</g>
<g>
</g>
<g>
</g>
<g>
</g>
<g>
</g>
<g>
</g>
<g>
</g>
<g>
</g>
<g>
</g>
</svg>
