<?xml version="1.0" encoding="iso-8859-1"?>
<!-- Generator: Adobe Illustrator 19.0.0, SVG Export Plug-In . SVG Version: 6.00 Build 0)  -->
<svg version="1.1" id="Capa_1" xmlns="http://www.w3.org/2000/svg" xmlns:xlink="http://www.w3.org/1999/xlink" x="0px" y="0px"
	 viewBox="0 0 512 512" style="enable-background:new 0 0 512 512;" xml:space="preserve">
<g>
	<path style="fill:#527F72;" d="M8.828,0h494.345C508.048,0,512,3.952,512,8.828v494.345c0,4.875-3.952,8.828-8.828,8.828H8.828
		C3.952,512,0,508.048,0,503.172V8.828C0,3.952,3.952,0,8.828,0z"/>
	<path style="fill:#BDC3C7;" d="M388.414,105.931v300.138c0,4.875-3.952,8.828-8.828,8.828H132.414
		c-4.875,0-8.828-3.952-8.828-8.828V105.931c0-4.875,3.952-8.828,8.828-8.828h247.172
		C384.462,97.103,388.414,101.056,388.414,105.931z"/>
	<g>
		<path style="fill:#FFFFFF;" d="M158.897,141.241c-2.953,0.031-5.722-1.433-7.361-3.89c-1.638-2.457-1.924-5.576-0.76-8.291
			c0.447-1.07,1.074-2.056,1.854-2.914c3.539-3.267,8.995-3.267,12.534,0c0.799,0.844,1.428,1.833,1.854,2.914
			c1.409,3.284,0.675,7.095-1.854,9.621c-0.879,0.776-1.859,1.428-2.914,1.94C161.184,141.046,160.044,141.257,158.897,141.241z"/>
		<path style="fill:#FFFFFF;" d="M194.207,141.241c-2.953,0.031-5.722-1.433-7.361-3.89c-1.638-2.457-1.924-5.576-0.76-8.291
			c0.447-1.07,1.074-2.056,1.854-2.914c2.09-2.057,5.061-2.951,7.94-2.388c0.586,0.086,1.153,0.267,1.681,0.535
			c0.543,0.174,1.051,0.442,1.5,0.793c0.495,0.283,0.942,0.641,1.328,1.06c0.853,0.817,1.515,1.812,1.94,2.914
			c0.943,2.136,0.943,4.571,0,6.707c-0.448,1.09-1.107,2.08-1.94,2.914c-0.833,0.794-1.787,1.448-2.828,1.94
			C196.494,141.046,195.355,141.257,194.207,141.241z"/>
		<path style="fill:#FFFFFF;" d="M158.897,176.552c-2.34-0.017-4.585-0.933-6.268-2.56c-1.661-1.66-2.584-3.919-2.56-6.268
			c0.031-2.338,0.945-4.577,2.56-6.268c2.535-2.51,6.334-3.242,9.621-1.854c1.069,0.449,2.054,1.075,2.914,1.854
			c1.612,1.693,2.526,3.931,2.561,6.268c0.02,2.348-0.902,4.605-2.56,6.268C163.479,175.616,161.236,176.532,158.897,176.552z"/>
		<path style="fill:#FFFFFF;" d="M194.207,176.552c-2.34-0.017-4.585-0.933-6.268-2.56c-1.661-1.66-2.584-3.919-2.56-6.268
			c0-4.875,3.952-8.828,8.828-8.828s8.828,3.952,8.828,8.828c0.02,2.348-0.902,4.605-2.56,6.268
			c-0.859,0.778-1.845,1.405-2.914,1.854C196.5,176.298,195.36,176.538,194.207,176.552z"/>
		<path style="fill:#FFFFFF;" d="M158.897,211.862c-1.153-0.014-2.293-0.254-3.353-0.707c-1.07-0.447-2.056-1.074-2.914-1.854
			c-0.778-0.859-1.405-1.845-1.854-2.914c-0.943-2.136-0.943-4.571,0-6.707c0.447-1.07,1.074-2.056,1.854-2.914
			c3.539-3.267,8.995-3.267,12.534,0c0.78,0.858,1.407,1.844,1.854,2.914c0.943,2.136,0.943,4.571,0,6.707
			c-0.449,1.069-1.075,2.054-1.854,2.914C163.502,210.959,161.244,211.882,158.897,211.862z"/>
		<path style="fill:#FFFFFF;" d="M194.207,211.862c-2.348,0.023-4.607-0.899-6.268-2.56c-0.778-0.859-1.405-1.845-1.854-2.914
			c-0.497-1.047-0.739-2.196-0.706-3.354c0.014-1.153,0.254-2.293,0.707-3.353c0.447-1.07,1.074-2.056,1.854-2.914
			c2.083-2.069,5.061-2.965,7.94-2.388c0.586,0.086,1.153,0.267,1.681,0.535c0.543,0.174,1.051,0.442,1.5,0.793
			c0.506,0.304,0.98,0.659,1.414,1.06c0.78,0.858,1.407,1.844,1.854,2.914c0.943,2.136,0.943,4.571,0,6.707
			c-0.449,1.069-1.075,2.054-1.854,2.914C198.812,210.959,196.555,211.882,194.207,211.862z"/>
		<path style="fill:#FFFFFF;" d="M158.897,247.172c-2.348,0.023-4.607-0.899-6.268-2.56c-0.776-0.881-1.431-1.86-1.948-2.914
			c-0.422-1.067-0.63-2.207-0.612-3.354c-0.032-1.158,0.21-2.307,0.707-3.353c0.447-1.07,1.074-2.056,1.854-2.914
			c3.539-3.267,8.995-3.267,12.534,0c0.78,0.858,1.407,1.844,1.854,2.914c0.943,2.136,0.943,4.571,0,6.707
			c-0.449,1.069-1.075,2.054-1.854,2.914C163.502,246.27,161.244,247.192,158.897,247.172z"/>
		<path style="fill:#FFFFFF;" d="M194.207,247.172c-1.148,0.015-2.287-0.196-3.353-0.621c-1.056-0.509-2.037-1.162-2.914-1.939
			c-0.778-0.859-1.405-1.845-1.854-2.914c-0.943-2.136-0.943-4.571,0-6.707c0.426-1.081,1.055-2.07,1.854-2.914
			c3.539-3.267,8.995-3.267,12.534,0c0.78,0.858,1.407,1.844,1.854,2.914c0.943,2.136,0.943,4.571,0,6.707
			c-0.449,1.069-1.075,2.054-1.854,2.914C198.812,246.27,196.554,247.192,194.207,247.172z"/>
		<path style="fill:#FFFFFF;" d="M158.897,282.483c-2.348,0.023-4.607-0.899-6.268-2.56c-0.776-0.881-1.431-1.86-1.948-2.914
			c-0.422-1.067-0.63-2.207-0.612-3.354c0-4.875,3.952-8.828,8.828-8.828s8.828,3.952,8.828,8.828
			c-0.014,1.153-0.254,2.293-0.707,3.353c-0.449,1.069-1.075,2.054-1.854,2.914C163.501,281.58,161.244,282.502,158.897,282.483z"/>
		<path style="fill:#FFFFFF;" d="M194.207,282.483c-2.348,0.023-4.607-0.9-6.267-2.56c-1.66-1.66-2.583-3.919-2.56-6.267
			c0.031-2.338,0.945-4.577,2.56-6.268c0.418-0.379,0.859-0.733,1.319-1.06c0.493-0.336,1.03-0.603,1.595-0.793
			c0.5-0.255,1.034-0.435,1.586-0.535c2.909-0.59,5.921,0.305,8.035,2.388c1.611,1.693,2.525,3.931,2.56,6.268
			c-0.014,1.153-0.254,2.293-0.707,3.353c-0.449,1.069-1.075,2.054-1.854,2.914C198.812,281.58,196.554,282.502,194.207,282.483z"/>
		<path style="fill:#FFFFFF;" d="M158.897,317.793c-1.153-0.014-2.293-0.254-3.353-0.707c-1.07-0.447-2.056-1.074-2.914-1.854
			c-0.776-0.881-1.431-1.86-1.948-2.914c-0.422-1.067-0.63-2.206-0.612-3.353c0.031-2.338,0.945-4.577,2.56-6.268
			c2.114-2.084,5.126-2.979,8.035-2.388c0.552,0.101,1.086,0.281,1.586,0.535c0.563,0.191,1.096,0.457,1.586,0.793
			c0.44,0.353,0.888,0.707,1.328,1.06c1.612,1.693,2.526,3.931,2.561,6.268c-0.014,1.153-0.254,2.293-0.707,3.353
			c-0.449,1.069-1.075,2.054-1.854,2.914C163.501,316.891,161.244,317.813,158.897,317.793z"/>
		<path style="fill:#FFFFFF;" d="M194.207,317.793c-1.153-0.014-2.293-0.254-3.353-0.707c-1.07-0.447-2.056-1.074-2.914-1.854
			c-0.778-0.859-1.405-1.845-1.854-2.914c-0.452-1.061-0.692-2.2-0.707-3.353c0-4.875,3.952-8.828,8.828-8.828
			s8.828,3.952,8.828,8.828c-0.014,1.153-0.254,2.293-0.707,3.353c-0.804,2.217-2.55,3.963-4.767,4.767
			C196.5,317.539,195.36,317.779,194.207,317.793z"/>
		<path style="fill:#FFFFFF;" d="M158.897,353.103c-2.348,0.023-4.607-0.9-6.267-2.56c-1.66-1.66-2.583-3.919-2.56-6.267
			c-0.032-1.158,0.21-2.307,0.707-3.353c0.447-1.07,1.074-2.056,1.854-2.914c0.844-0.799,1.833-1.428,2.914-1.854
			c1.609-0.708,3.4-0.895,5.121-0.535c0.552,0.101,1.086,0.281,1.586,0.535c0.563,0.191,1.096,0.457,1.586,0.793
			c0.44,0.353,0.888,0.707,1.328,1.06c0.78,0.858,1.407,1.844,1.854,2.914c0.943,2.136,0.943,4.571,0,6.707
			c-0.804,2.217-2.55,3.963-4.767,4.767C161.19,352.849,160.05,353.089,158.897,353.103z"/>
		<path style="fill:#FFFFFF;" d="M194.207,353.103c-2.348,0.023-4.607-0.899-6.268-2.56c-0.776-0.881-1.431-1.86-1.948-2.914
			c-0.422-1.067-0.63-2.207-0.612-3.354c-0.032-1.158,0.21-2.307,0.707-3.353c0.447-1.07,1.074-2.056,1.854-2.914
			c0.844-0.799,1.833-1.428,2.914-1.854c2.139-0.931,4.568-0.931,6.707,0c1.069,0.449,2.054,1.075,2.914,1.854
			c0.78,0.858,1.407,1.844,1.854,2.914c0.943,2.136,0.943,4.571,0,6.707c-0.804,2.217-2.55,3.963-4.767,4.767
			C196.5,352.849,195.361,353.089,194.207,353.103z"/>
		<path style="fill:#FFFFFF;" d="M317.793,141.241c-2.348,0.023-4.607-0.9-6.267-2.56c-1.66-1.66-2.583-3.919-2.56-6.267
			c-0.032-1.158,0.21-2.307,0.707-3.353c0.447-1.07,1.074-2.056,1.854-2.914c2.535-2.51,6.334-3.242,9.621-1.854
			c0.563,0.191,1.096,0.457,1.586,0.793c0.463,0.327,0.906,0.681,1.328,1.06c0.799,0.844,1.428,1.833,1.854,2.914
			c0.452,1.061,0.692,2.2,0.706,3.354c-0.02,2.34-0.936,4.583-2.56,6.268C322.398,140.339,320.141,141.261,317.793,141.241z"/>
		<path style="fill:#FFFFFF;" d="M353.103,141.241c-2.348,0.023-4.607-0.899-6.268-2.56c-0.776-0.881-1.431-1.86-1.948-2.914
			c-0.422-1.067-0.63-2.206-0.612-3.354c-0.032-1.158,0.21-2.307,0.707-3.353c0.447-1.07,1.074-2.056,1.854-2.914
			c3.539-3.267,8.995-3.267,12.534,0c0.78,0.858,1.407,1.844,1.854,2.914c1.163,2.715,0.876,5.833-0.762,8.29
			C358.824,139.807,356.056,141.271,353.103,141.241z"/>
		<path style="fill:#FFFFFF;" d="M317.793,176.552c-2.34-0.017-4.585-0.933-6.268-2.56c-1.661-1.66-2.584-3.919-2.56-6.268
			c0-4.875,3.952-8.828,8.828-8.828s8.828,3.952,8.828,8.828c0.02,2.348-0.902,4.605-2.56,6.268
			C322.376,175.616,320.133,176.532,317.793,176.552z"/>
		<path style="fill:#FFFFFF;" d="M353.103,176.552c-2.34-0.017-4.585-0.933-6.268-2.56c-1.661-1.66-2.584-3.919-2.56-6.268
			c0-4.875,3.952-8.828,8.828-8.828s8.828,3.952,8.828,8.828c0.028,1.158-0.214,2.306-0.707,3.353
			c-0.449,1.069-1.075,2.054-1.854,2.914C357.686,175.615,355.443,176.532,353.103,176.552z"/>
		<path style="fill:#FFFFFF;" d="M317.793,211.862c-2.348,0.023-4.607-0.899-6.268-2.56c-0.778-0.859-1.405-1.845-1.854-2.914
			c-0.943-2.136-0.943-4.571,0-6.707c0.447-1.07,1.074-2.056,1.854-2.914c0.418-0.379,0.859-0.733,1.319-1.06
			c0.493-0.336,1.03-0.603,1.595-0.793c0.5-0.255,1.034-0.435,1.586-0.535c2.908-0.577,5.914,0.316,8.035,2.387
			c0.78,0.858,1.407,1.844,1.854,2.914c0.943,2.136,0.943,4.571,0,6.707c-0.449,1.069-1.075,2.054-1.854,2.914
			C322.398,210.959,320.141,211.882,317.793,211.862z"/>
		<path style="fill:#FFFFFF;" d="M353.103,211.862c-2.348,0.023-4.607-0.899-6.268-2.56c-0.804-0.858-1.462-1.843-1.948-2.914
			c-0.422-1.067-0.63-2.206-0.612-3.354c-0.032-1.158,0.21-2.307,0.707-3.353c0.447-1.07,1.074-2.056,1.854-2.914
			c2.121-2.071,5.126-2.965,8.035-2.388c0.552,0.101,1.086,0.281,1.586,0.535c0.563,0.191,1.096,0.457,1.586,0.793
			c0.463,0.327,0.906,0.681,1.328,1.06c0.78,0.858,1.407,1.844,1.854,2.914c0.943,2.136,0.943,4.571,0,6.707
			c-0.449,1.069-1.075,2.054-1.854,2.914C357.709,210.959,355.451,211.882,353.103,211.862z"/>
		<path style="fill:#FFFFFF;" d="M317.793,247.172c-2.348,0.023-4.607-0.899-6.268-2.56c-0.804-0.858-1.462-1.843-1.948-2.914
			c-0.422-1.067-0.63-2.207-0.612-3.354c-0.032-1.158,0.21-2.307,0.707-3.353c0.447-1.07,1.074-2.056,1.854-2.914
			c2.535-2.51,6.334-3.242,9.621-1.854c1.069,0.449,2.054,1.075,2.914,1.854c0.78,0.858,1.407,1.844,1.854,2.914
			c0.943,2.136,0.943,4.571,0,6.707c-0.449,1.069-1.075,2.054-1.854,2.914C322.398,246.27,320.141,247.192,317.793,247.172z"/>
		<path style="fill:#FFFFFF;" d="M353.103,247.172c-2.348,0.023-4.607-0.899-6.268-2.56c-0.778-0.859-1.405-1.845-1.854-2.914
			c-0.943-2.136-0.943-4.571,0-6.707c0.447-1.07,1.074-2.056,1.854-2.914l1.319-1.06c0.493-0.336,1.03-0.603,1.595-0.793
			c0.5-0.255,1.034-0.435,1.586-0.535c1.132-0.259,2.308-0.259,3.44,0c0.586,0.086,1.153,0.267,1.681,0.535
			c0.563,0.191,1.096,0.457,1.586,0.793c0.44,0.353,0.888,0.707,1.328,1.06c0.799,0.844,1.428,1.833,1.854,2.914
			c0.943,2.136,0.943,4.571,0,6.707c-0.449,1.069-1.075,2.054-1.854,2.914C357.708,246.27,355.451,247.192,353.103,247.172z"/>
		<path style="fill:#FFFFFF;" d="M317.793,282.483c-1.153-0.014-2.293-0.254-3.353-0.707c-1.07-0.447-2.056-1.074-2.914-1.854
			c-0.778-0.859-1.405-1.845-1.854-2.914c-0.452-1.061-0.692-2.2-0.707-3.353c0.031-2.338,0.945-4.577,2.56-6.268
			c2.114-2.084,5.126-2.979,8.035-2.388c0.552,0.101,1.086,0.281,1.586,0.535c0.563,0.191,1.096,0.457,1.586,0.793
			c0.463,0.327,0.907,0.681,1.328,1.06c1.611,1.693,2.526,3.931,2.56,6.268c0.02,2.348-0.902,4.605-2.56,6.268
			c-0.859,0.778-1.845,1.405-2.914,1.854C320.086,282.229,318.946,282.469,317.793,282.483z"/>
		<path style="fill:#FFFFFF;" d="M353.103,282.483c-2.348,0.023-4.607-0.899-6.268-2.56c-0.778-0.859-1.405-1.845-1.854-2.914
			c-0.497-1.047-0.739-2.196-0.706-3.354c0-4.875,3.952-8.828,8.828-8.828s8.828,3.952,8.828,8.828
			c-0.014,1.153-0.254,2.293-0.707,3.353c-0.449,1.069-1.075,2.054-1.854,2.914C357.708,281.58,355.451,282.502,353.103,282.483z"/>
		<path style="fill:#FFFFFF;" d="M317.793,317.793c-2.348,0.023-4.607-0.899-6.268-2.56c-0.778-0.859-1.405-1.845-1.854-2.914
			c-0.452-1.061-0.692-2.2-0.706-3.354c0.031-2.338,0.945-4.577,2.56-6.268l1.319-1.06c0.493-0.336,1.03-0.603,1.595-0.793
			c0.5-0.255,1.034-0.435,1.586-0.535c2.909-0.59,5.921,0.305,8.035,2.388c0.799,0.844,1.428,1.833,1.854,2.914
			c0.943,2.136,0.943,4.571,0,6.707c-0.449,1.069-1.075,2.054-1.854,2.914C322.398,316.891,320.141,317.813,317.793,317.793z"/>
		<path style="fill:#FFFFFF;" d="M353.103,317.793c-2.348,0.023-4.607-0.899-6.268-2.56c-0.778-0.859-1.405-1.845-1.854-2.914
			c-0.943-2.136-0.943-4.571,0-6.707c0.426-1.081,1.055-2.07,1.854-2.914c2.083-2.069,5.061-2.965,7.94-2.388
			c0.586,0.086,1.153,0.267,1.681,0.535c0.543,0.174,1.051,0.442,1.5,0.793c0.526,0.353,0.974,0.707,1.414,1.06
			c1.611,1.693,2.526,3.93,2.561,6.267c-0.014,1.153-0.254,2.293-0.707,3.353c-0.449,1.069-1.075,2.054-1.854,2.914
			C357.708,316.891,355.451,317.813,353.103,317.793z"/>
		<path style="fill:#FFFFFF;" d="M317.793,353.103c-1.153-0.014-2.293-0.254-3.353-0.707c-1.07-0.447-2.056-1.074-2.914-1.854
			c-0.776-0.881-1.431-1.86-1.948-2.914c-0.422-1.067-0.63-2.206-0.612-3.353c-0.032-1.158,0.21-2.307,0.707-3.353
			c0.447-1.07,1.074-2.056,1.854-2.914c3.539-3.267,8.995-3.267,12.534,0c0.78,0.858,1.407,1.844,1.854,2.914
			c1.163,2.715,0.876,5.833-0.762,8.29S320.746,353.133,317.793,353.103z"/>
		<path style="fill:#FFFFFF;" d="M353.103,353.103c-1.153-0.014-2.293-0.254-3.353-0.707c-1.07-0.447-2.056-1.074-2.914-1.854
			c-0.776-0.881-1.431-1.86-1.948-2.914c-0.422-1.067-0.63-2.206-0.612-3.353c-0.032-1.158,0.21-2.307,0.707-3.353
			c0.426-1.081,1.055-2.07,1.854-2.914c2.556-2.471,6.33-3.198,9.621-1.854c1.08,0.428,2.069,1.057,2.914,1.854
			c0.78,0.858,1.407,1.844,1.854,2.914c0.943,2.136,0.943,4.571,0,6.707c-0.449,1.069-1.075,2.054-1.854,2.914
			C357.709,352.201,355.451,353.123,353.103,353.103z"/>
		<path style="fill:#FFFFFF;" d="M158.897,388.414c-2.348,0.023-4.607-0.899-6.268-2.56c-0.776-0.881-1.431-1.86-1.948-2.914
			c-0.816-2.161-0.816-4.546,0-6.707c0.494-1.067,1.152-2.05,1.948-2.914c0.844-0.799,1.833-1.428,2.914-1.854
			c3.287-1.378,7.081-0.647,9.621,1.854c0.799,0.844,1.428,1.833,1.854,2.914c0.943,2.136,0.943,4.571,0,6.707
			c-0.449,1.069-1.075,2.054-1.854,2.914C163.501,387.511,161.244,388.433,158.897,388.414z"/>
		<path style="fill:#FFFFFF;" d="M194.207,388.414c-2.348,0.023-4.607-0.899-6.268-2.56c-0.778-0.859-1.405-1.845-1.854-2.914
			c-0.943-2.136-0.943-4.571,0-6.707c0.804-2.217,2.55-3.963,4.767-4.767c3.287-1.378,7.081-0.647,9.621,1.854
			c0.799,0.844,1.428,1.833,1.854,2.914c0.943,2.136,0.943,4.571,0,6.707c-0.804,2.217-2.55,3.963-4.767,4.767
			C196.499,388.16,195.36,388.4,194.207,388.414z"/>
		<path style="fill:#FFFFFF;" d="M317.793,388.414c-2.348,0.023-4.607-0.899-6.268-2.56c-0.804-0.858-1.462-1.843-1.948-2.914
			c-0.422-1.067-0.63-2.207-0.612-3.354c-0.032-1.158,0.21-2.307,0.707-3.353c0.804-2.217,2.55-3.963,4.767-4.767
			c3.287-1.378,7.081-0.647,9.621,1.854c0.799,0.844,1.428,1.833,1.854,2.914c0.943,2.136,0.943,4.571,0,6.707
			c-0.449,1.069-1.075,2.054-1.854,2.914C322.398,387.512,320.14,388.434,317.793,388.414z"/>
		<path style="fill:#FFFFFF;" d="M353.103,388.414c-2.348,0.023-4.607-0.899-6.268-2.56c-0.776-0.881-1.431-1.86-1.948-2.914
			c-0.816-2.161-0.816-4.546,0-6.707c0.494-1.067,1.152-2.05,1.948-2.914c0.844-0.799,1.833-1.428,2.914-1.854
			c3.287-1.378,7.081-0.647,9.621,1.854c0.799,0.844,1.428,1.833,1.854,2.914c0.943,2.136,0.943,4.571,0,6.707
			c-0.804,2.217-2.55,3.963-4.767,4.767C355.396,388.159,354.257,388.399,353.103,388.414z"/>
	</g>
	<g>
		<path style="fill:#E4C05C;" d="M44.138,44.138H35.31c-4.875,0-8.828-3.952-8.828-8.828s3.952-8.828,8.828-8.828h8.828
			c4.875,0,8.828,3.952,8.828,8.828S49.013,44.138,44.138,44.138z"/>
		<path style="fill:#E4C05C;" d="M44.138,88.276H35.31c-4.875,0-8.828-3.952-8.828-8.828c0-4.875,3.952-8.828,8.828-8.828h8.828
			c4.875,0,8.828,3.952,8.828,8.828C52.966,84.324,49.013,88.276,44.138,88.276z"/>
		<path style="fill:#E4C05C;" d="M44.138,132.414H35.31c-4.875,0-8.828-3.952-8.828-8.828c0-4.875,3.952-8.828,8.828-8.828h8.828
			c4.875,0,8.828,3.952,8.828,8.828C52.966,128.462,49.013,132.414,44.138,132.414z"/>
		<path style="fill:#E4C05C;" d="M44.138,176.552H35.31c-4.875,0-8.828-3.952-8.828-8.828s3.952-8.828,8.828-8.828h8.828
			c4.875,0,8.828,3.952,8.828,8.828S49.013,176.552,44.138,176.552z"/>
		<path style="fill:#E4C05C;" d="M44.138,220.69H35.31c-4.875,0-8.828-3.952-8.828-8.828c0-4.875,3.952-8.828,8.828-8.828h8.828
			c4.875,0,8.828,3.952,8.828,8.828C52.966,216.737,49.013,220.69,44.138,220.69z"/>
		<path style="fill:#E4C05C;" d="M44.138,264.828H35.31c-4.875,0-8.828-3.952-8.828-8.828s3.952-8.828,8.828-8.828h8.828
			c4.875,0,8.828,3.952,8.828,8.828S49.013,264.828,44.138,264.828z"/>
		<path style="fill:#E4C05C;" d="M44.138,308.966H35.31c-4.875,0-8.828-3.952-8.828-8.828s3.952-8.828,8.828-8.828h8.828
			c4.875,0,8.828,3.952,8.828,8.828S49.013,308.966,44.138,308.966z"/>
		<path style="fill:#E4C05C;" d="M44.138,353.103H35.31c-4.875,0-8.828-3.952-8.828-8.828s3.952-8.828,8.828-8.828h8.828
			c4.875,0,8.828,3.952,8.828,8.828S49.013,353.103,44.138,353.103z"/>
		<path style="fill:#E4C05C;" d="M44.138,397.241H35.31c-4.875,0-8.828-3.952-8.828-8.828s3.952-8.828,8.828-8.828h8.828
			c4.875,0,8.828,3.952,8.828,8.828S49.013,397.241,44.138,397.241z"/>
		<path style="fill:#E4C05C;" d="M44.138,441.379H35.31c-4.875,0-8.828-3.952-8.828-8.828s3.952-8.828,8.828-8.828h8.828
			c4.875,0,8.828,3.952,8.828,8.828S49.013,441.379,44.138,441.379z"/>
		<path style="fill:#E4C05C;" d="M44.138,485.517H35.31c-4.875,0-8.828-3.952-8.828-8.828s3.952-8.828,8.828-8.828h8.828
			c4.875,0,8.828,3.952,8.828,8.828S49.013,485.517,44.138,485.517z"/>
		<path style="fill:#E4C05C;" d="M88.276,44.138h-8.828c-4.875,0-8.828-3.952-8.828-8.828s3.952-8.828,8.828-8.828h8.828
			c4.875,0,8.828,3.952,8.828,8.828S93.151,44.138,88.276,44.138z"/>
		<path style="fill:#E4C05C;" d="M88.276,88.276h-8.828c-4.875,0-8.828-3.952-8.828-8.828c0-4.875,3.952-8.828,8.828-8.828h8.828
			c4.875,0,8.828,3.952,8.828,8.828C97.103,84.324,93.151,88.276,88.276,88.276z"/>
		<path style="fill:#E4C05C;" d="M88.276,132.414h-8.828c-4.875,0-8.828-3.952-8.828-8.828c0-4.875,3.952-8.828,8.828-8.828h8.828
			c4.875,0,8.828,3.952,8.828,8.828C97.103,128.462,93.151,132.414,88.276,132.414z"/>
		<path style="fill:#E4C05C;" d="M88.276,176.552h-8.828c-4.875,0-8.828-3.952-8.828-8.828s3.952-8.828,8.828-8.828h8.828
			c4.875,0,8.828,3.952,8.828,8.828S93.151,176.552,88.276,176.552z"/>
		<path style="fill:#E4C05C;" d="M88.276,220.69h-8.828c-4.875,0-8.828-3.952-8.828-8.828c0-4.875,3.952-8.828,8.828-8.828h8.828
			c4.875,0,8.828,3.952,8.828,8.828C97.103,216.737,93.151,220.69,88.276,220.69z"/>
		<path style="fill:#E4C05C;" d="M88.276,264.828h-8.828c-4.875,0-8.828-3.952-8.828-8.828s3.952-8.828,8.828-8.828h8.828
			c4.875,0,8.828,3.952,8.828,8.828S93.151,264.828,88.276,264.828z"/>
		<path style="fill:#E4C05C;" d="M88.276,308.966h-8.828c-4.875,0-8.828-3.952-8.828-8.828s3.952-8.828,8.828-8.828h8.828
			c4.875,0,8.828,3.952,8.828,8.828S93.151,308.966,88.276,308.966z"/>
		<path style="fill:#E4C05C;" d="M88.276,353.103h-8.828c-4.875,0-8.828-3.952-8.828-8.828s3.952-8.828,8.828-8.828h8.828
			c4.875,0,8.828,3.952,8.828,8.828S93.151,353.103,88.276,353.103z"/>
		<path style="fill:#E4C05C;" d="M88.276,397.241h-8.828c-4.875,0-8.828-3.952-8.828-8.828s3.952-8.828,8.828-8.828h8.828
			c4.875,0,8.828,3.952,8.828,8.828S93.151,397.241,88.276,397.241z"/>
		<path style="fill:#E4C05C;" d="M88.276,441.379h-8.828c-4.875,0-8.828-3.952-8.828-8.828s3.952-8.828,8.828-8.828h8.828
			c4.875,0,8.828,3.952,8.828,8.828S93.151,441.379,88.276,441.379z"/>
		<path style="fill:#E4C05C;" d="M88.276,485.517h-8.828c-4.875,0-8.828-3.952-8.828-8.828s3.952-8.828,8.828-8.828h8.828
			c4.875,0,8.828,3.952,8.828,8.828S93.151,485.517,88.276,485.517z"/>
		<path style="fill:#E4C05C;" d="M432.552,44.138h-8.828c-4.875,0-8.828-3.952-8.828-8.828s3.952-8.828,8.828-8.828h8.828
			c4.875,0,8.828,3.952,8.828,8.828S437.427,44.138,432.552,44.138z"/>
		<path style="fill:#E4C05C;" d="M432.552,88.276h-8.828c-4.875,0-8.828-3.952-8.828-8.828c0-4.875,3.952-8.828,8.828-8.828h8.828
			c4.875,0,8.828,3.952,8.828,8.828C441.379,84.324,437.427,88.276,432.552,88.276z"/>
		<path style="fill:#E4C05C;" d="M432.552,132.414h-8.828c-4.875,0-8.828-3.952-8.828-8.828c0-4.875,3.952-8.828,8.828-8.828h8.828
			c4.875,0,8.828,3.952,8.828,8.828C441.379,128.462,437.427,132.414,432.552,132.414z"/>
		<path style="fill:#E4C05C;" d="M432.552,176.552h-8.828c-4.875,0-8.828-3.952-8.828-8.828s3.952-8.828,8.828-8.828h8.828
			c4.875,0,8.828,3.952,8.828,8.828S437.427,176.552,432.552,176.552z"/>
		<path style="fill:#E4C05C;" d="M432.552,220.69h-8.828c-4.875,0-8.828-3.952-8.828-8.828c0-4.875,3.952-8.828,8.828-8.828h8.828
			c4.875,0,8.828,3.952,8.828,8.828C441.379,216.737,437.427,220.69,432.552,220.69z"/>
		<path style="fill:#E4C05C;" d="M432.552,264.828h-8.828c-4.875,0-8.828-3.952-8.828-8.828s3.952-8.828,8.828-8.828h8.828
			c4.875,0,8.828,3.952,8.828,8.828S437.427,264.828,432.552,264.828z"/>
		<path style="fill:#E4C05C;" d="M432.552,308.966h-8.828c-4.875,0-8.828-3.952-8.828-8.828s3.952-8.828,8.828-8.828h8.828
			c4.875,0,8.828,3.952,8.828,8.828S437.427,308.966,432.552,308.966z"/>
		<path style="fill:#E4C05C;" d="M432.552,353.103h-8.828c-4.875,0-8.828-3.952-8.828-8.828s3.952-8.828,8.828-8.828h8.828
			c4.875,0,8.828,3.952,8.828,8.828S437.427,353.103,432.552,353.103z"/>
		<path style="fill:#E4C05C;" d="M432.552,397.241h-8.828c-4.875,0-8.828-3.952-8.828-8.828s3.952-8.828,8.828-8.828h8.828
			c4.875,0,8.828,3.952,8.828,8.828S437.427,397.241,432.552,397.241z"/>
		<path style="fill:#E4C05C;" d="M432.552,441.379h-8.828c-4.875,0-8.828-3.952-8.828-8.828s3.952-8.828,8.828-8.828h8.828
			c4.875,0,8.828,3.952,8.828,8.828S437.427,441.379,432.552,441.379z"/>
		<path style="fill:#E4C05C;" d="M432.552,485.517h-8.828c-4.875,0-8.828-3.952-8.828-8.828s3.952-8.828,8.828-8.828h8.828
			c4.875,0,8.828,3.952,8.828,8.828S437.427,485.517,432.552,485.517z"/>
		<path style="fill:#E4C05C;" d="M476.69,44.138h-8.828c-4.875,0-8.828-3.952-8.828-8.828s3.952-8.828,8.828-8.828h8.828
			c4.875,0,8.828,3.952,8.828,8.828S481.565,44.138,476.69,44.138z"/>
		<path style="fill:#E4C05C;" d="M476.69,88.276h-8.828c-4.875,0-8.828-3.952-8.828-8.828c0-4.875,3.952-8.828,8.828-8.828h8.828
			c4.875,0,8.828,3.952,8.828,8.828C485.517,84.324,481.565,88.276,476.69,88.276z"/>
		<path style="fill:#E4C05C;" d="M476.69,132.414h-8.828c-4.875,0-8.828-3.952-8.828-8.828c0-4.875,3.952-8.828,8.828-8.828h8.828
			c4.875,0,8.828,3.952,8.828,8.828C485.517,128.462,481.565,132.414,476.69,132.414z"/>
		<path style="fill:#E4C05C;" d="M476.69,176.552h-8.828c-4.875,0-8.828-3.952-8.828-8.828s3.952-8.828,8.828-8.828h8.828
			c4.875,0,8.828,3.952,8.828,8.828S481.565,176.552,476.69,176.552z"/>
		<path style="fill:#E4C05C;" d="M476.69,220.69h-8.828c-4.875,0-8.828-3.952-8.828-8.828c0-4.875,3.952-8.828,8.828-8.828h8.828
			c4.875,0,8.828,3.952,8.828,8.828C485.517,216.737,481.565,220.69,476.69,220.69z"/>
		<path style="fill:#E4C05C;" d="M476.69,264.828h-8.828c-4.875,0-8.828-3.952-8.828-8.828s3.952-8.828,8.828-8.828h8.828
			c4.875,0,8.828,3.952,8.828,8.828S481.565,264.828,476.69,264.828z"/>
		<path style="fill:#E4C05C;" d="M476.69,308.966h-8.828c-4.875,0-8.828-3.952-8.828-8.828s3.952-8.828,8.828-8.828h8.828
			c4.875,0,8.828,3.952,8.828,8.828S481.565,308.966,476.69,308.966z"/>
		<path style="fill:#E4C05C;" d="M476.69,353.103h-8.828c-4.875,0-8.828-3.952-8.828-8.828s3.952-8.828,8.828-8.828h8.828
			c4.875,0,8.828,3.952,8.828,8.828S481.565,353.103,476.69,353.103z"/>
		<path style="fill:#E4C05C;" d="M476.69,397.241h-8.828c-4.875,0-8.828-3.952-8.828-8.828s3.952-8.828,8.828-8.828h8.828
			c4.875,0,8.828,3.952,8.828,8.828S481.565,397.241,476.69,397.241z"/>
		<path style="fill:#E4C05C;" d="M476.69,441.379h-8.828c-4.875,0-8.828-3.952-8.828-8.828s3.952-8.828,8.828-8.828h8.828
			c4.875,0,8.828,3.952,8.828,8.828S481.565,441.379,476.69,441.379z"/>
		<path style="fill:#E4C05C;" d="M476.69,485.517h-8.828c-4.875,0-8.828-3.952-8.828-8.828s3.952-8.828,8.828-8.828h8.828
			c4.875,0,8.828,3.952,8.828,8.828S481.565,485.517,476.69,485.517z"/>
	</g>
</g>
<g>
</g>
<g>
</g>
<g>
</g>
<g>
</g>
<g>
</g>
<g>
</g>
<g>
</g>
<g>
</g>
<g>
</g>
<g>
</g>
<g>
</g>
<g>
</g>
<g>
</g>
<g>
</g>
<g>
</g>
</svg>
