<?xml version="1.0" encoding="iso-8859-1"?>
<!-- Generator: Adobe Illustrator 19.0.0, SVG Export Plug-In . SVG Version: 6.00 Build 0)  -->
<svg version="1.1" id="Capa_1" xmlns="http://www.w3.org/2000/svg" xmlns:xlink="http://www.w3.org/1999/xlink" x="0px" y="0px"
	 viewBox="0 0 512 512" style="enable-background:new 0 0 512 512;" xml:space="preserve">
<g>
	<path style="fill:#4482C3;" d="M503.172,467.862h-35.31v-70.621c0-14.626-11.857-26.483-26.483-26.483h-8.828V35.31h26.483
		c4.875,0,8.828-3.952,8.828-8.828V0H44.138v26.483c0,4.875,3.952,8.828,8.828,8.828h26.483v335.448h-8.828
		c-14.626,0-26.483,11.857-26.483,26.483v70.621H8.828c-4.875,0-8.828,3.952-8.828,8.828V512h512v-35.31
		C512,471.814,508.048,467.862,503.172,467.862z"/>
	<rect x="44.138" y="406.069" style="fill:#285680;" width="423.724" height="105.931"/>
	<g>
		<path style="fill:#4482C3;" d="M44.138,512H0v-35.31c0-4.875,3.952-8.828,8.828-8.828h35.31V512z"/>
		<path style="fill:#4482C3;" d="M467.862,512H512v-35.31c0-4.875-3.952-8.828-8.828-8.828h-35.31V512z"/>
		<path style="fill:#4482C3;" d="M176.552,459.034V512h-17.655v-52.966c0-4.875,3.952-8.828,8.828-8.828
			S176.552,454.159,176.552,459.034z"/>
		<path style="fill:#4482C3;" d="M229.517,476.69V512h-17.655v-35.31c0-4.875,3.952-8.828,8.828-8.828
			S229.517,471.814,229.517,476.69z"/>
		<path style="fill:#4482C3;" d="M282.483,476.69V512h-17.655v-35.31c0-4.875,3.952-8.828,8.828-8.828
			S282.483,471.814,282.483,476.69z"/>
		<path style="fill:#4482C3;" d="M335.448,476.69V512h-17.655v-35.31c0-4.875,3.952-8.828,8.828-8.828
			S335.448,471.814,335.448,476.69z"/>
	</g>
	<g>
		<path style="fill:#285680;" d="M114.759,44.138c-2.348,0.023-4.607-0.9-6.267-2.56c-1.66-1.66-2.583-3.919-2.56-6.267
			c0-4.875,3.952-8.828,8.828-8.828s8.828,3.952,8.828,8.828c0.02,2.348-0.902,4.605-2.56,6.268
			c-0.859,0.778-1.845,1.405-2.914,1.854C117.051,43.884,115.912,44.124,114.759,44.138z"/>
		<path style="fill:#285680;" d="M150.069,44.138c-2.348,0.023-4.607-0.899-6.268-2.56c-0.778-0.859-1.405-1.845-1.854-2.914
			c-0.497-1.047-0.739-2.196-0.706-3.354c0.031-2.338,0.945-4.577,2.56-6.268c2.083-2.069,5.061-2.965,7.94-2.388
			c0.586,0.086,1.153,0.267,1.681,0.535c0.543,0.174,1.051,0.442,1.5,0.793c0.507,0.304,0.98,0.66,1.415,1.06
			c1.611,1.693,2.525,3.931,2.56,6.268c-0.014,1.153-0.254,2.293-0.707,3.353c-0.449,1.069-1.075,2.054-1.854,2.914
			C154.674,43.235,152.416,44.158,150.069,44.138z"/>
		<path style="fill:#285680;" d="M185.379,44.138c-2.348,0.023-4.607-0.9-6.267-2.56c-1.66-1.66-2.583-3.919-2.56-6.267
			c0-4.875,3.952-8.828,8.828-8.828c4.875,0,8.828,3.952,8.828,8.828c0.023,2.348-0.9,4.607-2.56,6.267
			C189.986,43.238,187.727,44.161,185.379,44.138z"/>
		<path style="fill:#285680;" d="M220.69,44.138c-2.348,0.023-4.607-0.9-6.267-2.56c-1.66-1.66-2.583-3.919-2.56-6.267
			c0-4.875,3.952-8.828,8.828-8.828s8.828,3.952,8.828,8.828c-0.014,1.153-0.254,2.293-0.707,3.353
			c-0.449,1.069-1.075,2.054-1.854,2.914C225.294,43.235,223.037,44.158,220.69,44.138z"/>
		<path style="fill:#285680;" d="M256,44.138c-2.348,0.023-4.607-0.899-6.268-2.56c-0.778-0.859-1.405-1.845-1.854-2.914
			c-0.452-1.061-0.692-2.2-0.706-3.354c0.031-2.338,0.945-4.577,2.56-6.268c0.844-0.799,1.833-1.428,2.914-1.854
			c1.577-0.703,3.336-0.89,5.026-0.535c0.586,0.086,1.153,0.267,1.681,0.535c0.543,0.174,1.051,0.442,1.5,0.793
			c0.507,0.304,0.98,0.66,1.415,1.061c1.611,1.693,2.525,3.931,2.56,6.268c0.023,2.348-0.9,4.607-2.56,6.267
			C260.607,43.238,258.348,44.161,256,44.138z"/>
		<path style="fill:#285680;" d="M291.31,44.138c-2.348,0.023-4.607-0.899-6.268-2.56c-0.804-0.858-1.462-1.843-1.948-2.914
			c-0.422-1.067-0.63-2.207-0.612-3.354c0.031-2.338,0.945-4.577,2.56-6.268c0.829-0.817,1.822-1.449,2.914-1.854
			c3.288-1.378,7.081-0.647,9.621,1.854c1.611,1.693,2.526,3.931,2.56,6.268c0.023,2.348-0.9,4.607-2.56,6.267
			C295.917,43.238,293.658,44.161,291.31,44.138z"/>
		<path style="fill:#285680;" d="M326.621,44.138c-2.348,0.023-4.607-0.899-6.268-2.56c-0.776-0.881-1.431-1.86-1.948-2.914
			c-0.422-1.067-0.63-2.207-0.612-3.354c-0.021-3.586,2.13-6.829,5.442-8.204c3.312-1.375,7.127-0.61,9.653,1.937
			c1.627,1.683,2.543,3.927,2.56,6.268c-0.014,1.153-0.254,2.293-0.707,3.353c-0.449,1.069-1.075,2.054-1.854,2.914
			C331.225,43.235,328.968,44.158,326.621,44.138z"/>
		<path style="fill:#285680;" d="M361.931,44.138c-1.153-0.014-2.293-0.254-3.353-0.707c-1.081-0.426-2.07-1.055-2.914-1.853
			c-1.661-1.66-2.584-3.919-2.56-6.268c0-4.875,3.952-8.828,8.828-8.828s8.828,3.952,8.828,8.828c0.02,2.348-0.902,4.605-2.56,6.268
			c-0.859,0.778-1.845,1.405-2.914,1.854C364.224,43.884,363.084,44.124,361.931,44.138z"/>
		<path style="fill:#285680;" d="M397.241,44.138c-2.348,0.023-4.607-0.899-6.268-2.56c-0.778-0.859-1.405-1.845-1.854-2.914
			c-0.497-1.047-0.739-2.196-0.706-3.354c0.031-2.338,0.945-4.577,2.56-6.268c2.083-2.069,5.061-2.965,7.94-2.388
			c0.586,0.086,1.153,0.267,1.681,0.535c0.543,0.174,1.051,0.442,1.5,0.793c0.507,0.304,0.98,0.66,1.415,1.06
			c1.611,1.693,2.526,3.931,2.56,6.268c-0.014,1.153-0.254,2.293-0.707,3.353c-0.449,1.069-1.075,2.054-1.854,2.914
			C401.846,43.235,399.589,44.158,397.241,44.138z"/>
		<path style="fill:#285680;" d="M114.759,79.448c-2.348,0.023-4.607-0.9-6.267-2.56c-1.66-1.66-2.583-3.919-2.56-6.267
			c-0.032-1.158,0.21-2.307,0.707-3.353c0.426-1.081,1.055-2.07,1.853-2.914c3.539-3.267,8.995-3.267,12.534,0
			c0.799,0.844,1.428,1.833,1.854,2.914c1.163,2.714,0.876,5.833-0.762,8.29C120.479,78.014,117.711,79.477,114.759,79.448z"/>
		<path style="fill:#285680;" d="M150.069,79.448c-2.953,0.031-5.722-1.433-7.361-3.89c-1.638-2.457-1.924-5.576-0.76-8.291
			c1.291-3.361,4.52-5.58,8.121-5.58s6.83,2.219,8.121,5.58c0.943,2.136,0.943,4.571,0,6.707c-0.449,1.069-1.075,2.054-1.854,2.914
			C154.674,78.546,152.416,79.468,150.069,79.448z"/>
		<path style="fill:#285680;" d="M185.379,79.448c-2.348,0.023-4.607-0.899-6.268-2.56c-0.778-0.859-1.405-1.845-1.854-2.914
			c-0.497-1.047-0.739-2.196-0.706-3.354c0.031-2.338,0.945-4.577,2.56-6.268c0.418-0.379,0.859-0.733,1.319-1.06
			c0.493-0.336,1.03-0.603,1.595-0.793c2.147-0.888,4.559-0.888,6.707,0c1.069,0.449,2.054,1.075,2.914,1.854
			c0.799,0.844,1.428,1.833,1.854,2.914c1.163,2.714,0.876,5.832-0.762,8.289S188.332,79.477,185.379,79.448z"/>
		<path style="fill:#285680;" d="M220.69,79.448c-2.953,0.031-5.722-1.433-7.361-3.89c-1.638-2.457-1.924-5.576-0.76-8.291
			c0.426-1.081,1.055-2.07,1.853-2.914c2.083-2.069,5.061-2.965,7.94-2.388c0.586,0.086,1.153,0.267,1.681,0.535
			c0.543,0.174,1.051,0.442,1.5,0.793c0.507,0.304,0.98,0.66,1.415,1.06c0.799,0.844,1.428,1.833,1.854,2.914
			c0.943,2.136,0.943,4.571,0,6.707c-0.449,1.069-1.075,2.054-1.854,2.914C225.295,78.546,223.037,79.468,220.69,79.448z"/>
		<path style="fill:#285680;" d="M256,79.448c-2.348,0.023-4.607-0.899-6.268-2.56c-0.776-0.881-1.431-1.86-1.948-2.914
			c-0.422-1.067-0.63-2.207-0.612-3.354c-0.032-1.158,0.21-2.307,0.707-3.353c0.426-1.081,1.055-2.07,1.853-2.914
			c3.539-3.267,8.995-3.267,12.534,0c0.799,0.844,1.428,1.833,1.854,2.914c0.943,2.136,0.943,4.571,0,6.707
			c-0.449,1.069-1.075,2.054-1.854,2.914C260.605,78.545,258.347,79.468,256,79.448z"/>
		<path style="fill:#285680;" d="M291.31,79.448c-2.348,0.023-4.607-0.9-6.267-2.56c-1.66-1.66-2.583-3.919-2.56-6.267
			c-0.032-1.158,0.21-2.307,0.707-3.353c1.057-2.762,3.453-4.793,6.351-5.384c2.898-0.591,5.897,0.341,7.951,2.469
			c0.853,0.817,1.515,1.812,1.94,2.914c0.453,1.061,0.693,2.2,0.707,3.354C300.105,75.482,296.172,79.415,291.31,79.448z"/>
		<path style="fill:#285680;" d="M326.621,79.448c-1.153-0.014-2.293-0.254-3.353-0.707c-1.081-0.426-2.07-1.055-2.914-1.853
			c-0.778-0.859-1.405-1.845-1.854-2.914c-0.943-2.136-0.943-4.571,0-6.707c0.426-1.081,1.055-2.071,1.854-2.915
			c3.539-3.267,8.995-3.267,12.534,0c0.799,0.844,1.428,1.833,1.854,2.914c1.163,2.714,0.876,5.833-0.762,8.29
			S329.574,79.477,326.621,79.448z"/>
		<path style="fill:#285680;" d="M361.931,79.448c-2.348,0.023-4.607-0.9-6.267-2.56c-1.66-1.66-2.583-3.919-2.56-6.267
			c-0.032-1.158,0.21-2.307,0.707-3.353c0.426-1.081,1.055-2.07,1.853-2.914c3.539-3.267,8.995-3.267,12.534,0
			c0.799,0.844,1.428,1.833,1.854,2.914c1.163,2.714,0.876,5.833-0.762,8.29S364.884,79.477,361.931,79.448z"/>
		<path style="fill:#285680;" d="M397.241,79.448c-2.953,0.031-5.722-1.433-7.361-3.89c-1.638-2.457-1.924-5.576-0.76-8.291
			c1.291-3.361,4.52-5.58,8.121-5.58c3.601,0,6.83,2.219,8.121,5.58c0.943,2.136,0.943,4.571,0,6.707
			c-0.449,1.069-1.075,2.054-1.854,2.914C401.846,78.546,399.589,79.468,397.241,79.448z"/>
		<path style="fill:#285680;" d="M114.759,114.759c-1.153-0.014-2.293-0.254-3.353-0.707c-1.081-0.426-2.07-1.055-2.914-1.854
			c-1.661-1.66-2.584-3.919-2.56-6.267c0-4.875,3.952-8.828,8.828-8.828s8.828,3.952,8.828,8.828c0.023,2.348-0.9,4.607-2.56,6.267
			C119.365,113.859,117.107,114.781,114.759,114.759z"/>
		<path style="fill:#285680;" d="M150.069,114.759c-1.153-0.014-2.293-0.254-3.353-0.707c-1.081-0.426-2.07-1.055-2.914-1.854
			c-1.661-1.66-2.584-3.919-2.56-6.267c-0.021-3.586,2.13-6.829,5.442-8.204c3.312-1.375,7.127-0.61,9.653,1.937
			c1.627,1.683,2.543,3.927,2.56,6.268c0.023,2.348-0.9,4.607-2.56,6.267C154.676,113.859,152.417,114.781,150.069,114.759z"/>
		<path style="fill:#285680;" d="M361.931,114.759c-1.153-0.014-2.293-0.254-3.353-0.707c-1.081-0.426-2.07-1.055-2.914-1.854
			c-1.661-1.66-2.584-3.919-2.56-6.267c0-4.875,3.952-8.828,8.828-8.828s8.828,3.952,8.828,8.828c0.023,2.348-0.9,4.607-2.56,6.267
			C366.538,113.859,364.279,114.781,361.931,114.759z"/>
		<path style="fill:#285680;" d="M397.241,114.759c-1.153-0.014-2.293-0.254-3.353-0.707c-1.081-0.426-2.07-1.055-2.914-1.854
			c-0.778-0.859-1.405-1.845-1.854-2.914c-0.452-1.061-0.692-2.2-0.707-3.353c0.031-2.338,0.945-4.577,2.56-6.268
			c2.556-2.471,6.33-3.198,9.621-1.854c3.364,1.271,5.559,4.527,5.475,8.121c0.023,2.348-0.9,4.607-2.56,6.267
			C401.848,113.859,399.59,114.781,397.241,114.759z"/>
		<path style="fill:#285680;" d="M114.759,150.069c-2.348,0.023-4.607-0.9-6.267-2.56c-1.66-1.66-2.583-3.919-2.56-6.267
			c0.013-2.341,0.93-4.587,2.56-6.268c2.525-2.546,6.341-3.312,9.653-1.937c3.312,1.375,5.463,4.618,5.442,8.204
			c0.023,2.348-0.9,4.607-2.56,6.267C119.365,149.169,117.107,150.092,114.759,150.069z"/>
		<path style="fill:#285680;" d="M150.069,150.069c-2.348,0.023-4.607-0.9-6.267-2.56c-1.66-1.66-2.583-3.919-2.56-6.267
			c0-4.875,3.952-8.828,8.828-8.828s8.828,3.952,8.828,8.828c-0.014,1.153-0.254,2.293-0.707,3.353
			c-0.804,2.217-2.55,3.963-4.767,4.767C152.362,149.814,151.222,150.055,150.069,150.069z"/>
		<path style="fill:#285680;" d="M361.931,150.069c-2.348,0.023-4.607-0.9-6.267-2.56c-1.66-1.66-2.583-3.919-2.56-6.267
			c0-4.875,3.952-8.828,8.828-8.828s8.828,3.952,8.828,8.828c0.023,2.348-0.9,4.607-2.56,6.267
			C366.538,149.169,364.279,150.092,361.931,150.069z"/>
		<path style="fill:#285680;" d="M397.241,150.069c-2.348,0.023-4.607-0.9-6.267-2.56c-1.66-1.66-2.583-3.919-2.56-6.267
			c-0.021-3.586,2.13-6.829,5.442-8.204c3.312-1.375,7.127-0.61,9.653,1.937c1.627,1.683,2.543,3.927,2.56,6.268
			c0.02,2.348-0.902,4.605-2.56,6.268c-0.859,0.778-1.845,1.405-2.914,1.854C399.534,149.815,398.395,150.055,397.241,150.069z"/>
		<path style="fill:#285680;" d="M114.759,185.379c-2.348,0.023-4.607-0.899-6.268-2.56c-0.804-0.858-1.462-1.843-1.948-2.914
			c-0.422-1.067-0.63-2.206-0.612-3.354c0-4.875,3.952-8.828,8.828-8.828s8.828,3.952,8.828,8.828
			c-0.014,1.153-0.254,2.293-0.707,3.353c-0.449,1.069-1.075,2.054-1.854,2.914C119.363,184.477,117.106,185.399,114.759,185.379z"
			/>
		<path style="fill:#285680;" d="M150.069,185.379c-2.348,0.023-4.607-0.899-6.268-2.56c-0.804-0.858-1.462-1.843-1.948-2.914
			c-0.422-1.067-0.63-2.206-0.612-3.354c0-4.875,3.952-8.828,8.828-8.828s8.828,3.952,8.828,8.828
			c-0.014,1.153-0.254,2.293-0.707,3.353c-0.449,1.069-1.075,2.054-1.854,2.914C154.674,184.477,152.416,185.399,150.069,185.379z"
			/>
		<path style="fill:#285680;" d="M361.931,185.379c-2.348,0.023-4.607-0.899-6.268-2.56c-0.804-0.858-1.462-1.843-1.948-2.914
			c-0.422-1.067-0.63-2.206-0.612-3.354c0-4.875,3.952-8.828,8.828-8.828s8.828,3.952,8.828,8.828
			c-0.014,1.153-0.254,2.293-0.707,3.353c-0.449,1.069-1.075,2.054-1.854,2.914C366.536,184.477,364.278,185.399,361.931,185.379z"
			/>
		<path style="fill:#285680;" d="M397.241,185.379c-2.348,0.023-4.607-0.899-6.268-2.56c-0.804-0.858-1.462-1.843-1.948-2.914
			c-0.422-1.067-0.63-2.206-0.612-3.354c0-4.875,3.952-8.828,8.828-8.828c4.875,0,8.828,3.952,8.828,8.828
			c-0.014,1.153-0.254,2.293-0.707,3.353c-0.449,1.069-1.075,2.054-1.854,2.914C401.846,184.477,399.589,185.399,397.241,185.379z"
			/>
		<path style="fill:#285680;" d="M114.759,220.69c-2.348,0.023-4.607-0.899-6.268-2.56c-0.804-0.858-1.462-1.843-1.948-2.914
			c-0.422-1.067-0.63-2.207-0.612-3.354c-0.032-1.158,0.21-2.307,0.707-3.353c0.447-1.07,1.074-2.056,1.854-2.914
			c2.535-2.51,6.334-3.242,9.621-1.854c1.069,0.449,2.054,1.075,2.914,1.854c0.78,0.858,1.407,1.844,1.854,2.914
			c0.943,2.136,0.943,4.571,0,6.707c-0.449,1.069-1.075,2.054-1.854,2.914C119.364,219.787,117.106,220.71,114.759,220.69z"/>
		<path style="fill:#285680;" d="M150.069,220.69c-1.153-0.014-2.293-0.254-3.353-0.707c-1.081-0.426-2.07-1.055-2.914-1.854
			c-0.804-0.858-1.462-1.843-1.948-2.914c-0.422-1.067-0.63-2.206-0.612-3.353c-0.032-1.158,0.21-2.307,0.707-3.353
			c0.447-1.07,1.074-2.056,1.854-2.914c2.121-2.071,5.126-2.965,8.035-2.388c0.552,0.101,1.086,0.281,1.586,0.535
			c0.563,0.191,1.096,0.457,1.586,0.793c0.463,0.327,0.906,0.681,1.328,1.06c0.78,0.858,1.407,1.844,1.854,2.914
			c0.943,2.136,0.943,4.571,0,6.707c-0.804,2.217-2.55,3.963-4.767,4.767C152.362,220.435,151.223,220.675,150.069,220.69z"/>
		<path style="fill:#285680;" d="M361.931,220.69c-2.348,0.023-4.607-0.899-6.268-2.56c-0.804-0.858-1.462-1.843-1.948-2.914
			c-0.422-1.067-0.63-2.207-0.612-3.354c-0.032-1.158,0.21-2.307,0.707-3.353c0.447-1.07,1.074-2.056,1.854-2.914
			c2.539-2.502,6.333-3.233,9.621-1.854c1.069,0.449,2.054,1.075,2.914,1.854c0.78,0.858,1.407,1.844,1.854,2.914
			c0.943,2.136,0.943,4.571,0,6.707c-0.449,1.069-1.075,2.054-1.854,2.914C366.536,219.787,364.279,220.71,361.931,220.69z"/>
		<path style="fill:#285680;" d="M397.241,220.69c-1.153-0.014-2.293-0.254-3.353-0.707c-1.081-0.426-2.07-1.055-2.914-1.854
			c-0.804-0.858-1.462-1.843-1.948-2.914c-0.422-1.067-0.63-2.206-0.612-3.353c-0.032-1.158,0.21-2.307,0.707-3.353
			c0.447-1.07,1.074-2.056,1.854-2.914c2.121-2.071,5.126-2.965,8.035-2.388c0.552,0.101,1.086,0.281,1.586,0.535
			c0.563,0.191,1.096,0.457,1.586,0.793c0.463,0.327,0.906,0.681,1.328,1.06c0.78,0.858,1.407,1.844,1.854,2.914
			c0.943,2.136,0.943,4.571,0,6.707c-0.804,2.217-2.55,3.963-4.767,4.767C399.535,220.435,398.395,220.675,397.241,220.69z"/>
		<path style="fill:#285680;" d="M114.759,256c-2.348,0.023-4.607-0.9-6.267-2.56c-1.66-1.66-2.583-3.919-2.56-6.267
			c-0.032-1.158,0.21-2.307,0.707-3.353c0.447-1.07,1.074-2.056,1.854-2.914l1.319-1.06c0.493-0.336,1.03-0.603,1.595-0.793
			c0.5-0.255,1.034-0.435,1.586-0.535c1.164-0.259,2.371-0.259,3.535,0c0.552,0.101,1.086,0.281,1.586,0.535
			c0.563,0.191,1.096,0.457,1.586,0.793c0.44,0.353,0.888,0.707,1.328,1.06c0.78,0.858,1.407,1.844,1.854,2.914
			c1.409,3.284,0.675,7.096-1.854,9.621c-0.859,0.778-1.845,1.405-2.914,1.854C117.051,255.746,115.912,255.986,114.759,256z"/>
		<path style="fill:#285680;" d="M150.069,256c-1.153-0.014-2.293-0.254-3.353-0.707c-1.07-0.447-2.056-1.074-2.914-1.854
			c-2.528-2.525-3.263-6.337-1.854-9.621c0.447-1.07,1.074-2.056,1.854-2.914c3.539-3.267,8.995-3.267,12.534,0
			c0.799,0.844,1.428,1.833,1.854,2.914c0.452,1.061,0.693,2.2,0.707,3.354c-0.02,2.34-0.936,4.583-2.56,6.268
			c-0.859,0.778-1.845,1.405-2.914,1.854C152.362,255.746,151.222,255.986,150.069,256z"/>
		<path style="fill:#285680;" d="M361.931,256c-2.953,0.031-5.722-1.433-7.361-3.89c-1.638-2.457-1.924-5.576-0.76-8.291
			c0.426-1.081,1.055-2.07,1.854-2.914c3.539-3.267,8.995-3.267,12.534,0c0.78,0.858,1.407,1.844,1.854,2.914
			c1.409,3.284,0.675,7.096-1.854,9.621c-0.859,0.778-1.845,1.405-2.914,1.854C364.224,255.746,363.084,255.986,361.931,256z"/>
		<path style="fill:#285680;" d="M397.241,256c-1.153-0.014-2.293-0.254-3.353-0.707c-1.07-0.447-2.056-1.074-2.914-1.854
			c-2.528-2.525-3.263-6.337-1.854-9.621c0.447-1.07,1.074-2.056,1.854-2.914c3.539-3.267,8.995-3.267,12.534,0
			c0.799,0.844,1.428,1.833,1.854,2.914c0.452,1.061,0.693,2.2,0.707,3.354c0.084,3.594-2.111,6.85-5.474,8.121
			C399.534,255.746,398.395,255.986,397.241,256z"/>
		<path style="fill:#285680;" d="M114.759,291.31c-1.153-0.014-2.293-0.254-3.353-0.707c-1.07-0.447-2.056-1.074-2.914-1.854
			c-1.661-1.66-2.584-3.919-2.56-6.267c0-4.875,3.952-8.828,8.828-8.828s8.828,3.952,8.828,8.828c0.023,2.348-0.9,4.607-2.56,6.267
			C119.365,290.41,117.107,291.333,114.759,291.31z"/>
		<path style="fill:#285680;" d="M150.069,291.31c-2.348,0.023-4.607-0.9-6.267-2.56c-1.66-1.66-2.583-3.919-2.56-6.267
			c-0.021-3.586,2.13-6.829,5.442-8.204c3.312-1.375,7.127-0.61,9.653,1.937c1.627,1.683,2.543,3.927,2.56,6.268
			c-0.014,1.153-0.254,2.293-0.707,3.353c-0.449,1.069-1.075,2.054-1.854,2.914C154.674,290.408,152.416,291.33,150.069,291.31z"/>
		<path style="fill:#285680;" d="M185.379,291.31c-1.153-0.014-2.293-0.254-3.353-0.707c-1.07-0.447-2.056-1.074-2.914-1.854
			c-0.778-0.859-1.405-1.845-1.854-2.914c-0.452-1.061-0.692-2.2-0.707-3.353c0.031-2.338,0.945-4.577,2.56-6.268
			c2.535-2.51,6.334-3.242,9.621-1.854c1.069,0.449,2.054,1.075,2.914,1.854c1.627,1.683,2.544,3.927,2.561,6.268
			c0.02,2.348-0.902,4.605-2.56,6.268c-0.859,0.778-1.845,1.405-2.914,1.854C187.672,291.057,186.533,291.296,185.379,291.31z"/>
		<path style="fill:#285680;" d="M220.69,291.31c-2.348,0.023-4.607-0.899-6.268-2.56c-0.776-0.881-1.431-1.86-1.948-2.914
			c-0.422-1.067-0.63-2.207-0.612-3.354c0.031-2.338,0.945-4.577,2.56-6.268c0.418-0.379,0.859-0.733,1.319-1.06
			c0.493-0.336,1.03-0.603,1.595-0.793c0.525-0.268,1.09-0.448,1.672-0.535c1.103-0.259,2.251-0.259,3.353,0
			c0.586,0.086,1.153,0.267,1.681,0.535c0.543,0.174,1.051,0.442,1.5,0.793c0.507,0.304,0.98,0.66,1.415,1.06
			c1.611,1.693,2.525,3.931,2.56,6.268c-0.02,2.34-0.936,4.583-2.56,6.268C225.295,290.408,223.037,291.33,220.69,291.31z"/>
		<path style="fill:#285680;" d="M256,291.31c-1.153-0.014-2.293-0.254-3.353-0.707c-1.07-0.447-2.056-1.074-2.914-1.854
			c-0.778-0.859-1.405-1.845-1.854-2.914c-0.452-1.061-0.692-2.2-0.707-3.353c0.031-2.338,0.945-4.577,2.56-6.268
			c0.418-0.379,0.859-0.733,1.319-1.06c0.493-0.336,1.03-0.603,1.595-0.793c0.5-0.255,1.034-0.435,1.586-0.535
			c1.721-0.36,3.511-0.173,5.121,0.535c1.069,0.449,2.054,1.075,2.914,1.854c1.612,1.693,2.526,3.93,2.561,6.267
			c-0.014,1.153-0.254,2.293-0.707,3.353c-0.449,1.069-1.075,2.054-1.854,2.914C260.605,290.408,258.347,291.33,256,291.31z"/>
		<path style="fill:#285680;" d="M291.31,291.31c-2.348,0.023-4.607-0.899-6.268-2.56c-0.776-0.881-1.431-1.86-1.948-2.914
			c-0.422-1.067-0.63-2.207-0.612-3.354c0.031-2.338,0.945-4.577,2.56-6.268c0.844-0.799,1.833-1.428,2.914-1.854
			c3.287-1.378,7.081-0.647,9.621,1.854c1.612,1.693,2.526,3.931,2.561,6.268c-0.014,1.153-0.254,2.293-0.707,3.353
			c-0.804,2.217-2.55,3.963-4.767,4.767C293.603,291.056,292.464,291.296,291.31,291.31z"/>
		<path style="fill:#285680;" d="M326.621,291.31c-2.348,0.023-4.607-0.9-6.267-2.56c-1.66-1.66-2.583-3.919-2.56-6.267
			c0.013-2.341,0.93-4.587,2.56-6.268c0.418-0.379,0.859-0.733,1.319-1.06c0.493-0.336,1.03-0.603,1.595-0.793
			c0.5-0.255,1.034-0.435,1.586-0.535c2.909-0.59,5.921,0.305,8.035,2.388c1.611,1.693,2.525,3.931,2.56,6.268
			c-0.014,1.153-0.254,2.293-0.707,3.353c-0.449,1.069-1.075,2.054-1.854,2.914C331.225,290.408,328.968,291.33,326.621,291.31z"/>
		<path style="fill:#285680;" d="M361.931,291.31c-1.153-0.014-2.293-0.254-3.353-0.707c-1.07-0.447-2.056-1.074-2.914-1.854
			c-1.661-1.66-2.584-3.919-2.56-6.267c0.031-2.338,0.945-4.577,2.56-6.268c0.418-0.379,0.859-0.733,1.319-1.06
			c0.493-0.336,1.03-0.603,1.595-0.793c0.5-0.255,1.034-0.435,1.586-0.535c2.909-0.59,5.921,0.305,8.035,2.388
			c1.611,1.693,2.525,3.931,2.56,6.268c-0.014,1.153-0.254,2.293-0.707,3.353c-0.449,1.069-1.075,2.054-1.854,2.914
			C366.536,290.408,364.278,291.33,361.931,291.31z"/>
		<path style="fill:#285680;" d="M397.241,291.31c-2.348,0.023-4.607-0.899-6.268-2.56c-0.778-0.859-1.405-1.845-1.854-2.914
			c-0.497-1.047-0.739-2.196-0.706-3.354c0-4.875,3.952-8.828,8.828-8.828c4.875,0,8.828,3.952,8.828,8.828
			c-0.014,1.153-0.254,2.293-0.707,3.353c-0.449,1.069-1.075,2.054-1.854,2.914C401.846,290.408,399.589,291.33,397.241,291.31z"/>
		<path style="fill:#285680;" d="M114.759,326.621c-2.953,0.031-5.722-1.433-7.361-3.89c-1.638-2.457-1.924-5.576-0.76-8.291
			c0.426-1.081,1.055-2.07,1.854-2.914l1.319-1.06c0.493-0.336,1.03-0.603,1.595-0.793c0.5-0.255,1.034-0.435,1.586-0.534
			c2.909-0.59,5.92,0.305,8.035,2.388c0.799,0.844,1.428,1.833,1.854,2.914c1.163,2.715,0.876,5.833-0.762,8.29
			C120.48,325.186,117.712,326.65,114.759,326.621z"/>
		<path style="fill:#285680;" d="M150.069,326.621c-2.348,0.023-4.607-0.899-6.268-2.56c-0.778-0.859-1.405-1.845-1.854-2.914
			c-0.943-2.136-0.943-4.571,0-6.707c0.426-1.081,1.055-2.07,1.854-2.914c2.083-2.069,5.061-2.965,7.94-2.388
			c0.586,0.086,1.153,0.267,1.681,0.535c0.543,0.174,1.051,0.442,1.5,0.793c0.526,0.353,0.974,0.707,1.414,1.06
			c0.799,0.844,1.428,1.833,1.854,2.914c1.409,3.284,0.675,7.095-1.853,9.621c-0.859,0.778-1.845,1.405-2.914,1.854
			C152.362,326.367,151.222,326.607,150.069,326.621z"/>
		<path style="fill:#285680;" d="M185.379,326.621c-1.153-0.014-2.293-0.254-3.353-0.707c-1.07-0.447-2.056-1.074-2.914-1.854
			c-2.528-2.525-3.263-6.337-1.854-9.621c0.426-1.081,1.055-2.07,1.854-2.914c3.539-3.267,8.995-3.267,12.534,0
			c0.799,0.844,1.428,1.833,1.854,2.914c1.163,2.715,0.876,5.833-0.762,8.29C191.1,325.186,188.332,326.65,185.379,326.621z"/>
		<path style="fill:#285680;" d="M220.69,326.621c-1.153-0.014-2.293-0.254-3.353-0.707c-1.07-0.447-2.056-1.074-2.914-1.854
			c-2.528-2.525-3.263-6.337-1.854-9.621c0.426-1.081,1.055-2.07,1.854-2.914c2.083-2.069,5.061-2.965,7.94-2.388
			c0.586,0.086,1.153,0.267,1.681,0.535c0.543,0.174,1.051,0.442,1.5,0.793c0.526,0.353,0.974,0.707,1.414,1.06
			c0.799,0.844,1.428,1.833,1.854,2.914c1.409,3.284,0.675,7.096-1.853,9.621c-0.859,0.778-1.845,1.405-2.914,1.854
			C222.982,326.367,221.843,326.607,220.69,326.621z"/>
		<path style="fill:#285680;" d="M256,326.621c-2.348,0.023-4.607-0.9-6.267-2.56c-1.66-1.66-2.583-3.919-2.56-6.267
			c-0.032-1.158,0.21-2.307,0.707-3.353c0.804-2.217,2.55-3.963,4.767-4.767c3.286-1.387,7.085-0.655,9.621,1.854
			c0.799,0.844,1.428,1.833,1.854,2.914c1.162,2.714,0.875,5.832-0.763,8.289C261.72,325.186,258.953,326.65,256,326.621z"/>
		<path style="fill:#285680;" d="M291.31,326.621c-1.153-0.014-2.293-0.254-3.353-0.707c-1.07-0.447-2.056-1.074-2.914-1.854
			c-2.528-2.525-3.263-6.337-1.854-9.621c0.426-1.081,1.055-2.07,1.854-2.914l1.319-1.06c0.493-0.336,1.03-0.603,1.595-0.793
			c0.5-0.255,1.034-0.435,1.586-0.535c2.909-0.59,5.92,0.305,8.035,2.388c0.799,0.844,1.428,1.833,1.854,2.914
			c0.943,2.136,0.943,4.571,0,6.707c-0.449,1.069-1.075,2.054-1.854,2.914C295.916,325.718,293.658,326.64,291.31,326.621z"/>
		<path style="fill:#285680;" d="M326.621,326.621c-2.348,0.023-4.607-0.9-6.267-2.56c-1.66-1.66-2.583-3.919-2.56-6.267
			c-0.032-1.158,0.21-2.307,0.707-3.353c0.804-2.217,2.55-3.963,4.767-4.767c3.287-1.378,7.081-0.647,9.621,1.854
			c0.799,0.844,1.428,1.833,1.854,2.914c1.162,2.714,0.875,5.832-0.763,8.289C332.341,325.186,329.573,326.65,326.621,326.621z"/>
		<path style="fill:#285680;" d="M361.931,326.621c-1.153-0.014-2.293-0.254-3.353-0.707c-1.07-0.447-2.056-1.074-2.914-1.854
			c-2.528-2.525-3.263-6.337-1.854-9.621c0.426-1.081,1.055-2.07,1.854-2.914c3.539-3.267,8.995-3.267,12.534,0
			c0.799,0.844,1.428,1.833,1.854,2.914c1.409,3.284,0.675,7.096-1.853,9.621c-0.859,0.778-1.845,1.405-2.914,1.854
			C364.224,326.367,363.084,326.607,361.931,326.621z"/>
		<path style="fill:#285680;" d="M397.241,326.621c-2.348,0.023-4.607-0.899-6.268-2.56c-0.776-0.881-1.431-1.86-1.948-2.914
			c-0.422-1.067-0.63-2.207-0.612-3.354c-0.025-2.642,1.145-5.153,3.184-6.834s4.727-2.35,7.316-1.821
			c0.586,0.086,1.153,0.267,1.681,0.534c0.543,0.174,1.051,0.442,1.5,0.793c0.526,0.353,0.974,0.707,1.414,1.06
			c0.799,0.844,1.428,1.833,1.854,2.914c1.409,3.284,0.675,7.095-1.853,9.621c-0.859,0.778-1.845,1.405-2.914,1.854
			C399.534,326.367,398.395,326.607,397.241,326.621z"/>
		<path style="fill:#285680;" d="M150.069,361.931c-1.153-0.014-2.293-0.254-3.353-0.707c-1.07-0.447-2.056-1.074-2.914-1.854
			c-0.778-0.859-1.405-1.845-1.854-2.914c-0.943-2.136-0.943-4.571,0-6.707c0.426-1.081,1.055-2.07,1.854-2.914
			c3.539-3.267,8.995-3.267,12.534,0c0.799,0.844,1.428,1.833,1.854,2.914c0.943,2.136,0.943,4.571,0,6.707
			c-0.449,1.069-1.075,2.054-1.854,2.914C154.674,361.028,152.417,361.951,150.069,361.931z"/>
		<path style="fill:#285680;" d="M185.379,361.931c-1.153-0.014-2.293-0.254-3.353-0.707c-1.081-0.426-2.07-1.055-2.914-1.854
			c-0.778-0.859-1.405-1.845-1.854-2.914c-0.943-2.136-0.943-4.571,0-6.707c0.426-1.081,1.055-2.07,1.854-2.914
			c0.418-0.379,0.859-0.733,1.319-1.06c0.493-0.336,1.03-0.603,1.595-0.793c0.5-0.255,1.034-0.435,1.586-0.535
			c1.132-0.259,2.308-0.259,3.44,0c0.586,0.086,1.153,0.267,1.681,0.535c0.543,0.174,1.051,0.442,1.5,0.793
			c0.506,0.304,0.98,0.66,1.414,1.06c0.799,0.844,1.428,1.833,1.854,2.914c0.943,2.136,0.943,4.571,0,6.707
			c-0.804,2.217-2.55,3.963-4.767,4.767C187.673,361.676,186.533,361.917,185.379,361.931z"/>
		<path style="fill:#285680;" d="M220.69,361.931c-2.348,0.023-4.607-0.899-6.268-2.56c-0.778-0.859-1.405-1.845-1.854-2.914
			c-0.943-2.136-0.943-4.571,0-6.707c0.804-2.217,2.55-3.963,4.767-4.767c1.609-0.708,3.4-0.895,5.121-0.534
			c0.552,0.101,1.086,0.281,1.586,0.534c0.563,0.191,1.096,0.457,1.586,0.793c0.464,0.326,0.907,0.68,1.329,1.059
			c0.799,0.844,1.428,1.833,1.854,2.914c0.943,2.136,0.943,4.571,0,6.707c-0.804,2.217-2.55,3.963-4.767,4.767
			C222.983,361.676,221.843,361.917,220.69,361.931z"/>
		<path style="fill:#285680;" d="M256,361.931c-1.153-0.014-2.293-0.254-3.353-0.707c-1.07-0.447-2.056-1.074-2.914-1.854
			c-0.776-0.881-1.431-1.86-1.948-2.914c-0.422-1.067-0.63-2.206-0.612-3.353c-0.032-1.158,0.21-2.307,0.707-3.353
			c0.804-2.217,2.55-3.963,4.767-4.767c3.287-1.378,7.081-0.647,9.621,1.854c0.799,0.844,1.428,1.833,1.854,2.914
			c0.943,2.136,0.943,4.571,0,6.707c-0.804,2.217-2.55,3.963-4.767,4.767C258.293,361.677,257.153,361.917,256,361.931z"/>
		<path style="fill:#285680;" d="M291.31,361.931c-1.153-0.014-2.293-0.254-3.353-0.707c-1.07-0.447-2.056-1.074-2.914-1.854
			c-0.778-0.859-1.405-1.845-1.854-2.914c-0.943-2.136-0.943-4.571,0-6.707c0.426-1.081,1.055-2.07,1.854-2.914
			c0.418-0.379,0.859-0.733,1.319-1.06c0.493-0.336,1.03-0.603,1.595-0.793c0.5-0.255,1.034-0.435,1.586-0.535
			c2.909-0.59,5.92,0.305,8.035,2.388c0.799,0.844,1.428,1.833,1.854,2.914c0.943,2.136,0.943,4.571,0,6.707
			c-0.804,2.217-2.55,3.963-4.767,4.767C293.604,361.676,292.464,361.917,291.31,361.931z"/>
		<path style="fill:#285680;" d="M326.621,361.931c-1.153-0.014-2.293-0.254-3.353-0.707c-1.07-0.447-2.056-1.074-2.914-1.854
			c-0.778-0.859-1.405-1.845-1.854-2.914c-0.943-2.136-0.943-4.571,0-6.707c0.426-1.081,1.055-2.07,1.854-2.914
			c2.083-2.069,5.061-2.965,7.94-2.388c0.586,0.086,1.153,0.267,1.681,0.535c0.543,0.174,1.051,0.442,1.5,0.793
			c0.506,0.304,0.98,0.66,1.414,1.06c0.799,0.844,1.428,1.833,1.854,2.914c0.943,2.136,0.943,4.571,0,6.707
			c-0.804,2.217-2.55,3.963-4.767,4.767C328.914,361.676,327.774,361.917,326.621,361.931z"/>
		<path style="fill:#285680;" d="M361.931,361.931c-2.348,0.023-4.607-0.899-6.268-2.56c-0.804-0.858-1.462-1.843-1.948-2.914
			c-0.422-1.067-0.63-2.207-0.612-3.354c-0.032-1.158,0.21-2.307,0.707-3.353c0.804-2.217,2.55-3.963,4.767-4.767
			c2.13-0.974,4.577-0.974,6.707,0c1.069,0.449,2.054,1.075,2.914,1.854c0.799,0.844,1.428,1.833,1.854,2.914
			c0.943,2.136,0.943,4.571,0,6.707c-0.804,2.217-2.55,3.963-4.767,4.767C364.224,361.677,363.084,361.917,361.931,361.931z"/>
		<path style="fill:#285680;" d="M397.241,361.931c-1.153-0.014-2.293-0.254-3.353-0.707c-1.07-0.447-2.056-1.074-2.914-1.854
			c-0.776-0.881-1.431-1.86-1.948-2.914c-0.422-1.067-0.63-2.206-0.612-3.353c-0.032-1.158,0.21-2.307,0.707-3.353
			c0.426-1.081,1.055-2.07,1.854-2.914c2.083-2.069,5.061-2.965,7.94-2.388c0.586,0.086,1.153,0.267,1.681,0.534
			c0.543,0.174,1.051,0.442,1.5,0.793c0.506,0.304,0.98,0.659,1.414,1.06c0.799,0.844,1.428,1.833,1.854,2.914
			c0.943,2.136,0.943,4.571,0,6.707c-0.804,2.217-2.55,3.963-4.767,4.767C399.535,361.676,398.395,361.917,397.241,361.931z"/>
	</g>
	<path style="fill:#3B97D3;" d="M194.207,105.931h123.586c4.875,0,8.828,3.952,8.828,8.828v123.586c0,4.875-3.952,8.828-8.828,8.828
		H194.207c-4.875,0-8.828-3.952-8.828-8.828V114.759C185.379,109.883,189.332,105.931,194.207,105.931z"/>
	<g>
		<path style="fill:#E6E7E8;" d="M264.828,150.069H220.69c-4.875,0-8.828-3.952-8.828-8.828s3.952-8.828,8.828-8.828h44.138
			c4.875,0,8.828,3.952,8.828,8.828S269.703,150.069,264.828,150.069z"/>
		<path style="fill:#E6E7E8;" d="M291.31,185.379H220.69c-4.875,0-8.828-3.952-8.828-8.828s3.952-8.828,8.828-8.828h70.621
			c4.875,0,8.828,3.952,8.828,8.828S296.186,185.379,291.31,185.379z"/>
		<path style="fill:#E6E7E8;" d="M229.517,220.69h-8.828c-4.875,0-8.828-3.952-8.828-8.828c0-4.875,3.952-8.828,8.828-8.828h8.828
			c4.875,0,8.828,3.952,8.828,8.828C238.345,216.737,234.393,220.69,229.517,220.69z"/>
	</g>
	<path style="fill:#BDC3C7;" d="M211.862,441.379h185.379c4.875,0,8.828,3.952,8.828,8.828v17.655c0,4.875-3.952,8.828-8.828,8.828
		H211.862c-4.875,0-8.828-3.952-8.828-8.828v-17.655C203.034,445.332,206.987,441.379,211.862,441.379z"/>
</g>
<g>
</g>
<g>
</g>
<g>
</g>
<g>
</g>
<g>
</g>
<g>
</g>
<g>
</g>
<g>
</g>
<g>
</g>
<g>
</g>
<g>
</g>
<g>
</g>
<g>
</g>
<g>
</g>
<g>
</g>
</svg>
