<?xml version="1.0" encoding="iso-8859-1"?>
<!-- Generator: Adobe Illustrator 19.0.0, SVG Export Plug-In . SVG Version: 6.00 Build 0)  -->
<svg version="1.1" id="Capa_1" xmlns="http://www.w3.org/2000/svg" xmlns:xlink="http://www.w3.org/1999/xlink" x="0px" y="0px"
	 viewBox="0 0 512 512" style="enable-background:new 0 0 512 512;" xml:space="preserve">
<g>
	<g>
		<path style="fill:#5E5F62;" d="M8.828,326.621h35.31v35.31c0,9.751-7.904,17.655-17.655,17.655s-17.655-7.905-17.655-17.655
			V326.621z"/>
		<path style="fill:#5E5F62;" d="M467.862,326.621h35.31v35.31c0,9.751-7.905,17.655-17.655,17.655s-17.655-7.905-17.655-17.655
			V326.621z"/>
	</g>
	<path style="fill:#95A5A5;" d="M511.753,220.69L450.207,44.844l-7.432-21.21C437.814,9.478,424.451,0,409.451,0H102.549
		c-15,0-28.364,9.477-33.324,23.634l-7.432,21.21L0.247,220.69H0v114.759c0.014,4.869,3.958,8.813,8.828,8.828h494.345
		c4.869-0.014,8.813-3.958,8.828-8.828V220.69H511.753z"/>
	<path style="fill:#7F8C8D;" d="M512,221.396L450.207,44.844l-7.432-21.21C437.815,9.477,424.451,0,409.451,0H102.549
		c-15,0-28.364,9.477-33.324,23.634l-7.432,21.21L0,221.396H512z"/>
	<path style="fill:#5E5F62;" d="M403.068,300.138h38.312c4.869-0.014,8.813-3.958,8.828-8.828v-17.655
		c-0.014-4.869-3.958-8.813-8.828-8.828H70.621c-4.869,0.014-8.813,3.958-8.828,8.828v17.655c0.014,4.869,3.958,8.813,8.828,8.828
		H403.068z"/>
	<path style="fill:#71C285;" d="M403.068,300.138l-14.654-35.31H123.586l-12.359,35.31l-15.448,44.138l-33.986,97.103v30.19
		c-0.006,3.165,1.676,6.093,4.414,7.681L123.586,512h343.746c4.87-0.014,8.813-3.958,8.828-8.828V476.69L403.068,300.138z"/>
	<path style="fill:#527F72;" d="M123.586,476.69V512l-57.379-32.75c-2.738-1.588-4.42-4.516-4.414-7.681l0-30.189L123.586,476.69z"
		/>
	<path style="fill:#4C8056;" d="M476.16,476.69v26.483c-0.014,4.869-3.958,8.813-8.828,8.828H123.586v-35.31H476.16z"/>
	<polygon style="fill:#ECF0F1;" points="346.041,353.103 174.874,353.103 186.174,317.793 191.735,300.138 203.034,264.828 
		317.793,264.828 329.092,300.138 334.742,317.793 	"/>
	<path style="fill:#E6E7E8;" d="M362.411,176.552H149.589c-5.651-0.119-10.9-2.947-14.108-7.599
		c-3.209-4.653-3.986-10.564-2.09-15.888l6.006-17.655c2.306-7.006,8.822-11.763,16.198-11.823h200.808
		c7.376,0.06,13.892,4.817,16.198,11.823l6.006,17.655c1.897,5.324,1.119,11.235-2.09,15.888
		C373.31,173.605,368.061,176.432,362.411,176.552z"/>
	<polygon style="fill:#ECF0F1;" points="397.241,476.69 365.903,388.414 172.579,388.414 141.241,476.69 	"/>
	<polygon style="fill:#BDC3C7;" points="334.742,317.793 186.174,317.793 191.735,300.138 329.092,300.138 	"/>
	<ellipse style="fill:#CC4B4C;" cx="256" cy="61.793" rx="35.31" ry="17.655"/>
	<polygon style="fill:#71C285;" points="189.352,476.69 205.065,432.552 240.375,432.552 256,476.69 	"/>
</g>
<g>
</g>
<g>
</g>
<g>
</g>
<g>
</g>
<g>
</g>
<g>
</g>
<g>
</g>
<g>
</g>
<g>
</g>
<g>
</g>
<g>
</g>
<g>
</g>
<g>
</g>
<g>
</g>
<g>
</g>
</svg>
