<?xml version="1.0" encoding="iso-8859-1"?>
<!-- Generator: Adobe Illustrator 19.0.0, SVG Export Plug-In . SVG Version: 6.00 Build 0)  -->
<svg version="1.1" id="Capa_1" xmlns="http://www.w3.org/2000/svg" xmlns:xlink="http://www.w3.org/1999/xlink" x="0px" y="0px"
	 viewBox="0 0 512.001 512.001" style="enable-background:new 0 0 512.001 512.001;" xml:space="preserve">
<g>
	<path style="fill:#35495E;" d="M469.739,79.212l34.526-34.541c9.711-9.758,10.36-25.317,1.494-35.849
		c-5.213-5.589-12.503-8.778-20.146-8.813c-7.643-0.034-14.961,3.089-20.224,8.631l-33.084,33.097L469.739,79.212z"/>
	<path style="fill:#2C3E50;" d="M58.054,478.877l-27.951,27.981c-6.904,6.863-18.06,6.844-24.939-0.044s-6.887-18.043-0.016-24.939
		l27.951-27.981L58.054,478.877z"/>
	<path style="fill:#D1D4D1;" d="M473.071,38.411c-24.188-24.188-49.258-38.047-56.143-31.25l-24.806,24.894
		c-0.088,0-0.088,0-0.177,0.088L242.23,182.035L61.264,363.178l-27.012,63.117c-6.32,14.707-3.041,31.78,8.278,43.099
		c11.319,11.319,28.392,14.598,43.099,8.278l63.029-27.012l180.877-181.143l149.804-149.892c0.109-0.101,0.199-0.22,0.265-0.353
		l24.629-24.629C511.118,87.756,497.171,62.598,473.071,38.411z"/>
	<path style="fill:#67B9CC;" d="M504.233,94.642l-24.629,24.629c6.091-7.328-7.68-32.044-31.515-55.879
		c-23.923-24.01-48.905-37.87-55.967-31.337l24.806-24.894c6.886-6.797,31.956,7.062,56.144,31.25
		C497.171,62.598,511.118,87.756,504.233,94.642z"/>
	<path style="fill:#3F5C6C;" d="M329.535,269.517L148.658,450.659c6.886-6.885-7.062-32.045-31.25-56.233
		c-24.099-24.187-49.258-38.134-56.143-31.249L242.23,182.035c6.886-6.797,32.044,7.061,56.143,31.249
		C322.561,237.472,336.42,262.631,329.535,269.517z"/>
	<path style="fill:#547580;" d="M148.658,450.659l-63.029,27.012c-14.706,6.301-31.766,3.015-43.078-8.298
		C31.237,458.06,27.951,441,34.252,426.295l27.012-63.117c6.886-6.886,32.044,7.061,56.143,31.249
		C141.595,418.614,155.543,443.773,148.658,450.659z"/>
	<path style="fill:#35495E;" d="M205.242,332.457l-31.161,42.019c-1.606,2.031-4.008,3.272-6.593,3.407
		c-2.585,0.135-5.104-0.848-6.913-2.7L136.74,351.26c-1.891-1.789-2.902-4.317-2.767-6.916s1.405-5.008,3.473-6.59l41.931-31.25
		l0.441,0.53L205.242,332.457z"/>
	<path style="fill:#2C3E50;" d="M266.506,282.582l-61.263,49.875l-25.423-25.423l-0.441-0.53l49.788-61.352
		c1.645-1.944,4.04-3.094,6.586-3.161c2.545-0.067,4.999,0.954,6.744,2.808l24.452,24.452c1.823,1.768,2.815,4.224,2.731,6.763
		C269.594,278.553,268.442,280.938,266.506,282.582z"/>
</g>
<g>
</g>
<g>
</g>
<g>
</g>
<g>
</g>
<g>
</g>
<g>
</g>
<g>
</g>
<g>
</g>
<g>
</g>
<g>
</g>
<g>
</g>
<g>
</g>
<g>
</g>
<g>
</g>
<g>
</g>
</svg>
