<?xml version="1.0" encoding="iso-8859-1"?>
<!-- Generator: Adobe Illustrator 19.0.0, SVG Export Plug-In . SVG Version: 6.00 Build 0)  -->
<svg version="1.1" id="Capa_1" xmlns="http://www.w3.org/2000/svg" xmlns:xlink="http://www.w3.org/1999/xlink" x="0px" y="0px"
	 viewBox="0 0 512 512" style="enable-background:new 0 0 512 512;" xml:space="preserve">
<g>
	<path style="fill:#7F8C8D;" d="M388.414,247.172H123.586c-43.877,0.004-79.445,35.572-79.448,79.448v105.931
		c0.004,43.877,35.572,79.445,79.448,79.448h264.828c43.877-0.004,79.445-35.572,79.448-79.448V326.621
		C467.858,282.744,432.29,247.176,388.414,247.172z"/>
	<path style="fill:#95A5A5;" d="M467.862,397.241v35.31c-0.004,43.877-35.572,79.445-79.448,79.448H123.586
		c-43.877-0.004-79.445-35.572-79.448-79.448v-35.31c0.004,43.877,35.572,79.445,79.448,79.448h264.828
		C432.29,476.686,467.858,441.118,467.862,397.241z"/>
	<path style="fill:#CC4B4C;" d="M300.138,256c71.239,10.809,123.586,47.439,123.586,91.017c0,52.157-75.123,94.362-167.724,94.362
		S88.276,399.174,88.276,347.017c0-43.578,52.348-80.208,123.586-91.017H300.138z"/>
	<path style="fill:#802F34;" d="M300.138,282.659c21.274,9.445,35.31,25.6,35.31,43.961c0,29.219-35.575,52.966-79.448,52.966
		s-79.448-23.746-79.448-52.966c0-18.361,14.036-34.516,35.31-43.961H300.138z"/>
	<path style="fill:#BDC3C7;" d="M320.795,64.619l-20.657,41.312v220.69c0,9.71-19.774,17.655-44.138,17.655
		s-44.138-7.945-44.138-17.655v-79.448c0,0,0-61.793-48.993-90.924c-2.371-1.495-3.88-4.039-4.055-6.836
		c-0.175-2.798,1.005-5.509,3.172-7.288l49.876-36.193l-20.657-41.312c-8.993-17.953-7.079-39.444,4.943-55.526h0.088
		c4.281-5.738,11.026-9.11,18.185-9.092h83.156c7.159-0.018,13.904,3.355,18.185,9.092h0.088
		C327.874,25.174,329.787,46.666,320.795,64.619z"/>
	<g>
		<path style="fill:#E6E7E8;" d="M132.414,344.276c-2.348,0.022-4.606-0.901-6.268-2.56c-0.777-0.878-1.431-1.859-1.944-2.914
			c-0.424-1.067-0.633-2.206-0.616-3.354c0.033-2.337,0.947-4.576,2.56-6.268c0.842-0.799,1.83-1.428,2.909-1.854
			c1.61-0.707,3.4-0.894,5.121-0.535c0.553,0.1,1.089,0.28,1.59,0.535c0.564,0.191,1.099,0.457,1.591,0.793
			c0.44,0.353,0.879,0.707,1.323,1.06c1.612,1.693,2.526,3.931,2.561,6.268c0.022,2.348-0.9,4.606-2.56,6.268
			c-0.859,0.779-1.844,1.406-2.914,1.854C134.707,344.022,133.567,344.262,132.414,344.276z"/>
		<path style="fill:#E6E7E8;" d="M150.069,379.586c-1.155-0.014-2.296-0.254-3.358-0.707c-2.215-0.807-3.96-2.552-4.767-4.767
			c-0.937-2.138-0.937-4.569,0-6.707c0.427-1.081,1.057-2.071,1.857-2.914c2.112-2.083,5.123-2.978,8.03-2.388
			c0.553,0.1,1.089,0.28,1.59,0.535c0.564,0.191,1.099,0.457,1.591,0.793c0.461,0.328,0.903,0.682,1.324,1.06
			c0.797,0.845,1.426,1.834,1.854,2.914c0.943,2.136,0.943,4.571,0,6.707c-0.45,1.068-1.077,2.053-1.854,2.914
			c-0.859,0.779-1.844,1.406-2.914,1.854C152.362,379.332,151.222,379.572,150.069,379.586z"/>
		<path style="fill:#E6E7E8;" d="M150.069,317.793c-2.348,0.022-4.606-0.901-6.268-2.56c-0.78-0.859-1.408-1.844-1.858-2.914
			c-0.451-1.061-0.69-2.201-0.702-3.354c0.033-2.337,0.947-4.576,2.56-6.268c0.44-0.353,0.879-0.707,1.323-1.06
			c0.49-0.335,1.024-0.602,1.586-0.793c0.501-0.255,1.037-0.435,1.59-0.535c1.721-0.36,3.511-0.173,5.121,0.535
			c1.07,0.448,2.055,1.075,2.914,1.854c1.612,1.693,2.526,3.93,2.561,6.267c0.03,1.158-0.212,2.306-0.707,3.353
			c-0.45,1.068-1.077,2.053-1.854,2.914C154.675,316.892,152.417,317.814,150.069,317.793z"/>
		<path style="fill:#E6E7E8;" d="M185.379,406.069c-2.348,0.023-4.607-0.9-6.267-2.56c-1.66-1.66-2.583-3.919-2.56-6.267
			c0.033-2.337,0.947-4.576,2.56-6.268c0.842-0.799,1.83-1.428,2.909-1.854c2.149-0.888,4.562-0.888,6.711,0
			c1.08,0.427,2.069,1.056,2.914,1.854c1.612,1.693,2.526,3.931,2.561,6.268c0.006,2.345-0.914,4.597-2.56,6.268
			c-0.859,0.779-1.844,1.406-2.914,1.854C187.672,405.815,186.533,406.055,185.379,406.069z"/>
		<path style="fill:#E6E7E8;" d="M256,419.31c-1.155-0.014-2.296-0.254-3.358-0.707c-1.068-0.448-2.052-1.075-2.91-1.854
			c-1.661-1.66-2.584-3.919-2.56-6.267c0.033-2.337,0.947-4.576,2.56-6.268c0.44-0.353,0.879-0.707,1.323-1.06
			c0.491-0.335,1.024-0.602,1.586-0.793c0.501-0.255,1.037-0.435,1.59-0.535c1.721-0.36,3.511-0.173,5.121,0.535
			c1.07,0.448,2.055,1.075,2.914,1.854c1.611,1.693,2.525,3.931,2.56,6.268c0.022,2.348-0.9,4.606-2.56,6.268
			c-0.859,0.779-1.844,1.406-2.914,1.854C258.292,419.057,257.153,419.297,256,419.31z"/>
		<path style="fill:#E6E7E8;" d="M220.69,414.897c-1.155-0.014-2.296-0.254-3.358-0.707c-2.215-0.807-3.96-2.552-4.767-4.767
			c-0.937-2.137-0.937-4.569,0-6.707c0.406-1.092,1.039-2.085,1.857-2.914c0.419-0.38,0.861-0.735,1.323-1.06
			c0.491-0.335,1.024-0.602,1.586-0.793c0.501-0.255,1.037-0.435,1.59-0.535c1.163-0.259,2.368-0.259,3.53,0
			c0.553,0.1,1.089,0.28,1.59,0.535c0.564,0.191,1.099,0.457,1.591,0.793c0.461,0.328,0.903,0.682,1.324,1.06
			c0.816,0.83,1.447,1.823,1.854,2.914c0.452,1.061,0.692,2.2,0.706,3.354c0.03,1.158-0.212,2.306-0.707,3.353
			c-0.45,1.068-1.077,2.053-1.854,2.914c-0.859,0.779-1.844,1.406-2.914,1.854C222.982,414.642,221.843,414.883,220.69,414.897z"/>
		<path style="fill:#E6E7E8;" d="M379.586,344.276c-2.348,0.023-4.607-0.9-6.267-2.56c-1.66-1.66-2.583-3.919-2.56-6.267
			c0.033-2.337,0.947-4.576,2.56-6.268c0.842-0.799,1.83-1.428,2.909-1.854c1.61-0.707,3.4-0.894,5.121-0.535
			c0.553,0.1,1.089,0.28,1.59,0.535c0.564,0.191,1.099,0.457,1.591,0.793c0.44,0.353,0.879,0.707,1.323,1.06
			c1.612,1.693,2.526,3.931,2.561,6.268c-0.014,1.153-0.254,2.293-0.707,3.353c-0.45,1.068-1.077,2.053-1.854,2.914
			c-0.859,0.779-1.844,1.406-2.914,1.854C381.879,344.022,380.739,344.262,379.586,344.276z"/>
		<path style="fill:#E6E7E8;" d="M361.931,379.586c-1.155-0.014-2.296-0.254-3.358-0.707c-2.215-0.807-3.96-2.552-4.767-4.767
			c-0.937-2.138-0.937-4.569,0-6.707c0.427-1.081,1.057-2.071,1.857-2.914c0.431-0.402,0.904-0.757,1.409-1.06
			c0.45-0.35,0.958-0.618,1.5-0.793c0.501-0.255,1.037-0.435,1.59-0.535c2.909-0.59,5.921,0.305,8.035,2.388
			c0.797,0.845,1.426,1.834,1.854,2.914c0.943,2.136,0.943,4.571,0,6.707c-0.45,1.068-1.077,2.053-1.854,2.914
			c-0.859,0.779-1.844,1.406-2.914,1.854C364.224,379.332,363.084,379.572,361.931,379.586z"/>
		<path style="fill:#E6E7E8;" d="M361.931,317.793c-2.348,0.022-4.606-0.901-6.268-2.56c-0.78-0.859-1.408-1.844-1.858-2.914
			c-0.451-1.061-0.69-2.201-0.702-3.354c0.033-2.337,0.947-4.576,2.56-6.268c0.44-0.353,0.879-0.707,1.323-1.06
			c0.491-0.335,1.024-0.602,1.586-0.793c0.501-0.255,1.037-0.435,1.59-0.535c1.721-0.36,3.511-0.173,5.121,0.535
			c1.08,0.427,2.069,1.056,2.914,1.854c1.612,1.693,2.526,3.93,2.561,6.267c0.017,1.148-0.194,2.288-0.621,3.353
			c-0.513,1.054-1.165,2.034-1.939,2.914C366.537,316.892,364.279,317.815,361.931,317.793z"/>
		<path style="fill:#E6E7E8;" d="M326.621,406.069c-2.348,0.023-4.607-0.9-6.267-2.56c-1.66-1.66-2.583-3.919-2.56-6.267
			c0.033-2.337,0.947-4.576,2.56-6.268c0.857-0.779,1.841-1.406,2.909-1.854c3.292-1.343,7.067-0.616,9.625,1.854
			c1.612,1.693,2.526,3.931,2.561,6.268c0.022,2.348-0.9,4.606-2.56,6.268c-0.859,0.779-1.844,1.406-2.914,1.854
			C328.913,405.815,327.774,406.055,326.621,406.069z"/>
		<path style="fill:#E6E7E8;" d="M291.31,414.897c-1.155-0.014-2.296-0.254-3.358-0.707c-2.215-0.807-3.96-2.552-4.767-4.767
			c-0.937-2.137-0.937-4.569,0-6.707c0.406-1.092,1.039-2.085,1.857-2.914c0.419-0.38,0.861-0.735,1.323-1.06
			c0.491-0.335,1.024-0.602,1.586-0.793c0.501-0.255,1.037-0.435,1.59-0.535c2.908-0.577,5.914,0.316,8.035,2.388
			c0.816,0.83,1.447,1.823,1.854,2.914c0.452,1.061,0.692,2.2,0.706,3.354c0.03,1.158-0.212,2.306-0.707,3.353
			c-0.45,1.068-1.077,2.053-1.854,2.914c-0.859,0.779-1.844,1.406-2.914,1.854C293.603,414.642,292.464,414.883,291.31,414.897z"/>
	</g>
	<g>
		<circle style="fill:#CC4B4C;" cx="256" cy="17.655" r="17.655"/>
		<path style="fill:#CC4B4C;" d="M300.138,123.586v158.897c-29.396,0-35.31-7.945-35.31-47.669S256,203.035,256,163.31
			S300.138,123.586,300.138,123.586z"/>
		<path style="fill:#CC4B4C;" d="M220.69,61.793c0.013,4.647-1.793,9.114-5.032,12.446l-12.977,13.241l-11.476-22.862
			c-3.206-6.386-5.098-13.35-5.561-20.481h17.743c4.626,0.005,9.053,1.884,12.27,5.208C218.897,52.679,220.703,57.146,220.69,61.793
			z"/>
		<path style="fill:#CC4B4C;" d="M326.356,44.138c-0.464,7.13-2.355,14.095-5.561,20.481l-11.476,22.862l-12.977-13.241
			c-6.709-6.942-6.709-17.952,0-24.893c3.217-3.324,7.644-5.203,12.27-5.208H326.356z"/>
		<path style="fill:#CC4B4C;" d="M221.484,140.446c-3.326,3.325-7.833,5.198-12.535,5.209c-4.676-0.013-9.155-1.887-12.447-5.209
			l-14.212-13.065l29.572-21.45l9.622,9.622c3.306,3.298,5.164,7.777,5.164,12.447S224.79,137.148,221.484,140.446z"/>
	</g>
</g>
<g>
</g>
<g>
</g>
<g>
</g>
<g>
</g>
<g>
</g>
<g>
</g>
<g>
</g>
<g>
</g>
<g>
</g>
<g>
</g>
<g>
</g>
<g>
</g>
<g>
</g>
<g>
</g>
<g>
</g>
</svg>
