<?xml version="1.0" encoding="iso-8859-1"?>
<!-- Generator: Adobe Illustrator 19.0.0, SVG Export Plug-In . SVG Version: 6.00 Build 0)  -->
<svg version="1.1" id="Capa_1" xmlns="http://www.w3.org/2000/svg" xmlns:xlink="http://www.w3.org/1999/xlink" x="0px" y="0px"
	 viewBox="0 0 512.005 512.005" style="enable-background:new 0 0 512.005 512.005;" xml:space="preserve">
<g transform="translate(-1)">
	<path style="fill:#41767F;" d="M513.005,291.313v167.724c-0.021,29.243-23.722,52.945-52.966,52.966H53.97
		c-29.244-0.02-52.945-23.722-52.966-52.966V291.313H513.005z"/>
	<path style="fill:#3F5C6C;" d="M371.764,150.071h68.149c24.745,0.002,46.205,17.104,51.73,41.225l20.039,88.276
		c3.559,15.707-0.217,32.181-10.264,44.769c-10.046,12.588-25.272,19.924-41.378,19.937H53.97
		c-16.507-0.01-32.068-7.71-42.088-20.829s-13.357-30.156-9.024-46.085l24.099-88.276c6.278-23.051,27.221-39.039,51.112-39.018
		h64.177"/>
	<path style="fill:#7F8C8D;" d="M151.074,0.002h211.862c4.875,0,8.828,3.952,8.828,8.828v238.345H142.246V8.83
		C142.246,3.955,146.199,0.002,151.074,0.002z"/>
	<path style="fill:#BDC3C7;" d="M336.453,247.175v-70.621c-9.751,0-17.655-7.904-17.655-17.655c0-9.751,7.904-17.655,17.655-17.655
		V79.451l-35.31-35.31h-88.276l-35.31,35.31v61.793c9.751,0,17.655,7.904,17.655,17.655c0,9.751-7.904,17.655-17.655,17.655v70.621
		H336.453z"/>
	<g>
		<path style="fill:#5E5F62;" d="M177.557,44.14c-2.348,0.023-4.607-0.9-6.267-2.56c-1.66-1.66-2.583-3.919-2.56-6.267
			c0-4.875,3.952-8.828,8.828-8.828s8.828,3.952,8.828,8.828c0.023,2.348-0.9,4.607-2.56,6.267
			C182.163,43.24,179.905,44.163,177.557,44.14z"/>
		<path style="fill:#5E5F62;" d="M336.453,44.14c-1.155-0.014-2.296-0.254-3.358-0.707c-1.068-0.447-2.053-1.074-2.91-1.853
			c-1.661-1.66-2.584-3.919-2.56-6.268c0-4.875,3.952-8.828,8.828-8.828s8.828,3.952,8.828,8.828c0.023,2.348-0.9,4.607-2.56,6.267
			C341.06,43.24,338.801,44.163,336.453,44.14z"/>
	</g>
	<path style="fill:#4482C3;" d="M230.522,79.451h52.966c9.751,0,17.655,7.904,17.655,17.655l0,0c0,9.751-7.905,17.655-17.655,17.655
		h-52.966c-9.751,0-17.655-7.904-17.655-17.655l0,0C212.867,87.355,220.771,79.451,230.522,79.451z"/>
	<path style="fill:#E6E7E8;" d="M230.522,158.899v61.793l26.483,26.483h26.483v-88.276c0-4.875-3.952-8.828-8.828-8.828h-35.31
		C234.474,150.071,230.522,154.024,230.522,158.899z"/>
	<ellipse style="fill:#CC4B4C;" cx="442.384" cy="291.313" rx="26.483" ry="17.655"/>
	<path style="fill:#95A5A5;" d="M212.867,344.278h88.276v44.138c0,4.875-3.952,8.828-8.828,8.828h-70.621
		c-4.875,0-8.828-3.952-8.828-8.828V344.278z"/>
	<path style="fill:#2C3E50;" d="M398.246,256.002H115.764c-4.875,0-8.828-3.952-8.828-8.828c0-4.875,3.952-8.828,8.828-8.828
		h282.483c4.875,0,8.828,3.952,8.828,8.828C407.074,252.05,403.122,256.002,398.246,256.002z"/>
</g>
<g>
</g>
<g>
</g>
<g>
</g>
<g>
</g>
<g>
</g>
<g>
</g>
<g>
</g>
<g>
</g>
<g>
</g>
<g>
</g>
<g>
</g>
<g>
</g>
<g>
</g>
<g>
</g>
<g>
</g>
</svg>
