<?xml version="1.0" encoding="iso-8859-1"?>
<!-- Generator: Adobe Illustrator 19.0.0, SVG Export Plug-In . SVG Version: 6.00 Build 0)  -->
<svg version="1.1" id="Capa_1" xmlns="http://www.w3.org/2000/svg" xmlns:xlink="http://www.w3.org/1999/xlink" x="0px" y="0px"
	 viewBox="0 0 512 512" style="enable-background:new 0 0 512 512;" xml:space="preserve">
<g>
	<circle style="fill:#41767F;" cx="256" cy="256" r="256"/>
	<g>
		<path style="fill:#E6E7E8;" d="M465.043,335.448c-2.844,0-5.514-1.371-7.172-3.682c-1.658-2.311-2.101-5.279-1.19-7.973
			c3.723-11.043,6.526-22.374,8.379-33.879c0.777-4.808,5.301-8.079,10.11-7.308c4.809,0.771,8.085,5.291,7.321,10.101
			c-2.007,12.478-5.046,24.767-9.086,36.741C472.193,333.034,468.829,335.448,465.043,335.448z"/>
		<path style="fill:#E6E7E8;" d="M256,485.517c-18.565,0.007-37.061-2.237-55.086-6.681c-3.077-0.743-5.52-3.077-6.404-6.117
			c-0.883-3.04-0.072-6.32,2.128-8.597c2.199-2.277,5.449-3.202,8.518-2.424c93.34,23.018,190.48-19.683,236.629-104.017
			c1.515-2.773,4.395-4.526,7.554-4.596c3.159-0.07,6.115,1.552,7.751,4.255c1.636,2.703,1.704,6.074,0.177,8.841
			C416.994,439.719,339.844,485.464,256,485.517z"/>
		<path style="fill:#E6E7E8;" d="M167.715,467.095c-1.217,0.002-2.421-0.251-3.534-0.742
			c-24.939-10.919-47.735-26.192-67.319-45.103c-3.493-3.388-3.585-8.964-0.207-12.466c3.379-3.502,8.954-3.61,12.465-0.241
			c18.08,17.458,39.124,31.557,62.146,41.638c3.829,1.677,5.957,5.809,5.098,9.9C175.505,464.172,171.895,467.1,167.715,467.095
			L167.715,467.095z"/>
		<path style="fill:#E6E7E8;" d="M73.276,388.414c-2.931,0.005-5.673-1.445-7.319-3.871c-18.755-27.559-31.2-58.916-36.448-91.836
			c-0.764-4.81,2.512-9.33,7.321-10.101c4.809-0.771,9.334,2.5,10.11,7.308c4.841,30.37,16.327,59.297,33.638,84.716
			c1.836,2.704,2.028,6.202,0.498,9.09C79.546,386.608,76.545,388.414,73.276,388.414z"/>
		<path style="fill:#E6E7E8;" d="M256,406.069c-2.342,0.001-4.588-0.928-6.244-2.584c-1.656-1.656-2.585-3.902-2.584-6.244V291.31
			c0-4.875,3.952-8.828,8.828-8.828s8.828,3.952,8.828,8.828v105.931c0.001,2.342-0.928,4.588-2.584,6.244
			C260.588,405.141,258.342,406.07,256,406.069z"/>
		<path style="fill:#E6E7E8;" d="M308.966,353.103H203.034c-4.875,0-8.828-3.952-8.828-8.828s3.952-8.828,8.828-8.828h105.931
			c4.875,0,8.828,3.952,8.828,8.828S313.841,353.103,308.966,353.103z"/>
		<path style="fill:#E6E7E8;" d="M264.828,150.069h-79.448c-4.875,0-8.828-3.952-8.828-8.828s3.952-8.828,8.828-8.828h79.448
			c4.875,0,8.828,3.952,8.828,8.828S269.703,150.069,264.828,150.069z"/>
		<path style="fill:#E6E7E8;" d="M326.621,150.069h-26.483c-4.875,0-8.828-3.952-8.828-8.828s3.952-8.828,8.828-8.828h26.483
			c4.875,0,8.828,3.952,8.828,8.828S331.496,150.069,326.621,150.069z"/>
		<path style="fill:#E6E7E8;" d="M326.621,185.379h-61.793c-4.875,0-8.828-3.952-8.828-8.828s3.952-8.828,8.828-8.828h61.793
			c4.875,0,8.828,3.952,8.828,8.828S331.496,185.379,326.621,185.379z"/>
		<path style="fill:#E6E7E8;" d="M229.517,185.379h-44.138c-4.875,0-8.828-3.952-8.828-8.828s3.952-8.828,8.828-8.828h44.138
			c4.875,0,8.828,3.952,8.828,8.828S234.393,185.379,229.517,185.379z"/>
	</g>
</g>
<g>
</g>
<g>
</g>
<g>
</g>
<g>
</g>
<g>
</g>
<g>
</g>
<g>
</g>
<g>
</g>
<g>
</g>
<g>
</g>
<g>
</g>
<g>
</g>
<g>
</g>
<g>
</g>
<g>
</g>
</svg>
