<?xml version="1.0" encoding="iso-8859-1"?>
<!-- Generator: Adobe Illustrator 19.0.0, SVG Export Plug-In . SVG Version: 6.00 Build 0)  -->
<svg version="1.1" id="Capa_1" xmlns="http://www.w3.org/2000/svg" xmlns:xlink="http://www.w3.org/1999/xlink" x="0px" y="0px"
	 viewBox="0 0 512 512" style="enable-background:new 0 0 512 512;" xml:space="preserve">
<g>
	<path style="fill:#3F5C6C;" d="M379.586,432.552h70.621v70.621c0,4.875-3.952,8.828-8.828,8.828h-52.966
		c-4.875,0-8.828-3.952-8.828-8.828V432.552z"/>
	<g>
		<path style="fill:#35495E;" d="M512,132.414v168.607c0,16.389-6.509,32.107-18.097,43.697l-32.309,32.309
			c-1.624,1.649-2.542,3.865-2.56,6.179v67.001c-0.014,4.869-3.958,8.813-8.828,8.828h-70.621c-4.869-0.014-8.813-3.958-8.828-8.828
			v-67.001c-0.018-2.314-0.936-4.53-2.56-6.179l-32.308-32.309c-11.588-11.59-18.097-27.308-18.097-43.697V132.414
			c0.014-4.869,3.958-8.813,8.828-8.828h70.621c0,4.855,7.945,8.828,17.655,8.828s17.655-3.972,17.655-8.828h70.621
			C508.042,123.6,511.986,127.544,512,132.414z"/>
		<path style="fill:#35495E;" d="M247.172,141.241h-17.655V79.448h-35.31v61.793H70.621V79.448H35.31v61.793H17.655
			C7.916,141.27,0.028,149.158,0,158.897v125.175c0.002,5.457,0.866,10.879,2.56,16.066c1.447,4.733,3.589,9.226,6.356,13.33
			l38.84,58.262c3.248,4.922,8.758,7.876,14.655,7.857h25.864v70.621h8.828v52.966c0,4.875,3.952,8.828,8.828,8.828h52.966
			c4.875,0,8.828-3.952,8.828-8.828v-52.966h8.828v-70.621h25.864c5.897,0.02,11.407-2.934,14.655-7.857l38.84-58.262
			c2.767-4.104,4.909-8.596,6.356-13.33c1.694-5.187,2.558-10.609,2.56-16.066V158.897
			C264.799,149.158,256.911,141.27,247.172,141.241z"/>
	</g>
	<path style="fill:#3F5C6C;" d="M97.103,450.207h70.621v52.966c0,4.875-3.952,8.828-8.828,8.828h-52.966
		c-4.875,0-8.828-3.952-8.828-8.828V450.207z"/>
	<g>
		<path style="fill:#2C3E50;" d="M432.552,123.586v97.103c0,9.751-7.905,17.655-17.655,17.655s-17.655-7.904-17.655-17.655v-97.103
			c0,4.855,7.945,8.828,17.655,8.828S432.552,128.441,432.552,123.586z"/>
		<path style="fill:#2C3E50;" d="M52.966,141.241v158.897H2.56c-1.694-5.187-2.558-10.609-2.56-16.066V158.897
			c0.028-9.739,7.916-17.627,17.655-17.655H52.966z"/>
	</g>
	<path style="fill:#3F5C6C;" d="M262.268,300.138c-1.447,4.733-3.589,9.226-6.356,13.33l-38.84,58.262
		c-3.248,4.922-8.758,7.876-14.655,7.857H62.412c-5.897,0.02-11.407-2.934-14.655-7.857L8.916,313.468
		c-2.767-4.104-4.909-8.596-6.356-13.33H262.268z"/>
	<path style="fill:#2C3E50;" d="M264.828,158.897v125.175c-0.002,5.457-0.866,10.879-2.56,16.066h-50.406V141.241h35.31
		C256.911,141.27,264.799,149.158,264.828,158.897z"/>
	<rect x="88.276" y="379.586" style="fill:#35495E;" width="88.276" height="70.621"/>
	<path style="fill:#A5A5A4;" d="M52.966,0c9.751,0,17.655,7.904,17.655,17.655v79.448H35.31V17.655C35.31,7.904,43.215,0,52.966,0z"
		/>
	<rect x="35.31" y="97.103" style="fill:#2C3E50;" width="35.31" height="44.138"/>
	<path style="fill:#A5A5A4;" d="M211.862,0c9.751,0,17.655,7.904,17.655,17.655v79.448h-35.31V17.655
		C194.207,7.904,202.111,0,211.862,0z"/>
	<g>
		<rect x="194.207" y="97.103" style="fill:#2C3E50;" width="35.31" height="44.138"/>
		<path style="fill:#2C3E50;" d="M123.586,414.897c-0.014,4.869-3.958,8.813-8.828,8.828H88.276v-17.655h26.483
			C119.628,406.083,123.572,410.027,123.586,414.897z"/>
		<path style="fill:#2C3E50;" d="M176.552,406.069v17.655h-26.483c-4.875,0-8.828-3.952-8.828-8.828s3.952-8.828,8.828-8.828
			H176.552z"/>
		<path style="fill:#2C3E50;" d="M406.069,423.724c-0.014,4.869-3.958,8.813-8.828,8.828h-26.483v-17.655h26.483
			C402.111,414.911,406.055,418.855,406.069,423.724z"/>
		<path style="fill:#2C3E50;" d="M459.034,414.897v17.655h-26.483c-4.875,0-8.828-3.952-8.828-8.828
			c0-4.875,3.952-8.828,8.828-8.828H459.034z"/>
	</g>
</g>
<g>
</g>
<g>
</g>
<g>
</g>
<g>
</g>
<g>
</g>
<g>
</g>
<g>
</g>
<g>
</g>
<g>
</g>
<g>
</g>
<g>
</g>
<g>
</g>
<g>
</g>
<g>
</g>
<g>
</g>
</svg>
