<?xml version="1.0" encoding="iso-8859-1"?>
<!-- Generator: Adobe Illustrator 19.0.0, SVG Export Plug-In . SVG Version: 6.00 Build 0)  -->
<svg version="1.1" id="Capa_1" xmlns="http://www.w3.org/2000/svg" xmlns:xlink="http://www.w3.org/1999/xlink" x="0px" y="0px"
	 viewBox="0 0 512.095 512.095" style="enable-background:new 0 0 512.095 512.095;" xml:space="preserve">
<g transform="translate(-1)">
	<path style="fill:#556080;" d="M442.474,229.565h52.966c9.751,0,17.655,7.904,17.655,17.655v158.897
		c0,9.751-7.904,17.655-17.655,17.655H107.026c-9.739-0.029-17.627-7.916-17.655-17.655V247.22
		c0.029-9.739,7.916-17.627,17.655-17.655H442.474z"/>
	<path style="fill:#8697CB;" d="M177.647,194.254h247.172c9.751,0,17.655,7.904,17.655,17.655v229.517
		c0,9.751-7.904,17.655-17.655,17.655H177.647c-9.751,0-17.655-7.904-17.655-17.655V211.91
		C159.992,202.159,167.896,194.254,177.647,194.254z"/>
	<path style="fill:#E64C3C;" d="M45.233,61.841v26.483H8.687l0.706-26.748c0.16-4.764,4.061-8.548,8.828-8.563h18.185
		C41.275,53.028,45.218,56.971,45.233,61.841z"/>
	<path style="fill:#BDC3C7;" d="M45.233,88.323v291.31c-0.015,4.869-3.958,8.813-8.828,8.828H9.834
		c-2.395,0.023-4.694-0.936-6.362-2.655c-1.668-1.718-2.559-4.045-2.465-6.438l7.68-291.046H45.233z"/>
	<g>
		<path style="fill:#E6E7E8;" d="M124.681,273.703c-2.348,0.023-4.607-0.899-6.268-2.56c-0.778-0.859-1.405-1.845-1.854-2.914
			c-0.497-1.047-0.739-2.196-0.706-3.354c0.014-1.153,0.254-2.293,0.707-3.353c0.426-1.081,1.055-2.07,1.854-2.914l1.319-1.06
			c0.493-0.336,1.03-0.603,1.595-0.793c0.5-0.255,1.034-0.435,1.586-0.535c2.909-0.59,5.92,0.305,8.035,2.388
			c0.799,0.844,1.428,1.833,1.854,2.914c1.409,3.284,0.675,7.096-1.854,9.621c-0.859,0.778-1.845,1.405-2.914,1.854
			C126.974,273.449,125.835,273.689,124.681,273.703z"/>
		<path style="fill:#E6E7E8;" d="M124.681,397.289c-2.953,0.031-5.722-1.433-7.361-3.89c-1.638-2.457-1.924-5.576-0.76-8.291
			c0.447-1.07,1.074-2.056,1.854-2.914c2.526-2.546,6.34-3.311,9.652-1.936c3.312,1.375,5.463,4.617,5.442,8.203
			c0.023,2.348-0.9,4.607-2.56,6.267C129.288,396.389,127.029,397.312,124.681,397.289z"/>
		<path style="fill:#E6E7E8;" d="M477.785,273.703c-2.953,0.031-5.722-1.433-7.361-3.89c-1.638-2.457-1.924-5.576-0.76-8.291
			c0.426-1.081,1.055-2.07,1.854-2.914l1.319-1.06c0.493-0.336,1.03-0.603,1.595-0.793c0.5-0.255,1.034-0.435,1.586-0.535
			c2.909-0.59,5.92,0.305,8.035,2.388c1.611,1.693,2.525,3.931,2.56,6.268c0.02,2.348-0.902,4.605-2.56,6.268
			c-0.859,0.778-1.845,1.405-2.914,1.854C480.077,273.449,478.938,273.689,477.785,273.703z"/>
		<path style="fill:#E6E7E8;" d="M477.785,397.289c-2.348,0.023-4.607-0.9-6.267-2.56c-1.66-1.66-2.583-3.919-2.56-6.267
			c0.031-2.338,0.945-4.577,2.56-6.268c2.114-2.084,5.126-2.979,8.035-2.388c0.552,0.101,1.086,0.281,1.586,0.535
			c0.543,0.174,1.051,0.442,1.5,0.793c0.507,0.304,0.98,0.66,1.415,1.06c0.78,0.858,1.407,1.844,1.854,2.914
			c1.163,2.715,0.876,5.833-0.762,8.29C483.506,395.854,480.738,397.318,477.785,397.289z"/>
	</g>
	<path style="fill:#B0D3F0;" d="M204.129,229.565h141.241c4.875,0,8.828,3.952,8.828,8.828v35.31c0,4.875-3.952,8.828-8.828,8.828
		H204.129c-4.875,0-8.828-3.952-8.828-8.828v-35.31C195.302,233.517,199.254,229.565,204.129,229.565z"/>
	<g>
		<path style="fill:#E6E7E8;" d="M283.578,326.668h-88.276c-4.875,0-8.828-3.952-8.828-8.828s3.952-8.828,8.828-8.828h88.276
			c4.875,0,8.828,3.952,8.828,8.828S288.453,326.668,283.578,326.668z"/>
		<path style="fill:#E6E7E8;" d="M327.716,326.668h-8.828c-4.875,0-8.828-3.952-8.828-8.828s3.952-8.828,8.828-8.828h8.828
			c4.875,0,8.828,3.952,8.828,8.828S332.591,326.668,327.716,326.668z"/>
	</g>
	<rect x="45.233" y="309.013" style="fill:#95A5A5;" width="79.448" height="35.31"/>
	<rect x="124.681" y="309.013" style="fill:#7F8C8D;" width="35.31" height="35.31"/>
</g>
<g>
</g>
<g>
</g>
<g>
</g>
<g>
</g>
<g>
</g>
<g>
</g>
<g>
</g>
<g>
</g>
<g>
</g>
<g>
</g>
<g>
</g>
<g>
</g>
<g>
</g>
<g>
</g>
<g>
</g>
</svg>
