<?xml version="1.0" encoding="iso-8859-1"?>
<!-- Generator: Adobe Illustrator 19.0.0, SVG Export Plug-In . SVG Version: 6.00 Build 0)  -->
<svg version="1.1" id="Capa_1" xmlns="http://www.w3.org/2000/svg" xmlns:xlink="http://www.w3.org/1999/xlink" x="0px" y="0px"
	 viewBox="0 0 512 512" style="enable-background:new 0 0 512 512;" xml:space="preserve">
<g>
	<g>
		<rect x="70.621" y="150.069" style="fill:#95A5A5;" width="70.621" height="35.31"/>
		<rect x="370.759" y="150.069" style="fill:#95A5A5;" width="70.621" height="35.31"/>
	</g>
	<path style="fill:#4482C3;" d="M158.897,105.931h194.207c19.501,0,35.31,15.809,35.31,35.31V476.69
		c0,19.501-15.809,35.31-35.31,35.31H158.897c-19.501,0-35.31-15.809-35.31-35.31V141.241
		C123.586,121.74,139.395,105.931,158.897,105.931z"/>
	<path style="fill:#C03A2B;" d="M185.379,176.552h-17.655c-4.875,0-8.828-3.952-8.828-8.828c0-4.875,3.952-8.828,8.828-8.828h17.655
		c4.875,0,8.828,3.952,8.828,8.828C194.207,172.6,190.255,176.552,185.379,176.552z"/>
	<path style="fill:#E57E25;" d="M238.345,176.552H220.69c-4.875,0-8.828-3.952-8.828-8.828c0-4.875,3.952-8.828,8.828-8.828h17.655
		c4.875,0,8.828,3.952,8.828,8.828C247.172,172.6,243.22,176.552,238.345,176.552z"/>
	<path style="fill:#F29C1F;" d="M291.31,176.552h-17.655c-4.875,0-8.828-3.952-8.828-8.828c0-4.875,3.952-8.828,8.828-8.828h17.655
		c4.875,0,8.828,3.952,8.828,8.828C300.138,172.6,296.186,176.552,291.31,176.552z"/>
	<path style="fill:#F0C419;" d="M344.276,176.552h-17.655c-4.875,0-8.828-3.952-8.828-8.828c0-4.875,3.952-8.828,8.828-8.828h17.655
		c4.875,0,8.828,3.952,8.828,8.828C353.103,172.6,349.151,176.552,344.276,176.552z"/>
	<path style="fill:#E6E7E8;" d="M167.724,423.724h176.552c4.875,0,8.828,3.952,8.828,8.828v17.655c0,4.875-3.952,8.828-8.828,8.828
		H167.724c-4.875,0-8.828-3.952-8.828-8.828v-17.655C158.897,427.676,162.849,423.724,167.724,423.724z"/>
	<g>
		<path style="fill:#BDC3C7;" d="M79.379,229.517H53.035c-2.409,0.01-4.719-0.962-6.396-2.691c-1.677-1.73-2.578-4.068-2.494-6.476
			L52.358,8.488C52.56,3.73,56.486-0.018,61.248,0h18.13c4.895-0.019,8.878,3.933,8.897,8.828V220.69
			C88.256,225.584,84.273,229.536,79.379,229.517z"/>
		<path style="fill:#BDC3C7;" d="M432.621,229.517h26.343c2.409,0.01,4.719-0.962,6.396-2.691c1.677-1.73,2.578-4.068,2.495-6.476
			L459.643,8.488C459.44,3.73,455.514-0.018,450.752,0h-18.13c-4.895-0.019-8.878,3.933-8.897,8.828V220.69
			C423.744,225.584,427.727,229.536,432.621,229.517z"/>
	</g>
</g>
<g>
</g>
<g>
</g>
<g>
</g>
<g>
</g>
<g>
</g>
<g>
</g>
<g>
</g>
<g>
</g>
<g>
</g>
<g>
</g>
<g>
</g>
<g>
</g>
<g>
</g>
<g>
</g>
<g>
</g>
</svg>
