<?xml version="1.0" encoding="iso-8859-1"?>
<!-- Generator: Adobe Illustrator 19.0.0, SVG Export Plug-In . SVG Version: 6.00 Build 0)  -->
<svg version="1.1" id="Capa_1" xmlns="http://www.w3.org/2000/svg" xmlns:xlink="http://www.w3.org/1999/xlink" x="0px" y="0px"
	 viewBox="0 0 512 512" style="enable-background:new 0 0 512 512;" xml:space="preserve">
<g>
	<path style="fill:#CC4B4C;" d="M511.647,275.244l-0.088-0.883l-0.088-0.618l-0.883-5.473l-0.088-0.265l-0.088-0.353L477.326,59.533
		C471.875,25.241,442.304,0,407.581,0H104.419C69.696,0,40.125,25.241,34.674,59.533L1.589,267.652l-0.088,0.353l-0.088,0.265
		l-0.883,5.473l-0.088,0.618l-0.088,0.883H511.647z"/>
	<path style="fill:#802F34;" d="M70.621,211.862h370.759c39.003,0,70.621,31.618,70.621,70.621v158.897
		C512,480.382,480.382,512,441.379,512H70.621C31.618,512,0,480.382,0,441.379V282.483C0,243.48,31.618,211.862,70.621,211.862z"/>
	<circle style="fill:#C03A2B;" cx="361.931" cy="361.931" r="114.759"/>
	<circle style="fill:#90BAE1;" cx="361.931" cy="361.931" r="79.448"/>
	<g>
		<path style="fill:#B0D3F0;" d="M326.634,344.276c-3.344-0.006-6.398-1.899-7.89-4.892c-1.492-2.993-1.166-6.572,0.843-9.246
			c10.031-13.286,25.697-21.119,42.345-21.172c4.875,0,8.828,3.952,8.828,8.828s-3.952,8.828-8.828,8.828
			c-11.121-0.032-21.597,5.214-28.233,14.138C332.027,342.977,329.411,344.28,326.634,344.276z"/>
		<path style="fill:#B0D3F0;" d="M321.483,388.414c-3.507,0-6.681-2.074-8.091-5.284c-1.492-3.409-2.619-6.966-3.362-10.612
			c-0.628-3.091,0.44-6.282,2.802-8.371s5.66-2.76,8.651-1.759c2.991,1.001,5.22,3.522,5.849,6.613
			c0.493,2.42,1.241,4.781,2.233,7.043c1.196,2.729,0.935,5.877-0.695,8.372C327.241,386.909,324.463,388.413,321.483,388.414z"/>
	</g>
	<path style="fill:#95A5A5;" d="M211.862,397.241v17.655c-0.029,9.739-7.916,17.627-17.655,17.655H52.966
		c-9.739-0.029-17.627-7.916-17.655-17.655v-17.655H211.862z"/>
	<rect x="35.31" y="361.931" style="fill:#BDC3C7;" width="176.552" height="35.31"/>
	<rect x="35.31" y="326.621" style="fill:#95A5A5;" width="176.552" height="35.31"/>
	<path style="fill:#BDC3C7;" d="M211.862,308.966v17.655H35.31v-17.655c0.028-9.739,7.916-17.627,17.655-17.655h141.241
		C203.946,291.339,211.834,299.227,211.862,308.966z"/>
	<polygon style="fill:#95A5A5;" points="326.621,211.862 185.379,211.862 194.798,150.069 317.202,150.069 	"/>
	<path style="fill:#BDC3C7;" d="M423.636,139.829c0.403,2.557-0.332,5.163-2.013,7.132c-1.68,1.969-4.138,3.105-6.727,3.108H97.103
		c-2.589-0.004-5.046-1.139-6.727-3.108c-1.68-1.969-2.416-4.575-2.013-7.132l3.972-25.07l5.65-35.31l4.414-27.895
		c0.656-4.27,4.331-7.42,8.651-7.415h289.898c4.32-0.005,7.995,3.146,8.651,7.415L423.636,139.829z"/>
	<g>
		<ellipse style="fill:#24AE5F;" cx="286.897" cy="97.103" rx="22.069" ry="17.655"/>
		<path style="fill:#24AE5F;" d="M229.517,105.931c-1.155-0.014-2.296-0.254-3.358-0.707c-2.215-0.807-3.96-2.552-4.767-4.767
			c-0.492-1.048-0.732-2.196-0.703-3.354c0.014-0.593,0.073-1.184,0.177-1.767c0.095-0.552,0.272-1.087,0.526-1.586
			c0.194-0.565,0.462-1.101,0.797-1.595c0.326-0.461,0.68-0.902,1.06-1.319c2.556-2.47,6.33-3.197,9.621-1.854
			c1.07,0.448,2.055,1.075,2.914,1.854c0.379,0.417,0.732,0.858,1.056,1.319c0.335,0.494,0.604,1.03,0.797,1.595
			c0.253,0.5,0.432,1.034,0.53,1.586c0.102,0.584,0.161,1.175,0.177,1.768c0.03,1.158-0.212,2.306-0.707,3.353
			c-0.45,1.068-1.077,2.053-1.854,2.914C234.123,105.03,231.865,105.952,229.517,105.931z"/>
		<path style="fill:#24AE5F;" d="M344.276,105.931c-2.348,0.022-4.606-0.901-6.268-2.56c-0.78-0.859-1.408-1.844-1.858-2.914
			c-0.451-1.061-0.69-2.201-0.702-3.354c0.014-0.593,0.073-1.184,0.177-1.767c0.095-0.552,0.272-1.087,0.526-1.586
			c0.194-0.565,0.462-1.101,0.797-1.595l1.06-1.319c3.539-3.267,8.995-3.267,12.534,0c0.353,0.44,0.707,0.879,1.056,1.319
			c0.335,0.494,0.604,1.03,0.797,1.595c0.253,0.5,0.432,1.034,0.53,1.586c0.102,0.584,0.161,1.175,0.177,1.768
			c-0.014,1.153-0.254,2.293-0.707,3.353c-0.45,1.068-1.077,2.053-1.854,2.914C348.882,105.03,346.624,105.952,344.276,105.931z"/>
	</g>
	<path style="fill:#95A5A5;" d="M176.463,89.688l-3.178,17.655c-1.09,4.486-5.186,7.585-9.799,7.415h-71.15l5.65-35.31h68.679
		c2.726-0.17,5.389,0.87,7.278,2.844S176.754,86.972,176.463,89.688z"/>
</g>
<g>
</g>
<g>
</g>
<g>
</g>
<g>
</g>
<g>
</g>
<g>
</g>
<g>
</g>
<g>
</g>
<g>
</g>
<g>
</g>
<g>
</g>
<g>
</g>
<g>
</g>
<g>
</g>
<g>
</g>
</svg>
