<?xml version="1.0" encoding="iso-8859-1"?>
<!-- Generator: Adobe Illustrator 19.0.0, SVG Export Plug-In . SVG Version: 6.00 Build 0)  -->
<svg version="1.1" id="Capa_1" xmlns="http://www.w3.org/2000/svg" xmlns:xlink="http://www.w3.org/1999/xlink" x="0px" y="0px"
	 viewBox="0 0 512 512" style="enable-background:new 0 0 512 512;" xml:space="preserve">
<g>
	<g>
		<path style="fill:#7F8C8D;" d="M17.655,450.207h44.138v52.966c0,4.875-3.952,8.828-8.828,8.828H26.483
			c-4.875,0-8.828-3.952-8.828-8.828V450.207z"/>
		<path style="fill:#7F8C8D;" d="M450.207,450.207h44.138v52.966c0,4.875-3.952,8.828-8.828,8.828h-26.483
			c-4.875,0-8.828-3.952-8.828-8.828V450.207z"/>
	</g>
	<path style="fill:#F29C1F;" d="M511.47,338.891L428.862,19.844C425.837,8.16,415.294,0,403.225,0h-294.45
		C96.706,0,86.163,8.16,83.138,19.844L0.53,338.891H511.47z"/>
	<path style="fill:#E57E25;" d="M26.483,317.793h459.034c14.626,0,26.483,11.857,26.483,26.483v105.931
		c0,14.626-11.857,26.483-26.483,26.483H26.483C11.857,476.69,0,464.833,0,450.207V344.276C0,329.65,11.857,317.793,26.483,317.793z
		"/>
	<g>
		<polygon style="fill:#F0C419;" points="52.966,406.069 52.966,370.759 105.931,370.759 105.931,406.069 97.103,406.069 
			97.103,423.724 61.793,423.724 61.793,406.069 		"/>
		<polygon style="fill:#F0C419;" points="194.207,388.414 194.207,423.724 141.241,423.724 141.241,388.414 150.069,388.414 
			150.069,370.759 185.379,370.759 185.379,388.414 		"/>
		<polygon style="fill:#F0C419;" points="282.483,388.414 282.483,423.724 229.517,423.724 229.517,388.414 238.345,388.414 
			238.345,370.759 273.655,370.759 273.655,388.414 		"/>
		<polygon style="fill:#F0C419;" points="317.793,406.069 317.793,370.759 370.759,370.759 370.759,406.069 361.931,406.069 
			361.931,423.724 326.621,423.724 326.621,406.069 		"/>
		<polygon style="fill:#F0C419;" points="406.069,406.069 406.069,370.759 459.034,370.759 459.034,406.069 450.207,406.069 
			450.207,423.724 414.897,423.724 414.897,406.069 		"/>
	</g>
	<g>
		<path style="fill:#BDC3C7;" d="M185.379,61.793L131.531,256h-16.684c-5.507,0.008-10.699-2.566-14.028-6.952
			c-3.329-4.387-4.41-10.08-2.921-15.382l44.05-158.897c2.111-7.667,9.085-12.979,17.037-12.977H185.379z"/>
		<polygon style="fill:#BDC3C7;" points="256,61.793 256,256 183.614,256 222.455,61.793 		"/>
	</g>
	<polygon style="fill:#95A5A5;" points="328.386,256 256,256 256,61.793 289.545,61.793 	"/>
	<polygon style="fill:#BDC3C7;" points="380.469,256 328.386,256 289.545,61.793 326.621,61.793 	"/>
	<g>
		<path style="fill:#95A5A5;" d="M397.153,256h-16.684L326.621,61.793h26.395c7.952-0.002,14.926,5.31,17.037,12.977l44.05,158.897
			c1.489,5.302,0.408,10.995-2.921,15.382C407.852,253.434,402.66,256.008,397.153,256z"/>
		<polygon style="fill:#95A5A5;" points="222.455,61.793 183.614,256 131.531,256 185.379,61.793 		"/>
	</g>
	<polygon style="fill:#D1D4D1;" points="464.861,158.897 393.357,158.897 378.703,105.931 451.178,105.931 	"/>
</g>
<g>
</g>
<g>
</g>
<g>
</g>
<g>
</g>
<g>
</g>
<g>
</g>
<g>
</g>
<g>
</g>
<g>
</g>
<g>
</g>
<g>
</g>
<g>
</g>
<g>
</g>
<g>
</g>
<g>
</g>
</svg>
