<?xml version="1.0" encoding="iso-8859-1"?>
<!-- Generator: Adobe Illustrator 19.0.0, SVG Export Plug-In . SVG Version: 6.00 Build 0)  -->
<svg version="1.1" id="Capa_1" xmlns="http://www.w3.org/2000/svg" xmlns:xlink="http://www.w3.org/1999/xlink" x="0px" y="0px"
	 viewBox="0 0 512 512" style="enable-background:new 0 0 512 512;" xml:space="preserve">
<g>
	<path style="fill:#8697CB;" d="M507.586,256c0.004,39.802-15.806,77.975-43.95,106.119c-28.144,28.144-66.317,43.954-106.119,43.95
		c-5.901,0.001-11.797-0.352-17.655-1.059V256c0,9.751,7.905,17.655,17.655,17.655s17.655-7.905,17.655-17.655
		c0-9.751-7.905-17.655-17.655-17.655c-9.739,0.029-17.627,7.916-17.655,17.655V106.99c5.858-0.707,11.754-1.061,17.655-1.059
		c39.802-0.004,77.975,15.806,106.119,43.95S507.59,216.198,507.586,256z"/>
	<g>
		<path style="fill:#B0D3F0;" d="M459.315,211.862c-3.29,0.003-6.309-1.825-7.832-4.741c-1.461-2.793-3.037-5.509-4.728-8.147
			c-1.722-2.654-1.892-6.026-0.445-8.839c1.446-2.813,4.288-4.637,7.448-4.781c3.16-0.144,6.155,1.415,7.851,4.086
			c1.974,3.069,3.819,6.25,5.522,9.509c1.084,2.074,1.3,4.493,0.6,6.726c-0.7,2.233-2.259,4.096-4.333,5.179
			C462.139,211.518,460.737,211.864,459.315,211.862z"/>
		<path style="fill:#B0D3F0;" d="M428.134,174.431c-1.972,0.003-3.887-0.659-5.435-1.879c-16.395-12.873-36.242-20.59-57.026-22.172
			c-3.161-0.219-5.962-2.116-7.339-4.969c-1.377-2.854-1.12-6.226,0.675-8.838s4.852-4.06,8.009-3.797
			c24.259,1.847,47.425,10.854,66.56,25.879c2.966,2.321,4.133,6.269,2.904,9.829C435.252,172.045,431.899,174.433,428.134,174.431
			L428.134,174.431z"/>
		<path style="fill:#B0D3F0;" d="M410.483,256c-0.023,29.242-23.723,52.942-52.966,52.966c-6.021,0.016-11.997-1.03-17.655-3.09V256
			c0,9.751,7.905,17.655,17.655,17.655s17.655-7.904,17.655-17.655c0-9.751-7.905-17.655-17.655-17.655
			c-9.739,0.029-17.627,7.916-17.655,17.655v-49.876c5.658-2.059,11.634-3.105,17.655-3.09
			C386.76,203.058,410.46,226.758,410.483,256z"/>
	</g>
	<path style="fill:#95A5A5;" d="M348.69,0v467.862c-0.009,24.373-19.765,44.129-44.138,44.138H4.414V0H348.69z"/>
	<g>
		<path style="fill:#7F8C8D;" d="M286.897,0v176.552c0.003,9.366-3.717,18.348-10.339,24.971
			c-6.623,6.623-15.605,10.342-24.971,10.339H4.414V0H286.897z"/>
		<path style="fill:#7F8C8D;" d="M48.552,264.828v194.207c-0.029,9.739-7.916,17.627-17.655,17.655H4.414V247.172h26.483
			C40.635,247.201,48.523,255.089,48.552,264.828z"/>
	</g>
	<g>
		<path style="fill:#5E5F62;" d="M48.552,141.241h17.655c4.875,0,8.828,3.952,8.828,8.828v17.655c0,4.875-3.952,8.828-8.828,8.828
			H48.552c-4.875,0-8.828-3.952-8.828-8.828v-17.655C39.724,145.194,43.676,141.241,48.552,141.241z"/>
		<path style="fill:#5E5F62;" d="M48.552,70.621h17.655c4.875,0,8.828,3.952,8.828,8.828v17.655c0,4.875-3.952,8.828-8.828,8.828
			H48.552c-4.875,0-8.828-3.952-8.828-8.828V79.448C39.724,74.573,43.676,70.621,48.552,70.621z"/>
		<path style="fill:#5E5F62;" d="M39.724,0v26.483c-0.015,4.869-3.958,8.813-8.828,8.828H13.241
			c-4.869-0.015-8.813-3.958-8.828-8.828V0H39.724z"/>
		<path style="fill:#5E5F62;" d="M75.034,0h35.31v26.483c0,4.875-3.952,8.828-8.828,8.828H83.862c-4.875,0-8.828-3.952-8.828-8.828
			V0z"/>
		<path style="fill:#5E5F62;" d="M145.655,0h35.31v26.483c0,4.875-3.952,8.828-8.828,8.828h-17.655
			c-4.875,0-8.828-3.952-8.828-8.828V0z"/>
		<path style="fill:#5E5F62;" d="M216.276,0h35.31v26.483c0,4.875-3.952,8.828-8.828,8.828h-17.655
			c-4.875,0-8.828-3.952-8.828-8.828V0z"/>
		<path style="fill:#5E5F62;" d="M119.172,70.621h17.655c4.875,0,8.828,3.952,8.828,8.828v17.655c0,4.875-3.952,8.828-8.828,8.828
			h-17.655c-4.875,0-8.828-3.952-8.828-8.828V79.448C110.345,74.573,114.297,70.621,119.172,70.621z"/>
		<path style="fill:#5E5F62;" d="M189.793,70.621h52.966c4.875,0,8.828,3.952,8.828,8.828v17.655c0,4.875-3.952,8.828-8.828,8.828
			h-52.966c-4.875,0-8.828-3.952-8.828-8.828V79.448C180.966,74.573,184.918,70.621,189.793,70.621z"/>
		<path style="fill:#5E5F62;" d="M119.172,141.241h123.586c4.875,0,8.828,3.952,8.828,8.828v17.655c0,4.875-3.952,8.828-8.828,8.828
			H119.172c-4.875,0-8.828-3.952-8.828-8.828v-17.655C110.345,145.194,114.297,141.241,119.172,141.241z"/>
	</g>
</g>
<g>
</g>
<g>
</g>
<g>
</g>
<g>
</g>
<g>
</g>
<g>
</g>
<g>
</g>
<g>
</g>
<g>
</g>
<g>
</g>
<g>
</g>
<g>
</g>
<g>
</g>
<g>
</g>
<g>
</g>
</svg>
