<?xml version="1.0" encoding="iso-8859-1"?>
<!-- Generator: Adobe Illustrator 19.0.0, SVG Export Plug-In . SVG Version: 6.00 Build 0)  -->
<svg version="1.1" id="Capa_1" xmlns="http://www.w3.org/2000/svg" xmlns:xlink="http://www.w3.org/1999/xlink" x="0px" y="0px"
	 viewBox="0 0 512.003 512.003" style="enable-background:new 0 0 512.003 512.003;" xml:space="preserve">
<g>
	<path style="fill:#556080;" d="M123.588,459.038h264.828v44.138c0,4.875-3.952,8.828-8.828,8.828H132.415
		c-4.875,0-8.828-3.952-8.828-8.828V459.038z"/>
	<rect x="344.277" y="26.486" style="fill:#7F8C8D;" width="35.31" height="97.103"/>
	<path style="fill:#8697CB;" d="M114.76,105.934h282.483c9.751,0,17.655,7.904,17.655,17.655v335.448
		c0,9.751-7.904,17.655-17.655,17.655H114.76c-9.751,0-17.655-7.905-17.655-17.655V123.589
		C97.105,113.839,105.009,105.934,114.76,105.934z"/>
	<path style="fill:#BDC3C7;" d="M414.633,0.003l-291.046,7.68L96.84,8.389c-4.765,0.159-8.549,4.06-8.563,8.828v18.097
		c0.014,4.869,3.958,8.813,8.828,8.828h317.793c4.869-0.014,8.813-3.958,8.828-8.828V8.831c-0.007-2.385-0.976-4.667-2.687-6.328
		C419.327,0.841,417.018-0.06,414.633,0.003z"/>
	<path style="fill:#95A5A5;" d="M123.588,7.683v36.458H97.105c-4.869-0.014-8.813-3.958-8.828-8.828V17.217
		c0.014-4.767,3.798-8.669,8.563-8.828L123.588,7.683z"/>
	<g>
		<path style="fill:#556080;" d="M167.726,105.934h176.552V414.9c0,14.626-11.857,26.483-26.483,26.483H194.208
			c-14.626,0-26.483-11.857-26.483-26.483V105.934z"/>
		<path style="fill:#556080;" d="M132.415,150.072c-0.014,4.869-3.958,8.813-8.828,8.828H97.105v-17.655h26.483
			C128.457,141.259,132.401,145.203,132.415,150.072z"/>
		<path style="fill:#556080;" d="M132.415,185.382c-0.014,4.869-3.958,8.813-8.828,8.828H97.105v-17.655h26.483
			C128.457,176.569,132.401,180.513,132.415,185.382z"/>
		<path style="fill:#556080;" d="M132.415,220.693c-0.014,4.869-3.958,8.813-8.828,8.828H97.105v-17.655h26.483
			C128.457,211.879,132.401,215.823,132.415,220.693z"/>
	</g>
	<g>
		<path style="fill:#BDC3C7;" d="M264.829,388.417h-61.793c-4.875,0-8.828-3.952-8.828-8.828s3.952-8.828,8.828-8.828h61.793
			c4.875,0,8.828,3.952,8.828,8.828S269.704,388.417,264.829,388.417z"/>
		<path style="fill:#BDC3C7;" d="M308.967,388.417h-8.828c-4.875,0-8.828-3.952-8.828-8.828s3.952-8.828,8.828-8.828h8.828
			c4.875,0,8.828,3.952,8.828,8.828S313.842,388.417,308.967,388.417z"/>
	</g>
</g>
<g>
</g>
<g>
</g>
<g>
</g>
<g>
</g>
<g>
</g>
<g>
</g>
<g>
</g>
<g>
</g>
<g>
</g>
<g>
</g>
<g>
</g>
<g>
</g>
<g>
</g>
<g>
</g>
<g>
</g>
</svg>
