<?xml version="1.0" encoding="iso-8859-1"?>
<!-- Generator: Adobe Illustrator 19.0.0, SVG Export Plug-In . SVG Version: 6.00 Build 0)  -->
<svg version="1.1" id="Capa_1" xmlns="http://www.w3.org/2000/svg" xmlns:xlink="http://www.w3.org/1999/xlink" x="0px" y="0px"
	 viewBox="0 0 512 512" style="enable-background:new 0 0 512 512;" xml:space="preserve">
<g>
	<path style="fill:#BDC3C7;" d="M482.604,35.31L470.157,5.473c-1.368-3.325-4.614-5.489-8.21-5.473H50.052
		c-3.595-0.016-6.842,2.148-8.21,5.473L29.396,35.31L0,105.931v361.931c0,4.875,3.952,8.828,8.828,8.828h17.655v17.655
		c0,9.751,7.904,17.655,17.655,17.655h423.724c9.751,0,17.655-7.904,17.655-17.655V476.69h17.655c4.875,0,8.828-3.952,8.828-8.828
		V105.931L482.604,35.31z"/>
	<rect x="167.724" y="105.931" style="fill:#95A5A5;" width="176.552" height="370.759"/>
	<circle style="fill:#67B9CC;" cx="83.862" cy="189.793" r="39.724"/>
	<g>
		<path style="fill:#BDC3C7;" d="M185.379,0l-5.914,35.31H29.396L41.843,5.473c1.368-3.325,4.614-5.489,8.21-5.473L185.379,0z"/>
		<path style="fill:#BDC3C7;" d="M482.604,35.31H332.535L326.621,0l135.327,0c3.595-0.016,6.842,2.148,8.21,5.473L482.604,35.31z"/>
	</g>
	<polygon style="fill:#95A5A5;" points="512,105.931 344.276,105.931 332.535,35.31 482.604,35.31 	"/>
	<path style="fill:#7F8C8D;" d="M26.483,476.69h459.034v17.655c0,9.751-7.904,17.655-17.655,17.655H44.138
		c-9.751,0-17.655-7.904-17.655-17.655V476.69z"/>
	<polygon style="fill:#95A5A5;" points="332.535,35.31 179.465,35.31 185.379,0 326.621,0 	"/>
	<polygon style="fill:#7F8C8D;" points="344.276,105.931 167.724,105.931 179.465,35.31 332.535,35.31 	"/>
	<polygon style="fill:#95A5A5;" points="179.465,35.31 167.724,105.931 0,105.931 29.396,35.31 	"/>
	<g>
		<path style="fill:#41767F;" d="M97.103,273.655H70.621c-4.875,0-8.828-3.952-8.828-8.828S65.745,256,70.621,256h26.483
			c4.875,0,8.828,3.952,8.828,8.828S101.979,273.655,97.103,273.655z"/>
		<path style="fill:#41767F;" d="M97.103,308.966H70.621c-4.875,0-8.828-3.952-8.828-8.828s3.952-8.828,8.828-8.828h26.483
			c4.875,0,8.828,3.952,8.828,8.828S101.979,308.966,97.103,308.966z"/>
		<path style="fill:#41767F;" d="M97.103,344.276H70.621c-4.875,0-8.828-3.952-8.828-8.828s3.952-8.828,8.828-8.828h26.483
			c4.875,0,8.828,3.952,8.828,8.828S101.979,344.276,97.103,344.276z"/>
	</g>
	<g>
		<path style="fill:#FFFFFF;" d="M88.276,79.448H70.621c-4.875,0-8.828-3.952-8.828-8.828c0-4.875,3.952-8.828,8.828-8.828h17.655
			c4.875,0,8.828,3.952,8.828,8.828C97.103,75.496,93.151,79.448,88.276,79.448z"/>
		<path style="fill:#FFFFFF;" d="M264.828,79.448h-17.655c-4.875,0-8.828-3.952-8.828-8.828c0-4.875,3.952-8.828,8.828-8.828h17.655
			c4.875,0,8.828,3.952,8.828,8.828C273.655,75.496,269.703,79.448,264.828,79.448z"/>
		<path style="fill:#FFFFFF;" d="M441.379,79.448h-17.655c-4.875,0-8.828-3.952-8.828-8.828c0-4.875,3.952-8.828,8.828-8.828h17.655
			c4.875,0,8.828,3.952,8.828,8.828C450.207,75.496,446.255,79.448,441.379,79.448z"/>
	</g>
</g>
<g>
</g>
<g>
</g>
<g>
</g>
<g>
</g>
<g>
</g>
<g>
</g>
<g>
</g>
<g>
</g>
<g>
</g>
<g>
</g>
<g>
</g>
<g>
</g>
<g>
</g>
<g>
</g>
<g>
</g>
</svg>
