<?xml version="1.0" encoding="iso-8859-1"?>
<!-- Generator: Adobe Illustrator 19.0.0, SVG Export Plug-In . SVG Version: 6.00 Build 0)  -->
<svg version="1.1" id="Capa_1" xmlns="http://www.w3.org/2000/svg" xmlns:xlink="http://www.w3.org/1999/xlink" x="0px" y="0px"
	 viewBox="0 0 512 512" style="enable-background:new 0 0 512 512;" xml:space="preserve">
<g>
	<path style="fill:#547580;" d="M35.31,105.931H476.69c19.501,0,35.31,15.809,35.31,35.31v229.517
		c0,19.501-15.809,35.31-35.31,35.31H35.31C15.809,406.069,0,390.26,0,370.759V141.241C0,121.74,15.809,105.931,35.31,105.931z"/>
	<path style="fill:#95A5A5;" d="M476.69,150.069v211.862c0,4.875-3.952,8.828-8.828,8.828H44.138c-4.875,0-8.828-3.952-8.828-8.828
		V150.069c0-4.875,3.952-8.828,8.828-8.828h423.724C472.737,141.241,476.69,145.194,476.69,150.069z"/>
	<path style="fill:#E6E7E8;" d="M441.379,185.379v35.31c0,4.875-3.952,8.828-8.828,8.828h-26.483c-4.875,0-8.828,3.952-8.828,8.828
		V256c0,4.875-3.952,8.828-8.828,8.828h-17.655c-4.875,0-8.828-3.952-8.828-8.828v-17.655c0-4.875-3.952-8.828-8.828-8.828h-26.483
		c-4.875,0-8.828,3.952-8.828,8.828V256c0,4.875-3.952,8.828-8.828,8.828H291.31c-4.875,0-8.828-3.952-8.828-8.828v-17.655
		c0-4.875-3.952-8.828-8.828-8.828h-35.31c-4.875,0-8.828,3.952-8.828,8.828V256c0,4.875-3.952,8.828-8.828,8.828h-17.655
		c-4.875,0-8.828-3.952-8.828-8.828v-17.655c0-4.875-3.952-8.828-8.828-8.828h-26.483c-4.875,0-8.828,3.952-8.828,8.828V256
		c0,4.875-3.952,8.828-8.828,8.828h-17.655c-4.875,0-8.828-3.952-8.828-8.828v-17.655c0-4.875-3.952-8.828-8.828-8.828H79.448
		c-4.875,0-8.828-3.952-8.828-8.828v-35.31c0-4.875,3.952-8.828,8.828-8.828h353.103
		C437.427,176.552,441.379,180.504,441.379,185.379z"/>
	<g>
		<path style="fill:#7F8C8D;" d="M141.241,300.138h88.276c4.875,0,8.828,3.952,8.828,8.828v17.655c0,4.875-3.952,8.828-8.828,8.828
			h-88.276c-4.875,0-8.828-3.952-8.828-8.828v-17.655C132.414,304.09,136.366,300.138,141.241,300.138z"/>
		<path style="fill:#7F8C8D;" d="M282.483,300.138h88.276c4.875,0,8.828,3.952,8.828,8.828v17.655c0,4.875-3.952,8.828-8.828,8.828
			h-88.276c-4.875,0-8.828-3.952-8.828-8.828v-17.655C273.655,304.09,277.607,300.138,282.483,300.138z"/>
	</g>
</g>
<g>
</g>
<g>
</g>
<g>
</g>
<g>
</g>
<g>
</g>
<g>
</g>
<g>
</g>
<g>
</g>
<g>
</g>
<g>
</g>
<g>
</g>
<g>
</g>
<g>
</g>
<g>
</g>
<g>
</g>
</svg>
