<?xml version="1.0" encoding="iso-8859-1"?>
<!-- Generator: Adobe Illustrator 19.0.0, SVG Export Plug-In . SVG Version: 6.00 Build 0)  -->
<svg version="1.1" id="Capa_1" xmlns="http://www.w3.org/2000/svg" xmlns:xlink="http://www.w3.org/1999/xlink" x="0px" y="0px"
	 viewBox="0 0 512 512" style="enable-background:new 0 0 512 512;" xml:space="preserve">
<g>
	<rect x="194.207" y="264.828" style="fill:#547580;" width="123.586" height="158.897"/>
	<path style="fill:#3F5C6C;" d="M467.862,44.138h-88.276L349.572,6.621c-3.354-4.175-8.416-6.609-13.771-6.621H176.199
		c-5.355,0.012-10.417,2.446-13.771,6.621l-30.014,37.517H44.138c-19.509,0-35.31,43.432-35.31,97.103s15.801,97.103,35.31,97.103
		h88.276l30.014,37.517c3.354,4.175,8.416,6.609,13.771,6.621h159.603c5.355-0.012,10.417-2.446,13.771-6.621l30.014-37.517h88.276
		c19.509,0,35.31-43.432,35.31-97.103S487.371,44.138,467.862,44.138z"/>
	<g>
		<path style="fill:#35495E;" d="M70.621,238.345H35.31C15.801,238.345,0,194.913,0,141.241s15.801-97.103,35.31-97.103h35.31
			c-19.509,0-35.31,43.432-35.31,97.103S51.112,238.345,70.621,238.345z"/>
		<path style="fill:#35495E;" d="M512,141.241c0,53.672-15.801,97.103-35.31,97.103h-35.31c19.509,0,35.31-43.432,35.31-97.103
			s-15.801-97.103-35.31-97.103h35.31C496.199,44.138,512,87.57,512,141.241z"/>
	</g>
	<circle style="fill:#ECF0F1;" cx="256" cy="141.241" r="97.103"/>
	<circle style="fill:#8697CB;" cx="256" cy="141.241" r="61.793"/>
	<g>
		<path style="fill:#B0D3F0;" d="M231.026,141.241c-2.866-0.002-5.553-1.394-7.207-3.735s-2.068-5.339-1.112-8.041
			c5.011-14.091,18.338-23.511,33.293-23.534c4.875,0,8.828,3.952,8.828,8.828s-3.952,8.828-8.828,8.828
			c-7.482,0.013-14.148,4.727-16.655,11.776C238.095,138.885,234.763,141.239,231.026,141.241z"/>
		<path style="fill:#B0D3F0;" d="M257.509,176.552c-4.875,0-8.828-3.952-8.828-8.828s3.952-8.828,8.828-8.828
			c7.482-0.013,14.148-4.727,16.655-11.776c1.628-4.594,6.673-6.999,11.267-5.371c4.594,1.628,6.999,6.673,5.371,11.267
			C285.791,167.108,272.464,176.529,257.509,176.552z"/>
	</g>
	<path style="fill:#3F5C6C;" d="M335.448,432.552c0,14.654-7.945,26.483-17.655,26.483H194.207c-9.71,0-17.655-11.829-17.655-26.483
		c0-14.654,7.945-26.483,17.655-26.483h123.586C327.503,406.069,335.448,417.898,335.448,432.552z"/>
	<g>
		<rect x="203.034" y="406.069" style="fill:#35495E;" width="17.655" height="52.966"/>
		<rect x="291.31" y="406.069" style="fill:#35495E;" width="17.655" height="52.966"/>
		<path style="fill:#35495E;" d="M141.241,459.034h229.517c14.626,0,26.483,11.857,26.483,26.483V512H114.759v-26.483
			C114.759,470.891,126.615,459.034,141.241,459.034z"/>
	</g>
</g>
<g>
</g>
<g>
</g>
<g>
</g>
<g>
</g>
<g>
</g>
<g>
</g>
<g>
</g>
<g>
</g>
<g>
</g>
<g>
</g>
<g>
</g>
<g>
</g>
<g>
</g>
<g>
</g>
<g>
</g>
</svg>
