<?xml version="1.0" encoding="iso-8859-1"?>
<!-- Generator: Adobe Illustrator 19.0.0, SVG Export Plug-In . SVG Version: 6.00 Build 0)  -->
<svg version="1.1" id="Capa_1" xmlns="http://www.w3.org/2000/svg" xmlns:xlink="http://www.w3.org/1999/xlink" x="0px" y="0px"
	 viewBox="0 0 512 512" style="enable-background:new 0 0 512 512;" xml:space="preserve">
<g>
	<g>
		<path style="fill:#41767F;" d="M476.69,152.452v-37.694C476.69,51.377,377.909,0,256,0S35.31,51.377,35.31,114.759v37.694
			C12.888,172.226,0,195.354,0,219.983V378.88c0,24.629,12.888,47.757,35.31,67.531c13.37,11.51,28.213,21.188,44.138,28.778
			c14.216,7.034,28.977,12.908,44.138,17.567c14.476,4.568,29.216,8.253,44.138,11.034c14.588,2.867,29.323,4.93,44.138,6.179
			C226.163,511.294,240.993,512,256,512s29.837-0.706,44.138-2.03c14.815-1.249,29.55-3.312,44.138-6.179
			c14.922-2.781,29.662-6.466,44.138-11.034c15.161-4.659,29.922-10.533,44.138-17.567c15.925-7.59,30.768-17.268,44.138-28.778
			C499.112,426.637,512,403.509,512,378.88V219.983C512,195.354,499.112,172.226,476.69,152.452z"/>
		<path style="fill:#41767F;" d="M476.69,114.759c-0.01,7.549-1.416,15.032-4.149,22.069
			c-19.686,52.789-109.197,92.69-216.541,92.69s-196.855-39.901-216.541-92.69c-2.733-7.037-4.139-14.52-4.149-22.069
			C35.31,51.377,134.091,0,256,0S476.69,51.377,476.69,114.759z"/>
	</g>
	<ellipse style="fill:#67B9CC;" cx="256" cy="136.828" rx="216.541" ry="92.69"/>
	<path style="fill:#D1D4D1;" d="M512,219.983c0,24.629-12.888,47.757-35.31,67.531c-13.37,11.51-28.213,21.188-44.138,28.778
		c-14.216,7.034-28.977,12.908-44.138,17.567c-14.476,4.568-29.216,8.253-44.138,11.034c-14.588,2.867-29.323,4.93-44.138,6.179
		c-14.301,1.324-29.131,2.03-44.138,2.03s-29.837-0.706-44.138-2.03c-14.815-1.249-29.55-3.312-44.138-6.179
		c-14.922-2.781-29.662-6.466-44.138-11.034c-15.161-4.659-29.922-10.533-44.138-17.567c-15.925-7.59-30.768-17.268-44.138-28.778
		C12.888,267.741,0,244.612,0,219.983s12.888-47.757,35.31-67.531v50.582c0,63.382,98.781,114.759,220.69,114.759
		s220.69-51.377,220.69-114.759v-50.582C499.112,172.226,512,195.354,512,219.983z"/>
	<path style="fill:#95A5A5;" d="M35.31,287.514v158.897C12.888,426.637,0,403.509,0,378.88V219.983
		C0,244.612,12.888,267.741,35.31,287.514z"/>
	<path style="fill:#BDC3C7;" d="M79.448,316.292v158.897c-15.925-7.59-30.768-17.268-44.138-28.778V287.514
		C48.68,299.024,63.523,308.702,79.448,316.292z"/>
	<g>
		<path style="fill:#95A5A5;" d="M123.586,333.859v158.897c-15.161-4.659-29.922-10.533-44.138-17.567V316.292
			C93.664,323.326,108.425,329.201,123.586,333.859z"/>
		<path style="fill:#95A5A5;" d="M211.862,351.073V509.97c-14.815-1.249-29.55-3.312-44.138-6.179V344.894
			C182.312,347.761,197.047,349.824,211.862,351.073z"/>
	</g>
	<g>
		<path style="fill:#BDC3C7;" d="M256,353.103V512c-15.007,0-29.837-0.706-44.138-2.03V351.073
			C226.163,352.397,240.993,353.103,256,353.103z"/>
		<path style="fill:#BDC3C7;" d="M344.276,344.894V503.79c-14.588,2.867-29.323,4.93-44.138,6.179V351.073
			C314.953,349.824,329.688,347.761,344.276,344.894z"/>
		<path style="fill:#BDC3C7;" d="M432.552,316.292v158.897c-14.216,7.034-28.977,12.908-44.138,17.567V333.859
			C403.575,329.201,418.336,323.326,432.552,316.292z"/>
	</g>
	<path style="fill:#95A5A5;" d="M476.69,287.514v158.897c-13.37,11.51-28.213,21.188-44.138,28.778V316.292
		C448.477,308.702,463.32,299.024,476.69,287.514z"/>
	<g>
		<path style="fill:#BDC3C7;" d="M512,219.983V378.88c0,24.629-12.888,47.757-35.31,67.531V287.514
			C499.112,267.741,512,244.612,512,219.983z"/>
		<path style="fill:#BDC3C7;" d="M167.724,344.894V503.79c-14.922-2.781-29.662-6.466-44.138-11.034V333.859
			C138.062,338.427,152.802,342.112,167.724,344.894z"/>
	</g>
	<g>
		<path style="fill:#95A5A5;" d="M300.138,351.073V509.97C285.837,511.294,271.007,512,256,512V353.103
			C271.007,353.103,285.837,352.397,300.138,351.073z"/>
		<path style="fill:#95A5A5;" d="M388.414,333.859v158.897c-14.476,4.568-29.216,8.253-44.138,11.034V344.894
			C359.198,342.112,373.938,338.427,388.414,333.859z"/>
	</g>
	<g>
		<path style="fill:#2980BA;" d="M249.997,140.977c-9.244,28.524-15.313,57.98-18.097,87.834
			c-17.366-0.909-34.649-3.003-51.73-6.268c9.352-32.326,22.853-63.303,40.166-92.16
			C228.959,136.769,239.28,140.456,249.997,140.977z"/>
		<path style="fill:#2980BA;" d="M412.954,34.074c-32.862,32.102-71.342,57.895-113.523,76.094
			c-4.786-10.601-14.627-18.048-26.13-19.774c-1.412-0.353-2.913-0.706-4.414-0.971l4.767-0.265
			c30.658-21.62,58.04-47.546,81.302-76.977C375.056,17.259,394.514,24.604,412.954,34.074z"/>
		<path style="fill:#2980BA;" d="M427.608,186.88c-23.832,14.652-49.891,25.326-77.153,31.603
			c-32.012-21.598-60.632-47.838-84.921-77.859c10.983-0.982,21.311-5.649,29.308-13.241
			C354.781,169.401,399.183,183.172,427.608,186.88z"/>
		<path style="fill:#2980BA;" d="M211.862,114.759c0.016,3.123,0.902,6.18,2.56,8.828c-90.571,0.441-138.152,21.716-160.75,37.076
			c-11.423-12.607-17.939-28.896-18.361-45.903c0.009-7.607,1.416-15.147,4.149-22.246h0.088
			c61.058-14.839,124.914-13.654,185.379,3.443C217.534,99.449,212.557,106.611,211.862,114.759z"/>
		<path style="fill:#2980BA;" d="M264.298,88.717c-2.737-0.265-5.473-0.441-8.298-0.441c-7.474-0.076-14.907,1.118-21.981,3.531
			c-9.852-30.516-23.274-59.762-39.989-87.128c17.738-2.732,35.639-4.265,53.583-4.59C256.505,28.906,262.102,58.639,264.298,88.717
			z"/>
	</g>
	<ellipse style="fill:#3B97D3;" cx="256" cy="114.759" rx="44.138" ry="26.483"/>
</g>
<g>
</g>
<g>
</g>
<g>
</g>
<g>
</g>
<g>
</g>
<g>
</g>
<g>
</g>
<g>
</g>
<g>
</g>
<g>
</g>
<g>
</g>
<g>
</g>
<g>
</g>
<g>
</g>
<g>
</g>
</svg>
