<?xml version="1.0" encoding="iso-8859-1"?>
<!-- Generator: Adobe Illustrator 19.0.0, SVG Export Plug-In . SVG Version: 6.00 Build 0)  -->
<svg version="1.1" id="Capa_1" xmlns="http://www.w3.org/2000/svg" xmlns:xlink="http://www.w3.org/1999/xlink" x="0px" y="0px"
	 viewBox="0 0 512 512" style="enable-background:new 0 0 512 512;" xml:space="preserve">
<g>
	<path style="fill:#E57E25;" d="M154.483,114.759v-35.31C154.486,35.572,190.055,0.004,233.931,0h158.897
		c43.877,0.004,79.445,35.572,79.448,79.448v150.069h-35.31V79.448c-0.009-24.373-19.765-44.129-44.138-44.138H233.931
		c-24.373,0.009-44.129,19.765-44.138,44.138v35.31H154.483z"/>
	<path style="fill:#F29C1F;" d="M136.828,158.897h70.621l-7.598-54.417c-0.709-4.257-4.392-7.376-8.708-7.376h-38.009
		c-4.315,0-7.998,3.12-8.708,7.376L136.828,158.897z"/>
	<path style="fill:#95A5A5;" d="M329.534,340.392L304.199,188.91l-0.088-0.618l-0.53-3.266l0.618,3.884l-0.088-0.618l-0.53-3.266
		c-0.169-0.456-0.288-0.93-0.353-1.412v-0.177c-4.938-19.62-22.582-33.371-42.814-33.368H83.862
		c-11.706-0.025-22.933,4.65-31.161,12.977c-5.758,5.681-9.797,12.871-11.652,20.745l-0.177,0.706l-0.088,0.618
		c-0.4,1.504-0.666,3.04-0.794,4.59v0.353l1.059-6.268l-0.177,0.706l-0.883,5.208v0.353L14.83,340.392H329.534z"/>
	<path style="fill:#BDC3C7;" d="M233.931,406.069h44.138c29.234-0.044,52.922-23.732,52.966-52.966
		c-0.023-29.242-23.723-52.942-52.966-52.966H66.207c-29.234,0.044-52.922,23.732-52.966,52.966
		c0.023,29.242,23.723,52.942,52.966,52.966H233.931z"/>
	<path style="fill:#4482C3;" d="M233.931,507.13c-0.041,2.719-2.27,4.895-4.99,4.87h-104.78c-2.719,0.025-4.948-2.151-4.99-4.87
		v-45.66c0.017-1.361,1.134-2.451,2.495-2.435h12.666c1.361,0.016,2.478-1.074,2.495-2.435v-39.268
		c-0.017-1.361-1.134-2.451-2.495-2.435h-15.16v-39.268c0.041-2.719,2.27-4.895,4.99-4.87h89.811l19.958,26.483V507.13z"/>
	<path style="fill:#F29C1F;" d="M489.931,317.793H419.31c-4.875,0-8.828-3.952-8.828-8.828V220.69c0-4.875,3.952-8.828,8.828-8.828
		h70.621c4.875,0,8.828,3.952,8.828,8.828v88.276C498.759,313.841,494.806,317.793,489.931,317.793z"/>
	<rect x="419.31" y="317.793" style="fill:#A5A5A4;" width="70.621" height="70.621"/>
	<g>
		<path style="fill:#5E5F62;" d="M489.931,344.276v17.655h-17.655c-4.875,0-8.828-3.952-8.828-8.828s3.952-8.828,8.828-8.828
			H489.931z"/>
		<path style="fill:#5E5F62;" d="M445.793,353.103c-0.015,4.869-3.958,8.813-8.828,8.828H419.31v-17.655h17.655
			C441.835,344.29,445.779,348.234,445.793,353.103z"/>
	</g>
	<path style="fill:#7F8C8D;" d="M220.601,370.759h22.157c4.875,0,8.828-3.952,8.828-8.828v-17.655c0-4.875-3.952-8.828-8.828-8.828
		H92.69c-4.875,0-8.828,3.952-8.828,8.828v17.655c0,4.875,3.952,8.828,8.828,8.828H220.601z"/>
	<path style="fill:#46B29D;" d="M286.897,361.931c-2.348,0.023-4.607-0.9-6.267-2.56c-1.66-1.66-2.583-3.919-2.56-6.267
		c0-4.875,3.952-8.828,8.828-8.828s8.828,3.952,8.828,8.828c0.023,2.348-0.9,4.607-2.56,6.267
		C291.503,361.031,289.245,361.954,286.897,361.931z"/>
</g>
<g>
</g>
<g>
</g>
<g>
</g>
<g>
</g>
<g>
</g>
<g>
</g>
<g>
</g>
<g>
</g>
<g>
</g>
<g>
</g>
<g>
</g>
<g>
</g>
<g>
</g>
<g>
</g>
<g>
</g>
</svg>
