<?xml version="1.0" encoding="iso-8859-1"?>
<!-- Generator: Adobe Illustrator 19.0.0, SVG Export Plug-In . SVG Version: 6.00 Build 0)  -->
<svg version="1.1" id="Capa_1" xmlns="http://www.w3.org/2000/svg" xmlns:xlink="http://www.w3.org/1999/xlink" x="0px" y="0px"
	 viewBox="0 0 512 512" style="enable-background:new 0 0 512 512;" xml:space="preserve">
<g>
	<g>
		<path style="fill:#2C3E50;" d="M317.793,459.074h52.966v44.099c0,4.875-3.952,8.828-8.828,8.828h-35.31
			c-4.875,0-8.828-3.952-8.828-8.828V459.074z"/>
		<path style="fill:#2C3E50;" d="M141.241,459.035h52.966v44.099c0,4.875-3.952,8.828-8.828,8.828h-35.31
			c-4.875,0-8.828-3.952-8.828-8.828V459.035z"/>
	</g>
	<g>
		<path style="fill:#E4C05C;" d="M186.704,88.364c-0.437-0.073-0.881-0.103-1.324-0.088h1.324l12.8-44.138l2.825-9.71
			c0.775-2.578,0.896-5.308,0.353-7.945c-0.845-4.263-3.314-8.03-6.886-10.505l-16.684-12.27c-6.787-4.944-15.988-4.944-22.775,0
			l-16.684,12.27c-3.572,2.475-6.041,6.242-6.886,10.505c-0.543,2.637-0.422,5.367,0.353,7.945l2.825,9.71l12.8,44.138h1.324
			c-0.443-0.015-0.887,0.015-1.324,0.088c-9.215,0.652-16.352,8.329-16.331,17.567l0,176.552h70.621l0-176.552
			C203.055,96.693,195.919,89.016,186.704,88.364z"/>
		<path style="fill:#E4C05C;" d="M363.255,88.364c-0.437-0.073-0.881-0.103-1.324-0.088h1.343l12.8-44.138l2.825-9.71
			c0.775-2.578,0.896-5.308,0.353-7.945c-0.845-4.263-3.314-8.03-6.886-10.505l-16.684-12.27c-6.787-4.943-15.988-4.943-22.775,0
			l-16.684,12.27c-3.572,2.475-6.041,6.242-6.886,10.505c-0.543,2.637-0.422,5.367,0.353,7.945l2.825,9.71l12.8,44.138h1.305
			c-0.443-0.015-0.887,0.015-1.324,0.088c-9.215,0.652-16.352,8.329-16.331,17.567l0,185.379h70.621l0-185.379
			C379.607,96.693,372.47,89.016,363.255,88.364z"/>
	</g>
	<path style="fill:#B19046;" d="M186.704,88.276l12.8-44.138l2.825-9.71c0.775-2.578,0.896-5.308,0.353-7.945
		c-0.845-4.263-3.314-8.03-6.886-10.505l-16.684-12.27c-6.787-4.943-15.988-4.943-22.775,0l-16.684,12.27
		c-3.572,2.475-6.041,6.242-6.886,10.505c-0.543,2.637-0.422,5.367,0.353,7.945l2.825,9.71l12.8,44.138H186.704z"/>
	<g>
		<rect x="132.414" y="123.586" style="fill:#F9EAB0;" width="70.621" height="17.655"/>
		<rect x="132.414" y="167.724" style="fill:#F9EAB0;" width="70.621" height="17.655"/>
		<rect x="132.414" y="211.862" style="fill:#F9EAB0;" width="70.621" height="17.655"/>
		<path style="fill:#F9EAB0;" d="M202.328,34.428l-2.825,9.71h-63.559l-2.825-9.71c-0.775-2.578-0.896-5.308-0.353-7.945h69.914
			C203.225,29.119,203.103,31.85,202.328,34.428z"/>
	</g>
	<path style="fill:#B19046;" d="M363.274,88.276l12.8-44.138l2.825-9.71c0.775-2.578,0.896-5.308,0.353-7.945
		c-0.845-4.263-3.314-8.03-6.885-10.505l-16.684-12.27c-6.787-4.943-15.988-4.943-22.775,0l-16.684,12.27
		c-3.572,2.475-6.041,6.242-6.886,10.505c-0.543,2.637-0.422,5.367,0.353,7.945l2.825,9.71l12.8,44.138H363.274z"/>
	<g>
		<rect x="308.966" y="123.586" style="fill:#F9EAB0;" width="70.621" height="17.655"/>
		<rect x="308.966" y="167.724" style="fill:#F9EAB0;" width="70.621" height="17.655"/>
		<rect x="308.966" y="211.862" style="fill:#F9EAB0;" width="70.621" height="17.655"/>
		<path style="fill:#F9EAB0;" d="M378.88,34.428l-2.825,9.71h-63.559l-2.825-9.71c-0.775-2.578-0.896-5.308-0.353-7.945h69.914
			C379.776,29.119,379.655,31.85,378.88,34.428z"/>
	</g>
	<g>
		<path style="fill:#35495E;" d="M406.069,282.483v141.241c-0.002,4.683-1.871,9.173-5.192,12.475
			c-7.613,7.013-12.101,16.781-12.463,27.125v4.538c-0.014,4.869-3.958,8.813-8.828,8.828h-70.621
			c-4.869-0.014-8.813-3.958-8.828-8.828v-4.538c-0.362-10.344-4.85-20.113-12.463-27.125c-3.321-3.302-5.19-7.791-5.192-12.475
			V282.483c0.029-9.739,7.916-17.627,17.655-17.655h88.276C398.153,264.856,406.041,272.744,406.069,282.483z"/>
		<path style="fill:#35495E;" d="M229.517,282.444v141.241c-0.002,4.683-1.871,9.173-5.192,12.475
			c-7.613,7.013-12.101,16.781-12.463,27.125v4.538c-0.014,4.869-3.958,8.813-8.828,8.828h-70.621
			c-4.869-0.014-8.813-3.958-8.828-8.828v-4.538c-0.362-10.344-4.85-20.113-12.463-27.125c-3.321-3.302-5.19-7.791-5.192-12.475
			V282.444c0.029-9.739,7.916-17.627,17.655-17.655h88.276C221.601,264.817,229.489,272.705,229.517,282.444z"/>
	</g>
</g>
<g>
</g>
<g>
</g>
<g>
</g>
<g>
</g>
<g>
</g>
<g>
</g>
<g>
</g>
<g>
</g>
<g>
</g>
<g>
</g>
<g>
</g>
<g>
</g>
<g>
</g>
<g>
</g>
<g>
</g>
</svg>
