<?xml version="1.0" encoding="iso-8859-1"?>
<!-- Generator: Adobe Illustrator 19.0.0, SVG Export Plug-In . SVG Version: 6.00 Build 0)  -->
<svg version="1.1" id="Capa_1" xmlns="http://www.w3.org/2000/svg" xmlns:xlink="http://www.w3.org/1999/xlink" x="0px" y="0px"
	 viewBox="0 0 512 512" style="enable-background:new 0 0 512 512;" xml:space="preserve">
<g>
	<rect x="220.69" y="141.241" style="fill:#3F5C6C;" width="70.621" height="335.448"/>
	<path style="fill:#D1D4D1;" d="M17.655,0h476.69C504.095,0,512,7.904,512,17.655v123.586c0,9.751-7.905,17.655-17.655,17.655
		H17.655C7.904,158.897,0,150.992,0,141.241V17.655C0,7.904,7.904,0,17.655,0z"/>
	<g>
		<path style="fill:#95A5A5;" d="M459.034,52.966H300.138c-4.875,0-8.828-3.952-8.828-8.828s3.952-8.828,8.828-8.828h158.897
			c4.875,0,8.828,3.952,8.828,8.828S463.91,52.966,459.034,52.966z"/>
		<path style="fill:#95A5A5;" d="M459.034,88.276H300.138c-4.875,0-8.828-3.952-8.828-8.828c0-4.875,3.952-8.828,8.828-8.828
			h158.897c4.875,0,8.828,3.952,8.828,8.828C467.862,84.324,463.91,88.276,459.034,88.276z"/>
		<path style="fill:#95A5A5;" d="M459.034,123.586H300.138c-4.875,0-8.828-3.952-8.828-8.828s3.952-8.828,8.828-8.828h158.897
			c4.875,0,8.828,3.952,8.828,8.828S463.91,123.586,459.034,123.586z"/>
	</g>
	<path style="fill:#D1D4D1;" d="M17.655,194.207h476.69c9.751,0,17.655,7.904,17.655,17.655v123.586
		c0,9.751-7.905,17.655-17.655,17.655H17.655C7.904,353.103,0,345.199,0,335.448V211.862C0,202.111,7.904,194.207,17.655,194.207z"
		/>
	<g>
		<path style="fill:#95A5A5;" d="M459.034,247.172H300.138c-4.875,0-8.828-3.952-8.828-8.828c0-4.875,3.952-8.828,8.828-8.828
			h158.897c4.875,0,8.828,3.952,8.828,8.828C467.862,243.22,463.91,247.172,459.034,247.172z"/>
		<path style="fill:#95A5A5;" d="M459.034,282.483H300.138c-4.875,0-8.828-3.952-8.828-8.828s3.952-8.828,8.828-8.828h158.897
			c4.875,0,8.828,3.952,8.828,8.828S463.91,282.483,459.034,282.483z"/>
		<path style="fill:#95A5A5;" d="M459.034,317.793H300.138c-4.875,0-8.828-3.952-8.828-8.828s3.952-8.828,8.828-8.828h158.897
			c4.875,0,8.828,3.952,8.828,8.828S463.91,317.793,459.034,317.793z"/>
	</g>
	<circle style="fill:#E64C3C;" cx="61.793" cy="273.655" r="26.483"/>
	<circle style="fill:#46B29D;" cx="150.069" cy="273.655" r="26.483"/>
	<circle style="fill:#E64C3C;" cx="61.793" cy="79.448" r="26.483"/>
	<circle style="fill:#46B29D;" cx="150.069" cy="79.448" r="26.483"/>
	<path style="fill:#547580;" d="M17.655,459.034h476.69c9.751,0,17.655,7.904,17.655,17.655V512H0v-35.31
		C0,466.939,7.904,459.034,17.655,459.034z"/>
	<g>
		<path style="fill:#2FA8CC;" d="M211.862,88.276c-1.159,0.028-2.309-0.214-3.358-0.707c-1.068-0.448-2.052-1.075-2.91-1.854
			c-1.661-1.66-2.584-3.919-2.56-6.267c0.014-0.564,0.073-1.126,0.177-1.681c0.081-0.583,0.259-1.148,0.526-1.672
			c0.194-0.565,0.462-1.101,0.797-1.595l1.06-1.319c0.857-0.779,1.841-1.406,2.909-1.854c3.288-1.387,7.088-0.656,9.626,1.854
			c0.353,0.44,0.707,0.879,1.056,1.319c0.335,0.494,0.604,1.03,0.797,1.595c0.266,0.525,0.445,1.09,0.53,1.672
			c0.101,0.555,0.16,1.117,0.176,1.681c0.022,2.348-0.9,4.606-2.56,6.268c-0.859,0.779-1.844,1.406-2.914,1.854
			C214.168,88.062,213.02,88.304,211.862,88.276z"/>
		<path style="fill:#2FA8CC;" d="M211.862,282.483c-2.348,0.023-4.607-0.9-6.267-2.56c-1.66-1.66-2.583-3.919-2.56-6.267
			c0-4.875,3.952-8.828,8.828-8.828c4.875,0,8.828,3.952,8.828,8.828c0.023,2.348-0.9,4.607-2.56,6.267
			C216.469,281.583,214.21,282.506,211.862,282.483z"/>
	</g>
</g>
<g>
</g>
<g>
</g>
<g>
</g>
<g>
</g>
<g>
</g>
<g>
</g>
<g>
</g>
<g>
</g>
<g>
</g>
<g>
</g>
<g>
</g>
<g>
</g>
<g>
</g>
<g>
</g>
<g>
</g>
</svg>
