<?xml version="1.0" encoding="iso-8859-1"?>
<!-- Generator: Adobe Illustrator 19.0.0, SVG Export Plug-In . SVG Version: 6.00 Build 0)  -->
<svg version="1.1" id="Capa_1" xmlns="http://www.w3.org/2000/svg" xmlns:xlink="http://www.w3.org/1999/xlink" x="0px" y="0px"
	 viewBox="0 0 512 512" style="enable-background:new 0 0 512 512;" xml:space="preserve">
<g>
	<path style="fill:#7F8C8D;" d="M291.31,264.828h15.318c12.403,0,23.897,6.508,30.279,17.143l16.197,26.995
		c0,0,114.759,17.655,114.759,114.759L317.793,512H194.207L44.138,423.724c0-97.103,114.759-114.759,114.759-114.759l16.197-26.995
		c6.381-10.636,17.875-17.143,30.279-17.143H291.31z"/>
	<path style="fill:#802F34;" d="M308.877,476.69H203.123l35.928-72.033c11.221,1.884,22.677,1.884,33.898,0L308.877,476.69z"/>
	<path style="fill:#CC4B4C;" d="M432.552,405.01l-123.586,71.68h-0.088l-35.928-72.033c-11.221,1.884-22.677,1.884-33.898,0
		l-35.928,72.033L79.448,405.01c2.683-9.305,7.352-17.919,13.683-25.247c0.706-0.794,1.324-1.501,2.03-2.295
		c22.334-24.188,52.789-32.398,84.48-34.958c3.354-0.265,6.797-0.53,10.24-0.618l131.972-0.441
		c23.632,0.434,46.887,6.007,68.149,16.331C410.129,366.932,425.544,384.041,432.552,405.01z"/>
	<path style="fill:#BDC3C7;" d="M326.621,358.665c0,22.334-22.863,40.96-53.672,45.992c-11.221,1.884-22.677,1.884-33.898,0
		c-30.808-5.032-53.672-23.658-53.672-45.992c0.028-5.886,1.579-11.664,4.502-16.772c7.216-11.316,18.088-19.82,30.808-24.099
		h70.621c12.55,4.23,23.31,12.564,30.543,23.658C324.951,346.66,326.597,352.604,326.621,358.665z"/>
	<path style="fill:#CC4B4C;" d="M291.31,123.586v229.517c0,9.71-15.801,17.655-35.31,17.655h-0.883
		c-19.068-0.265-34.428-8.121-34.428-17.655V123.586H291.31z"/>
	<path style="fill:#802F34;" d="M291.31,176.552v123.586c-22.076,11.74-48.544,11.74-70.621,0V176.552
		C242.766,188.292,269.234,188.292,291.31,176.552z"/>
	<path style="fill:#CC4B4C;" d="M256,264.828c-2.341,0.001-4.587-0.929-6.243-2.585c-1.656-1.656-2.585-3.901-2.585-6.243v-26.483
		c0-4.875,3.952-8.828,8.828-8.828s8.828,3.952,8.828,8.828V256c0.001,2.341-0.929,4.587-2.585,6.243
		C260.587,263.898,258.341,264.828,256,264.828z"/>
	<path style="fill:#7F8C8D;" d="M229.517,0h52.966c24.377,0,44.138,19.761,44.138,44.138v52.966
		c0,24.377-19.761,44.138-44.138,44.138h-52.966c-24.377,0-44.138-19.761-44.138-44.138V44.138C185.379,19.761,205.141,0,229.517,0z
		"/>
	<g>
		<path style="fill:#BDC3C7;" d="M220.69,44.138c-2.348,0.023-4.607-0.9-6.267-2.56c-1.66-1.66-2.583-3.919-2.56-6.267
			c0.033-2.337,0.947-4.576,2.56-6.268c0.828-0.817,1.819-1.449,2.909-1.854c2.149-0.888,4.562-0.888,6.711,0
			c1.08,0.427,2.069,1.056,2.914,1.854c1.612,1.693,2.526,3.931,2.561,6.268c0.023,2.348-0.9,4.607-2.56,6.267
			C225.296,43.238,223.038,44.161,220.69,44.138z"/>
		<path style="fill:#BDC3C7;" d="M256,44.138c-1.155-0.014-2.296-0.254-3.358-0.707c-1.068-0.447-2.053-1.074-2.91-1.853
			c-2.525-2.527-3.261-6.335-1.858-9.621c0.427-1.081,1.058-2.071,1.858-2.915c2.525-2.546,6.341-3.312,9.653-1.937
			c3.312,1.375,5.463,4.618,5.442,8.204c0.022,2.348-0.9,4.606-2.56,6.268c-0.859,0.779-1.844,1.406-2.914,1.854
			C258.293,43.884,257.153,44.124,256,44.138z"/>
		<path style="fill:#BDC3C7;" d="M291.31,44.138c-2.348,0.023-4.607-0.9-6.267-2.56c-1.66-1.66-2.583-3.919-2.56-6.267
			c0.033-2.337,0.947-4.576,2.56-6.268c0.857-0.779,1.841-1.406,2.909-1.854c2.149-0.888,4.562-0.888,6.711,0
			c1.08,0.427,2.069,1.056,2.914,1.854c1.612,1.693,2.526,3.931,2.561,6.268c0.022,2.348-0.9,4.606-2.56,6.268
			c-0.859,0.779-1.844,1.406-2.914,1.854C293.603,43.884,292.464,44.124,291.31,44.138z"/>
		<path style="fill:#BDC3C7;" d="M220.69,79.448c-2.348,0.022-4.606-0.901-6.268-2.56c-0.78-0.859-1.408-1.844-1.858-2.914
			c-0.491-1.048-0.732-2.196-0.702-3.354c0.033-2.337,0.947-4.576,2.56-6.268c0.857-0.779,1.841-1.406,2.909-1.854
			c3.288-1.387,7.088-0.656,9.626,1.854c0.797,0.845,1.426,1.834,1.854,2.914c0.943,2.136,0.943,4.571,0,6.707
			c-0.45,1.068-1.077,2.053-1.854,2.914c-0.859,0.779-1.844,1.406-2.914,1.854C222.982,79.194,221.843,79.434,220.69,79.448z"/>
		<path style="fill:#BDC3C7;" d="M256,79.448c-2.348,0.022-4.606-0.901-6.268-2.56c-0.78-0.859-1.408-1.844-1.858-2.914
			c-0.937-2.137-0.937-4.569,0-6.707c0.427-1.081,1.058-2.071,1.858-2.915c0.419-0.38,0.861-0.735,1.323-1.06
			c0.491-0.335,1.024-0.602,1.586-0.793c0.501-0.255,1.037-0.435,1.59-0.535c2.908-0.577,5.914,0.316,8.035,2.388
			c1.611,1.693,2.525,3.931,2.56,6.268c-0.014,1.153-0.254,2.293-0.707,3.353c-0.45,1.068-1.077,2.053-1.854,2.914
			C260.606,78.547,258.348,79.47,256,79.448z"/>
		<path style="fill:#BDC3C7;" d="M291.31,79.448c-2.348,0.022-4.606-0.901-6.268-2.56c-0.78-0.859-1.408-1.844-1.858-2.914
			c-0.491-1.048-0.732-2.196-0.702-3.354c0.033-2.337,0.947-4.576,2.56-6.268c0.857-0.779,1.841-1.406,2.909-1.854
			c3.288-1.387,7.088-0.656,9.626,1.854c0.797,0.845,1.426,1.834,1.854,2.914c0.943,2.136,0.943,4.571,0,6.707
			c-0.45,1.068-1.077,2.053-1.854,2.914c-0.859,0.779-1.844,1.406-2.914,1.854C293.603,79.194,292.464,79.434,291.31,79.448z"/>
		<path style="fill:#BDC3C7;" d="M220.69,114.759c-2.351-0.045-4.596-0.992-6.268-2.647c-1.673-1.617-2.6-3.855-2.56-6.181
			c0.013-1.153,0.251-2.292,0.703-3.353c0.427-1.081,1.058-2.07,1.857-2.914c0.857-0.779,1.841-1.406,2.909-1.854
			c3.293-1.335,7.063-0.609,9.625,1.854c0.797,0.845,1.426,1.834,1.854,2.914c0.453,1.061,0.693,2.2,0.707,3.354
			C229.484,110.792,225.551,114.725,220.69,114.759z"/>
		<path style="fill:#BDC3C7;" d="M256,114.759c-2.367,0.029-4.638-0.93-6.268-2.647c-2.524-2.492-3.261-6.277-1.858-9.535
			c0.807-2.215,2.552-3.96,4.767-4.767c2.149-0.888,4.562-0.888,6.711,0c2.217,0.804,3.963,2.55,4.767,4.767
			c1.335,3.264,0.607,7.009-1.854,9.535C260.637,113.828,258.366,114.787,256,114.759z"/>
		<path style="fill:#BDC3C7;" d="M291.31,114.759c-2.367,0.029-4.638-0.93-6.268-2.647c-1.673-1.617-2.6-3.855-2.56-6.181
			c0.013-1.153,0.251-2.292,0.703-3.353c0.807-2.215,2.552-3.96,4.767-4.767c2.149-0.888,4.562-0.888,6.711,0
			c1.08,0.427,2.069,1.056,2.914,1.854c0.779,0.859,1.406,1.844,1.854,2.914c0.943,2.136,0.943,4.571,0,6.707
			C298.047,112.557,294.862,114.704,291.31,114.759z"/>
	</g>
</g>
<g>
</g>
<g>
</g>
<g>
</g>
<g>
</g>
<g>
</g>
<g>
</g>
<g>
</g>
<g>
</g>
<g>
</g>
<g>
</g>
<g>
</g>
<g>
</g>
<g>
</g>
<g>
</g>
<g>
</g>
</svg>
