<?xml version="1.0" encoding="iso-8859-1"?>
<!-- Generator: Adobe Illustrator 19.0.0, SVG Export Plug-In . SVG Version: 6.00 Build 0)  -->
<svg version="1.1" id="Capa_1" xmlns="http://www.w3.org/2000/svg" xmlns:xlink="http://www.w3.org/1999/xlink" x="0px" y="0px"
	 viewBox="0 0 512.005 512.005" style="enable-background:new 0 0 512.005 512.005;" xml:space="preserve">
<g transform="translate(-1)">
	<path style="fill:#3F5C6C;" d="M9.833,35.313c-4.875,0-8.828,3.952-8.828,8.828v237.271c-0.213,8.883,5.944,16.652,14.639,18.475
		c5.132,0.874,10.388-0.556,14.37-3.908c3.982-3.352,6.287-8.288,6.301-13.493v-70.621h26.483c4.875,0,8.828,3.952,8.828,8.828
		v52.966c0,4.875,3.952,8.828,8.828,8.828v52.966c0.029,9.739,7.916,17.626,17.655,17.655v158.897h35.31V353.106
		c9.739-0.029,17.627-7.916,17.655-17.655v-52.966c4.875,0,8.828-3.952,8.828-8.828v-52.966c0-4.875,3.952-8.828,8.828-8.828h26.483
		v69.546c-0.213,8.883,5.944,16.652,14.639,18.475c5.132,0.874,10.387-0.556,14.37-3.908c3.982-3.352,6.287-8.288,6.301-13.493
		V44.141c0-4.875-3.952-8.828-8.828-8.828H9.833z"/>
	<rect x="98.109" y="335.451" style="fill:#2C3E50;" width="35.31" height="176.552"/>
	<path style="fill:#E4C05C;" d="M62.798,0.003h105.931c4.875,0,8.828,3.952,8.828,8.828v44.138H53.971V8.83
		C53.971,3.955,57.923,0.003,62.798,0.003z"/>
	<g>
		<path style="fill:#B19046;" d="M18.661,44.141c-2.342,0.001-4.588-0.928-6.244-2.584c-1.656-1.656-2.585-3.902-2.584-6.244V8.83
			c0-4.875,3.952-8.828,8.828-8.828s8.828,3.952,8.828,8.828v26.483c0.001,2.342-0.928,4.588-2.584,6.244
			C23.248,43.212,21.002,44.142,18.661,44.141z"/>
		<path style="fill:#B19046;" d="M212.867,44.141c-2.342,0.001-4.588-0.928-6.244-2.584c-1.656-1.656-2.585-3.902-2.584-6.244V8.83
			c0-4.875,3.952-8.828,8.828-8.828s8.828,3.952,8.828,8.828v26.483c0.001,2.342-0.928,4.588-2.584,6.244
			C217.455,43.212,215.209,44.142,212.867,44.141z"/>
	</g>
	<path style="fill:#67B9CC;" d="M9.833,35.313h211.862c4.875,0,8.828,3.952,8.828,8.828v44.138H1.005V44.141
		C1.005,39.265,4.958,35.313,9.833,35.313z"/>
	<g>
		<rect x="1.005" y="88.279" style="fill:#41767F;" width="35.31" height="141.241"/>
		<rect x="195.212" y="88.279" style="fill:#41767F;" width="35.31" height="141.241"/>
	</g>
	<path style="fill:#2C3E50;" d="M36.316,264.83v17.655c0,9.751-7.904,17.655-17.655,17.655s-17.655-7.904-17.655-17.655V264.83
		H36.316z"/>
	<rect x="1.005" y="229.52" style="fill:#35495E;" width="35.31" height="35.31"/>
	<path style="fill:#2C3E50;" d="M230.523,264.83v17.655c0,9.751-7.904,17.655-17.655,17.655s-17.655-7.904-17.655-17.655V264.83
		H230.523z"/>
	<g>
		<rect x="195.212" y="229.52" style="fill:#35495E;" width="35.31" height="35.31"/>
		<path style="fill:#35495E;" d="M151.074,282.485v52.966c-0.029,9.739-7.916,17.626-17.655,17.655h-35.31
			c-9.739-0.029-17.627-7.916-17.655-17.655v-52.966H151.074z"/>
	</g>
	<g>
		<path style="fill:#2C3E50;" d="M106.936,317.796c-0.014,4.869-3.958,8.813-8.828,8.828H80.454v-17.655h17.655
			C102.978,308.982,106.922,312.926,106.936,317.796z"/>
		<path style="fill:#2C3E50;" d="M151.074,308.968v17.655h-17.655c-4.875,0-8.828-3.952-8.828-8.828s3.952-8.828,8.828-8.828
			H151.074z"/>
	</g>
	<g>
		<path style="fill:#35495E;" d="M80.454,123.589h70.621c4.875,0,8.828,3.952,8.828,8.828v17.655c0,4.875-3.952,8.828-8.828,8.828
			H80.454c-4.875,0-8.828-3.952-8.828-8.828v-17.655C71.626,127.541,75.578,123.589,80.454,123.589z"/>
		<path style="fill:#35495E;" d="M124.592,256.003h-17.655c-4.875,0-8.828-3.952-8.828-8.828c0-4.875,3.952-8.828,8.828-8.828
			h17.655c4.875,0,8.828,3.952,8.828,8.828C133.419,252.05,129.467,256.003,124.592,256.003z"/>
		<path style="fill:#35495E;" d="M124.592,220.692h-17.655c-4.875,0-8.828-3.952-8.828-8.828s3.952-8.828,8.828-8.828h17.655
			c4.875,0,8.828,3.952,8.828,8.828S129.467,220.692,124.592,220.692z"/>
	</g>
	<path style="fill:#3F5C6C;" d="M292.316,35.313c-4.875,0-8.828,3.952-8.828,8.828v237.271c-0.213,8.883,5.944,16.652,14.639,18.475
		c5.132,0.874,10.388-0.556,14.37-3.908c3.982-3.352,6.287-8.288,6.301-13.493v-70.621h26.483c4.875,0,8.828,3.952,8.828,8.828
		v52.966c0,4.875,3.952,8.828,8.828,8.828v52.966c0.029,9.739,7.916,17.626,17.655,17.655v158.897h35.31V353.106
		c9.739-0.029,17.627-7.916,17.655-17.655v-52.966c4.875,0,8.828-3.952,8.828-8.828v-52.966c0-4.875,3.952-8.828,8.828-8.828h26.483
		v69.546c-0.213,8.883,5.944,16.652,14.639,18.475c5.132,0.874,10.388-0.556,14.37-3.908c3.982-3.352,6.287-8.288,6.301-13.493
		V44.141c0-4.875-3.952-8.828-8.828-8.828H292.316z"/>
	<rect x="380.592" y="335.451" style="fill:#2C3E50;" width="35.31" height="176.552"/>
	<path style="fill:#E4C05C;" d="M345.281,0.003h105.931c4.875,0,8.828,3.952,8.828,8.828v44.138H336.454V8.83
		C336.454,3.955,340.406,0.003,345.281,0.003z"/>
	<g>
		<path style="fill:#B19046;" d="M301.143,44.141c-2.342,0.001-4.588-0.928-6.244-2.584c-1.656-1.656-2.585-3.902-2.584-6.244V8.83
			c0-4.875,3.952-8.828,8.828-8.828s8.828,3.952,8.828,8.828v26.483c0.001,2.342-0.928,4.588-2.584,6.244
			C305.731,43.212,303.485,44.142,301.143,44.141z"/>
		<path style="fill:#B19046;" d="M495.35,44.141c-2.342,0.001-4.588-0.928-6.244-2.584c-1.656-1.656-2.585-3.902-2.584-6.244V8.83
			c0-4.875,3.952-8.828,8.828-8.828s8.828,3.952,8.828,8.828v26.483c0.001,2.342-0.928,4.588-2.584,6.244
			C499.938,43.212,497.692,44.142,495.35,44.141z"/>
	</g>
	<path style="fill:#67B9CC;" d="M292.316,35.313h211.862c4.875,0,8.828,3.952,8.828,8.828v44.138H283.488V44.141
		C283.488,39.265,287.44,35.313,292.316,35.313z"/>
	<g>
		<rect x="283.488" y="88.279" style="fill:#41767F;" width="35.31" height="141.241"/>
		<rect x="477.695" y="88.279" style="fill:#41767F;" width="35.31" height="141.241"/>
	</g>
	<path style="fill:#2C3E50;" d="M318.798,264.83v17.655c0,9.751-7.905,17.655-17.655,17.655s-17.655-7.904-17.655-17.655V264.83
		H318.798z"/>
	<rect x="283.488" y="229.52" style="fill:#35495E;" width="35.31" height="35.31"/>
	<path style="fill:#2C3E50;" d="M513.005,264.83v17.655c0,9.751-7.905,17.655-17.655,17.655c-9.751,0-17.655-7.904-17.655-17.655
		V264.83H513.005z"/>
	<g>
		<rect x="477.695" y="229.52" style="fill:#35495E;" width="35.31" height="35.31"/>
		<path style="fill:#35495E;" d="M433.557,282.485v52.966c-0.029,9.739-7.916,17.626-17.655,17.655h-35.31
			c-9.739-0.029-17.627-7.916-17.655-17.655v-52.966H433.557z"/>
	</g>
	<g>
		<path style="fill:#2C3E50;" d="M389.419,317.796c-0.014,4.869-3.958,8.813-8.828,8.828h-17.655v-17.655h17.655
			C385.461,308.982,389.405,312.926,389.419,317.796z"/>
		<path style="fill:#2C3E50;" d="M433.557,308.968v17.655h-17.655c-4.875,0-8.828-3.952-8.828-8.828s3.952-8.828,8.828-8.828
			H433.557z"/>
	</g>
	<g>
		<path style="fill:#35495E;" d="M362.936,123.589h70.621c4.875,0,8.828,3.952,8.828,8.828v17.655c0,4.875-3.952,8.828-8.828,8.828
			h-70.621c-4.875,0-8.828-3.952-8.828-8.828v-17.655C354.109,127.541,358.061,123.589,362.936,123.589z"/>
		<path style="fill:#35495E;" d="M407.074,256.003h-17.655c-4.875,0-8.828-3.952-8.828-8.828c0-4.875,3.952-8.828,8.828-8.828
			h17.655c4.875,0,8.828,3.952,8.828,8.828C415.902,252.05,411.95,256.003,407.074,256.003z"/>
		<path style="fill:#35495E;" d="M407.074,220.692h-17.655c-4.875,0-8.828-3.952-8.828-8.828s3.952-8.828,8.828-8.828h17.655
			c4.875,0,8.828,3.952,8.828,8.828S411.95,220.692,407.074,220.692z"/>
	</g>
</g>
<g>
</g>
<g>
</g>
<g>
</g>
<g>
</g>
<g>
</g>
<g>
</g>
<g>
</g>
<g>
</g>
<g>
</g>
<g>
</g>
<g>
</g>
<g>
</g>
<g>
</g>
<g>
</g>
<g>
</g>
</svg>
