<?xml version="1.0" encoding="iso-8859-1"?>
<!-- Generator: Adobe Illustrator 19.0.0, SVG Export Plug-In . SVG Version: 6.00 Build 0)  -->
<svg version="1.1" id="Capa_1" xmlns="http://www.w3.org/2000/svg" xmlns:xlink="http://www.w3.org/1999/xlink" x="0px" y="0px"
	 viewBox="0 0 512.032 512.032" style="enable-background:new 0 0 512.032 512.032;" xml:space="preserve">
<g transform="translate(-1)">
	<g>
		<path style="fill:#802F34;" d="M389.518,90.587l-15.35,12.31c-6.833,5.407-16.582,5.048-22.999-0.847
			c-13.749-12.355-29.792-21.887-47.218-28.054c-8.987-2.993-14.061-12.495-11.55-21.628l4.869-17.041
			c32.029,7.482,61.323,23.781,84.568,47.051C384.486,85.026,387.046,87.762,389.518,90.587z"/>
		<path style="fill:#802F34;" d="M210.081,73.995c-17.425,6.167-33.469,15.699-47.218,28.054
			c-6.417,5.896-16.166,6.255-22.999,0.847l-15.35-12.309c24.187-27.646,56.461-46.979,92.248-55.261l4.869,17.04
			C224.142,61.5,219.068,71.002,210.081,73.995z"/>
	</g>
	<path style="fill:#CC4B4C;" d="M433.568,238.361v-26.483c0-97.507-79.045-176.552-176.552-176.552S80.464,114.371,80.464,211.878
		v26.483h-35.31v-26.483c0-117.008,94.854-211.862,211.862-211.862S468.878,94.87,468.878,211.878v26.483H433.568z"/>
	<g>
		<path style="fill:#7F8C8D;" d="M468.878,432.568v70.621c-0.014,4.869-3.958,8.813-8.828,8.828h-17.655
			c-4.869-0.014-8.813-3.958-8.828-8.828v-70.621H468.878z"/>
		<rect x="65.193" y="467.878" style="fill:#7F8C8D;" width="94.72" height="35.31"/>
	</g>
	<g>
		<path style="fill:#CC4B4C;" d="M80.464,397.257v105.931H62.809c-9.751,0-17.655-7.905-17.655-17.655v-88.276H80.464z"/>
		<path style="fill:#CC4B4C;" d="M159.913,459.05h70.621c9.751,0,17.655,7.905,17.655,17.655v17.655
			c0,9.751-7.904,17.655-17.655,17.655h-70.621c-9.751,0-17.655-7.904-17.655-17.655v-17.655
			C142.257,466.955,150.162,459.05,159.913,459.05z"/>
		<rect x="433.568" y="397.257" style="fill:#CC4B4C;" width="35.31" height="52.966"/>
	</g>
	<path style="fill:#7F8C8D;" d="M195.223,229.533v176.552c-0.029,9.739-7.916,17.627-17.655,17.655h-52.966V211.878h52.966
		C187.307,211.907,195.194,219.794,195.223,229.533z"/>
	<path style="fill:#802F34;" d="M124.602,220.706v194.207H36.326c-19.509,0-35.31-43.432-35.31-97.103s15.801-97.103,35.31-97.103
		H124.602z"/>
	<path style="fill:#BDC3C7;" d="M89.292,264.844h17.655v52.966h-35.31v-35.31C71.637,272.748,79.541,264.844,89.292,264.844z"/>
	<g>
		<path style="fill:#95A5A5;" d="M71.637,317.809h35.31v52.966H89.292c-9.751,0-17.655-7.905-17.655-17.655V317.809z"/>
		<path style="fill:#95A5A5;" d="M168.74,247.188c-0.014,4.869-3.958,8.813-8.828,8.828h-17.655v-17.655h17.655
			C164.782,238.375,168.726,242.319,168.74,247.188z"/>
		<path style="fill:#95A5A5;" d="M168.74,388.43c-0.014,4.869-3.958,8.813-8.828,8.828h-17.655v-17.655h17.655
			C164.782,379.616,168.726,383.56,168.74,388.43z"/>
	</g>
	<path style="fill:#7F8C8D;" d="M389.43,211.878V423.74h-52.966c-9.739-0.029-17.626-7.916-17.655-17.655V229.533
		c0.028-9.739,7.916-17.627,17.655-17.655H389.43z"/>
	<path style="fill:#802F34;" d="M389.43,414.913V220.706h88.276c19.509,0,35.31,43.432,35.31,97.103s-15.801,97.103-35.31,97.103
		H389.43z"/>
	<path style="fill:#95A5A5;" d="M424.74,370.775h-17.655v-52.966h35.31v35.31C442.395,362.87,434.491,370.775,424.74,370.775z"/>
	<path style="fill:#BDC3C7;" d="M442.395,317.809h-35.31v-52.966h17.655c9.751,0,17.655,7.904,17.655,17.655V317.809z"/>
	<g>
		<path style="fill:#95A5A5;" d="M371.775,379.602v17.655h-17.655c-4.875,0-8.828-3.952-8.828-8.828
			c0-4.875,3.952-8.828,8.828-8.828H371.775z"/>
		<path style="fill:#95A5A5;" d="M371.775,238.361v17.655h-17.655c-4.875,0-8.828-3.952-8.828-8.828s3.952-8.828,8.828-8.828
			H371.775z"/>
	</g>
	<g>
		<path style="fill:#CC4B4C;" d="M124.602,203.05L124.602,203.05c9.751,0,17.655,7.904,17.655,17.655v194.207
			c0,9.751-7.904,17.655-17.655,17.655l0,0c-9.751,0-17.655-7.904-17.655-17.655V220.706
			C106.947,210.955,114.852,203.05,124.602,203.05z"/>
		<path style="fill:#CC4B4C;" d="M389.43,432.568L389.43,432.568c-9.751,0-17.655-7.904-17.655-17.655V220.706
			c0-9.751,7.904-17.655,17.655-17.655l0,0c9.751,0,17.655,7.904,17.655,17.655v194.207
			C407.085,424.663,399.18,432.568,389.43,432.568z"/>
		<path style="fill:#CC4B4C;" d="M513.016,317.809c0.261,21.648-2.684,43.215-8.739,64l-61.881-46.345v-35.31l61.881-46.345
			C510.333,274.594,513.278,296.161,513.016,317.809z"/>
		<path style="fill:#CC4B4C;" d="M1.016,317.809c-0.261,21.648,2.684,43.215,8.739,64l61.881-46.345v-35.31L9.755,253.809
			C3.7,274.594,0.754,296.161,1.016,317.809z"/>
	</g>
</g>
<g>
</g>
<g>
</g>
<g>
</g>
<g>
</g>
<g>
</g>
<g>
</g>
<g>
</g>
<g>
</g>
<g>
</g>
<g>
</g>
<g>
</g>
<g>
</g>
<g>
</g>
<g>
</g>
<g>
</g>
</svg>
