<?xml version="1.0" encoding="iso-8859-1"?>
<!-- Generator: Adobe Illustrator 19.0.0, SVG Export Plug-In . SVG Version: 6.00 Build 0)  -->
<svg version="1.1" id="Capa_1" xmlns="http://www.w3.org/2000/svg" xmlns:xlink="http://www.w3.org/1999/xlink" x="0px" y="0px"
	 viewBox="0 0 512 512" style="enable-background:new 0 0 512 512;" xml:space="preserve">
<g>
	<g>
		<path style="fill:#2C3E50;" d="M141.241,512H88.276c-4.875,0-8.828-3.952-8.828-8.828v-97.103h70.621v97.103
			C150.069,508.048,146.117,512,141.241,512z"/>
		<path style="fill:#2C3E50;" d="M361.931,406.069h70.621v97.103c0,4.875-3.952,8.828-8.828,8.828h-52.966
			c-4.875,0-8.828-3.952-8.828-8.828V406.069z"/>
	</g>
	<path style="fill:#E4C05C;" d="M176.552,0H52.966c0,9.71-3.443,17.655-35.31,17.655v123.586h194.207V17.655
		C179.994,17.655,176.552,9.71,176.552,0z"/>
	<g>
		<path style="fill:#B19046;" d="M211.862,17.655v105.931h-35.31V0C176.552,9.71,179.994,17.655,211.862,17.655z"/>
		<path style="fill:#B19046;" d="M52.966,0v123.586h-35.31V17.655C49.523,17.655,52.966,9.71,52.966,0z"/>
	</g>
	<g>
		<path style="fill:#7F6E5D;" d="M97.103,70.621h-8.828c-4.875,0-8.828-3.952-8.828-8.828s3.952-8.828,8.828-8.828h8.828
			c4.875,0,8.828,3.952,8.828,8.828S101.979,70.621,97.103,70.621z"/>
		<path style="fill:#7F6E5D;" d="M141.241,70.621h-8.828c-4.875,0-8.828-3.952-8.828-8.828s3.952-8.828,8.828-8.828h8.828
			c4.875,0,8.828,3.952,8.828,8.828S146.117,70.621,141.241,70.621z"/>
	</g>
	<path style="fill:#E4C05C;" d="M459.034,0H335.448c0,9.71-3.443,17.655-35.31,17.655v123.586h194.207V17.655
		C462.477,17.655,459.034,9.71,459.034,0z"/>
	<g>
		<path style="fill:#B19046;" d="M494.345,17.655v105.931h-35.31V0C459.034,9.71,462.477,17.655,494.345,17.655z"/>
		<path style="fill:#B19046;" d="M335.448,0v123.586h-35.31V17.655C332.006,17.655,335.448,9.71,335.448,0z"/>
	</g>
	<g>
		<path style="fill:#7F6E5D;" d="M379.586,70.621h-8.828c-4.875,0-8.828-3.952-8.828-8.828s3.952-8.828,8.828-8.828h8.828
			c4.875,0,8.828,3.952,8.828,8.828S384.462,70.621,379.586,70.621z"/>
		<path style="fill:#7F6E5D;" d="M423.724,70.621h-8.828c-4.875,0-8.828-3.952-8.828-8.828s3.952-8.828,8.828-8.828h8.828
			c4.875,0,8.828,3.952,8.828,8.828S428.599,70.621,423.724,70.621z"/>
	</g>
	<path style="fill:#35495E;" d="M512,132.414v190.55c0,2.341-0.93,4.587-2.586,6.242l-47.794,47.795
		c-1.655,1.655-2.586,3.901-2.586,6.242v31.654c0,4.875-3.952,8.828-8.828,8.828H344.276c-4.875,0-8.828-3.952-8.828-8.828v-31.654
		c0-2.341-0.93-4.587-2.586-6.242l-47.794-47.795c-1.655-1.655-2.586-3.901-2.586-6.242v-190.55
		c0.014-4.869,3.958-8.813,8.828-8.828h211.862C508.042,123.6,511.986,127.544,512,132.414z"/>
	<g>
		<path style="fill:#2C3E50;" d="M326.621,167.724h141.241c4.875,0,8.828,3.952,8.828,8.828v61.793c0,4.875-3.952,8.828-8.828,8.828
			H326.621c-4.875,0-8.828-3.952-8.828-8.828v-61.793C317.793,171.676,321.745,167.724,326.621,167.724z"/>
		<path style="fill:#2C3E50;" d="M441.379,291.31h-88.276c-4.875,0-8.828-3.952-8.828-8.828s3.952-8.828,8.828-8.828h88.276
			c4.875,0,8.828,3.952,8.828,8.828S446.255,291.31,441.379,291.31z"/>
		<path style="fill:#2C3E50;" d="M441.379,326.621h-88.276c-4.875,0-8.828-3.952-8.828-8.828s3.952-8.828,8.828-8.828h88.276
			c4.875,0,8.828,3.952,8.828,8.828S446.255,326.621,441.379,326.621z"/>
		<path style="fill:#2C3E50;" d="M441.379,361.931h-88.276c-4.875,0-8.828-3.952-8.828-8.828s3.952-8.828,8.828-8.828h88.276
			c4.875,0,8.828,3.952,8.828,8.828S446.255,361.931,441.379,361.931z"/>
	</g>
	<path style="fill:#35495E;" d="M229.517,132.414v190.55c0,2.341-0.93,4.587-2.586,6.242l-47.794,47.795
		c-1.655,1.655-2.586,3.901-2.586,6.242v31.654c0,4.875-3.952,8.828-8.828,8.828H61.793c-4.875,0-8.828-3.952-8.828-8.828v-31.654
		c0-2.341-0.93-4.587-2.586-6.242L2.586,329.206C0.93,327.551,0,325.305,0,322.964v-190.55c0.014-4.869,3.958-8.813,8.828-8.828
		H220.69C225.559,123.6,229.503,127.544,229.517,132.414z"/>
	<g>
		<path style="fill:#2C3E50;" d="M44.138,167.724h141.241c4.875,0,8.828,3.952,8.828,8.828v61.793c0,4.875-3.952,8.828-8.828,8.828
			H44.138c-4.875,0-8.828-3.952-8.828-8.828v-61.793C35.31,171.676,39.263,167.724,44.138,167.724z"/>
		<path style="fill:#2C3E50;" d="M158.897,291.31H70.621c-4.875,0-8.828-3.952-8.828-8.828s3.952-8.828,8.828-8.828h88.276
			c4.875,0,8.828,3.952,8.828,8.828S163.772,291.31,158.897,291.31z"/>
		<path style="fill:#2C3E50;" d="M158.897,326.621H70.621c-4.875,0-8.828-3.952-8.828-8.828s3.952-8.828,8.828-8.828h88.276
			c4.875,0,8.828,3.952,8.828,8.828S163.772,326.621,158.897,326.621z"/>
		<path style="fill:#2C3E50;" d="M158.897,361.931H70.621c-4.875,0-8.828-3.952-8.828-8.828s3.952-8.828,8.828-8.828h88.276
			c4.875,0,8.828,3.952,8.828,8.828S163.772,361.931,158.897,361.931z"/>
	</g>
</g>
<g>
</g>
<g>
</g>
<g>
</g>
<g>
</g>
<g>
</g>
<g>
</g>
<g>
</g>
<g>
</g>
<g>
</g>
<g>
</g>
<g>
</g>
<g>
</g>
<g>
</g>
<g>
</g>
<g>
</g>
</svg>
