<?xml version="1.0" encoding="iso-8859-1"?>
<!-- Generator: Adobe Illustrator 19.0.0, SVG Export Plug-In . SVG Version: 6.00 Build 0)  -->
<svg version="1.1" id="Capa_1" xmlns="http://www.w3.org/2000/svg" xmlns:xlink="http://www.w3.org/1999/xlink" x="0px" y="0px"
	 viewBox="0 0 512 512" style="enable-background:new 0 0 512 512;" xml:space="preserve">
<g>
	<path style="fill:#A5A5A4;" d="M114.759,0h282.483c4.875,0,8.828,3.952,8.828,8.828v326.621H105.931V8.828
		C105.931,3.952,109.883,0,114.759,0z"/>
	<g>
		<path style="fill:#5E5F62;" d="M194.207,308.966c-2.342,0.001-4.588-0.928-6.244-2.584c-1.656-1.656-2.585-3.902-2.584-6.244V256
			h-26.483c-4.875,0-8.828-3.952-8.828-8.828s3.952-8.828,8.828-8.828h35.31c2.342-0.001,4.588,0.928,6.244,2.584
			c1.656,1.656,2.585,3.902,2.584,6.244v52.966c0.001,2.342-0.928,4.588-2.584,6.244
			C198.795,308.037,196.549,308.967,194.207,308.966z"/>
		<path style="fill:#5E5F62;" d="M317.793,308.966c-2.342,0.001-4.588-0.928-6.243-2.584c-1.656-1.656-2.585-3.902-2.584-6.244
			v-52.966c-0.001-2.342,0.928-4.588,2.584-6.244c1.656-1.656,3.902-2.585,6.243-2.584h35.31c4.875,0,8.828,3.952,8.828,8.828
			S357.979,256,353.103,256h-26.483v44.138c0.001,2.342-0.928,4.588-2.584,6.244C322.381,308.037,320.135,308.967,317.793,308.966z"
			/>
	</g>
	<g>
		<path style="fill:#E4C05C;" d="M158.897,114.759h61.793c4.875,0,8.828,3.952,8.828,8.828v35.31c0,4.875-3.952,8.828-8.828,8.828
			h-61.793c-4.875,0-8.828-3.952-8.828-8.828v-35.31C150.069,118.711,154.021,114.759,158.897,114.759z"/>
		<path style="fill:#E4C05C;" d="M291.31,114.759h61.793c4.875,0,8.828,3.952,8.828,8.828v35.31c0,4.875-3.952,8.828-8.828,8.828
			H291.31c-4.875,0-8.828-3.952-8.828-8.828v-35.31C282.483,118.711,286.435,114.759,291.31,114.759z"/>
	</g>
	<path style="fill:#35495E;" d="M432.552,370.759c9.751,0,17.655,7.905,17.655,17.655s-7.905,17.655-17.655,17.655
		c9.751,0,17.655,7.904,17.655,17.655c0,9.751-7.905,17.655-17.655,17.655c9.751,0,17.655,7.905,17.655,17.655
		s-7.905,17.655-17.655,17.655c9.751,0,17.655,7.904,17.655,17.655S442.302,512,432.552,512H79.448
		c-9.751,0-17.655-7.905-17.655-17.655s7.904-17.655,17.655-17.655c-9.751,0-17.655-7.905-17.655-17.655s7.904-17.655,17.655-17.655
		c-9.751,0-17.655-7.904-17.655-17.655c0-9.751,7.904-17.655,17.655-17.655c-9.751,0-17.655-7.905-17.655-17.655
		s7.904-17.655,17.655-17.655c-9.751,0-17.655-7.904-17.655-17.655s7.904-17.655,17.655-17.655c-9.751,0-17.655-7.905-17.655-17.655
		s7.904-17.655,17.655-17.655h353.103c9.751,0,17.655,7.904,17.655,17.655s-7.905,17.655-17.655,17.655
		c9.751,0,17.655,7.905,17.655,17.655S442.302,370.759,432.552,370.759z"/>
	<g>
		<path style="fill:#84B5CB;" d="M203.034,450.207h-8.828v-97.103c-0.01-3.568-2.165-6.78-5.463-8.142
			c-3.298-1.362-7.091-0.608-9.617,1.912l-17.644,17.644c-2.264,2.223-3.16,5.49-2.348,8.556c0.812,3.067,3.207,5.462,6.274,6.274
			c3.067,0.812,6.333-0.085,8.556-2.348l2.586-2.586v75.794h-8.828c-4.875,0-8.828,3.952-8.828,8.828s3.952,8.828,8.828,8.828h35.31
			c4.875,0,8.828-3.952,8.828-8.828S207.91,450.207,203.034,450.207z"/>
		<path style="fill:#84B5CB;" d="M264.828,344.276h-17.655c-9.739,0.028-17.627,7.916-17.655,17.655v88.276
			c0.029,9.739,7.916,17.626,17.655,17.655h17.655c9.739-0.029,17.627-7.916,17.655-17.655v-88.276
			C282.454,352.192,274.566,344.304,264.828,344.276z M264.828,450.207h-17.655v-88.276h17.655V450.207z"/>
		<path style="fill:#84B5CB;" d="M335.448,344.276h-17.655c-9.739,0.028-17.627,7.916-17.655,17.655v88.276
			c0.029,9.739,7.916,17.626,17.655,17.655h17.655c9.739-0.029,17.627-7.916,17.655-17.655v-88.276
			C353.075,352.192,345.187,344.304,335.448,344.276z M335.448,450.207h-17.655v-88.276h17.655V450.207z"/>
	</g>
</g>
<g>
</g>
<g>
</g>
<g>
</g>
<g>
</g>
<g>
</g>
<g>
</g>
<g>
</g>
<g>
</g>
<g>
</g>
<g>
</g>
<g>
</g>
<g>
</g>
<g>
</g>
<g>
</g>
<g>
</g>
</svg>
