<?xml version="1.0" encoding="iso-8859-1"?>
<!-- Generator: Adobe Illustrator 19.0.0, SVG Export Plug-In . SVG Version: 6.00 Build 0)  -->
<svg version="1.1" id="Capa_1" xmlns="http://www.w3.org/2000/svg" xmlns:xlink="http://www.w3.org/1999/xlink" x="0px" y="0px"
	 viewBox="0 0 512 512" style="enable-background:new 0 0 512 512;" xml:space="preserve">
<g>
	<path style="fill:#4482C3;" d="M498.302,158.897c2.719,0.041,4.895,2.27,4.87,4.99v104.78c0.024,2.719-2.151,4.948-4.87,4.99
		h-54.488c-1.361-0.017-2.451-1.133-2.435-2.495v-12.666c0.016-1.361-1.074-2.478-2.435-2.495h-39.267
		c-1.361,0.017-2.451,1.133-2.435,2.495v15.16h-30.44c-2.719-0.041-4.895-2.27-4.87-4.99v-89.811l26.483-19.958H498.302z"/>
	<rect x="361.931" y="52.966" style="fill:#D1D4D1;" width="52.966" height="52.966"/>
	<path style="fill:#95A5A5;" d="M370.759,0v467.862c-0.009,24.373-19.765,44.129-44.138,44.138H0V0H370.759z"/>
	<g>
		<path style="fill:#7F8C8D;" d="M317.793,0v176.552c0.003,9.366-3.717,18.348-10.339,24.971
			c-6.623,6.623-15.605,10.342-24.971,10.339H0V0H317.793z"/>
		<path style="fill:#7F8C8D;" d="M0,476.69h52.966c9.751,0,17.655-7.905,17.655-17.655V264.828c0-9.751-7.904-17.655-17.655-17.655
			H0V476.69z"/>
	</g>
	<g>
		<path style="fill:#5E5F62;" d="M0,141.241h26.483c4.875,0,8.828,3.952,8.828,8.828v17.655c0,4.875-3.952,8.828-8.828,8.828H0
			V141.241z"/>
		<path style="fill:#5E5F62;" d="M79.448,141.241h17.655c4.875,0,8.828,3.952,8.828,8.828v17.655c0,4.875-3.952,8.828-8.828,8.828
			H79.448c-4.875,0-8.828-3.952-8.828-8.828v-17.655C70.621,145.194,74.573,141.241,79.448,141.241z"/>
		<path style="fill:#5E5F62;" d="M0,70.621h26.483c4.875,0,8.828,3.952,8.828,8.828v17.655c0,4.875-3.952,8.828-8.828,8.828H0
			V70.621z"/>
		<path style="fill:#5E5F62;" d="M79.448,70.621h17.655c4.875,0,8.828,3.952,8.828,8.828v17.655c0,4.875-3.952,8.828-8.828,8.828
			H79.448c-4.875,0-8.828-3.952-8.828-8.828V79.448C70.621,74.573,74.573,70.621,79.448,70.621z"/>
		<path style="fill:#5E5F62;" d="M35.31,0h35.31v26.483c0,4.875-3.952,8.828-8.828,8.828H44.138c-4.875,0-8.828-3.952-8.828-8.828V0
			z"/>
		<path style="fill:#5E5F62;" d="M105.931,0h35.31v26.483c0,4.875-3.952,8.828-8.828,8.828h-17.655
			c-4.875,0-8.828-3.952-8.828-8.828V0z"/>
		<path style="fill:#5E5F62;" d="M176.552,0h35.31v26.483c0,4.875-3.952,8.828-8.828,8.828h-17.655
			c-4.875,0-8.828-3.952-8.828-8.828V0z"/>
		<path style="fill:#5E5F62;" d="M247.172,0h35.31v26.483c0,4.875-3.952,8.828-8.828,8.828H256c-4.875,0-8.828-3.952-8.828-8.828V0z
			"/>
		<path style="fill:#5E5F62;" d="M150.069,70.621h17.655c4.875,0,8.828,3.952,8.828,8.828v17.655c0,4.875-3.952,8.828-8.828,8.828
			h-17.655c-4.875,0-8.828-3.952-8.828-8.828V79.448C141.241,74.573,145.194,70.621,150.069,70.621z"/>
		<path style="fill:#5E5F62;" d="M220.69,70.621h52.966c4.875,0,8.828,3.952,8.828,8.828v17.655c0,4.875-3.952,8.828-8.828,8.828
			H220.69c-4.875,0-8.828-3.952-8.828-8.828V79.448C211.862,74.573,215.814,70.621,220.69,70.621z"/>
		<path style="fill:#5E5F62;" d="M150.069,141.241h123.586c4.875,0,8.828,3.952,8.828,8.828v17.655c0,4.875-3.952,8.828-8.828,8.828
			H150.069c-4.875,0-8.828-3.952-8.828-8.828v-17.655C141.241,145.194,145.194,141.241,150.069,141.241z"/>
	</g>
	<path style="fill:#CC4B4C;" d="M406.069,44.138h70.621c19.501,0,35.31,15.809,35.31,35.31s-15.809,35.31-35.31,35.31h-70.621
		V44.138z"/>
</g>
<g>
</g>
<g>
</g>
<g>
</g>
<g>
</g>
<g>
</g>
<g>
</g>
<g>
</g>
<g>
</g>
<g>
</g>
<g>
</g>
<g>
</g>
<g>
</g>
<g>
</g>
<g>
</g>
<g>
</g>
</svg>
