<?xml version="1.0" encoding="iso-8859-1"?>
<!-- Generator: Adobe Illustrator 19.0.0, SVG Export Plug-In . SVG Version: 6.00 Build 0)  -->
<svg version="1.1" id="Capa_1" xmlns="http://www.w3.org/2000/svg" xmlns:xlink="http://www.w3.org/1999/xlink" x="0px" y="0px"
	 viewBox="0 0 503.359 503.359" style="enable-background:new 0 0 503.359 503.359;" xml:space="preserve">
<g transform="translate(-2)">
	<path style="fill:#A5A5A4;" d="M502.821,72.223l-22.389,22.476l-12.323,12.236l-84.87,84.61l-69.684-69.684l84.87-84.61
		l12.323-12.236l22.389-22.476c3.41-3.385,8.912-3.385,12.323,0L502.821,59.9C506.205,63.311,506.205,68.812,502.821,72.223z"/>
	<g>
		<path style="fill:#5E5F62;" d="M428.104,54.693c-3.388,3.356-8.847,3.356-12.236,0l-17.443-17.443l12.323-12.236l17.356,17.356
			C431.488,45.781,431.488,51.283,428.104,54.693z"/>
		<path style="fill:#5E5F62;" d="M480.432,94.699l-12.323,12.236l-17.443-17.443c-1.625-1.621-2.538-3.822-2.538-6.118
			c0-2.295,0.913-4.497,2.538-6.118c3.411-3.384,8.912-3.384,12.323,0L480.432,94.699z"/>
	</g>
	<path style="fill:#CC4B4C;" d="M239.768,370.082l191.078-191.078c4.797-4.809,4.787-12.596-0.022-17.393l-87.076-87.076
		c-4.797-4.809-12.584-4.819-17.393-0.022L135.278,265.591L239.768,370.082z"/>
	<path style="fill:#D1D4D1;" d="M248.291,257.015l0.052,0.052c28.84,28.84,28.84,75.599,0,104.439L116.658,493.191
		c-13.556,13.556-35.534,13.556-49.09,0L12.167,437.79c-13.556-13.556-13.556-35.534,0-49.09l131.685-131.685
		C172.692,228.175,219.451,228.175,248.291,257.015z"/>
	
		<ellipse transform="matrix(-0.7071 -0.7071 0.7071 -0.7071 116.3486 666.4881)" style="fill:#CC4B4C;" cx="196.208" cy="309.147" rx="24.628" ry="24.567"/>
</g>
<g>
</g>
<g>
</g>
<g>
</g>
<g>
</g>
<g>
</g>
<g>
</g>
<g>
</g>
<g>
</g>
<g>
</g>
<g>
</g>
<g>
</g>
<g>
</g>
<g>
</g>
<g>
</g>
<g>
</g>
</svg>
