<?xml version="1.0" encoding="iso-8859-1"?>
<!-- Generator: Adobe Illustrator 19.0.0, SVG Export Plug-In . SVG Version: 6.00 Build 0)  -->
<svg version="1.1" id="Capa_1" xmlns="http://www.w3.org/2000/svg" xmlns:xlink="http://www.w3.org/1999/xlink" x="0px" y="0px"
	 viewBox="0 0 512 512" style="enable-background:new 0 0 512 512;" xml:space="preserve">
<g>
	<path style="fill:#4482C3;" d="M512,97.103V70.621L406.069,0H105.931L0,70.621v26.483c0,4.875,3.952,8.828,8.828,8.828h79.448
		L0,353.103v88.276c0,19.501,15.809,35.31,35.31,35.31h26.483v26.483c0,4.875,3.952,8.828,8.828,8.828h370.759
		c4.875,0,8.828-3.952,8.828-8.828V476.69h26.483c19.501,0,35.31-15.809,35.31-35.31v-88.276l-88.276-247.172h79.448
		C508.048,105.931,512,101.979,512,97.103z"/>
	<path style="fill:#285680;" d="M61.793,476.69h388.414v26.483c0,4.875-3.952,8.828-8.828,8.828H70.621
		c-4.875,0-8.828-3.952-8.828-8.828V476.69z"/>
	<polygon style="fill:#D1D4D1;" points="512,353.103 423.724,105.931 88.276,105.931 0,353.103 	"/>
	<path style="fill:#A5A5A4;" d="M132.414,353.103h247.172v52.966c0,9.751-7.905,17.655-17.655,17.655H150.069
		c-9.751,0-17.655-7.904-17.655-17.655V353.103z"/>
	<path style="fill:#FFFFFF;" d="M203.034,353.103v35.31h-26.483c-4.875,0-8.828-3.952-8.828-8.828v-26.483H203.034z"/>
	<rect x="203.034" y="353.103" style="fill:#E6E7E8;" width="35.31" height="35.31"/>
	<rect x="238.345" y="353.103" style="fill:#FFFFFF;" width="35.31" height="35.31"/>
	<rect x="273.655" y="353.103" style="fill:#E6E7E8;" width="35.31" height="35.31"/>
	<path style="fill:#FFFFFF;" d="M344.276,353.103v26.483c0,4.875-3.952,8.828-8.828,8.828h-26.483v-35.31H344.276z"/>
	<path style="fill:#802F34;" d="M44.138,388.414h17.655c4.875,0,8.828,3.952,8.828,8.828v17.655c0,4.875-3.952,8.828-8.828,8.828
		H44.138c-4.875,0-8.828-3.952-8.828-8.828v-17.655C35.31,392.366,39.263,388.414,44.138,388.414z"/>
	<path style="fill:#90BAE1;" d="M54.317,305.996l56.75-158.897c1.255-3.513,4.583-5.858,8.313-5.858H392.62
		c3.731,0,7.059,2.345,8.313,5.858l56.75,158.897c0.966,2.703,0.556,5.708-1.097,8.054c-1.654,2.347-4.345,3.743-7.216,3.743H62.63
		c-2.871,0-5.562-1.396-7.216-3.743C53.76,311.704,53.351,308.7,54.317,305.996z"/>
	<g>
		<path style="fill:#B0D3F0;" d="M123.595,220.69c-3.891,0.003-7.326-2.542-8.455-6.265c-1.129-3.724,0.313-7.748,3.55-9.907
			l26.483-17.655c4.054-2.643,9.481-1.529,12.166,2.498c2.685,4.027,1.626,9.465-2.373,12.191l-26.483,17.655
			C127.036,220.173,125.335,220.689,123.595,220.69z"/>
		<path style="fill:#B0D3F0;" d="M176.552,185.379c-2.952,0.028-5.72-1.436-7.358-3.892c-1.638-2.456-1.927-5.573-0.767-8.289
			c0.448-1.07,1.076-2.056,1.857-2.914c2.063-2.143,5.078-3.084,7.994-2.493s5.327,2.63,6.394,5.407
			c1.163,2.714,0.876,5.832-0.762,8.289C182.272,183.944,179.505,185.408,176.552,185.379z"/>
		<path style="fill:#B0D3F0;" d="M114.767,264.828c-3.864,0.005-7.281-2.504-8.435-6.191c-1.154-3.687,0.224-7.697,3.401-9.895
			l114.759-79.448c4.009-2.764,9.498-1.76,12.27,2.243c2.772,4.003,1.779,9.495-2.218,12.274l-114.759,79.448
			C118.311,264.281,116.561,264.828,114.767,264.828z"/>
	</g>
	<path style="fill:#802F34;" d="M476.69,414.897c-1.155-0.014-2.296-0.254-3.358-0.707c-2.215-0.807-3.96-2.552-4.767-4.767
		c-0.451-1.061-0.69-2.201-0.703-3.354c0.014-0.564,0.073-1.126,0.177-1.681c0.081-0.583,0.259-1.148,0.526-1.672
		c0.194-0.565,0.462-1.101,0.797-1.595l1.06-1.319c2.535-2.509,6.334-3.241,9.621-1.854c1.08,0.427,2.069,1.056,2.914,1.854
		c0.379,0.417,0.732,0.858,1.056,1.319c0.335,0.494,0.604,1.03,0.797,1.595c0.266,0.525,0.445,1.09,0.53,1.672
		c0.102,0.555,0.161,1.117,0.177,1.681c-0.014,1.153-0.254,2.293-0.707,3.353c-0.45,1.068-1.077,2.053-1.854,2.914
		c-0.859,0.779-1.844,1.406-2.914,1.854C478.982,414.642,477.843,414.882,476.69,414.897z"/>
	<path style="fill:#46B29D;" d="M441.379,414.897c-1.155-0.014-2.296-0.254-3.358-0.707c-2.215-0.807-3.96-2.552-4.767-4.767
		c-0.492-1.048-0.732-2.196-0.703-3.354c0.014-0.564,0.073-1.126,0.177-1.681c0.081-0.583,0.259-1.148,0.526-1.672
		c0.194-0.565,0.462-1.101,0.797-1.595l1.06-1.319c2.54-2.501,6.333-3.232,9.621-1.854c1.07,0.448,2.055,1.074,2.914,1.854
		c0.353,0.44,0.707,0.879,1.056,1.319c0.335,0.494,0.604,1.03,0.797,1.595c0.266,0.525,0.445,1.09,0.53,1.672
		c0.102,0.555,0.161,1.117,0.177,1.681c-0.014,1.153-0.254,2.293-0.707,3.353c-0.45,1.068-1.077,2.053-1.854,2.914
		c-0.859,0.779-1.844,1.406-2.914,1.854C443.672,414.642,442.532,414.882,441.379,414.897z"/>
	<path style="fill:#4482C3;" d="M512,70.621v26.483c0,4.875-3.952,8.828-8.828,8.828H8.828c-4.875,0-8.828-3.952-8.828-8.828V70.621
		H512z"/>
	<polygon style="fill:#285680;" points="512,70.621 0,70.621 105.931,0 406.069,0 	"/>
</g>
<g>
</g>
<g>
</g>
<g>
</g>
<g>
</g>
<g>
</g>
<g>
</g>
<g>
</g>
<g>
</g>
<g>
</g>
<g>
</g>
<g>
</g>
<g>
</g>
<g>
</g>
<g>
</g>
<g>
</g>
</svg>
