<?xml version="1.0" encoding="iso-8859-1"?>
<!-- Generator: Adobe Illustrator 19.0.0, SVG Export Plug-In . SVG Version: 6.00 Build 0)  -->
<svg version="1.1" id="Capa_1" xmlns="http://www.w3.org/2000/svg" xmlns:xlink="http://www.w3.org/1999/xlink" x="0px" y="0px"
	 viewBox="0 0 512 512" style="enable-background:new 0 0 512 512;" xml:space="preserve">
<g>
	<path style="fill:#A5A5A4;" d="M97.103,79.448v70.621h-35.31c-4.869-0.015-8.813-3.958-8.828-8.828V70.621h35.31
		C93.145,70.635,97.089,74.579,97.103,79.448z"/>
	<path style="fill:#2980BA;" d="M432.552,185.379v26.483c0.015,4.869,3.958,8.813,8.828,8.828h8.828
		c4.869,0.015,8.813,3.958,8.828,8.828v264.828c-0.029,9.739-7.916,17.627-17.655,17.655H70.621
		c-9.739-0.029-17.627-7.916-17.655-17.655V229.517c0.015-4.869,3.958-8.813,8.828-8.828h17.655
		c4.869-0.015,8.813-3.958,8.828-8.828V88.276c-0.015-4.869-3.958-8.813-8.828-8.828H52.966V17.655
		C52.994,7.916,60.882,0.028,70.621,0h317.793l70.621,70.621v97.103c-0.015,4.869-3.958,8.813-8.828,8.828h-8.828
		C436.51,176.566,432.566,180.51,432.552,185.379z"/>
	<path style="fill:#CC4B4C;" d="M388.414,70.621v44.138H123.586l0-44.138c-0.009-7.027,2.778-13.768,7.746-18.736
		c4.969-4.969,11.71-7.756,18.736-7.746h211.862c7.027-0.009,13.768,2.778,18.737,7.746
		C385.636,56.853,388.423,63.594,388.414,70.621z"/>
	<path style="fill:#3B97D3;" d="M388.414,114.759v300.138c0.009,7.027-2.778,13.768-7.746,18.737
		c-4.969,4.969-11.71,7.756-18.737,7.746H150.069c-7.027,0.009-13.768-2.778-18.736-7.746c-4.969-4.969-7.756-11.71-7.746-18.737
		l0-300.138H388.414z"/>
	<path style="fill:#E6E7E8;" d="M176.552,344.276h158.897c9.751,0,17.655,7.905,17.655,17.655v26.483
		c0,9.751-7.905,17.655-17.655,17.655H176.552c-9.751,0-17.655-7.905-17.655-17.655v-26.483
		C158.897,352.18,166.801,344.276,176.552,344.276z"/>
	<path style="fill:#285680;" d="M353.103,485.517H158.897c-4.875,0-8.828-3.952-8.828-8.828s3.952-8.828,8.828-8.828h194.207
		c4.875,0,8.828,3.952,8.828,8.828S357.979,485.517,353.103,485.517z"/>
	<g>
		<path style="fill:#D1D4D1;" d="M247.172,88.276h-88.276c-4.875,0-8.828-3.952-8.828-8.828c0-4.875,3.952-8.828,8.828-8.828h88.276
			c4.875,0,8.828,3.952,8.828,8.828C256,84.324,252.048,88.276,247.172,88.276z"/>
		<path style="fill:#D1D4D1;" d="M308.966,88.276h-26.483c-4.875,0-8.828-3.952-8.828-8.828c0-4.875,3.952-8.828,8.828-8.828h26.483
			c4.875,0,8.828,3.952,8.828,8.828C317.793,84.324,313.841,88.276,308.966,88.276z"/>
		<path style="fill:#D1D4D1;" d="M353.103,88.276h-8.828c-4.875,0-8.828-3.952-8.828-8.828c0-4.875,3.952-8.828,8.828-8.828h8.828
			c4.875,0,8.828,3.952,8.828,8.828C361.931,84.324,357.979,88.276,353.103,88.276z"/>
		<path style="fill:#D1D4D1;" d="M211.862,194.207c-2.341,0.001-4.587-0.929-6.243-2.585c-1.656-1.656-2.585-3.901-2.585-6.243
			v-17.655c0-4.875-3.952-8.828-8.828-8.828s-8.828,3.952-8.828,8.828v17.655c0,4.875-3.952,8.828-8.828,8.828
			c-4.875,0-8.828-3.952-8.828-8.828v-17.655c0-14.626,11.857-26.483,26.483-26.483s26.483,11.857,26.483,26.483v17.655
			c0.001,2.341-0.929,4.587-2.585,6.243C216.449,193.278,214.203,194.208,211.862,194.207z"/>
	</g>
	<rect x="158.897" y="185.379" style="fill:#E6E7E8;" width="70.621" height="44.138"/>
</g>
<g>
</g>
<g>
</g>
<g>
</g>
<g>
</g>
<g>
</g>
<g>
</g>
<g>
</g>
<g>
</g>
<g>
</g>
<g>
</g>
<g>
</g>
<g>
</g>
<g>
</g>
<g>
</g>
<g>
</g>
</svg>
