<?xml version="1.0" encoding="iso-8859-1"?>
<!-- Generator: Adobe Illustrator 19.0.0, SVG Export Plug-In . SVG Version: 6.00 Build 0)  -->
<svg version="1.1" id="Capa_1" xmlns="http://www.w3.org/2000/svg" xmlns:xlink="http://www.w3.org/1999/xlink" x="0px" y="0px"
	 viewBox="0 0 512 512" style="enable-background:new 0 0 512 512;" xml:space="preserve">
<g>
	<g>
		<path style="fill:#35495E;" d="M229.517,167.724v247.172c-0.015,4.869-3.958,8.813-8.828,8.828h-61.793v44.138
			c-0.015,4.869-3.958,8.813-8.828,8.828h-17.655v26.483c-0.015,4.869-3.958,8.813-8.828,8.828h-17.655
			c-4.869-0.015-8.813-3.958-8.828-8.828V476.69H79.448c-4.869-0.015-8.813-3.958-8.828-8.828v-44.138H8.828
			c-4.869-0.015-8.813-3.958-8.828-8.828V167.724c0.015-4.869,3.958-8.813,8.828-8.828H220.69
			C225.559,158.911,229.503,162.855,229.517,167.724z"/>
		<path style="fill:#35495E;" d="M97.103,476.69h35.31v26.483c0,4.875-3.952,8.828-8.828,8.828h-17.655
			c-4.875,0-8.828-3.952-8.828-8.828V476.69z"/>
	</g>
	<path style="fill:#A5A5A4;" d="M326.621,0h141.241c9.751,0,17.655,7.904,17.655,17.655v141.241H308.966V17.655
		C308.966,7.904,316.87,0,326.621,0z"/>
	<path style="fill:#2C3E50;" d="M70.621,423.724h88.276v44.138c0,4.875-3.952,8.828-8.828,8.828H79.448
		c-4.875,0-8.828-3.952-8.828-8.828V423.724z"/>
	<g>
		<path style="fill:#35495E;" d="M512,167.724v247.172c-0.015,4.869-3.958,8.813-8.828,8.828h-61.793v44.138
			c-0.015,4.869-3.958,8.813-8.828,8.828h-17.655v26.483c-0.015,4.869-3.958,8.813-8.828,8.828h-17.655
			c-4.869-0.015-8.813-3.958-8.828-8.828V476.69h-17.655c-4.869-0.015-8.813-3.958-8.828-8.828v-44.138H291.31
			c-4.869-0.015-8.813-3.958-8.828-8.828V167.724c0.015-4.869,3.958-8.813,8.828-8.828h211.862
			C508.042,158.911,511.985,162.855,512,167.724z"/>
		<path style="fill:#35495E;" d="M379.586,476.69h35.31v26.483c0,4.875-3.952,8.828-8.828,8.828h-17.655
			c-4.875,0-8.828-3.952-8.828-8.828V476.69z"/>
	</g>
	<path style="fill:#2C3E50;" d="M353.103,423.724h88.276v44.138c0,4.875-3.952,8.828-8.828,8.828h-70.621
		c-4.875,0-8.828-3.952-8.828-8.828V423.724z"/>
	<path style="fill:#A5A5A4;" d="M44.138,0h141.241c9.751,0,17.655,7.904,17.655,17.655v141.241H26.483V17.655
		C26.483,7.904,34.387,0,44.138,0z"/>
	<g>
		<path style="fill:#E6E7E8;" d="M438.717,326.621h-31.566c-4.258,0-7.91,3.04-8.681,7.228l-8.724,47.338
			c-0.772,4.188-4.423,7.228-8.681,7.228h-26.368c-2.595,0-5.058-1.142-6.736-3.122c-1.677-1.98-2.398-4.598-1.972-7.157
			l14.713-88.276c0.709-4.257,4.392-7.376,8.708-7.376h23.27c4.314,0,7.996-3.118,8.707-7.374l13.511-80.902l32.35,121.312
			c0.707,2.65,0.141,5.478-1.529,7.653S441.459,326.621,438.717,326.621z"/>
		<path style="fill:#E6E7E8;" d="M156.234,326.621h-31.566c-4.258,0-7.91,3.04-8.681,7.228l-8.724,47.338
			c-0.772,4.188-4.423,7.228-8.681,7.228H72.214c-2.595,0-5.058-1.142-6.736-3.122c-1.677-1.98-2.398-4.598-1.972-7.157
			l14.713-88.276c0.709-4.257,4.392-7.376,8.708-7.376h23.27c4.314,0,7.996-3.118,8.707-7.374l13.511-80.902l32.35,121.312
			c0.707,2.65,0.142,5.478-1.529,7.653C161.563,325.346,158.977,326.621,156.234,326.621z"/>
	</g>
</g>
<g>
</g>
<g>
</g>
<g>
</g>
<g>
</g>
<g>
</g>
<g>
</g>
<g>
</g>
<g>
</g>
<g>
</g>
<g>
</g>
<g>
</g>
<g>
</g>
<g>
</g>
<g>
</g>
<g>
</g>
</svg>
