<?xml version="1.0" encoding="iso-8859-1"?>
<!-- Generator: Adobe Illustrator 19.0.0, SVG Export Plug-In . SVG Version: 6.00 Build 0)  -->
<svg version="1.1" id="Capa_1" xmlns="http://www.w3.org/2000/svg" xmlns:xlink="http://www.w3.org/1999/xlink" x="0px" y="0px"
	 viewBox="0 0 512 512" style="enable-background:new 0 0 512 512;" xml:space="preserve">
<g>
	<path style="fill:#35495E;" d="M53.332,0h405.336c29.252,0,52.966,23.713,52.966,52.966v406.069
		c0,29.252-23.713,52.966-52.966,52.966H53.332c-29.252,0-52.966-23.713-52.966-52.966V52.966C0.366,23.713,24.08,0,53.332,0z"/>
	<path style="fill:#7F8C8D;" d="M450.202,132.414v206.149c0,3.714-1.171,7.333-3.347,10.343l-42.419,58.679
		c-3.32,4.592-8.642,7.312-14.308,7.312H121.863c-5.666,0-10.988-2.72-14.308-7.312l-42.419-58.679
		c-2.176-3.01-3.347-6.629-3.347-10.343V132.414c0-19.501,15.809-35.31,35.31-35.31h317.793
		C434.394,97.103,450.202,112.912,450.202,132.414z"/>
	<path style="fill:#A5A5A4;" d="M127.108,372.765l-26.294-33.834c-2.408-3.098-3.715-6.91-3.715-10.834V150.069
		c0-9.751,7.904-17.655,17.655-17.655h282.483c9.751,0,17.655,7.904,17.655,17.655v178.028c0,3.924-1.307,7.736-3.715,10.834
		l-26.294,33.834c-3.345,4.304-8.49,6.821-13.94,6.821H141.048C135.598,379.586,130.453,377.069,127.108,372.765z"/>
	<rect x="203.03" y="344.276" style="fill:#5E5F62;" width="105.931" height="35.31"/>
	<path style="fill:#E6E7E8;" d="M141.237,194.207h229.517c4.875,0,8.828,3.952,8.828,8.828v44.138c0,4.875-3.952,8.828-8.828,8.828
		H141.237c-4.875,0-8.828-3.952-8.828-8.828v-44.138C132.409,198.159,136.362,194.207,141.237,194.207z"/>
</g>
<g>
</g>
<g>
</g>
<g>
</g>
<g>
</g>
<g>
</g>
<g>
</g>
<g>
</g>
<g>
</g>
<g>
</g>
<g>
</g>
<g>
</g>
<g>
</g>
<g>
</g>
<g>
</g>
<g>
</g>
</svg>
