<?xml version="1.0" encoding="iso-8859-1"?>
<!-- Generator: Adobe Illustrator 19.0.0, SVG Export Plug-In . SVG Version: 6.00 Build 0)  -->
<svg version="1.1" id="Capa_1" xmlns="http://www.w3.org/2000/svg" xmlns:xlink="http://www.w3.org/1999/xlink" x="0px" y="0px"
	 viewBox="0 0 512 512" style="enable-background:new 0 0 512 512;" xml:space="preserve">
<g>
	<path style="fill:#A5A5A4;" d="M53.332,0h405.336c29.252,0,52.966,23.713,52.966,52.966v406.069
		c0,29.252-23.713,52.966-52.966,52.966H53.332c-29.252,0-52.966-23.713-52.966-52.966V52.966C0.366,23.713,24.08,0,53.332,0z"/>
	<circle style="fill:#547580;" cx="255.634" cy="326.621" r="150.069"/>
	<path style="fill:#3F5C6C;" d="M370.392,326.621c0.031,3.154-0.116,6.308-0.441,9.445c-4.943-49.788-54.201-88.894-114.317-88.894
		s-109.374,39.106-114.317,88.894c-0.325-3.138-0.473-6.291-0.441-9.445c0-63.379,51.379-114.759,114.759-114.759
		S370.392,263.241,370.392,326.621z"/>
	<path style="fill:#2C3E50;" d="M369.951,336.066v0.088c-4.934,59.471-54.641,105.225-114.317,105.225
		s-109.383-45.754-114.317-105.225v-0.088c4.943-49.788,54.2-88.894,114.316-88.894S365.007,286.279,369.951,336.066z"/>
	<path style="fill:#FFFFFF;" d="M299.772,105.931c-2.341,0.001-4.587-0.929-6.243-2.585c-1.656-1.656-2.585-3.901-2.585-6.243
		V79.448c0-19.47-12.543-35.31-27.957-35.31H248.28c-15.414,0-27.957,15.84-27.957,35.31v17.655c0,4.875-3.952,8.828-8.828,8.828
		s-8.828-3.952-8.828-8.828V79.448c0-29.207,20.466-52.966,45.612-52.966h14.707c25.147,0,45.612,23.759,45.612,52.966v17.655
		c0.001,2.341-0.929,4.587-2.585,6.243C304.359,105.002,302.113,105.932,299.772,105.931z"/>
	<g>
		<path style="fill:#E6E7E8;" d="M202.668,97.103h17.655c4.875,0,8.828,3.952,8.828,8.828v26.483c0,4.875-3.952,8.828-8.828,8.828
			h-17.655c-4.875,0-8.828-3.952-8.828-8.828v-26.483C193.841,101.056,197.793,97.103,202.668,97.103z"/>
		<path style="fill:#E6E7E8;" d="M290.944,97.103h17.655c4.875,0,8.828,3.952,8.828,8.828v26.483c0,4.875-3.952,8.828-8.828,8.828
			h-17.655c-4.875,0-8.828-3.952-8.828-8.828v-26.483C282.116,101.056,286.069,97.103,290.944,97.103z"/>
	</g>
</g>
<g>
</g>
<g>
</g>
<g>
</g>
<g>
</g>
<g>
</g>
<g>
</g>
<g>
</g>
<g>
</g>
<g>
</g>
<g>
</g>
<g>
</g>
<g>
</g>
<g>
</g>
<g>
</g>
<g>
</g>
</svg>
