<?xml version="1.0" encoding="iso-8859-1"?>
<!-- Generator: Adobe Illustrator 19.0.0, SVG Export Plug-In . SVG Version: 6.00 Build 0)  -->
<svg version="1.1" id="Capa_1" xmlns="http://www.w3.org/2000/svg" xmlns:xlink="http://www.w3.org/1999/xlink" x="0px" y="0px"
	 viewBox="0 0 512 512" style="enable-background:new 0 0 512 512;" xml:space="preserve">
<g>
	<path style="fill:#BDC3C7;" d="M512,238.345V17.655C512,7.904,504.095,0,494.345,0H17.655C7.904,0,0,7.904,0,17.655v220.69
		C0,248.096,7.904,256,17.655,256C7.904,256,0,263.904,0,273.655v220.69C0,504.095,7.904,512,17.655,512h476.69
		c9.751,0,17.655-7.905,17.655-17.655v-220.69c0-9.751-7.905-17.655-17.655-17.655C504.095,256,512,248.096,512,238.345z"/>
	<path style="fill:#95A5A5;" d="M17.655,256h476.69c9.751,0,17.655,7.904,17.655,17.655v220.69c0,9.751-7.905,17.655-17.655,17.655
		H17.655C7.904,512,0,504.095,0,494.345v-220.69C0,263.904,7.904,256,17.655,256z"/>
	<circle style="fill:#CC66A1;" cx="361.931" cy="388.414" r="79.448"/>
	<circle style="fill:#804169;" cx="361.931" cy="388.414" r="44.138"/>
	<circle style="fill:#4482C3;" cx="361.931" cy="123.586" r="79.448"/>
	<g>
		<path style="fill:#E6E7E8;" d="M141.683,347.542c7.613-2.23,15.752-1.858,23.128,1.059c2.933,1.167,6.266,0.68,8.743-1.276
			s3.722-5.086,3.266-8.21s-2.544-5.767-5.477-6.933c-10.974-4.355-23.082-4.945-34.428-1.677
			c-17.386,4.922-30.961,18.53-35.84,35.928c-3.34,11.33-2.781,23.453,1.589,34.428c1.348,3.353,4.596,5.553,8.21,5.561
			c1.119,0.009,2.228-0.201,3.266-0.618c4.528-1.81,6.739-6.942,4.943-11.476c-2.915-7.377-3.288-15.515-1.059-23.128
			C121.355,359.792,130.275,350.872,141.683,347.542z"/>
		<path style="fill:#E6E7E8;" d="M82.008,371.641c4.542-31.094,28.94-55.529,60.028-60.116c16.506-2.364,33.314,1.236,47.404,10.152
			c2.649,1.703,6.006,1.863,8.805,0.421c2.799-1.443,4.617-4.269,4.767-7.415c0.15-3.146-1.389-6.133-4.038-7.836
			c-17.568-11.24-38.583-15.813-59.233-12.888c-38.952,5.761-69.539,36.347-75.299,75.299c-2.921,20.61,1.619,41.586,12.8,59.145
			c1.62,2.583,4.455,4.15,7.503,4.149c1.666,0.01,3.296-0.483,4.679-1.412c1.988-1.222,3.399-3.195,3.914-5.471
			c0.515-2.276,0.09-4.664-1.178-6.623C83.261,404.948,79.663,388.147,82.008,371.641z"/>
		<path style="fill:#E6E7E8;" d="M244.612,461.594l-46.521-46.521c3.263-5.373,4.974-11.545,4.943-17.832
			c0-19.501-15.809-35.31-35.31-35.31s-35.31,15.809-35.31,35.31c0,19.501,15.809,35.31,35.31,35.31
			c6.286,0.03,12.458-1.681,17.832-4.943l46.521,46.521c3.481,3.414,9.054,3.414,12.535,0
			C248.055,470.66,248.055,465.064,244.612,461.594z M180.171,409.688l-0.088,0.088c-3.269,3.291-7.72,5.135-12.359,5.12
			c-9.751,0-17.655-7.904-17.655-17.655c0-9.751,7.904-17.655,17.655-17.655s17.655,7.904,17.655,17.655
			C185.404,401.925,183.524,406.418,180.171,409.688z"/>
		<path style="fill:#E6E7E8;" d="M141.241,70.621c-21.043,0.049-40.083,12.485-48.586,31.733c-1.969,4.455,0.043,9.663,4.496,11.637
			c4.453,1.974,9.663-0.032,11.642-4.482c5.635-12.897,18.374-21.233,32.448-21.233s26.813,8.336,32.448,21.233
			c1.979,4.45,7.19,6.456,11.642,4.482c4.453-1.974,6.465-7.182,4.496-11.637C181.325,83.105,162.284,70.669,141.241,70.621z"/>
		<path style="fill:#E6E7E8;" d="M61.776,114.539c2.285,0.526,4.685,0.119,6.668-1.13s3.388-3.238,3.901-5.525
			c7.349-32.132,35.934-54.918,68.897-54.918s61.547,22.786,68.897,54.918c1.09,4.743,5.813,7.71,10.559,6.634
			c4.746-1.076,7.727-5.789,6.665-10.539c-9.176-40.175-44.911-68.668-86.121-68.668s-76.945,28.493-86.121,68.668
			C54.044,108.732,57.023,113.459,61.776,114.539z"/>
		<path style="fill:#E6E7E8;" d="M220.707,132.634c-2.285-0.527-4.685-0.121-6.669,1.128c-1.984,1.249-3.388,3.239-3.9,5.527
			c-6.767,28.838-30.696,50.464-60.069,54.289V175.74c17.595-2.998,32.521-14.605,39.759-30.92
			c1.969-4.455-0.043-9.663-4.496-11.637s-9.663,0.032-11.642,4.482c-4.412,9.925-13.107,17.299-23.621,20.029v-25.279
			c3.57-0.001,6.788-2.152,8.154-5.45c1.366-3.298,0.611-7.094-1.913-9.619l-8.828-8.828c-0.079-0.079-0.187-0.103-0.269-0.179
			c-0.753-0.73-1.631-1.318-2.593-1.735l-0.031-0.007c-0.078-0.032-0.162-0.03-0.24-0.06c-0.885-0.327-1.818-0.508-2.761-0.538
			c-0.313-0.001-0.625,0.014-0.936,0.047c-0.729,0.049-1.449,0.189-2.143,0.417c-0.304,0.089-0.602,0.195-0.894,0.317
			c-0.97,0.416-1.856,1.005-2.615,1.737l-8.828,8.828c-2.524,2.525-3.279,6.321-1.913,9.619c1.366,3.298,4.584,5.449,8.154,5.45
			v25.279c-10.513-2.73-19.209-10.103-23.621-20.029c-1.979-4.45-7.19-6.456-11.642-4.482s-6.465,7.182-4.496,11.637
			c7.238,16.315,22.164,27.923,39.759,30.921v17.838c-29.373-3.825-53.302-25.451-60.069-54.289
			c-1.09-4.743-5.813-7.71-10.559-6.634c-4.746,1.076-7.727,5.789-6.665,10.539c8.28,37.071,39.48,64.599,77.293,68.197v9.298
			c0,4.875,3.952,8.828,8.828,8.828s8.828-3.952,8.828-8.828v-9.298c37.813-3.598,69.014-31.127,77.293-68.198
			C228.439,138.44,225.46,133.714,220.707,132.634z"/>
	</g>
	<circle style="fill:#3F5C6C;" cx="361.931" cy="123.586" r="44.138"/>
</g>
<g>
</g>
<g>
</g>
<g>
</g>
<g>
</g>
<g>
</g>
<g>
</g>
<g>
</g>
<g>
</g>
<g>
</g>
<g>
</g>
<g>
</g>
<g>
</g>
<g>
</g>
<g>
</g>
<g>
</g>
</svg>
