<?xml version="1.0" encoding="iso-8859-1"?>
<!-- Generator: Adobe Illustrator 19.0.0, SVG Export Plug-In . SVG Version: 6.00 Build 0)  -->
<svg version="1.1" id="Capa_1" xmlns="http://www.w3.org/2000/svg" xmlns:xlink="http://www.w3.org/1999/xlink" x="0px" y="0px"
	 viewBox="0 0 512 512" style="enable-background:new 0 0 512 512;" xml:space="preserve">
<g>
	<path style="fill:#41767F;" d="M494.345,114.759c0.029,9.739,7.916,17.627,17.655,17.655v370.759
		c-0.015,4.869-3.958,8.813-8.828,8.828H8.828c-4.869-0.015-8.813-3.958-8.828-8.828V132.414c9.751,0,17.655-7.904,17.655-17.655
		S9.751,97.103,0,97.103V8.828C0.015,3.958,3.958,0.015,8.828,0h494.345c4.869,0.015,8.813,3.958,8.828,8.828v88.276
		C502.261,97.132,494.373,105.02,494.345,114.759z"/>
	<g>
		<path style="fill:#E4C05C;" d="M35.31,44.138c-2.348,0.023-4.607-0.9-6.267-2.56c-1.66-1.66-2.583-3.919-2.56-6.267
			c-0.021-3.586,2.13-6.829,5.442-8.204c3.312-1.375,7.127-0.61,9.653,1.937c3.414,3.481,3.414,9.054,0,12.535
			C39.885,43.189,37.647,44.103,35.31,44.138z"/>
		<path style="fill:#E4C05C;" d="M35.31,485.517c-3.569-0.014-6.782-2.168-8.151-5.465c-1.369-3.297-0.626-7.092,1.883-9.631
			c0.827-0.818,1.819-1.451,2.909-1.858c2.151-0.879,4.561-0.879,6.711,0c1.081,0.428,2.07,1.059,2.915,1.858
			c1.611,1.693,2.525,3.931,2.56,6.268c-0.014,1.153-0.254,2.293-0.707,3.353c-0.449,1.069-1.076,2.054-1.854,2.914
			C39.884,484.568,37.647,485.482,35.31,485.517z"/>
		<path style="fill:#E4C05C;" d="M476.69,44.138c-2.337-0.035-4.575-0.949-6.268-2.56c-0.378-0.421-0.732-0.862-1.06-1.323
			c-0.336-0.492-0.603-1.027-0.793-1.591c-0.255-0.501-0.435-1.037-0.535-1.59c-0.1-0.583-0.157-1.172-0.172-1.763
			c0.015-0.562,0.072-1.123,0.172-1.677c0.086-0.586,0.266-1.153,0.534-1.681c0.191-0.562,0.458-1.096,0.793-1.586
			c0.326-0.463,0.68-0.905,1.06-1.324c3.539-3.267,8.995-3.267,12.534,0c0.353,0.44,0.707,0.879,1.06,1.323
			c0.331,0.492,0.598,1.026,0.793,1.586c0.269,0.526,0.447,1.095,0.526,1.681c0.107,0.553,0.168,1.114,0.181,1.677
			c-0.013,0.592-0.074,1.181-0.181,1.763c-0.093,0.554-0.27,1.09-0.526,1.59c-0.194,0.562-0.461,1.097-0.793,1.591
			c-0.353,0.44-0.707,0.879-1.06,1.323C481.263,43.188,479.026,44.102,476.69,44.138z"/>
		<path style="fill:#E4C05C;" d="M476.69,485.517c-2.348,0.023-4.607-0.9-6.267-2.56c-1.66-1.661-2.583-3.919-2.56-6.267
			c-0.033-1.159,0.21-2.31,0.707-3.358c0.426-1.08,1.055-2.067,1.854-2.909c3.539-3.267,8.995-3.267,12.534,0
			c0.799,0.842,1.428,1.83,1.854,2.909c0.453,1.062,0.693,2.203,0.706,3.358c0.023,2.348-0.9,4.607-2.56,6.267
			C481.296,484.617,479.038,485.54,476.69,485.517z"/>
	</g>
	<path style="fill:#D1D4D1;" d="M450.207,88.276v335.448c0,14.626-11.857,26.483-26.483,26.483H348.69
		c-12.188,0-22.069-9.881-22.069-22.069c0-12.188-9.881-22.069-22.069-22.069h-97.103c-12.188,0-22.069,9.881-22.069,22.069
		c0,12.188-9.881,22.069-22.069,22.069H88.276c-14.626,0-26.483-11.857-26.483-26.483V88.276c0-14.626,11.857-26.483,26.483-26.483
		h335.448C438.35,61.793,450.207,73.65,450.207,88.276z"/>
	<path style="fill:#E6E7E8;" d="M114.759,97.103h282.483c9.751,0,17.655,7.904,17.655,17.655v273.655
		c0,9.751-7.904,17.655-17.655,17.655H114.759c-9.751,0-17.655-7.905-17.655-17.655V114.759
		C97.103,105.008,105.008,97.103,114.759,97.103z"/>
	<g>
		<path style="fill:#A5A5A4;" d="M256,247.172c-44.552,0-79.448-23.267-79.448-52.966s34.897-52.966,79.448-52.966
			s79.448,23.267,79.448,52.966c0,4.875-3.952,8.828-8.828,8.828s-8.828-3.952-8.828-8.828c0-19.142-28.297-35.31-61.793-35.31
			s-61.793,16.168-61.793,35.31s28.297,35.31,61.793,35.31c4.875,0,8.828,3.952,8.828,8.828
			C264.828,243.22,260.875,247.172,256,247.172z"/>
		<path style="fill:#A5A5A4;" d="M167.724,308.966h176.552c9.751,0,17.655,7.905,17.655,17.655l0,0
			c0,9.751-7.905,17.655-17.655,17.655H167.724c-9.751,0-17.655-7.904-17.655-17.655l0,0
			C150.069,316.87,157.973,308.966,167.724,308.966z"/>
	</g>
</g>
<g>
</g>
<g>
</g>
<g>
</g>
<g>
</g>
<g>
</g>
<g>
</g>
<g>
</g>
<g>
</g>
<g>
</g>
<g>
</g>
<g>
</g>
<g>
</g>
<g>
</g>
<g>
</g>
<g>
</g>
</svg>
