<?xml version="1.0" encoding="iso-8859-1"?>
<!-- Generator: Adobe Illustrator 19.0.0, SVG Export Plug-In . SVG Version: 6.00 Build 0)  -->
<svg version="1.1" id="Capa_1" xmlns="http://www.w3.org/2000/svg" xmlns:xlink="http://www.w3.org/1999/xlink" x="0px" y="0px"
	 viewBox="0 0 512 512" style="enable-background:new 0 0 512 512;" xml:space="preserve">
<g>
	<path style="fill:#4FBA6F;" d="M512,17.655v476.69c0,9.751-7.905,17.655-17.655,17.655h-79.448c0-9.751-7.904-17.655-17.655-17.655
		c-9.751,0-17.655,7.905-17.655,17.655H17.655C7.904,512,0,504.095,0,494.345V17.655C0,7.904,7.904,0,17.655,0h361.931
		c0,9.751,7.904,17.655,17.655,17.655c9.751,0,17.655-7.904,17.655-17.655h79.448C504.095,0,512,7.904,512,17.655z"/>
	<path style="fill:#5E5F62;" d="M167.724,167.724h176.552c4.875,0,8.828,3.952,8.828,8.828v158.897c0,4.875-3.952,8.828-8.828,8.828
		H167.724c-4.875,0-8.828-3.952-8.828-8.828V176.552C158.897,171.676,162.849,167.724,167.724,167.724z"/>
	<g>
		<path style="fill:#E4C05C;" d="M211.862,211.862h-17.655c-4.875,0-8.828-3.952-8.828-8.828s3.952-8.828,8.828-8.828h17.655
			c4.875,0,8.828,3.952,8.828,8.828S216.737,211.862,211.862,211.862z"/>
		<path style="fill:#E4C05C;" d="M211.862,247.172h-17.655c-4.875,0-8.828-3.952-8.828-8.828c0-4.875,3.952-8.828,8.828-8.828
			h17.655c4.875,0,8.828,3.952,8.828,8.828C220.69,243.22,216.737,247.172,211.862,247.172z"/>
		<path style="fill:#E4C05C;" d="M211.862,282.483h-17.655c-4.875,0-8.828-3.952-8.828-8.828s3.952-8.828,8.828-8.828h17.655
			c4.875,0,8.828,3.952,8.828,8.828S216.737,282.483,211.862,282.483z"/>
		<path style="fill:#E4C05C;" d="M264.828,211.862h-17.655c-4.875,0-8.828-3.952-8.828-8.828s3.952-8.828,8.828-8.828h17.655
			c4.875,0,8.828,3.952,8.828,8.828S269.703,211.862,264.828,211.862z"/>
		<path style="fill:#E4C05C;" d="M264.828,247.172h-17.655c-4.875,0-8.828-3.952-8.828-8.828c0-4.875,3.952-8.828,8.828-8.828
			h17.655c4.875,0,8.828,3.952,8.828,8.828C273.655,243.22,269.703,247.172,264.828,247.172z"/>
		<path style="fill:#E4C05C;" d="M264.828,282.483h-17.655c-4.875,0-8.828-3.952-8.828-8.828s3.952-8.828,8.828-8.828h17.655
			c4.875,0,8.828,3.952,8.828,8.828S269.703,282.483,264.828,282.483z"/>
		<path style="fill:#E4C05C;" d="M317.793,211.862h-17.655c-4.875,0-8.828-3.952-8.828-8.828s3.952-8.828,8.828-8.828h17.655
			c4.875,0,8.828,3.952,8.828,8.828S322.668,211.862,317.793,211.862z"/>
		<path style="fill:#E4C05C;" d="M317.793,247.172h-17.655c-4.875,0-8.828-3.952-8.828-8.828c0-4.875,3.952-8.828,8.828-8.828
			h17.655c4.875,0,8.828,3.952,8.828,8.828C326.621,243.22,322.668,247.172,317.793,247.172z"/>
		<path style="fill:#E4C05C;" d="M317.793,282.483h-17.655c-4.875,0-8.828-3.952-8.828-8.828s3.952-8.828,8.828-8.828h17.655
			c4.875,0,8.828,3.952,8.828,8.828S322.668,282.483,317.793,282.483z"/>
		<path style="fill:#E4C05C;" d="M211.862,317.793h-17.655c-4.875,0-8.828-3.952-8.828-8.828s3.952-8.828,8.828-8.828h17.655
			c4.875,0,8.828,3.952,8.828,8.828S216.737,317.793,211.862,317.793z"/>
		<path style="fill:#E4C05C;" d="M264.828,317.793h-17.655c-4.875,0-8.828-3.952-8.828-8.828s3.952-8.828,8.828-8.828h17.655
			c4.875,0,8.828,3.952,8.828,8.828S269.703,317.793,264.828,317.793z"/>
		<path style="fill:#E4C05C;" d="M317.793,317.793h-17.655c-4.875,0-8.828-3.952-8.828-8.828s3.952-8.828,8.828-8.828h17.655
			c4.875,0,8.828,3.952,8.828,8.828S322.668,317.793,317.793,317.793z"/>
		<path style="fill:#E4C05C;" d="M44.138,52.966c-2.348,0.023-4.607-0.9-6.267-2.56c-1.66-1.66-2.583-3.919-2.56-6.267
			c-0.021-3.586,2.13-6.829,5.442-8.204c3.312-1.375,7.127-0.61,9.653,1.937c3.414,3.481,3.414,9.054,0,12.535
			C48.712,52.016,46.475,52.93,44.138,52.966z"/>
		<path style="fill:#E4C05C;" d="M79.448,52.966c-2.348,0.023-4.607-0.9-6.267-2.56c-1.66-1.66-2.583-3.919-2.56-6.267
			c-0.021-3.586,2.13-6.829,5.442-8.204c3.312-1.375,7.127-0.61,9.653,1.937c3.414,3.481,3.414,9.054,0,12.534
			C84.023,52.016,81.785,52.93,79.448,52.966z"/>
		<path style="fill:#E4C05C;" d="M114.759,52.966c-2.337-0.035-4.575-0.949-6.268-2.56c-1.627-1.683-2.544-3.927-2.56-6.268
			c0.033-2.337,0.947-4.576,2.56-6.268c2.536-2.508,6.333-3.242,9.621-1.858c1.07,0.449,2.056,1.077,2.915,1.858
			c3.414,3.481,3.414,9.054,0,12.534c-0.86,0.778-1.845,1.405-2.914,1.854C117.051,52.711,115.912,52.951,114.759,52.966z"/>
		<path style="fill:#E4C05C;" d="M150.069,52.966c-2.348,0.023-4.607-0.9-6.267-2.56c-1.66-1.66-2.583-3.919-2.56-6.267
			c0.023-3.984,2.713-7.46,6.564-8.481c3.851-1.022,7.91,0.663,9.905,4.112s1.432,7.807-1.374,10.636
			C154.643,52.016,152.406,52.93,150.069,52.966z"/>
		<path style="fill:#E4C05C;" d="M185.379,52.966c-2.348,0.023-4.607-0.9-6.267-2.56c-1.66-1.66-2.583-3.919-2.56-6.267
			c0.023-3.984,2.713-7.46,6.564-8.481c3.851-1.022,7.91,0.663,9.905,4.112s1.432,7.807-1.374,10.636
			C189.954,52.016,187.716,52.93,185.379,52.966z"/>
		<path style="fill:#E4C05C;" d="M220.69,52.966c-2.348,0.023-4.607-0.9-6.267-2.56c-1.66-1.66-2.583-3.919-2.56-6.267
			c0.023-3.984,2.713-7.46,6.564-8.481c3.851-1.022,7.91,0.663,9.905,4.112c1.995,3.449,1.432,7.807-1.374,10.636
			C225.264,52.016,223.026,52.93,220.69,52.966z"/>
		<path style="fill:#E4C05C;" d="M256,52.966c-2.348,0.023-4.607-0.9-6.267-2.56c-1.66-1.66-2.583-3.919-2.56-6.267
			c0.023-3.984,2.713-7.46,6.564-8.481c3.851-1.022,7.91,0.663,9.905,4.112c1.995,3.449,1.432,7.807-1.374,10.636
			C260.574,52.016,258.337,52.93,256,52.966z"/>
		<path style="fill:#E4C05C;" d="M291.31,52.966c-2.348,0.023-4.607-0.9-6.267-2.56c-1.66-1.66-2.583-3.919-2.56-6.267
			c0.023-3.984,2.713-7.46,6.564-8.481c3.851-1.022,7.91,0.663,9.905,4.112c1.995,3.449,1.432,7.807-1.374,10.636
			C295.885,52.016,293.647,52.93,291.31,52.966z"/>
		<path style="fill:#E4C05C;" d="M326.621,52.966c-2.348,0.023-4.607-0.9-6.267-2.56c-1.66-1.66-2.583-3.919-2.56-6.267
			c0.023-3.984,2.713-7.46,6.564-8.481c3.851-1.022,7.91,0.663,9.905,4.112s1.432,7.807-1.374,10.636
			C331.195,52.016,328.957,52.93,326.621,52.966z"/>
		<path style="fill:#E4C05C;" d="M361.931,52.966c-1.155-0.014-2.296-0.254-3.358-0.707c-1.089-0.406-2.081-1.038-2.91-1.853
			c-3.414-3.481-3.414-9.054,0-12.534c0.827-0.818,1.819-1.451,2.909-1.858c3.294-1.332,7.063-0.604,9.626,1.857
			c1.611,1.693,2.525,3.931,2.56,6.268c-0.018,2.34-0.935,4.584-2.56,6.268C366.505,52.016,364.268,52.93,361.931,52.966z"/>
		<path style="fill:#E4C05C;" d="M432.552,52.966c-2.348,0.023-4.607-0.9-6.267-2.56c-1.66-1.66-2.583-3.919-2.56-6.267
			c0.023-3.984,2.713-7.46,6.564-8.481c3.851-1.022,7.91,0.663,9.905,4.112c1.995,3.449,1.432,7.807-1.374,10.636
			C437.126,52.016,434.888,52.93,432.552,52.966z"/>
		<path style="fill:#E4C05C;" d="M467.862,52.966c-2.348,0.023-4.607-0.9-6.267-2.56c-1.66-1.66-2.583-3.919-2.56-6.267
			c0.023-3.984,2.713-7.46,6.564-8.481c3.851-1.022,7.91,0.663,9.905,4.112c1.995,3.449,1.432,7.807-1.374,10.636
			C472.436,52.016,470.199,52.93,467.862,52.966z"/>
		<path style="fill:#E4C05C;" d="M44.138,88.276c-3.569-0.014-6.782-2.168-8.151-5.464s-0.626-7.093,1.883-9.631
			c3.461-3.461,9.074-3.461,12.535,0s3.461,9.074,0,12.535C48.712,87.327,46.475,88.241,44.138,88.276z"/>
		<path style="fill:#E4C05C;" d="M79.448,88.276c-3.569-0.014-6.782-2.168-8.151-5.464s-0.626-7.093,1.883-9.631
			c3.461-3.461,9.074-3.461,12.535,0c3.461,3.461,3.461,9.074,0,12.535C84.023,87.327,81.785,88.241,79.448,88.276z"/>
		<path style="fill:#E4C05C;" d="M114.759,88.276c-3.569-0.014-6.782-2.168-8.151-5.464c-1.369-3.297-0.626-7.093,1.883-9.631
			c3.461-3.461,9.074-3.461,12.535,0s3.461,9.074,0,12.535C119.333,87.327,117.095,88.241,114.759,88.276z"/>
		<path style="fill:#E4C05C;" d="M150.069,88.276c-3.569-0.014-6.782-2.168-8.151-5.464c-1.369-3.297-0.626-7.093,1.883-9.631
			c3.461-3.461,9.074-3.461,12.535,0s3.461,9.074,0,12.535C154.643,87.327,152.406,88.241,150.069,88.276z"/>
		<path style="fill:#E4C05C;" d="M185.379,88.276c-3.569-0.014-6.782-2.168-8.151-5.464c-1.369-3.297-0.626-7.093,1.883-9.631
			c3.461-3.461,9.074-3.461,12.535,0c3.462,3.461,3.462,9.074,0,12.535C189.954,87.327,187.716,88.241,185.379,88.276z"/>
		<path style="fill:#E4C05C;" d="M220.69,88.276c-1.159,0.031-2.309-0.212-3.358-0.707c-1.068-0.449-2.051-1.076-2.91-1.854
			c-3.414-3.481-3.414-9.054,0-12.534c0.857-0.78,1.841-1.409,2.91-1.858c3.289-1.384,7.088-0.651,9.625,1.858
			c2.546,2.525,3.312,6.341,1.937,9.653C227.519,86.146,224.276,88.297,220.69,88.276z"/>
		<path style="fill:#E4C05C;" d="M256,88.276c-3.569-0.014-6.782-2.168-8.151-5.464c-1.369-3.297-0.626-7.093,1.883-9.631
			c2.536-2.508,6.333-3.242,9.621-1.858c1.07,0.449,2.056,1.077,2.914,1.858c3.414,3.481,3.414,9.054,0,12.534
			c-0.86,0.778-1.845,1.405-2.914,1.854C258.307,88.064,257.158,88.306,256,88.276z"/>
		<path style="fill:#E4C05C;" d="M291.31,88.276c-3.569-0.014-6.782-2.168-8.151-5.464c-1.369-3.297-0.626-7.093,1.883-9.631
			c3.461-3.461,9.074-3.461,12.535,0c3.462,3.461,3.462,9.074,0,12.535C295.885,87.327,293.647,88.241,291.31,88.276z"/>
		<path style="fill:#E4C05C;" d="M326.621,88.276c-3.569-0.014-6.782-2.168-8.151-5.464c-1.369-3.297-0.626-7.093,1.883-9.631
			c3.461-3.461,9.074-3.461,12.535,0s3.461,9.074,0,12.535C331.195,87.327,328.957,88.241,326.621,88.276z"/>
		<path style="fill:#E4C05C;" d="M361.931,88.276c-3.569-0.014-6.782-2.168-8.151-5.464c-1.369-3.297-0.626-7.093,1.883-9.631
			c3.461-3.461,9.074-3.461,12.535,0c3.462,3.461,3.462,9.074,0,12.535c-0.444,0.353-0.884,0.707-1.414,1.056
			c-0.45,0.351-0.957,0.621-1.5,0.797c-0.501,0.253-1.037,0.432-1.59,0.53C363.112,88.201,362.522,88.26,361.931,88.276z"/>
		<path style="fill:#E4C05C;" d="M397.241,88.276c-3.569-0.014-6.782-2.168-8.151-5.464c-1.369-3.297-0.626-7.093,1.883-9.631
			c2.239-2.239,5.503-3.114,8.562-2.294c3.059,0.82,5.448,3.209,6.268,6.268c0.82,3.059-0.055,6.322-2.294,8.562
			C401.816,87.327,399.578,88.241,397.241,88.276z"/>
		<path style="fill:#E4C05C;" d="M432.552,88.276c-3.569-0.014-6.782-2.168-8.151-5.464c-1.369-3.297-0.626-7.093,1.883-9.631
			c2.239-2.239,5.503-3.114,8.562-2.294c3.059,0.82,5.448,3.209,6.268,6.268c0.82,3.059-0.055,6.322-2.294,8.562
			C437.126,87.327,434.888,88.241,432.552,88.276z"/>
		<path style="fill:#E4C05C;" d="M467.862,88.276c-3.569-0.014-6.782-2.168-8.151-5.464c-1.369-3.297-0.626-7.093,1.883-9.631
			c3.461-3.461,9.074-3.461,12.535,0c3.462,3.461,3.462,9.074,0,12.535C472.436,87.327,470.199,88.241,467.862,88.276z"/>
		<path style="fill:#E4C05C;" d="M44.138,123.586c-1.159,0.031-2.309-0.212-3.358-0.707c-1.068-0.449-2.051-1.076-2.91-1.853
			c-3.414-3.481-3.414-9.054,0-12.534c0.857-0.78,1.841-1.409,2.909-1.858c3.293-1.34,7.067-0.612,9.626,1.857
			c2.546,2.525,3.312,6.341,1.937,9.653C50.967,121.456,47.724,123.607,44.138,123.586z"/>
		<path style="fill:#E4C05C;" d="M79.448,123.586c-3.569-0.014-6.782-2.168-8.151-5.464c-1.369-3.297-0.626-7.093,1.883-9.631
			c2.557-2.467,6.329-3.196,9.621-1.858c1.07,0.449,2.056,1.077,2.915,1.858c1.611,1.693,2.525,3.931,2.56,6.268
			c-0.016,0.591-0.075,1.18-0.177,1.763c-0.098,0.553-0.277,1.089-0.53,1.59c-0.176,0.543-0.446,1.05-0.797,1.5
			c-0.349,0.53-0.703,0.97-1.056,1.414c-0.86,0.778-1.845,1.405-2.914,1.854C81.755,123.374,80.606,123.616,79.448,123.586z"/>
		<path style="fill:#E4C05C;" d="M114.759,123.586c-4.163-0.041-7.72-3.011-8.502-7.1c-0.782-4.089,1.427-8.162,5.281-9.736
			c3.854-1.574,8.283-0.213,10.588,3.255c2.304,3.467,1.844,8.078-1.1,11.022C119.333,122.638,117.095,123.552,114.759,123.586z"/>
		<path style="fill:#E4C05C;" d="M150.069,123.586c-0.593-0.016-1.183-0.075-1.767-0.177c-0.553-0.098-1.089-0.277-1.59-0.53
			c-0.542-0.178-1.049-0.448-1.5-0.797c-0.53-0.35-0.97-0.703-1.41-1.056c-3.055-2.995-3.562-7.734-1.212-11.308
			c2.351-3.575,6.902-4.986,10.863-3.368c3.961,1.618,6.223,5.812,5.399,10.01C158.027,120.558,154.347,123.586,150.069,123.586z"/>
		<path style="fill:#E4C05C;" d="M185.379,123.586c-3.569-0.014-6.782-2.168-8.151-5.464c-1.369-3.297-0.626-7.093,1.883-9.631
			c2.561-2.459,6.328-3.187,9.621-1.858c1.07,0.449,2.056,1.077,2.914,1.858c1.611,1.693,2.525,3.931,2.56,6.268
			c-0.016,0.591-0.075,1.18-0.177,1.763c-0.098,0.553-0.277,1.089-0.53,1.59c-0.176,0.543-0.446,1.05-0.797,1.5
			c-0.349,0.53-0.703,0.97-1.056,1.414c-0.86,0.778-1.845,1.405-2.914,1.854C187.686,123.374,186.537,123.616,185.379,123.586z"/>
		<path style="fill:#E4C05C;" d="M220.69,123.586c-4.163-0.041-7.72-3.011-8.502-7.1s1.427-8.162,5.281-9.736
			c3.854-1.574,8.283-0.213,10.588,3.255c2.304,3.467,1.844,8.078-1.1,11.022C225.264,122.638,223.027,123.552,220.69,123.586z"/>
		<path style="fill:#E4C05C;" d="M256,123.586c-4.163-0.041-7.72-3.011-8.502-7.1s1.427-8.162,5.281-9.736
			c3.854-1.574,8.283-0.213,10.588,3.255c2.304,3.467,1.844,8.078-1.1,11.022C260.575,122.638,258.337,123.552,256,123.586z"/>
		<path style="fill:#E4C05C;" d="M291.31,123.586c-3.569-0.014-6.782-2.168-8.151-5.464c-1.369-3.297-0.626-7.093,1.883-9.631
			c2.561-2.459,6.328-3.187,9.621-1.858c1.07,0.449,2.056,1.077,2.914,1.858c1.611,1.693,2.525,3.931,2.56,6.268
			c-0.016,0.591-0.075,1.18-0.177,1.763c-0.098,0.553-0.277,1.089-0.53,1.59c-0.176,0.543-0.446,1.05-0.797,1.5
			c-0.349,0.53-0.703,0.97-1.056,1.414c-0.86,0.778-1.845,1.405-2.914,1.854C293.617,123.374,292.468,123.616,291.31,123.586z"/>
		<path style="fill:#E4C05C;" d="M326.621,123.586c-4.163-0.041-7.72-3.011-8.502-7.1c-0.782-4.089,1.427-8.162,5.281-9.736
			c3.854-1.574,8.283-0.213,10.588,3.255c2.304,3.467,1.844,8.078-1.1,11.022C331.195,122.638,328.958,123.552,326.621,123.586z"/>
		<path style="fill:#E4C05C;" d="M361.931,123.586c-4.163-0.041-7.72-3.011-8.502-7.1c-0.782-4.089,1.427-8.162,5.281-9.736
			c3.854-1.574,8.283-0.213,10.588,3.255s1.844,8.078-1.1,11.022c-0.444,0.353-0.884,0.707-1.414,1.056
			c-0.45,0.351-0.957,0.621-1.5,0.797c-0.501,0.253-1.037,0.432-1.59,0.53C363.112,123.511,362.522,123.57,361.931,123.586z"/>
		<path style="fill:#E4C05C;" d="M397.241,123.586c-3.569-0.014-6.782-2.168-8.151-5.464c-1.369-3.297-0.626-7.093,1.883-9.631
			c2.561-2.459,6.328-3.187,9.621-1.858c1.07,0.449,2.056,1.077,2.914,1.858c1.611,1.693,2.525,3.931,2.56,6.268
			c-0.016,0.591-0.075,1.18-0.177,1.763c-0.098,0.553-0.277,1.089-0.53,1.59c-0.176,0.543-0.446,1.05-0.797,1.5
			c-0.349,0.53-0.703,0.97-1.056,1.414c-0.86,0.778-1.845,1.405-2.914,1.854C399.548,123.374,398.399,123.616,397.241,123.586z"/>
		<path style="fill:#E4C05C;" d="M432.552,123.586c-4.163-0.041-7.72-3.011-8.502-7.1c-0.782-4.089,1.427-8.162,5.281-9.736
			c3.854-1.574,8.283-0.213,10.588,3.255c2.304,3.467,1.844,8.078-1.1,11.022C437.127,122.638,434.889,123.552,432.552,123.586z"/>
		<path style="fill:#E4C05C;" d="M467.862,123.586c-4.163-0.041-7.72-3.011-8.502-7.1s1.427-8.162,5.281-9.736
			c3.854-1.574,8.283-0.213,10.588,3.255s1.844,8.078-1.1,11.022c-0.444,0.353-0.884,0.707-1.414,1.056
			c-0.45,0.351-0.957,0.621-1.5,0.797c-0.501,0.253-1.037,0.432-1.59,0.53C469.043,123.511,468.453,123.57,467.862,123.586z"/>
		<path style="fill:#E4C05C;" d="M44.138,158.897c-1.155-0.014-2.296-0.254-3.358-0.707c-1.068-0.449-2.051-1.076-2.91-1.853
			c-3.414-3.481-3.414-9.054,0-12.534c0.857-0.78,1.841-1.409,2.909-1.858c3.289-1.384,7.088-0.651,9.626,1.857
			c2.546,2.525,3.312,6.341,1.937,9.653C50.967,156.766,47.724,158.917,44.138,158.897z"/>
		<path style="fill:#E4C05C;" d="M79.448,158.897c-4.163-0.041-7.72-3.011-8.502-7.1c-0.782-4.089,1.427-8.162,5.281-9.736
			c3.854-1.574,8.283-0.213,10.588,3.255s1.844,8.078-1.1,11.022C84.023,157.948,81.785,158.862,79.448,158.897z"/>
		<path style="fill:#E4C05C;" d="M114.759,158.897c-2.34-0.018-4.584-0.935-6.268-2.56c-2.86-2.828-3.457-7.227-1.455-10.715
			c2.003-3.488,6.103-5.191,9.987-4.147c3.884,1.044,6.579,4.572,6.563,8.595c-0.016,0.591-0.075,1.18-0.177,1.763
			c-0.098,0.553-0.277,1.089-0.53,1.59c-0.176,0.543-0.446,1.05-0.797,1.5c-0.349,0.53-0.703,0.97-1.056,1.414
			C119.333,157.947,117.095,158.861,114.759,158.897z"/>
		<path style="fill:#E4C05C;" d="M397.241,158.897c-1.155-0.014-2.296-0.254-3.358-0.707c-1.068-0.449-2.051-1.076-2.909-1.854
			c-3.414-3.481-3.414-9.054,0-12.534c0.857-0.78,1.841-1.409,2.909-1.858c3.289-1.384,7.088-0.651,9.625,1.858
			c2.546,2.525,3.312,6.341,1.937,9.653C404.07,156.766,400.828,158.917,397.241,158.897z"/>
		<path style="fill:#E4C05C;" d="M432.552,158.897c-4.163-0.041-7.72-3.011-8.502-7.1c-0.782-4.089,1.427-8.162,5.281-9.736
			c3.854-1.574,8.283-0.213,10.588,3.255c2.304,3.467,1.844,8.078-1.1,11.022C437.127,157.948,434.889,158.862,432.552,158.897z"/>
		<path style="fill:#E4C05C;" d="M467.862,158.897c-3.569-0.014-6.782-2.168-8.151-5.464c-1.369-3.297-0.626-7.093,1.883-9.631
			c2.54-2.501,6.332-3.233,9.621-1.858c1.07,0.449,2.056,1.077,2.914,1.858c1.611,1.693,2.525,3.931,2.56,6.268
			c-0.016,0.591-0.075,1.18-0.177,1.763c-0.098,0.553-0.277,1.089-0.53,1.59c-0.176,0.543-0.446,1.05-0.797,1.5
			c-0.349,0.53-0.703,0.97-1.056,1.414c-0.86,0.778-1.845,1.405-2.914,1.854C470.155,158.642,469.015,158.883,467.862,158.897z"/>
		<path style="fill:#E4C05C;" d="M44.138,194.207c-2.337-0.035-4.575-0.949-6.268-2.56c-0.38-0.419-0.734-0.861-1.06-1.323
			c-0.335-0.492-0.603-1.027-0.797-1.591c-0.254-0.501-0.431-1.037-0.526-1.591c-0.104-0.582-0.163-1.172-0.177-1.763
			c0.012-1.154,0.251-2.295,0.703-3.358c0.449-1.069,1.077-2.053,1.857-2.91c3.539-3.267,8.995-3.267,12.534,0
			c0.778,0.858,1.405,1.842,1.854,2.909c0.453,1.062,0.693,2.203,0.707,3.358c-0.016,0.591-0.075,1.18-0.177,1.763
			c-0.098,0.553-0.277,1.089-0.53,1.59c-0.194,0.563-0.462,1.098-0.797,1.591c-0.325,0.462-0.678,0.904-1.056,1.324
			C48.712,193.258,46.475,194.172,44.138,194.207z"/>
		<path style="fill:#E4C05C;" d="M79.448,194.207c-1.159,0.031-2.309-0.212-3.358-0.707c-1.068-0.449-2.051-1.076-2.91-1.853
			c-1.627-1.683-2.544-3.927-2.56-6.268c0.012-1.154,0.251-2.295,0.703-3.358c0.811-2.213,2.554-3.956,4.767-4.767
			c3.294-1.338,7.066-0.61,9.626,1.857c0.778,0.858,1.405,1.842,1.854,2.909c0.495,1.049,0.737,2.199,0.706,3.358
			c-0.016,0.591-0.075,1.18-0.177,1.763c-0.098,0.553-0.277,1.089-0.53,1.59c-0.194,0.563-0.462,1.098-0.797,1.591
			c-0.349,0.44-0.703,0.879-1.056,1.323c-0.444,0.353-0.884,0.707-1.323,1.056c-0.492,0.335-1.027,0.603-1.591,0.797
			c-0.501,0.253-1.037,0.432-1.59,0.53C80.629,194.132,80.039,194.191,79.448,194.207z"/>
		<path style="fill:#E4C05C;" d="M114.759,194.207c-2.337-0.035-4.575-0.949-6.268-2.56c-1.627-1.683-2.544-3.927-2.56-6.268
			c0.012-1.154,0.251-2.295,0.703-3.358c0.449-1.069,1.077-2.053,1.857-2.91c3.539-3.267,8.995-3.267,12.534,0
			c0.778,0.858,1.405,1.842,1.854,2.909c0.453,1.062,0.693,2.203,0.707,3.358c-0.018,2.34-0.935,4.584-2.56,6.268
			c-0.444,0.353-0.884,0.707-1.323,1.056c-0.492,0.335-1.027,0.603-1.591,0.797c-0.501,0.253-1.037,0.432-1.59,0.53
			C115.939,194.132,115.35,194.191,114.759,194.207z"/>
		<path style="fill:#E4C05C;" d="M397.241,194.207c-0.593-0.016-1.183-0.075-1.767-0.177c-0.553-0.098-1.089-0.277-1.59-0.53
			c-0.561-0.195-1.095-0.463-1.586-0.797c-0.444-0.349-0.884-0.703-1.323-1.056c-0.353-0.444-0.707-0.884-1.06-1.323
			c-0.335-0.492-0.603-1.027-0.797-1.591c-0.254-0.501-0.431-1.037-0.526-1.59c-0.104-0.582-0.163-1.172-0.177-1.763
			c0.012-1.154,0.251-2.295,0.703-3.358c0.449-1.069,1.077-2.053,1.857-2.91c2.536-2.508,6.333-3.242,9.621-1.858
			c2.215,0.807,3.96,2.552,4.767,4.767c0.453,1.062,0.694,2.203,0.708,3.358c-0.018,2.34-0.935,4.584-2.56,6.268
			c-0.86,0.778-1.845,1.405-2.914,1.854C399.548,193.995,398.399,194.237,397.241,194.207z"/>
		<path style="fill:#E4C05C;" d="M432.552,194.207c-0.593-0.016-1.183-0.075-1.767-0.177c-0.553-0.098-1.089-0.277-1.59-0.53
			c-0.542-0.178-1.049-0.448-1.5-0.797c-0.53-0.35-0.97-0.703-1.41-1.056c-1.627-1.683-2.544-3.927-2.56-6.268
			c0.012-1.154,0.251-2.295,0.703-3.358c0.449-1.069,1.077-2.053,1.857-2.91c3.539-3.267,8.995-3.267,12.534,0
			c0.778,0.858,1.405,1.842,1.854,2.909c0.453,1.062,0.693,2.203,0.707,3.358c-0.016,0.591-0.075,1.18-0.177,1.763
			c-0.098,0.553-0.277,1.089-0.53,1.59c-0.194,0.563-0.462,1.098-0.797,1.591c-0.325,0.462-0.678,0.904-1.056,1.324
			C437.126,193.258,434.888,194.172,432.552,194.207z"/>
		<path style="fill:#E4C05C;" d="M467.862,194.207c-2.337-0.035-4.575-0.949-6.268-2.56c-0.353-0.444-0.707-0.884-1.06-1.323
			c-0.335-0.492-0.603-1.027-0.797-1.591c-0.254-0.501-0.431-1.037-0.526-1.59c-0.104-0.582-0.162-1.172-0.176-1.763
			c0.012-1.154,0.251-2.295,0.703-3.358c0.449-1.069,1.077-2.053,1.857-2.91c3.539-3.267,8.995-3.267,12.534,0
			c0.778,0.858,1.405,1.842,1.854,2.909c0.453,1.062,0.693,2.203,0.707,3.358c-0.016,0.591-0.075,1.18-0.177,1.763
			c-0.098,0.553-0.277,1.089-0.53,1.59c-0.194,0.563-0.462,1.098-0.797,1.591c-0.349,0.44-0.703,0.879-1.056,1.323
			c-0.444,0.353-0.884,0.707-1.414,1.056c-0.45,0.351-0.957,0.621-1.5,0.797c-0.501,0.253-1.037,0.432-1.59,0.53
			C469.043,194.132,468.453,194.191,467.862,194.207z"/>
		<path style="fill:#E4C05C;" d="M44.138,229.517c-0.592-0.02-1.183-0.079-1.767-0.177c-0.553-0.098-1.089-0.277-1.59-0.53
			c-0.562-0.195-1.095-0.463-1.586-0.797c-0.464-0.323-0.906-0.676-1.324-1.056c-0.353-0.444-0.707-0.884-1.06-1.323
			c-0.335-0.492-0.603-1.027-0.797-1.591c-0.254-0.501-0.431-1.037-0.526-1.591c-0.104-0.582-0.163-1.172-0.177-1.763
			c-0.021-3.586,2.13-6.829,5.442-8.204c3.312-1.375,7.127-0.61,9.653,1.937c3.414,3.481,3.414,9.054,0,12.534
			c-0.419,0.378-0.861,0.731-1.323,1.056c-0.492,0.335-1.027,0.603-1.591,0.797c-0.501,0.253-1.037,0.432-1.59,0.53
			C45.319,229.442,44.729,229.501,44.138,229.517z"/>
		<path style="fill:#E4C05C;" d="M79.448,229.517c-0.593-0.016-1.183-0.075-1.767-0.177c-0.553-0.098-1.089-0.277-1.59-0.53
			c-0.542-0.178-1.049-0.448-1.5-0.797c-0.507-0.3-0.979-0.654-1.41-1.056c-3.414-3.481-3.414-9.054,0-12.534
			c2.536-2.508,6.333-3.242,9.621-1.858c1.07,0.449,2.056,1.077,2.915,1.857c3.414,3.481,3.414,9.054,0,12.534
			c-0.86,0.778-1.845,1.405-2.914,1.854C81.755,229.305,80.606,229.547,79.448,229.517z"/>
		<path style="fill:#E4C05C;" d="M114.759,229.517c-2.337-0.035-4.575-0.949-6.268-2.56c-0.353-0.444-0.707-0.884-1.06-1.323
			c-0.335-0.492-0.603-1.027-0.797-1.591c-0.254-0.501-0.431-1.037-0.526-1.59c-0.104-0.582-0.162-1.172-0.176-1.763
			c0.023-3.984,2.713-7.46,6.564-8.481c3.851-1.022,7.91,0.663,9.905,4.112s1.432,7.807-1.374,10.636
			c-0.419,0.378-0.861,0.731-1.323,1.056c-0.492,0.335-1.027,0.603-1.591,0.797c-0.501,0.253-1.037,0.432-1.59,0.53
			C115.939,229.442,115.35,229.501,114.759,229.517z"/>
		<path style="fill:#E4C05C;" d="M397.241,229.517c-3.591,0.014-6.836-2.14-8.217-5.455c-1.381-3.315-0.625-7.136,1.915-9.676
			c2.539-2.54,6.36-3.296,9.676-1.914c3.315,1.381,5.469,4.626,5.455,8.217c-0.016,0.591-0.075,1.18-0.177,1.763
			c-0.098,0.553-0.277,1.089-0.53,1.59c-0.194,0.563-0.462,1.098-0.797,1.591c-0.605,0.961-1.418,1.774-2.379,2.379
			c-0.492,0.335-1.027,0.603-1.591,0.797c-0.501,0.253-1.037,0.432-1.59,0.53C398.422,229.442,397.833,229.501,397.241,229.517z"/>
		<path style="fill:#E4C05C;" d="M432.552,229.517c-3.569-0.014-6.782-2.168-8.151-5.464c-1.369-3.297-0.626-7.093,1.883-9.631
			c0.857-0.78,1.841-1.409,2.909-1.858c2.132-0.97,4.579-0.97,6.711,0c1.081,0.428,2.07,1.059,2.915,1.858
			c3.414,3.481,3.414,9.054,0,12.534c-0.86,0.778-1.845,1.405-2.914,1.854C434.858,229.305,433.71,229.547,432.552,229.517z"/>
		<path style="fill:#E4C05C;" d="M467.862,229.517c-0.593-0.016-1.183-0.075-1.767-0.177c-0.553-0.098-1.089-0.277-1.59-0.53
			c-0.561-0.195-1.095-0.463-1.586-0.797c-0.464-0.323-0.906-0.676-1.324-1.056c-2.86-2.828-3.457-7.227-1.455-10.715
			c2.003-3.488,6.103-5.191,9.987-4.147c3.884,1.044,6.579,4.572,6.563,8.595c-0.016,0.591-0.075,1.18-0.177,1.763
			c-0.098,0.553-0.277,1.089-0.53,1.59c-0.194,0.563-0.462,1.098-0.797,1.591c-0.349,0.44-0.703,0.879-1.056,1.323
			c-0.419,0.378-0.861,0.731-1.323,1.056c-0.492,0.335-1.027,0.603-1.591,0.797c-0.501,0.253-1.037,0.432-1.59,0.53
			C469.042,229.438,468.453,229.497,467.862,229.517z"/>
		<path style="fill:#E4C05C;" d="M44.138,264.828c-2.337-0.035-4.575-0.949-6.268-2.56c-0.78-0.859-1.409-1.844-1.858-2.914
			c-0.451-1.061-0.69-2.201-0.702-3.354c0.033-2.337,0.947-4.576,2.56-6.268c2.54-2.501,6.332-3.233,9.621-1.858
			c1.07,0.449,2.056,1.077,2.915,1.858c1.611,1.693,2.525,3.931,2.56,6.268c-0.014,1.153-0.254,2.293-0.707,3.353
			c-0.449,1.069-1.076,2.054-1.854,2.914c-0.86,0.778-1.845,1.405-2.914,1.854C46.43,264.573,45.291,264.813,44.138,264.828z"/>
		<path style="fill:#E4C05C;" d="M79.448,264.828c-1.155-0.014-2.296-0.254-3.358-0.707c-2.215-0.807-3.96-2.552-4.767-4.767
			c-0.451-1.061-0.69-2.201-0.703-3.354c0.033-2.337,0.947-4.576,2.56-6.268c0.857-0.78,1.841-1.409,2.909-1.858
			c3.29-1.375,7.084-0.643,9.626,1.858c1.611,1.693,2.525,3.931,2.56,6.268c0.03,1.158-0.212,2.306-0.707,3.353
			c-0.449,1.069-1.076,2.054-1.854,2.914C84.022,263.878,81.785,264.792,79.448,264.828z"/>
		<path style="fill:#E4C05C;" d="M114.759,264.828c-2.337-0.035-4.575-0.949-6.268-2.56c-0.78-0.859-1.409-1.844-1.858-2.914
			c-0.451-1.061-0.69-2.201-0.702-3.354c0.033-2.337,0.947-4.576,2.56-6.268c2.54-2.501,6.332-3.233,9.621-1.858
			c1.07,0.449,2.056,1.077,2.915,1.858c1.611,1.693,2.525,3.931,2.56,6.268c-0.014,1.153-0.254,2.293-0.707,3.353
			c-0.804,2.217-2.55,3.963-4.767,4.767C117.051,264.573,115.912,264.813,114.759,264.828z"/>
		<path style="fill:#E4C05C;" d="M397.241,264.828c-2.337-0.035-4.575-0.949-6.268-2.56c-0.78-0.859-1.409-1.844-1.858-2.914
			c-0.451-1.061-0.69-2.201-0.702-3.354c0.014-0.593,0.073-1.184,0.177-1.767c0.095-0.554,0.272-1.09,0.526-1.59
			c0.195-0.562,0.463-1.095,0.797-1.586c0.353-0.444,0.707-0.884,1.06-1.323c2.525-2.546,6.34-3.312,9.652-1.936
			c3.312,1.375,5.463,4.617,5.443,8.204c-0.014,1.153-0.254,2.293-0.707,3.353c-0.449,1.069-1.076,2.054-1.854,2.914
			C401.825,263.892,399.581,264.809,397.241,264.828z"/>
		<path style="fill:#E4C05C;" d="M432.552,264.828c-1.155-0.014-2.296-0.254-3.358-0.707c-2.215-0.807-3.96-2.552-4.767-4.767
			c-0.451-1.061-0.69-2.201-0.703-3.354c0.033-2.337,0.947-4.576,2.56-6.268c0.857-0.78,1.841-1.409,2.909-1.858
			c3.294-1.331,7.063-0.604,9.626,1.858c1.611,1.693,2.525,3.931,2.56,6.268c-0.014,1.153-0.254,2.293-0.707,3.353
			c-0.449,1.069-1.076,2.054-1.854,2.914C437.126,263.878,434.888,264.792,432.552,264.828z"/>
		<path style="fill:#E4C05C;" d="M467.862,264.828c-2.337-0.035-4.575-0.949-6.268-2.56c-0.78-0.859-1.409-1.844-1.858-2.914
			c-0.451-1.061-0.69-2.201-0.702-3.354c0-4.875,3.952-8.828,8.828-8.828s8.828,3.952,8.828,8.828
			c-0.014,1.153-0.254,2.293-0.707,3.353c-0.449,1.069-1.076,2.054-1.854,2.914C472.436,263.878,470.199,264.792,467.862,264.828z"
			/>
		<path style="fill:#E4C05C;" d="M44.138,300.138c-1.155-0.014-2.296-0.254-3.358-0.707c-1.079-0.427-2.066-1.056-2.91-1.853
			c-0.38-0.419-0.734-0.861-1.06-1.323c-0.335-0.492-0.603-1.027-0.797-1.591c-0.254-0.501-0.431-1.037-0.526-1.591
			c-0.104-0.582-0.163-1.172-0.177-1.763c0.033-2.337,0.947-4.576,2.56-6.268c0.842-0.8,1.83-1.43,2.909-1.858
			c3.289-1.384,7.088-0.651,9.626,1.858c0.353,0.44,0.707,0.879,1.056,1.323c0.334,0.491,0.603,1.025,0.797,1.586
			c0.253,0.502,0.432,1.038,0.53,1.591c0.097,0.585,0.156,1.175,0.177,1.767c-0.016,0.591-0.075,1.18-0.177,1.763
			c-0.098,0.553-0.277,1.089-0.53,1.59c-0.194,0.563-0.462,1.098-0.797,1.591c-0.349,0.44-0.703,0.879-1.056,1.323
			C48.712,299.188,46.475,300.102,44.138,300.138z"/>
		<path style="fill:#E4C05C;" d="M79.448,300.138c-2.337-0.035-4.575-0.949-6.268-2.56c-0.353-0.444-0.707-0.884-1.06-1.323
			c-0.335-0.492-0.603-1.027-0.797-1.591c-0.254-0.501-0.431-1.037-0.526-1.591c-0.104-0.582-0.163-1.172-0.177-1.763
			c0.033-2.337,0.947-4.576,2.56-6.268c2.135-2.045,5.126-2.933,8.03-2.383c0.554,0.095,1.09,0.272,1.59,0.526
			c0.563,0.194,1.098,0.462,1.591,0.797c0.44,0.353,0.879,0.707,1.323,1.06c1.612,1.693,2.526,3.931,2.561,6.267
			c-0.016,0.591-0.075,1.18-0.177,1.763c-0.098,0.553-0.277,1.089-0.53,1.59c-0.194,0.563-0.462,1.098-0.797,1.591
			c-0.349,0.44-0.703,0.879-1.056,1.323c-0.444,0.353-0.884,0.707-1.323,1.056c-0.492,0.335-1.027,0.603-1.591,0.797
			c-0.501,0.253-1.037,0.432-1.59,0.53C80.629,300.063,80.039,300.122,79.448,300.138z"/>
		<path style="fill:#E4C05C;" d="M114.759,300.138c-1.155-0.014-2.296-0.254-3.358-0.707c-1.079-0.428-2.066-1.057-2.909-1.854
			c-0.38-0.419-0.734-0.861-1.06-1.323c-0.335-0.492-0.603-1.027-0.797-1.591c-0.254-0.501-0.431-1.037-0.526-1.59
			c-0.104-0.582-0.163-1.171-0.177-1.763c0.033-2.337,0.947-4.576,2.56-6.268c0.842-0.8,1.83-1.43,2.909-1.858
			c2.151-0.879,4.561-0.879,6.711,0c1.081,0.428,2.07,1.059,2.915,1.858c1.611,1.693,2.525,3.931,2.56,6.268
			c-0.016,0.591-0.075,1.18-0.177,1.763c-0.098,0.553-0.277,1.089-0.53,1.59c-0.194,0.563-0.462,1.098-0.797,1.591
			c-0.325,0.462-0.678,0.904-1.056,1.324c-0.846,0.796-1.834,1.425-2.914,1.854C117.051,299.884,115.912,300.124,114.759,300.138z"
			/>
		<path style="fill:#E4C05C;" d="M397.241,300.138c-2.337-0.035-4.575-0.949-6.268-2.56c-0.353-0.444-0.707-0.884-1.06-1.323
			c-0.335-0.492-0.603-1.027-0.797-1.591c-0.254-0.501-0.431-1.037-0.526-1.59c-0.104-0.582-0.162-1.172-0.176-1.763
			c0.033-2.337,0.947-4.576,2.56-6.268c2.135-2.045,5.126-2.933,8.03-2.383c0.554,0.095,1.09,0.272,1.59,0.526
			c0.563,0.194,1.098,0.462,1.591,0.797c0.44,0.353,0.879,0.707,1.323,1.06c1.612,1.693,2.526,3.931,2.561,6.267
			c-0.016,0.591-0.075,1.18-0.177,1.763c-0.098,0.553-0.277,1.089-0.53,1.59c-0.194,0.563-0.462,1.098-0.797,1.591
			c-0.349,0.44-0.703,0.879-1.056,1.323c-0.444,0.353-0.884,0.707-1.323,1.056c-0.492,0.335-1.027,0.603-1.591,0.797
			c-0.501,0.253-1.037,0.432-1.59,0.53C398.422,300.063,397.833,300.122,397.241,300.138z"/>
		<path style="fill:#E4C05C;" d="M432.552,300.138c-1.155-0.014-2.296-0.254-3.358-0.707c-1.079-0.428-2.066-1.057-2.909-1.854
			c-0.38-0.419-0.734-0.861-1.06-1.323c-0.335-0.492-0.603-1.027-0.797-1.591c-0.254-0.501-0.431-1.037-0.526-1.59
			c-0.104-0.582-0.163-1.171-0.177-1.763c0.033-2.337,0.947-4.576,2.56-6.268c0.842-0.8,1.83-1.43,2.909-1.858
			c2.151-0.879,4.561-0.879,6.711,0c1.081,0.428,2.07,1.059,2.915,1.858c1.611,1.693,2.525,3.931,2.56,6.268
			c-0.016,0.591-0.075,1.18-0.177,1.763c-0.098,0.553-0.277,1.089-0.53,1.59c-0.194,0.563-0.462,1.098-0.797,1.591
			c-0.325,0.462-0.678,0.904-1.056,1.324c-0.846,0.796-1.834,1.425-2.914,1.854C434.844,299.884,433.705,300.124,432.552,300.138z"
			/>
		<path style="fill:#E4C05C;" d="M467.862,300.138c-2.337-0.035-4.575-0.949-6.268-2.56c-0.353-0.444-0.707-0.884-1.06-1.323
			c-0.335-0.492-0.603-1.027-0.797-1.591c-0.254-0.501-0.431-1.037-0.526-1.59c-0.104-0.582-0.162-1.172-0.176-1.763
			c0.033-2.337,0.947-4.576,2.56-6.268c2.112-2.083,5.124-2.977,8.03-2.383c0.553,0.095,1.09,0.272,1.59,0.526
			c0.563,0.194,1.098,0.462,1.591,0.797c0.44,0.353,0.879,0.707,1.323,1.06c1.612,1.693,2.526,3.931,2.561,6.267
			c-0.016,0.591-0.075,1.18-0.177,1.763c-0.098,0.553-0.277,1.089-0.53,1.59c-0.194,0.563-0.462,1.098-0.797,1.591
			c-0.349,0.44-0.703,0.879-1.056,1.323c-0.444,0.353-0.884,0.707-1.323,1.056c-0.492,0.335-1.027,0.603-1.591,0.797
			c-0.501,0.253-1.037,0.432-1.59,0.53C469.043,300.063,468.453,300.122,467.862,300.138z"/>
		<path style="fill:#E4C05C;" d="M44.138,335.448c-1.155-0.014-2.296-0.254-3.358-0.707c-1.068-0.449-2.051-1.076-2.91-1.853
			c-0.353-0.444-0.707-0.884-1.06-1.414c-0.351-0.45-0.621-0.957-0.797-1.5c-0.254-0.501-0.431-1.037-0.526-1.591
			c-0.104-0.582-0.163-1.172-0.177-1.763c0.012-1.154,0.251-2.295,0.703-3.358c0.427-1.08,1.058-2.068,1.857-2.91
			c0.857-0.78,1.841-1.409,2.909-1.858c2.151-0.879,4.561-0.879,6.711,0c1.07,0.449,2.056,1.077,2.915,1.858
			c0.797,0.843,1.426,1.831,1.854,2.909c0.453,1.062,0.693,2.203,0.706,3.358c-0.016,0.591-0.075,1.18-0.177,1.763
			c-0.098,0.553-0.277,1.089-0.53,1.59c-0.176,0.543-0.446,1.05-0.797,1.5c-0.35,0.53-0.703,0.97-1.056,1.414
			c-0.86,0.778-1.845,1.405-2.914,1.854C46.431,335.194,45.291,335.434,44.138,335.448z"/>
		<path style="fill:#E4C05C;" d="M79.448,335.448c-2.337-0.035-4.575-0.949-6.268-2.56c-0.353-0.444-0.707-0.884-1.06-1.414
			c-0.351-0.45-0.621-0.957-0.797-1.5c-0.254-0.501-0.431-1.037-0.526-1.591c-0.104-0.582-0.163-1.172-0.177-1.763
			c0.012-1.154,0.251-2.295,0.703-3.358c0.449-1.069,1.077-2.053,1.857-2.91c3.515-3.33,9.02-3.33,12.534,0
			c1.612,1.693,2.526,3.931,2.561,6.268c-0.016,0.591-0.075,1.18-0.177,1.763c-0.098,0.553-0.277,1.089-0.53,1.59
			c-0.176,0.543-0.446,1.05-0.797,1.5c-0.349,0.53-0.703,0.97-1.056,1.414c-0.846,0.796-1.834,1.425-2.914,1.854
			C81.741,335.194,80.602,335.434,79.448,335.448z"/>
		<path style="fill:#E4C05C;" d="M114.759,335.448c-1.155-0.014-2.296-0.254-3.358-0.707c-1.068-0.449-2.051-1.076-2.909-1.854
			c-0.402-0.433-0.758-0.907-1.06-1.414c-0.351-0.45-0.621-0.957-0.797-1.5c-0.254-0.501-0.431-1.037-0.526-1.59
			c-0.104-0.582-0.163-1.171-0.177-1.763c0.012-1.154,0.251-2.295,0.703-3.358c0.427-1.08,1.058-2.068,1.857-2.91
			c0.857-0.78,1.841-1.409,2.909-1.858c3.295-1.329,7.062-0.602,9.626,1.858c0.797,0.843,1.426,1.831,1.854,2.909
			c0.453,1.062,0.693,2.203,0.706,3.358c-0.016,0.591-0.075,1.18-0.177,1.763c-0.098,0.553-0.277,1.089-0.53,1.59
			c-0.176,0.543-0.446,1.05-0.797,1.5c-0.349,0.53-0.703,0.97-1.056,1.414c-0.444,0.353-0.884,0.707-1.323,1.056
			c-0.492,0.335-1.027,0.603-1.591,0.797c-0.501,0.253-1.037,0.432-1.59,0.53C115.939,335.373,115.35,335.432,114.759,335.448z"/>
		<path style="fill:#E4C05C;" d="M397.241,335.448c-1.155-0.014-2.296-0.254-3.358-0.707c-1.068-0.449-2.051-1.076-2.909-1.854
			c-0.353-0.444-0.707-0.884-1.06-1.414c-0.351-0.45-0.621-0.957-0.797-1.5c-0.254-0.501-0.431-1.037-0.526-1.59
			c-0.104-0.582-0.163-1.171-0.177-1.763c0.012-1.154,0.251-2.295,0.703-3.358c0.427-1.08,1.058-2.068,1.857-2.91
			c0.857-0.78,1.841-1.409,2.909-1.858c2.151-0.879,4.561-0.879,6.711,0c1.07,0.449,2.056,1.077,2.914,1.858
			c0.797,0.843,1.426,1.831,1.854,2.909c0.453,1.062,0.693,2.203,0.706,3.358c-0.016,0.591-0.075,1.18-0.177,1.763
			c-0.098,0.553-0.277,1.089-0.53,1.59c-0.176,0.543-0.446,1.05-0.797,1.5c-0.349,0.53-0.703,0.97-1.056,1.414
			c-0.86,0.778-1.845,1.405-2.914,1.854C399.534,335.194,398.395,335.434,397.241,335.448z"/>
		<path style="fill:#E4C05C;" d="M432.552,335.448c-2.337-0.035-4.575-0.949-6.268-2.56c-0.353-0.444-0.707-0.884-1.06-1.414
			c-0.351-0.45-0.621-0.957-0.797-1.5c-0.254-0.501-0.431-1.037-0.526-1.59c-0.104-0.582-0.162-1.172-0.176-1.763
			c0.012-1.154,0.251-2.295,0.703-3.358c0.449-1.069,1.077-2.053,1.857-2.91c3.515-3.33,9.02-3.33,12.534,0
			c1.612,1.693,2.526,3.931,2.561,6.268c-0.016,0.591-0.075,1.18-0.177,1.763c-0.098,0.553-0.277,1.089-0.53,1.59
			c-0.176,0.543-0.446,1.05-0.797,1.5c-0.349,0.53-0.703,0.97-1.056,1.414c-0.846,0.796-1.834,1.425-2.914,1.854
			C434.844,335.194,433.705,335.434,432.552,335.448z"/>
		<path style="fill:#E4C05C;" d="M467.862,335.448c-1.155-0.014-2.296-0.254-3.358-0.707c-1.068-0.449-2.051-1.076-2.909-1.854
			c-0.402-0.433-0.758-0.907-1.06-1.414c-0.351-0.45-0.621-0.957-0.797-1.5c-0.254-0.501-0.431-1.037-0.526-1.59
			c-0.104-0.582-0.163-1.171-0.177-1.763c0.012-1.154,0.251-2.295,0.703-3.358c0.427-1.08,1.058-2.068,1.857-2.91
			c0.857-0.78,1.841-1.409,2.909-1.858c3.295-1.329,7.062-0.602,9.626,1.858c0.797,0.843,1.426,1.831,1.854,2.909
			c0.453,1.062,0.693,2.203,0.706,3.358c-0.016,0.591-0.075,1.18-0.177,1.763c-0.098,0.553-0.277,1.089-0.53,1.59
			c-0.176,0.543-0.446,1.05-0.797,1.5c-0.349,0.53-0.703,0.97-1.056,1.414c-0.444,0.353-0.884,0.707-1.323,1.056
			c-0.492,0.335-1.027,0.603-1.591,0.797c-0.501,0.253-1.037,0.432-1.59,0.53C469.043,335.373,468.453,335.432,467.862,335.448z"/>
		<path style="fill:#E4C05C;" d="M44.138,370.759c-1.155-0.014-2.296-0.254-3.358-0.707c-1.079-0.427-2.066-1.056-2.91-1.853
			c-0.353-0.444-0.707-0.884-1.06-1.414c-0.351-0.45-0.621-0.957-0.797-1.5c-0.254-0.501-0.431-1.037-0.526-1.591
			c-0.099-0.583-0.158-1.172-0.177-1.763c0.033-2.337,0.947-4.576,2.56-6.268c0.842-0.8,1.83-1.43,2.909-1.858
			c1.611-0.702,3.401-0.886,5.121-0.526c0.554,0.095,1.09,0.272,1.59,0.526c0.563,0.194,1.098,0.462,1.591,0.797
			c0.462,0.327,0.904,0.681,1.324,1.06c3.414,3.481,3.414,9.054,0,12.534c-0.444,0.353-0.884,0.707-1.323,1.056
			c-0.492,0.335-1.027,0.603-1.591,0.797c-0.501,0.253-1.037,0.432-1.59,0.53C45.319,370.683,44.729,370.742,44.138,370.759z"/>
		<path style="fill:#E4C05C;" d="M79.448,370.759c-1.155-0.014-2.296-0.254-3.358-0.707c-1.068-0.449-2.051-1.076-2.91-1.853
			c-3.414-3.481-3.414-9.054,0-12.534c0.857-0.78,1.841-1.409,2.909-1.858c3.294-1.332,7.063-0.604,9.626,1.857
			c1.611,1.693,2.525,3.931,2.56,6.268c-0.02,0.591-0.079,1.18-0.177,1.763c-0.098,0.553-0.277,1.089-0.53,1.59
			c-0.176,0.543-0.446,1.05-0.797,1.5c-0.301,0.507-0.655,0.981-1.056,1.414c-0.86,0.778-1.845,1.405-2.914,1.854
			C81.741,370.505,80.602,370.745,79.448,370.759z"/>
		<path style="fill:#E4C05C;" d="M114.759,370.759c-0.592-0.02-1.183-0.079-1.767-0.177c-0.553-0.098-1.089-0.277-1.59-0.53
			c-0.562-0.195-1.095-0.463-1.586-0.797c-0.444-0.349-0.884-0.703-1.323-1.056c-0.353-0.444-0.707-0.884-1.06-1.414
			c-0.351-0.45-0.621-0.957-0.797-1.5c-0.254-0.501-0.431-1.037-0.526-1.59c-0.099-0.583-0.158-1.172-0.177-1.763
			c0.033-2.337,0.947-4.576,2.56-6.268c0.418-0.382,0.86-0.736,1.323-1.06c0.491-0.334,1.025-0.603,1.586-0.797
			c0.501-0.254,1.037-0.431,1.591-0.526c1.132-0.267,2.312-0.267,3.444,0c0.584,0.081,1.151,0.259,1.677,0.526
			c0.563,0.194,1.098,0.462,1.591,0.797c0.462,0.327,0.904,0.681,1.324,1.06c1.611,1.693,2.525,3.931,2.56,6.268
			c-0.02,0.591-0.079,1.18-0.177,1.763c-0.098,0.553-0.277,1.089-0.53,1.59c-0.176,0.543-0.446,1.05-0.797,1.5
			c-0.349,0.53-0.703,0.97-1.056,1.414C119.333,369.809,117.095,370.723,114.759,370.759z"/>
		<path style="fill:#E4C05C;" d="M397.241,370.759c-0.593-0.016-1.183-0.075-1.767-0.177c-0.553-0.098-1.089-0.277-1.59-0.53
			c-0.561-0.195-1.095-0.463-1.586-0.797c-0.444-0.349-0.884-0.703-1.323-1.056c-3.414-3.481-3.414-9.054,0-12.534
			c0.418-0.382,0.86-0.736,1.323-1.06c0.491-0.334,1.025-0.603,1.586-0.797c0.501-0.254,1.037-0.431,1.59-0.526
			c1.72-0.36,3.51-0.177,5.121,0.526c1.081,0.428,2.07,1.059,2.914,1.858c0.38,0.418,0.733,0.86,1.056,1.323
			c0.334,0.491,0.603,1.025,0.797,1.586c0.253,0.501,0.432,1.037,0.53,1.59c0.236,1.165,0.236,2.365,0,3.53
			c-0.098,0.553-0.277,1.089-0.53,1.59c-0.176,0.543-0.446,1.05-0.797,1.5c-0.301,0.507-0.655,0.981-1.056,1.415
			c-0.846,0.796-1.834,1.425-2.914,1.854C399.534,370.505,398.395,370.745,397.241,370.759z"/>
		<path style="fill:#E4C05C;" d="M432.552,370.759c-2.337-0.035-4.575-0.949-6.268-2.56c-0.353-0.444-0.707-0.884-1.06-1.414
			c-0.351-0.45-0.621-0.957-0.797-1.5c-0.254-0.501-0.431-1.037-0.526-1.59c-0.099-0.583-0.158-1.172-0.176-1.763
			c0.033-2.337,0.947-4.576,2.56-6.268c0.418-0.382,0.86-0.736,1.323-1.06c0.491-0.334,1.025-0.603,1.586-0.797
			c0.527-0.267,1.095-0.445,1.681-0.526c1.131-0.267,2.309-0.267,3.44,0c0.553,0.095,1.09,0.272,1.59,0.526
			c0.563,0.194,1.098,0.462,1.591,0.797c0.462,0.327,0.904,0.681,1.324,1.06c1.611,1.693,2.525,3.931,2.56,6.268
			c-0.02,0.591-0.079,1.18-0.177,1.763c-0.098,0.553-0.277,1.089-0.53,1.59c-0.176,0.543-0.446,1.05-0.797,1.5
			c-0.349,0.53-0.703,0.97-1.056,1.414c-0.444,0.353-0.884,0.707-1.323,1.056c-0.492,0.335-1.027,0.603-1.591,0.797
			c-0.501,0.253-1.037,0.432-1.59,0.53C433.732,370.679,433.143,370.738,432.552,370.759z"/>
		<path style="fill:#E4C05C;" d="M467.862,370.759c-1.155-0.014-2.296-0.254-3.358-0.707c-1.068-0.449-2.051-1.076-2.909-1.854
			c-0.402-0.433-0.758-0.907-1.06-1.414c-0.351-0.45-0.621-0.957-0.797-1.5c-0.254-0.501-0.431-1.037-0.526-1.59
			c-0.099-0.583-0.158-1.172-0.177-1.763c0.033-2.337,0.947-4.576,2.56-6.268c0.857-0.78,1.841-1.409,2.909-1.858
			c3.294-1.34,7.067-0.612,9.626,1.858c3.414,3.481,3.414,9.054,0,12.534c-0.86,0.778-1.845,1.405-2.914,1.854
			C470.155,370.504,469.015,370.745,467.862,370.759z"/>
		<path style="fill:#E4C05C;" d="M44.138,406.069c-2.348,0.023-4.607-0.9-6.267-2.56c-1.66-1.66-2.583-3.919-2.56-6.267
			c0.012-1.154,0.251-2.295,0.703-3.358c0.427-1.08,1.058-2.068,1.857-2.91c2.536-2.508,6.333-3.242,9.621-1.858
			c1.081,0.428,2.07,1.059,2.915,1.858c0.778,0.858,1.405,1.842,1.854,2.909c0.453,1.062,0.693,2.203,0.706,3.358
			c0.023,2.348-0.9,4.607-2.56,6.267C48.745,405.169,46.486,406.092,44.138,406.069z"/>
		<path style="fill:#E4C05C;" d="M79.448,406.069c-0.592-0.02-1.183-0.079-1.767-0.177c-0.553-0.098-1.089-0.277-1.59-0.53
			c-0.562-0.195-1.095-0.463-1.586-0.797c-0.444-0.35-0.884-0.703-1.324-1.056c-1.612-1.692-2.527-3.93-2.56-6.268
			c0.012-1.154,0.251-2.295,0.703-3.358c0.427-1.08,1.058-2.068,1.857-2.91c0.44-0.353,0.879-0.707,1.323-1.06
			c0.491-0.334,1.025-0.603,1.586-0.797c0.501-0.254,1.037-0.431,1.591-0.526c1.17-0.177,2.36-0.177,3.53,0
			c0.554,0.095,1.09,0.272,1.59,0.526c0.563,0.194,1.098,0.462,1.591,0.797c0.44,0.353,0.879,0.707,1.323,1.06
			c0.797,0.843,1.426,1.831,1.854,2.909c0.453,1.062,0.693,2.203,0.707,3.358c-0.035,2.337-0.949,4.574-2.56,6.268
			c-0.444,0.353-0.884,0.707-1.323,1.056c-0.492,0.335-1.027,0.603-1.591,0.797c-0.501,0.253-1.037,0.432-1.59,0.53
			C80.628,405.99,80.039,406.049,79.448,406.069z"/>
		<path style="fill:#E4C05C;" d="M114.759,406.069c-1.159,0.031-2.309-0.212-3.358-0.707c-1.068-0.449-2.051-1.076-2.909-1.854
			c-1.612-1.692-2.527-3.93-2.56-6.267c0.012-1.154,0.251-2.295,0.703-3.358c0.811-2.213,2.554-3.956,4.767-4.767
			c2.151-0.879,4.561-0.879,6.711,0c2.215,0.807,3.96,2.552,4.767,4.767c0.496,1.048,0.738,2.199,0.708,3.358
			c0.023,2.348-0.9,4.607-2.56,6.267C119.365,405.169,117.107,406.092,114.759,406.069z"/>
		<path style="fill:#E4C05C;" d="M150.069,406.069c-2.337-0.035-4.575-0.949-6.268-2.56c-0.799-0.844-1.429-1.833-1.858-2.914
			c-0.937-2.139-0.937-4.572,0-6.711c0.427-1.08,1.058-2.068,1.858-2.91c0.857-0.78,1.841-1.409,2.909-1.858
			c2.151-0.879,4.561-0.879,6.711,0c2.215,0.807,3.96,2.552,4.767,4.767c0.453,1.062,0.694,2.203,0.708,3.358
			c-0.035,2.337-0.949,4.574-2.56,6.268c-0.86,0.778-1.845,1.405-2.914,1.854C152.376,405.857,151.227,406.099,150.069,406.069z"/>
		<path style="fill:#E4C05C;" d="M185.379,406.069c-0.592-0.02-1.183-0.079-1.767-0.177c-0.553-0.098-1.089-0.277-1.59-0.53
			c-0.562-0.195-1.095-0.463-1.586-0.797c-0.444-0.349-0.884-0.703-1.323-1.056c-1.612-1.692-2.527-3.93-2.56-6.267
			c0.012-1.154,0.251-2.295,0.703-3.358c0.427-1.08,1.058-2.068,1.857-2.91c0.44-0.353,0.879-0.707,1.323-1.06
			c0.491-0.334,1.025-0.603,1.586-0.797c0.501-0.254,1.037-0.431,1.591-0.526c1.17-0.177,2.36-0.177,3.53,0
			c0.554,0.095,1.09,0.272,1.59,0.526c0.563,0.194,1.098,0.462,1.591,0.797c0.44,0.353,0.879,0.707,1.323,1.06
			c0.778,0.858,1.405,1.842,1.854,2.909c0.453,1.062,0.693,2.203,0.707,3.358c-0.035,2.337-0.949,4.574-2.56,6.268
			c-0.444,0.353-0.884,0.707-1.323,1.056c-0.492,0.335-1.027,0.603-1.591,0.797c-0.501,0.253-1.037,0.432-1.59,0.53
			C186.559,405.99,185.97,406.049,185.379,406.069z"/>
		<path style="fill:#E4C05C;" d="M220.69,406.069c-2.348,0.023-4.607-0.9-6.267-2.56c-1.66-1.66-2.583-3.919-2.56-6.267
			c0.012-1.154,0.251-2.295,0.703-3.358c0.449-1.069,1.077-2.053,1.857-2.91c0.842-0.8,1.83-1.43,2.909-1.858
			c3.291-1.367,7.08-0.636,9.626,1.858c0.797,0.843,1.426,1.831,1.854,2.909c0.453,1.062,0.693,2.203,0.706,3.358
			c0.023,2.348-0.9,4.607-2.56,6.267C225.296,405.169,223.038,406.092,220.69,406.069z"/>
		<path style="fill:#E4C05C;" d="M256,406.069c-1.159,0.031-2.309-0.212-3.358-0.707c-1.068-0.449-2.051-1.076-2.91-1.854
			c-0.799-0.844-1.429-1.833-1.858-2.914c-0.937-2.139-0.937-4.572,0-6.711c0.427-1.08,1.058-2.067,1.857-2.909
			c0.857-0.78,1.841-1.409,2.909-1.858c2.151-0.879,4.561-0.879,6.711,0c1.081,0.428,2.07,1.059,2.914,1.858
			c0.778,0.858,1.405,1.842,1.854,2.909c0.453,1.062,0.693,2.203,0.706,3.358c0.023,2.348-0.9,4.607-2.56,6.267
			C260.607,405.169,258.348,406.092,256,406.069z"/>
		<path style="fill:#E4C05C;" d="M291.31,406.069c-0.592-0.02-1.183-0.079-1.767-0.177c-0.553-0.098-1.089-0.277-1.59-0.53
			c-0.561-0.195-1.095-0.463-1.586-0.797c-0.444-0.349-0.884-0.703-1.323-1.056c-1.612-1.692-2.527-3.93-2.56-6.267
			c0.012-1.154,0.251-2.295,0.703-3.358c0.449-1.069,1.077-2.053,1.857-2.91c0.44-0.353,0.879-0.707,1.323-1.06
			c0.491-0.334,1.025-0.603,1.586-0.797c0.501-0.254,1.037-0.431,1.591-0.526c1.17-0.177,2.36-0.177,3.53,0
			c0.554,0.095,1.09,0.272,1.59,0.526c0.543,0.176,1.05,0.446,1.5,0.797c0.53,0.353,0.97,0.707,1.414,1.06
			c0.778,0.858,1.405,1.842,1.854,2.909c0.453,1.062,0.693,2.203,0.707,3.358c-0.035,2.337-0.949,4.574-2.56,6.268
			c-0.444,0.353-0.884,0.707-1.414,1.056c-0.45,0.351-0.957,0.621-1.5,0.797c-0.501,0.253-1.037,0.432-1.59,0.53
			C292.49,405.99,291.901,406.049,291.31,406.069z"/>
		<path style="fill:#E4C05C;" d="M326.621,406.069c-2.348,0.023-4.607-0.9-6.267-2.56c-1.66-1.66-2.583-3.919-2.56-6.267
			c0.012-1.154,0.251-2.295,0.703-3.358c0.449-1.069,1.077-2.053,1.857-2.91c0.842-0.8,1.83-1.43,2.909-1.858
			c1.611-0.702,3.401-0.886,5.121-0.526c0.554,0.095,1.09,0.272,1.59,0.526c0.563,0.194,1.098,0.462,1.591,0.797
			c0.44,0.353,0.879,0.707,1.323,1.06c0.778,0.858,1.405,1.842,1.854,2.909c0.453,1.062,0.693,2.203,0.707,3.358
			c-0.035,2.337-0.949,4.574-2.56,6.268c-0.444,0.353-0.884,0.707-1.323,1.056c-0.492,0.335-1.027,0.603-1.591,0.797
			c-0.501,0.253-1.037,0.432-1.59,0.53C327.801,405.994,327.212,406.053,326.621,406.069z"/>
		<path style="fill:#E4C05C;" d="M361.931,406.069c-2.348,0.023-4.607-0.9-6.267-2.56c-1.66-1.66-2.583-3.919-2.56-6.267
			c0.012-1.154,0.251-2.295,0.703-3.358c0.811-2.213,2.554-3.956,4.767-4.767c3.29-1.376,7.084-0.644,9.626,1.857
			c2.546,2.526,3.312,6.341,1.937,9.653C368.76,403.939,365.517,406.09,361.931,406.069z"/>
		<path style="fill:#E4C05C;" d="M397.241,406.069c-0.593-0.016-1.183-0.075-1.767-0.177c-0.553-0.098-1.089-0.277-1.59-0.53
			c-0.561-0.195-1.095-0.463-1.586-0.797c-0.444-0.349-0.884-0.703-1.323-1.056c-1.612-1.692-2.527-3.93-2.56-6.267
			c0.012-1.154,0.251-2.295,0.703-3.358c0.449-1.069,1.077-2.053,1.857-2.91c0.44-0.353,0.879-0.707,1.323-1.06
			c0.491-0.334,1.025-0.603,1.586-0.797c0.501-0.254,1.037-0.431,1.591-0.526c1.72-0.361,3.51-0.177,5.121,0.526
			c1.081,0.428,2.07,1.059,2.914,1.858c0.778,0.858,1.405,1.842,1.854,2.909c0.453,1.062,0.693,2.203,0.706,3.358
			c0.023,2.348-0.9,4.607-2.56,6.267C401.848,405.169,399.59,406.092,397.241,406.069z"/>
		<path style="fill:#E4C05C;" d="M432.552,406.069c-0.592-0.02-1.183-0.079-1.767-0.177c-0.553-0.098-1.089-0.277-1.59-0.53
			c-0.542-0.178-1.049-0.448-1.5-0.797c-0.53-0.35-0.97-0.703-1.41-1.056c-1.612-1.692-2.527-3.93-2.56-6.268
			c0.012-1.154,0.251-2.295,0.703-3.358c0.449-1.069,1.077-2.053,1.857-2.91c0.44-0.353,0.879-0.707,1.409-1.06
			c0.451-0.35,0.958-0.619,1.5-0.797c0.501-0.254,1.037-0.431,1.591-0.526c1.17-0.177,2.36-0.177,3.53,0
			c0.553,0.095,1.09,0.272,1.59,0.526c0.563,0.194,1.098,0.462,1.591,0.797c0.44,0.353,0.879,0.707,1.323,1.06
			c0.778,0.858,1.405,1.842,1.854,2.909c0.453,1.062,0.693,2.203,0.707,3.358c-0.035,2.337-0.949,4.574-2.56,6.268
			c-0.444,0.353-0.884,0.707-1.323,1.056c-0.492,0.335-1.027,0.603-1.591,0.797c-0.501,0.253-1.037,0.432-1.59,0.53
			C433.732,405.99,433.143,406.049,432.552,406.069z"/>
		<path style="fill:#E4C05C;" d="M467.862,406.069c-1.159,0.031-2.309-0.212-3.358-0.707c-1.068-0.449-2.051-1.076-2.909-1.854
			c-1.612-1.692-2.527-3.93-2.56-6.267c0.012-1.154,0.251-2.295,0.703-3.358c0.811-2.213,2.554-3.956,4.767-4.767
			c3.295-1.323,7.059-0.597,9.626,1.857c0.778,0.858,1.405,1.842,1.854,2.909c0.495,1.049,0.737,2.199,0.706,3.358
			c0.023,2.348-0.9,4.607-2.56,6.267C472.469,405.169,470.21,406.092,467.862,406.069z"/>
		<path style="fill:#E4C05C;" d="M44.138,441.379c-2.337-0.035-4.575-0.949-6.268-2.56c-0.799-0.844-1.429-1.833-1.858-2.914
			c-0.937-2.139-0.937-4.572,0-6.711c0.427-1.08,1.058-2.068,1.858-2.91c3.539-3.267,8.995-3.267,12.534,0
			c0.797,0.843,1.426,1.831,1.854,2.909c0.943,2.138,0.943,4.573,0,6.711c-0.429,1.08-1.058,2.068-1.854,2.914
			c-0.444,0.353-0.884,0.707-1.414,1.056c-0.45,0.351-0.957,0.621-1.5,0.797c-0.526,0.266-1.093,0.445-1.677,0.53
			C45.261,441.304,44.7,441.363,44.138,441.379z"/>
		<path style="fill:#E4C05C;" d="M79.448,441.379c-0.592-0.02-1.183-0.079-1.767-0.177c-0.553-0.098-1.089-0.277-1.59-0.53
			c-0.562-0.195-1.095-0.463-1.586-0.797c-0.444-0.35-0.884-0.703-1.324-1.056c-1.612-1.692-2.527-3.931-2.56-6.268
			c0.012-1.154,0.251-2.295,0.703-3.358c0.427-1.08,1.058-2.068,1.857-2.91c0.418-0.382,0.86-0.736,1.323-1.06
			c0.491-0.334,1.025-0.603,1.586-0.797c0.501-0.254,1.037-0.431,1.591-0.526c1.162-0.267,2.369-0.267,3.53,0
			c0.554,0.095,1.09,0.272,1.59,0.526c0.563,0.194,1.098,0.462,1.591,0.797c0.462,0.327,0.904,0.681,1.324,1.06
			c0.797,0.843,1.426,1.831,1.854,2.909c0.495,1.049,0.737,2.199,0.706,3.358c-0.035,2.337-0.949,4.574-2.56,6.268
			c-0.444,0.353-0.884,0.707-1.323,1.056c-0.492,0.335-1.027,0.603-1.591,0.797c-0.501,0.253-1.037,0.432-1.59,0.53
			C80.628,441.3,80.039,441.359,79.448,441.379z"/>
		<path style="fill:#E4C05C;" d="M114.759,441.379c-2.348,0.023-4.607-0.9-6.267-2.56c-1.66-1.66-2.583-3.919-2.56-6.267
			c0.012-1.154,0.251-2.295,0.703-3.358c0.84-2.195,2.545-3.948,4.715-4.85c2.17-0.901,4.616-0.871,6.763,0.083
			c1.07,0.449,2.055,1.077,2.914,1.857c0.797,0.843,1.426,1.831,1.854,2.909c0.453,1.062,0.693,2.203,0.706,3.358
			c-0.035,2.337-0.949,4.574-2.56,6.268c-0.86,0.778-1.845,1.405-2.914,1.854C117.051,441.125,115.912,441.365,114.759,441.379z"/>
		<path style="fill:#E4C05C;" d="M150.069,441.379c-1.155-0.014-2.296-0.254-3.358-0.707c-1.068-0.449-2.051-1.076-2.91-1.854
			c-1.612-1.692-2.527-3.93-2.56-6.267c0.012-1.154,0.251-2.295,0.703-3.358c0.449-1.069,1.077-2.053,1.857-2.91
			c3.514-3.332,9.021-3.332,12.534,0c0.778,0.858,1.405,1.842,1.854,2.909c0.453,1.062,0.693,2.203,0.707,3.358
			c0.023,2.348-0.9,4.607-2.56,6.267C154.676,440.479,152.417,441.402,150.069,441.379z"/>
		<path style="fill:#E4C05C;" d="M185.379,441.379c-2.337-0.035-4.575-0.949-6.268-2.56c-0.799-0.844-1.429-1.833-1.858-2.914
			c-0.937-2.139-0.937-4.572,0-6.711c0.427-1.08,1.058-2.068,1.858-2.91c2.118-2.073,5.124-2.965,8.03-2.383
			c0.554,0.095,1.09,0.272,1.59,0.526c0.563,0.194,1.098,0.462,1.591,0.797c0.462,0.327,0.904,0.681,1.324,1.06
			c0.797,0.843,1.426,1.831,1.854,2.909c0.453,1.062,0.693,2.203,0.706,3.358c-0.035,2.337-0.949,4.574-2.56,6.268
			c-0.444,0.353-0.884,0.707-1.323,1.056c-0.492,0.335-1.027,0.603-1.591,0.797c-0.501,0.253-1.037,0.432-1.59,0.53
			C186.559,441.3,185.97,441.359,185.379,441.379z"/>
		<path style="fill:#E4C05C;" d="M220.69,441.379c-0.592-0.02-1.183-0.079-1.767-0.177c-0.553-0.098-1.089-0.277-1.59-0.53
			c-0.562-0.195-1.095-0.463-1.586-0.797c-0.444-0.349-0.884-0.703-1.323-1.056c-1.612-1.692-2.527-3.93-2.56-6.267
			c0.012-1.154,0.251-2.295,0.703-3.358c0.427-1.08,1.058-2.068,1.857-2.91c0.418-0.382,0.86-0.736,1.323-1.06
			c0.491-0.334,1.025-0.603,1.586-0.797c0.501-0.254,1.037-0.431,1.591-0.526c2.905-0.536,5.892,0.35,8.035,2.383
			c0.797,0.843,1.426,1.831,1.854,2.909c0.495,1.049,0.737,2.199,0.707,3.358c0.023,2.348-0.9,4.607-2.56,6.267
			C225.296,440.479,223.038,441.402,220.69,441.379z"/>
		<path style="fill:#E4C05C;" d="M256,441.379c-1.155-0.014-2.296-0.254-3.358-0.707c-1.079-0.428-2.066-1.057-2.91-1.854
			c-1.612-1.692-2.527-3.93-2.56-6.267c0.012-1.154,0.251-2.295,0.703-3.358c0.449-1.069,1.077-2.053,1.857-2.91
			c3.514-3.332,9.021-3.332,12.534,0c0.778,0.858,1.405,1.842,1.854,2.909c0.453,1.062,0.693,2.203,0.707,3.358
			c0.023,2.348-0.9,4.607-2.56,6.267C260.607,440.479,258.348,441.402,256,441.379z"/>
		<path style="fill:#E4C05C;" d="M291.31,441.379c-2.348,0.023-4.607-0.9-6.267-2.56c-1.66-1.66-2.583-3.919-2.56-6.267
			c0.012-1.154,0.251-2.295,0.703-3.358c0.449-1.069,1.077-2.053,1.857-2.91c2.556-2.469,6.329-3.198,9.621-1.858
			c1.081,0.428,2.07,1.059,2.914,1.858c0.778,0.858,1.405,1.842,1.854,2.909c0.453,1.062,0.693,2.203,0.706,3.358
			c-0.035,2.337-0.949,4.574-2.56,6.268c-0.846,0.796-1.834,1.425-2.914,1.854C293.603,441.125,292.464,441.365,291.31,441.379z"/>
		<path style="fill:#E4C05C;" d="M326.621,441.379c-2.337-0.035-4.575-0.949-6.268-2.56c-0.799-0.844-1.429-1.833-1.858-2.914
			c-0.937-2.139-0.937-4.572,0-6.711c0.427-1.08,1.058-2.068,1.858-2.91c2.118-2.073,5.124-2.965,8.03-2.383
			c0.554,0.095,1.09,0.272,1.59,0.526c0.563,0.194,1.098,0.462,1.591,0.797c0.462,0.327,0.904,0.681,1.324,1.06
			c0.797,0.843,1.426,1.831,1.854,2.909c0.453,1.062,0.693,2.203,0.706,3.358c-0.035,2.337-0.949,4.574-2.56,6.268
			c-0.444,0.353-0.884,0.707-1.323,1.056c-0.492,0.335-1.027,0.603-1.591,0.797c-0.501,0.253-1.037,0.432-1.59,0.53
			C327.801,441.3,327.212,441.359,326.621,441.379z"/>
		<path style="fill:#E4C05C;" d="M361.931,441.379c-0.592-0.02-1.183-0.079-1.767-0.177c-0.553-0.098-1.089-0.277-1.59-0.53
			c-0.561-0.195-1.095-0.463-1.586-0.797c-0.444-0.349-0.884-0.703-1.323-1.056c-1.612-1.692-2.527-3.93-2.56-6.267
			c0.012-1.154,0.251-2.295,0.703-3.358c0.427-1.08,1.058-2.068,1.857-2.91c0.418-0.382,0.86-0.736,1.323-1.06
			c0.491-0.334,1.025-0.603,1.586-0.797c0.501-0.254,1.037-0.431,1.591-0.526c2.905-0.536,5.892,0.35,8.035,2.383
			c0.797,0.843,1.426,1.831,1.854,2.909c0.495,1.049,0.737,2.199,0.707,3.358c0.023,2.348-0.9,4.607-2.56,6.267
			C366.538,440.479,364.279,441.402,361.931,441.379z"/>
		<path style="fill:#E4C05C;" d="M397.241,441.379c-1.155-0.014-2.296-0.254-3.358-0.707c-1.079-0.428-2.066-1.057-2.909-1.854
			c-1.612-1.692-2.527-3.93-2.56-6.267c0.012-1.154,0.251-2.295,0.703-3.358c0.449-1.069,1.077-2.053,1.857-2.91
			c3.514-3.332,9.021-3.332,12.534,0c0.778,0.858,1.405,1.842,1.854,2.909c0.453,1.062,0.693,2.203,0.707,3.358
			c0.023,2.348-0.9,4.607-2.56,6.267C401.848,440.479,399.59,441.402,397.241,441.379z"/>
		<path style="fill:#E4C05C;" d="M432.552,441.379c-1.155-0.014-2.296-0.254-3.358-0.707c-1.068-0.449-2.051-1.076-2.909-1.854
			c-1.612-1.692-2.527-3.93-2.56-6.267c0.012-1.154,0.251-2.295,0.703-3.358c0.427-1.08,1.058-2.068,1.857-2.91
			c0.857-0.78,1.841-1.409,2.909-1.858c2.147-0.957,4.594-0.989,6.765-0.087c2.171,0.902,3.876,2.657,4.713,4.854
			c0.453,1.062,0.694,2.203,0.707,3.358c0.023,2.348-0.9,4.607-2.56,6.267C437.158,440.479,434.9,441.402,432.552,441.379z"/>
		<path style="fill:#E4C05C;" d="M467.862,441.379c-0.592-0.02-1.183-0.079-1.767-0.177c-0.553-0.098-1.089-0.277-1.59-0.53
			c-0.561-0.195-1.095-0.463-1.586-0.797c-0.444-0.349-0.884-0.703-1.323-1.056c-1.612-1.692-2.527-3.93-2.56-6.267
			c-0.03-1.159,0.211-2.308,0.703-3.358c0.427-1.08,1.058-2.068,1.857-2.91c0.418-0.382,0.86-0.736,1.323-1.06
			c0.491-0.334,1.025-0.603,1.586-0.797c0.501-0.254,1.037-0.431,1.591-0.526c1.162-0.267,2.369-0.267,3.53,0
			c0.553,0.095,1.09,0.272,1.59,0.526c0.563,0.194,1.098,0.462,1.591,0.797c0.462,0.327,0.904,0.681,1.324,1.06
			c0.797,0.843,1.426,1.831,1.854,2.909c0.453,1.062,0.693,2.203,0.706,3.358c-0.035,2.337-0.949,4.574-2.56,6.268
			c-0.444,0.353-0.884,0.707-1.323,1.056c-0.492,0.335-1.027,0.603-1.591,0.797c-0.501,0.253-1.037,0.432-1.59,0.53
			C469.042,441.3,468.453,441.359,467.862,441.379z"/>
		<path style="fill:#E4C05C;" d="M44.138,476.69c-3.569-0.014-6.782-2.168-8.151-5.465s-0.626-7.093,1.883-9.631
			c0.842-0.8,1.83-1.43,2.909-1.858c2.151-0.879,4.561-0.879,6.711,0c1.081,0.428,2.07,1.059,2.915,1.858
			c1.611,1.693,2.525,3.931,2.56,6.268c-0.014,1.153-0.254,2.293-0.707,3.353c-0.449,1.069-1.076,2.054-1.854,2.914
			C48.712,475.74,46.474,476.654,44.138,476.69z"/>
		<path style="fill:#E4C05C;" d="M79.448,476.69c-3.569-0.014-6.782-2.168-8.151-5.465s-0.626-7.093,1.883-9.631
			c0.857-0.78,1.841-1.409,2.909-1.858c3.294-1.338,7.066-0.61,9.626,1.858c1.611,1.693,2.525,3.931,2.56,6.268
			c0.03,1.158-0.212,2.306-0.707,3.353c-0.449,1.069-1.076,2.054-1.854,2.914c-0.444,0.353-0.884,0.707-1.323,1.056
			c-0.492,0.335-1.027,0.603-1.591,0.797c-0.501,0.253-1.037,0.432-1.59,0.53C80.628,476.61,80.039,476.669,79.448,476.69z"/>
		<path style="fill:#E4C05C;" d="M114.759,476.69c-0.592-0.02-1.183-0.079-1.767-0.177c-0.553-0.098-1.089-0.277-1.59-0.53
			c-0.562-0.195-1.095-0.463-1.586-0.797c-0.444-0.349-0.884-0.703-1.323-1.056c-0.78-0.859-1.409-1.844-1.858-2.914
			c-0.937-2.139-0.937-4.572,0-6.711c0.449-1.069,1.077-2.053,1.857-2.91c2.557-2.467,6.329-3.196,9.621-1.858
			c1.081,0.428,2.07,1.059,2.915,1.858c2.546,2.526,3.312,6.341,1.937,9.653S118.345,476.711,114.759,476.69z"/>
		<path style="fill:#E4C05C;" d="M150.069,476.69c-2.337-0.035-4.575-0.949-6.268-2.56c-0.78-0.859-1.409-1.844-1.858-2.914
			c-0.451-1.061-0.69-2.201-0.702-3.354c0.033-2.337,0.947-4.576,2.56-6.268c0.842-0.8,1.83-1.43,2.909-1.858
			c2.151-0.879,4.561-0.879,6.711,0c1.081,0.428,2.07,1.059,2.915,1.858c2.546,2.526,3.312,6.341,1.937,9.653
			C156.898,474.56,153.655,476.711,150.069,476.69z"/>
		<path style="fill:#E4C05C;" d="M185.379,476.69c-3.569-0.014-6.782-2.168-8.151-5.465c-1.369-3.297-0.626-7.093,1.883-9.631
			c3.514-3.332,9.021-3.332,12.534,0c0.778,0.858,1.405,1.842,1.854,2.909c0.943,2.138,0.943,4.573,0,6.711
			c-0.449,1.069-1.076,2.054-1.854,2.914C189.953,475.74,187.716,476.654,185.379,476.69z"/>
		<path style="fill:#E4C05C;" d="M220.69,476.69c-3.569-0.014-6.782-2.168-8.151-5.465c-1.369-3.297-0.626-7.093,1.883-9.631
			c3.514-3.332,9.021-3.332,12.534,0c1.612,1.693,2.526,3.931,2.561,6.268c-0.014,1.153-0.254,2.293-0.707,3.353
			c-0.449,1.069-1.076,2.054-1.854,2.914c-0.444,0.353-0.884,0.707-1.323,1.056c-0.492,0.335-1.027,0.603-1.591,0.797
			c-0.501,0.253-1.037,0.432-1.59,0.53C221.869,476.61,221.28,476.669,220.69,476.69z"/>
		<path style="fill:#E4C05C;" d="M256,476.69c-2.337-0.035-4.575-0.949-6.268-2.56c-0.799-0.844-1.429-1.833-1.858-2.914
			c-0.937-2.139-0.937-4.572,0-6.711c0.811-2.213,2.554-3.956,4.767-4.767c2.151-0.879,4.561-0.879,6.711,0
			c1.07,0.449,2.056,1.077,2.915,1.857c1.611,1.693,2.525,3.931,2.56,6.268c0.03,1.158-0.212,2.306-0.707,3.353
			c-0.449,1.069-1.076,2.054-1.854,2.914C260.574,475.74,258.336,476.654,256,476.69z"/>
		<path style="fill:#E4C05C;" d="M291.31,476.69c-0.592-0.02-1.183-0.079-1.767-0.177c-0.553-0.098-1.089-0.277-1.59-0.53
			c-0.561-0.195-1.095-0.463-1.586-0.797c-0.444-0.349-0.884-0.703-1.323-1.056c-0.78-0.859-1.409-1.844-1.858-2.914
			c-0.937-2.139-0.937-4.572,0-6.711c0.449-1.069,1.077-2.053,1.857-2.91c2.557-2.467,6.329-3.196,9.621-1.858
			c1.081,0.428,2.07,1.059,2.914,1.858c2.546,2.526,3.312,6.341,1.937,9.653C298.139,474.56,294.897,476.711,291.31,476.69z"/>
		<path style="fill:#E4C05C;" d="M326.621,476.69c-2.337-0.035-4.575-0.949-6.268-2.56c-0.78-0.859-1.409-1.844-1.858-2.914
			c-0.451-1.061-0.69-2.201-0.702-3.354c0.033-2.337,0.947-4.576,2.56-6.268c0.842-0.8,1.83-1.43,2.909-1.858
			c2.151-0.879,4.561-0.879,6.711,0c1.091,0.407,2.085,1.04,2.915,1.858c2.546,2.526,3.312,6.341,1.937,9.653
			S330.207,476.711,326.621,476.69z"/>
		<path style="fill:#E4C05C;" d="M361.931,476.69c-3.569-0.014-6.782-2.168-8.151-5.465c-1.369-3.297-0.626-7.093,1.883-9.631
			c3.514-3.332,9.021-3.332,12.534,0c1.612,1.693,2.526,3.931,2.561,6.268c-0.014,1.153-0.254,2.293-0.707,3.353
			c-0.449,1.069-1.076,2.054-1.854,2.914C366.505,475.74,364.268,476.654,361.931,476.69z"/>
		<path style="fill:#E4C05C;" d="M432.552,476.69c-2.337-0.035-4.575-0.949-6.268-2.56c-0.78-0.859-1.409-1.844-1.858-2.914
			c-0.937-2.139-0.937-4.572,0-6.711c0.811-2.213,2.554-3.956,4.767-4.767c2.151-0.879,4.561-0.879,6.711,0
			c1.07,0.449,2.056,1.077,2.915,1.857c2.546,2.526,3.312,6.341,1.937,9.653S436.138,476.711,432.552,476.69z"/>
		<path style="fill:#E4C05C;" d="M467.862,476.69c-0.592-0.02-1.183-0.079-1.767-0.177c-0.553-0.098-1.089-0.277-1.59-0.53
			c-0.561-0.195-1.095-0.463-1.586-0.797c-0.444-0.349-0.884-0.703-1.323-1.056c-0.78-0.859-1.409-1.844-1.858-2.914
			c-0.451-1.061-0.69-2.201-0.703-3.354c0.033-2.337,0.947-4.576,2.56-6.268c2.557-2.467,6.329-3.196,9.621-1.858
			c1.081,0.428,2.07,1.059,2.914,1.858c2.546,2.526,3.312,6.341,1.937,9.653S471.448,476.711,467.862,476.69z"/>
	</g>
</g>
<g>
</g>
<g>
</g>
<g>
</g>
<g>
</g>
<g>
</g>
<g>
</g>
<g>
</g>
<g>
</g>
<g>
</g>
<g>
</g>
<g>
</g>
<g>
</g>
<g>
</g>
<g>
</g>
<g>
</g>
</svg>
