<?xml version="1.0" encoding="iso-8859-1"?>
<!-- Generator: Adobe Illustrator 19.0.0, SVG Export Plug-In . SVG Version: 6.00 Build 0)  -->
<svg version="1.1" id="Capa_1" xmlns="http://www.w3.org/2000/svg" xmlns:xlink="http://www.w3.org/1999/xlink" x="0px" y="0px"
	 viewBox="0 0 512 512" style="enable-background:new 0 0 512 512;" xml:space="preserve">
<g>
	<path style="fill:#E4C05C;" d="M429.639,185.379l-5.914-35.31l-5.914-35.31l-5.826-35.31l-4.679-27.895
		c-0.692-4.285-4.398-7.431-8.739-7.415l-27.807,0l5.914,35.31l5.914,35.31l5.826,35.31l5.914,35.31l7.327,44.138h24.894
		c2.594,0.012,5.062-1.119,6.746-3.092c1.684-1.973,2.413-4.588,1.994-7.148L429.639,185.379z"/>
	<g>
		<path style="fill:#B19046;" d="M435.288,219.277c0.42,2.56-0.31,5.175-1.994,7.148c-1.684,1.973-4.152,3.104-6.746,3.092h-24.894
			l-7.327-44.138h35.31L435.288,219.277z"/>
		<polygon style="fill:#B19046;" points="423.724,150.069 388.414,150.069 382.588,114.759 417.81,114.759 		"/>
		<path style="fill:#B19046;" d="M411.983,79.448h-35.31l-5.914-35.31l27.807,0c4.341-0.015,8.048,3.13,8.739,7.415L411.983,79.448z
			"/>
	</g>
	<path style="fill:#71C285;" d="M432.552,379.586H52.966L113.523,7.592c0.639-4.342,4.351-7.567,8.739-7.592h240.993
		c4.388,0.025,8.101,3.25,8.739,7.592l6.091,37.597l11.829,72.302l5.826,36.151l5.914,36.151l7.327,45.189L432.552,379.586z"/>
	<g>
		<path style="fill:#5E5F62;" d="M306.76,176.552h44.001c2.532,0,4.942-1.087,6.618-2.985c1.676-1.898,2.456-4.424,2.142-6.937
			l-6.621-52.966c-0.552-4.418-4.307-7.733-8.759-7.733h-44c-2.532,0-4.942,1.087-6.618,2.985c-1.676,1.898-2.456,4.424-2.142,6.937
			l6.621,52.966C298.553,173.236,302.308,176.552,306.76,176.552z"/>
		<path style="fill:#5E5F62;" d="M317.929,282.483h44c2.532,0,4.942-1.087,6.618-2.985c1.676-1.898,2.456-4.424,2.142-6.937
			l-6.621-52.966c-0.552-4.418-4.307-7.733-8.759-7.733h-44c-2.532,0-4.942,1.087-6.618,2.985c-1.676,1.898-2.456,4.424-2.142,6.937
			l6.621,52.965C309.722,279.168,313.477,282.483,317.929,282.483z"/>
	</g>
	<g>
		<path style="fill:#E6E7E8;" d="M264.828,70.621c-3.569-0.014-6.782-2.168-8.151-5.464c-1.369-3.297-0.626-7.093,1.883-9.631
			c3.461-3.461,9.074-3.461,12.535,0c3.462,3.461,3.462,9.074,0,12.535C269.402,69.671,267.164,70.585,264.828,70.621z"/>
		<path style="fill:#E6E7E8;" d="M344.276,70.621c-3.569-0.014-6.782-2.168-8.151-5.464c-1.369-3.297-0.626-7.093,1.883-9.631
			c2.239-2.239,5.503-3.114,8.562-2.294c3.059,0.82,5.448,3.209,6.268,6.268s-0.055,6.322-2.294,8.562
			C348.85,69.671,346.613,70.585,344.276,70.621z"/>
		<path style="fill:#E6E7E8;" d="M308.966,70.621h-8.828c-4.875,0-8.828-3.952-8.828-8.828s3.952-8.828,8.828-8.828h8.828
			c4.875,0,8.828,3.952,8.828,8.828S313.841,70.621,308.966,70.621z"/>
	</g>
	<circle style="fill:#5E5F62;" cx="123.586" cy="317.793" r="17.655"/>
	<g>
		<polygon style="fill:#E6E7E8;" points="308.966,370.759 167.724,370.759 175.581,335.448 301.109,335.448 		"/>
		<path style="fill:#E6E7E8;" d="M203.034,220.69h-28.893c-4.875,0-8.828-3.952-8.828-8.828c0-4.875,3.952-8.828,8.828-8.828h28.893
			c4.875,0,8.828,3.952,8.828,8.828C211.862,216.737,207.91,220.69,203.034,220.69z"/>
		<path style="fill:#E6E7E8;" d="M203.034,256h-35.31c-4.875,0-8.828-3.952-8.828-8.828s3.952-8.828,8.828-8.828h35.31
			c4.875,0,8.828,3.952,8.828,8.828S207.91,256,203.034,256z"/>
	</g>
	<path style="fill:#A5A5A4;" d="M247.172,335.448v35.31c0,4.875-3.952,8.828-8.828,8.828c-4.875,0-8.828-3.952-8.828-8.828v-35.31
		H247.172z"/>
	<polygon style="fill:#D1D4D1;" points="512,406.069 512,459.034 485.517,459.034 450.207,494.345 414.897,494.345 414.897,467.862 
		353.103,467.862 353.103,494.345 123.586,494.345 123.586,467.862 70.621,467.862 70.621,494.345 17.655,494.345 17.655,370.759 
		450.207,370.759 485.517,406.069 	"/>
	<g>
		<polygon style="fill:#547580;" points="220.69,423.724 220.69,459.034 158.897,459.034 158.897,423.724 167.724,423.724 
			167.724,406.069 211.862,406.069 211.862,423.724 		"/>
		<polygon style="fill:#547580;" points="317.793,423.724 317.793,459.034 256,459.034 256,423.724 264.828,423.724 
			264.828,406.069 308.966,406.069 308.966,423.724 		"/>
	</g>
	<g>
		<path style="fill:#5E5F62;" d="M199.824,45.587l-13.217,79.448c-0.708,4.258-4.392,7.379-8.708,7.379h-35.068
			c-2.594,0-5.058-1.141-6.735-3.121c-1.677-1.979-2.399-4.596-1.973-7.156l13.217-79.448c0.708-4.258,4.392-7.379,8.708-7.379
			h35.068c2.594,0,5.058,1.141,6.735,3.121S200.25,43.027,199.824,45.587z"/>
		<path style="fill:#5E5F62;" d="M168.759,264.828h-44.001c-2.532,0-4.942-1.087-6.618-2.985s-2.456-4.424-2.142-6.937l6.621-52.966
			c0.552-4.418,4.307-7.733,8.759-7.733h44.001c2.532,0,4.942,1.087,6.618,2.985s2.456,4.424,2.142,6.937l-6.621,52.966
			C176.966,261.512,173.211,264.828,168.759,264.828z"/>
	</g>
	<path style="fill:#A5A5A4;" d="M35.31,370.759v123.586c0,9.751-7.904,17.655-17.655,17.655S0,504.095,0,494.345V370.759
		c0.028-9.739,7.916-17.627,17.655-17.655c4.684-0.025,9.177,1.855,12.447,5.208C33.455,361.582,35.335,366.075,35.31,370.759z"/>
	<rect y="423.724" style="fill:#5E5F62;" width="35.31" height="17.655"/>
</g>
<g>
</g>
<g>
</g>
<g>
</g>
<g>
</g>
<g>
</g>
<g>
</g>
<g>
</g>
<g>
</g>
<g>
</g>
<g>
</g>
<g>
</g>
<g>
</g>
<g>
</g>
<g>
</g>
<g>
</g>
</svg>
