<?xml version="1.0" encoding="iso-8859-1"?>
<!-- Generator: Adobe Illustrator 19.0.0, SVG Export Plug-In . SVG Version: 6.00 Build 0)  -->
<svg version="1.1" id="Capa_1" xmlns="http://www.w3.org/2000/svg" xmlns:xlink="http://www.w3.org/1999/xlink" x="0px" y="0px"
	 viewBox="0 0 512 512" style="enable-background:new 0 0 512 512;" xml:space="preserve">
<g>
	<polygon style="fill:#E4C05C;" points="291.31,0 256,0 220.69,0 220.69,61.793 256,61.793 291.31,61.793 326.621,61.793 326.621,0 
			"/>
	<path style="fill:#71C285;" d="M406.069,88.276c-0.009,7.026,2.778,13.768,7.746,18.736c4.969,4.968,11.71,7.756,18.736,7.746
		v379.586c-0.029,9.739-7.916,17.627-17.655,17.655H97.103c-9.739-0.029-17.627-7.916-17.655-17.655V114.759
		c14.626,0,26.483-11.857,26.483-26.483S94.074,61.793,79.448,61.793V17.655C79.477,7.916,87.365,0.028,97.103,0h88.276v35.31
		h176.552V0h52.966c9.739,0.028,17.627,7.916,17.655,17.655v44.138c-7.027-0.009-13.768,2.778-18.737,7.746
		C408.847,74.508,406.06,81.249,406.069,88.276z"/>
	<rect x="256" style="fill:#B19046;" width="35.31" height="35.31"/>
	<g>
		<path style="fill:#4C8056;" d="M114.759,44.138c-2.34-0.017-4.585-0.933-6.268-2.56c-0.779-0.859-1.406-1.844-1.854-2.914
			c-0.452-1.061-0.692-2.2-0.706-3.354c0.031-2.338,0.945-4.577,2.56-6.268c2.121-2.072,5.127-2.964,8.035-2.383
			c0.552,0.096,1.086,0.273,1.586,0.526c0.542,0.177,1.05,0.447,1.5,0.797c2.48,1.612,3.976,4.37,3.975,7.328
			c-0.047,2.351-0.994,4.594-2.647,6.268c-0.407,0.395-0.852,0.748-1.328,1.056c-0.45,0.351-0.958,0.62-1.5,0.797
			c-0.5,0.252-1.035,0.431-1.586,0.53C115.942,44.062,115.351,44.121,114.759,44.138z"/>
		<path style="fill:#4C8056;" d="M397.241,44.138c-2.337-0.035-4.575-0.949-6.268-2.56c-0.779-0.859-1.406-1.844-1.854-2.914
			c-0.943-2.138-0.943-4.573,0-6.711c0.426-1.08,1.055-2.068,1.854-2.91c2.083-2.07,5.061-2.964,7.94-2.383
			c0.586,0.081,1.154,0.259,1.681,0.526c0.562,0.194,1.095,0.462,1.586,0.797c0.464,0.325,0.908,0.679,1.328,1.06
			c0.817,0.828,1.449,1.819,1.854,2.909c0.943,2.138,0.943,4.573,0,6.711c-0.427,1.08-1.056,2.069-1.854,2.914
			c-0.44,0.353-0.888,0.707-1.328,1.056c-0.491,0.335-1.024,0.603-1.586,0.797c-0.528,0.266-1.096,0.445-1.681,0.53
			C398.362,44.062,397.803,44.122,397.241,44.138z"/>
		<path style="fill:#4C8056;" d="M114.759,158.897c-3.569-0.014-6.782-2.168-8.151-5.464c-1.369-3.297-0.626-7.093,1.883-9.631
			c2.113-2.084,5.126-2.978,8.035-2.383c0.552,0.096,1.086,0.273,1.586,0.526c0.542,0.177,1.05,0.447,1.5,0.797
			c0.475,0.31,0.92,0.666,1.328,1.06c0.408,0.418,0.79,0.86,1.147,1.323c0.331,0.492,0.598,1.026,0.793,1.586
			c0.256,0.5,0.433,1.036,0.526,1.59c0.103,0.584,0.164,1.175,0.181,1.767c-0.013,0.592-0.074,1.181-0.181,1.763
			c-0.093,0.554-0.27,1.09-0.526,1.59c-0.194,0.562-0.461,1.097-0.793,1.591c-0.358,0.461-0.741,0.903-1.147,1.323
			c-0.384,0.42-0.832,0.776-1.328,1.056c-0.45,0.351-0.958,0.62-1.5,0.797c-0.5,0.252-1.035,0.431-1.586,0.53
			C115.941,158.817,115.351,158.876,114.759,158.897z"/>
		<path style="fill:#4C8056;" d="M397.241,158.897c-2.337-0.035-4.575-0.949-6.268-2.56c-0.353-0.444-0.707-0.884-1.06-1.323
			c-0.336-0.492-0.603-1.027-0.793-1.591c-0.255-0.501-0.435-1.037-0.535-1.59c-0.096-0.583-0.153-1.172-0.172-1.763
			c-0.021-3.586,2.13-6.829,5.442-8.204c3.312-1.375,7.127-0.61,9.653,1.937c0.799,0.842,1.428,1.83,1.854,2.909
			c0.453,1.062,0.693,2.203,0.706,3.358c-0.018,2.34-0.935,4.584-2.56,6.268C401.815,157.947,399.578,158.86,397.241,158.897z"/>
		<path style="fill:#4C8056;" d="M114.759,485.517c-2.34-0.017-4.585-0.933-6.268-2.56c-0.779-0.859-1.406-1.844-1.854-2.914
			c-0.452-1.061-0.692-2.2-0.706-3.354c0.031-2.338,0.945-4.577,2.56-6.268c2.113-2.084,5.126-2.978,8.035-2.383
			c0.552,0.096,1.086,0.273,1.586,0.526c0.542,0.177,1.05,0.447,1.5,0.797c0.496,0.281,0.944,0.639,1.328,1.06
			c0.408,0.418,0.79,0.86,1.147,1.323c0.331,0.492,0.598,1.026,0.793,1.586c0.256,0.5,0.433,1.036,0.526,1.59
			c0.108,0.583,0.168,1.174,0.181,1.767c-0.047,2.351-0.994,4.594-2.647,6.268c-0.407,0.395-0.852,0.748-1.328,1.056
			c-0.45,0.351-0.958,0.62-1.5,0.797c-0.5,0.252-1.035,0.431-1.586,0.53C115.942,485.442,115.351,485.501,114.759,485.517z"/>
		<path style="fill:#4C8056;" d="M397.241,485.517c-2.337-0.035-4.575-0.949-6.268-2.56c-0.779-0.859-1.406-1.844-1.854-2.914
			c-0.943-2.138-0.943-4.573,0-6.711c0.448-1.068,1.075-2.052,1.854-2.909c2.106-2.031,5.063-2.919,7.94-2.383
			c0.586,0.081,1.154,0.259,1.681,0.526c0.562,0.194,1.095,0.462,1.586,0.797c0.44,0.353,0.888,0.707,1.328,1.06
			c0.799,0.842,1.428,1.83,1.854,2.909c0.943,2.138,0.943,4.573,0,6.711c-0.427,1.08-1.056,2.069-1.854,2.914
			c-0.42,0.379-0.863,0.732-1.328,1.056c-0.491,0.335-1.024,0.603-1.586,0.797c-0.528,0.266-1.096,0.445-1.681,0.53
			C398.361,485.442,397.802,485.501,397.241,485.517z"/>
	</g>
	<g>
		<path style="fill:#5E5F62;" d="M123.586,335.448h26.483c4.875,0,8.828,3.952,8.828,8.828v88.276c0,4.875-3.952,8.828-8.828,8.828
			h-26.483c-4.875,0-8.828-3.952-8.828-8.828v-88.276C114.759,339.401,118.711,335.448,123.586,335.448z"/>
		<path style="fill:#5E5F62;" d="M203.034,335.448h26.483c4.875,0,8.828,3.952,8.828,8.828v88.276c0,4.875-3.952,8.828-8.828,8.828
			h-26.483c-4.875,0-8.828-3.952-8.828-8.828v-88.276C194.207,339.401,198.159,335.448,203.034,335.448z"/>
		<path style="fill:#5E5F62;" d="M282.483,335.448h26.483c4.875,0,8.828,3.952,8.828,8.828v88.276c0,4.875-3.952,8.828-8.828,8.828
			h-26.483c-4.875,0-8.828-3.952-8.828-8.828v-88.276C273.655,339.401,277.607,335.448,282.483,335.448z"/>
		<path style="fill:#5E5F62;" d="M361.931,335.448h26.483c4.875,0,8.828,3.952,8.828,8.828v88.276c0,4.875-3.952,8.828-8.828,8.828
			h-26.483c-4.875,0-8.828-3.952-8.828-8.828v-88.276C353.103,339.401,357.056,335.448,361.931,335.448z"/>
		<path style="fill:#5E5F62;" d="M158.897,264.828v26.483c0,4.875-3.952,8.828-8.828,8.828h-26.483
			c-4.875,0-8.828-3.952-8.828-8.828v-88.276c0-4.875,3.952-8.828,8.828-8.828h26.483c4.875,0,8.828,3.952,8.828,8.828v26.483"/>
		<path style="fill:#5E5F62;" d="M194.207,264.828v26.483c0,4.875,3.952,8.828,8.828,8.828h26.483c4.875,0,8.828-3.952,8.828-8.828
			v-88.276c0-4.875-3.952-8.828-8.828-8.828h-26.483c-4.875,0-8.828,3.952-8.828,8.828V264.828z"/>
		<path style="fill:#5E5F62;" d="M273.655,264.828v26.483c0,4.875,3.952,8.828,8.828,8.828h26.483c4.875,0,8.828-3.952,8.828-8.828
			v-88.276c0-4.875-3.952-8.828-8.828-8.828h-26.483c-4.875,0-8.828,3.952-8.828,8.828V264.828z"/>
		<path style="fill:#5E5F62;" d="M353.103,264.828v26.483c0,4.875,3.952,8.828,8.828,8.828h26.483c4.875,0,8.828-3.952,8.828-8.828
			v-88.276c0-4.875-3.952-8.828-8.828-8.828h-26.483c-4.875,0-8.828,3.952-8.828,8.828v26.483"/>
	</g>
	<path style="fill:#ECF0F1;" d="M158.897,229.517h194.207c4.875,0,8.828,3.952,8.828,8.828V256c0,4.875-3.952,8.828-8.828,8.828
		H158.897c-4.875,0-8.828-3.952-8.828-8.828v-17.655C150.069,233.469,154.021,229.517,158.897,229.517z"/>
	<g>
		<path style="fill:#4C8056;" d="M229.517,35.31v26.483c0,4.875-3.952,8.828-8.828,8.828s-8.828-3.952-8.828-8.828V35.31H229.517z"
			/>
		<path style="fill:#4C8056;" d="M264.828,35.31v26.483c0,4.875-3.952,8.828-8.828,8.828s-8.828-3.952-8.828-8.828V35.31H264.828z"
			/>
		<path style="fill:#4C8056;" d="M300.138,35.31v26.483c0,4.875-3.952,8.828-8.828,8.828s-8.828-3.952-8.828-8.828V35.31H300.138z"
			/>
		<path style="fill:#4C8056;" d="M335.448,35.31v26.483c0,4.875-3.952,8.828-8.828,8.828s-8.828-3.952-8.828-8.828V35.31H335.448z"
			/>
	</g>
	<rect x="273.655" y="97.103" style="fill:#5E5F62;" width="61.793" height="61.793"/>
</g>
<g>
</g>
<g>
</g>
<g>
</g>
<g>
</g>
<g>
</g>
<g>
</g>
<g>
</g>
<g>
</g>
<g>
</g>
<g>
</g>
<g>
</g>
<g>
</g>
<g>
</g>
<g>
</g>
<g>
</g>
</svg>
