<?xml version="1.0" encoding="iso-8859-1"?>
<!-- Generator: Adobe Illustrator 19.0.0, SVG Export Plug-In . SVG Version: 6.00 Build 0)  -->
<svg version="1.1" id="Capa_1" xmlns="http://www.w3.org/2000/svg" xmlns:xlink="http://www.w3.org/1999/xlink" x="0px" y="0px"
	 viewBox="0 0 512 512" style="enable-background:new 0 0 512 512;" xml:space="preserve">
<g>
	<path style="fill:#7F8C8D;" d="M414.897,0H97.103c-9.739,0.028-17.627,7.916-17.655,17.655v476.69
		c0.029,9.739,7.916,17.627,17.655,17.655h317.793c9.739-0.029,17.627-7.916,17.655-17.655V17.655
		C432.523,7.916,424.635,0.028,414.897,0z"/>
	<path style="fill:#95A5A5;" d="M326.621,35.31v26.483c-0.015,4.869-3.958,8.813-8.828,8.828H158.897
		c-4.869-0.015-8.813-3.958-8.828-8.828V35.31H326.621z"/>
	<rect x="150.069" style="fill:#B19046;" width="176.552" height="35.31"/>
	<g>
		<path style="fill:#5E5F62;" d="M114.759,44.138c-0.593-0.016-1.183-0.075-1.767-0.177c-0.552-0.098-1.086-0.277-1.586-0.53
			c-0.565-0.194-1.101-0.462-1.595-0.797c-0.44-0.35-0.879-0.703-1.319-1.056c-0.798-0.844-1.427-1.833-1.854-2.914
			c-0.943-2.138-0.943-4.573,0-6.711c0.405-1.09,1.037-2.082,1.854-2.91c0.417-0.381,0.858-0.735,1.319-1.06
			c0.494-0.335,1.03-0.604,1.595-0.797c0.499-0.254,1.034-0.431,1.586-0.526c1.131-0.267,2.309-0.267,3.44,0
			c0.586,0.081,1.154,0.259,1.681,0.526c0.562,0.194,1.095,0.462,1.586,0.797c0.464,0.325,0.908,0.679,1.328,1.06
			c0.799,0.842,1.428,1.83,1.854,2.909c0.943,2.138,0.943,4.573,0,6.711c-0.427,1.08-1.056,2.069-1.854,2.914
			c-0.44,0.353-0.888,0.707-1.328,1.056c-0.491,0.335-1.024,0.603-1.586,0.797c-0.528,0.266-1.096,0.445-1.681,0.53
			C115.879,44.062,115.32,44.122,114.759,44.138z"/>
		<path style="fill:#5E5F62;" d="M397.241,44.138c-0.593-0.016-1.183-0.075-1.767-0.177c-0.552-0.098-1.086-0.277-1.586-0.53
			c-0.565-0.194-1.101-0.462-1.595-0.797c-0.44-0.35-0.879-0.703-1.319-1.056c-3.414-3.481-3.414-9.054,0-12.534
			c2.525-2.546,6.34-3.312,9.652-1.937c3.312,1.375,5.463,4.617,5.443,8.204c-0.035,2.337-0.949,4.574-2.56,6.268
			c-0.44,0.353-0.888,0.707-1.328,1.056c-0.491,0.335-1.024,0.603-1.586,0.797c-0.528,0.266-1.096,0.445-1.681,0.53
			C398.362,44.063,397.803,44.122,397.241,44.138z"/>
		<path style="fill:#5E5F62;" d="M114.759,485.517c-0.593-0.016-1.183-0.075-1.767-0.177c-0.552-0.098-1.086-0.277-1.586-0.53
			c-0.565-0.194-1.101-0.462-1.595-0.797c-0.461-0.324-0.902-0.677-1.319-1.056c-0.816-0.83-1.448-1.823-1.854-2.914
			c-0.943-2.138-0.943-4.573,0-6.711c0.426-1.08,1.055-2.067,1.854-2.909l1.319-1.06c0.494-0.335,1.03-0.604,1.595-0.797
			c0.499-0.254,1.034-0.432,1.586-0.526c1.131-0.267,2.309-0.267,3.44,0c0.586,0.081,1.154,0.259,1.681,0.526
			c0.562,0.194,1.095,0.462,1.586,0.797c0.44,0.353,0.888,0.707,1.328,1.06c0.779,0.857,1.406,1.841,1.854,2.909
			c0.943,2.138,0.943,4.573,0,6.711c-0.427,1.08-1.056,2.069-1.854,2.914c-0.42,0.379-0.863,0.732-1.328,1.056
			c-0.491,0.335-1.024,0.603-1.586,0.797c-0.528,0.266-1.096,0.445-1.681,0.53C115.879,485.442,115.32,485.501,114.759,485.517z"/>
		<path style="fill:#5E5F62;" d="M397.241,485.517c-2.34-0.017-4.585-0.933-6.268-2.56c-3.427-3.455-3.412-9.031,0.034-12.467
			c3.445-3.436,9.022-3.436,12.467,0s3.461,9.013,0.034,12.467C401.824,484.581,399.581,485.497,397.241,485.517z"/>
	</g>
	<path style="fill:#285680;" d="M388.414,114.759v317.793c-0.015,4.869-3.958,8.813-8.828,8.828H176.552l167.724-335.448h35.31
		C384.456,105.946,388.399,109.889,388.414,114.759z"/>
	<path style="fill:#4482C3;" d="M344.276,105.931L176.552,441.379h-44.138c-4.869-0.015-8.813-3.958-8.828-8.828V114.759
		c0.015-4.869,3.958-8.813,8.828-8.828H344.276z"/>
	<path style="fill:#ECF0F1;" d="M167.724,141.241h35.31c4.875,0,8.828,3.952,8.828,8.828v61.793c0,4.875-3.952,8.828-8.828,8.828
		h-35.31c-4.875,0-8.828-3.952-8.828-8.828v-61.793C158.897,145.194,162.849,141.241,167.724,141.241z"/>
	<g>
		<rect x="185.379" style="fill:#E4C05C;" width="35.31" height="35.31"/>
		<rect x="256" style="fill:#E4C05C;" width="35.31" height="35.31"/>
	</g>
</g>
<g>
</g>
<g>
</g>
<g>
</g>
<g>
</g>
<g>
</g>
<g>
</g>
<g>
</g>
<g>
</g>
<g>
</g>
<g>
</g>
<g>
</g>
<g>
</g>
<g>
</g>
<g>
</g>
<g>
</g>
</svg>
