<?xml version="1.0" encoding="iso-8859-1"?>
<!-- Generator: Adobe Illustrator 19.0.0, SVG Export Plug-In . SVG Version: 6.00 Build 0)  -->
<svg version="1.1" id="Capa_1" xmlns="http://www.w3.org/2000/svg" xmlns:xlink="http://www.w3.org/1999/xlink" x="0px" y="0px"
	 viewBox="0 0 512 512" style="enable-background:new 0 0 512 512;" xml:space="preserve">
<g>
	<path style="fill:#E4C05C;" d="M468.61,420.881h-26.034c-2.302,0.001-4.509-0.913-6.137-2.541s-2.542-3.835-2.541-6.137v-34.712
		c0-4.793,3.885-8.678,8.678-8.678c4.793,0,8.678,3.885,8.678,8.678v26.034h17.356c4.793,0,8.678,3.885,8.678,8.678
		C477.288,416.996,473.403,420.881,468.61,420.881z"/>
	<path style="fill:#CC4B4C;" d="M494.644,47.729H43.39v373.153h52.068v-34.712c0.014-4.787,3.891-8.664,8.678-8.678h17.356
		c4.787,0.014,8.664,3.891,8.678,8.678v34.712h34.712v-26.034c0.013-5.114,2.277-9.963,6.189-13.256
		c3.912-3.294,9.076-4.698,14.117-3.839c4.995,0.899,9.325,3.987,11.802,8.418c1.698,2.958,2.596,6.308,2.603,9.719v24.993h208.271
		v-34.712c0.014-4.787,3.891-8.664,8.678-8.678h78.102c9.574-0.028,17.328-7.782,17.356-17.356V65.085
		C511.972,55.511,504.218,47.757,494.644,47.729z"/>
	<rect x="407.864" y="117.153" style="fill:#95A5A5;" width="104.136" height="190.915"/>
	<path style="fill:#E4C05C;" d="M373.153,386.169H196.99c1.698,2.958,2.596,6.308,2.603,9.719v24.993h208.271v-34.712H373.153z"/>
	<g>
		<rect x="234.305" y="386.169" style="fill:#B19046;" width="34.712" height="34.712"/>
		<rect x="303.729" y="386.169" style="fill:#B19046;" width="34.712" height="34.712"/>
		<rect x="373.153" y="386.169" style="fill:#B19046;" width="34.712" height="34.712"/>
	</g>
	<g>
		<path style="fill:#BDC3C7;" d="M86.78,99.797h17.356c4.793,0,8.678,3.885,8.678,8.678v17.356c0,4.793-3.885,8.678-8.678,8.678
			H86.78c-4.793,0-8.678-3.885-8.678-8.678v-17.356C78.102,103.682,81.987,99.797,86.78,99.797z"/>
		<path style="fill:#BDC3C7;" d="M147.525,125.831c-2.297-0.034-4.497-0.933-6.161-2.517c-1.601-1.653-2.503-3.86-2.517-6.161
			c0.013-1.135,0.25-2.257,0.695-3.301c0.44-1.05,1.056-2.018,1.822-2.86c2.048-2.035,4.975-2.914,7.805-2.343
			c0.576,0.08,1.134,0.255,1.653,0.517c0.552,0.191,1.077,0.454,1.559,0.784c0.432,0.347,0.873,0.695,1.305,1.042
			c3.356,3.422,3.356,8.9,0,12.322c-0.432,0.347-0.873,0.695-1.305,1.038c-0.483,0.33-1.007,0.593-1.559,0.784
			c-0.519,0.262-1.077,0.438-1.653,0.521C148.627,125.757,148.077,125.815,147.525,125.831z"/>
		<path style="fill:#BDC3C7;" d="M86.78,169.22h17.356c4.793,0,8.678,3.885,8.678,8.678v17.356c0,4.793-3.885,8.678-8.678,8.678
			H86.78c-4.793,0-8.678-3.885-8.678-8.678v-17.356C78.102,173.106,81.987,169.22,86.78,169.22z"/>
		<path style="fill:#BDC3C7;" d="M147.525,177.898c-2.297-0.034-4.497-0.933-6.161-2.517c-1.601-1.653-2.503-3.86-2.517-6.161
			c0.03-2.298,0.929-4.499,2.517-6.161c2.048-2.035,4.975-2.914,7.805-2.343c0.576,0.08,1.134,0.255,1.653,0.517
			c0.552,0.191,1.077,0.454,1.559,0.784c0.432,0.347,0.873,0.695,1.305,1.042c3.356,3.422,3.356,8.9,0,12.322
			c-0.432,0.347-0.873,0.695-1.305,1.038c-0.483,0.33-1.007,0.593-1.559,0.784c-0.519,0.262-1.077,0.438-1.653,0.521
			C148.626,177.824,148.077,177.882,147.525,177.898z"/>
		<path style="fill:#BDC3C7;" d="M147.525,212.61c-2.308,0.022-4.529-0.885-6.161-2.517c-1.632-1.632-2.539-3.853-2.517-6.161
			c0.013-1.135,0.25-2.257,0.695-3.301c0.44-1.05,1.056-2.018,1.822-2.86c2.07-1.997,4.978-2.87,7.805-2.343
			c0.576,0.08,1.134,0.255,1.653,0.517c0.552,0.191,1.077,0.454,1.559,0.784c0.456,0.32,0.892,0.668,1.305,1.042
			c3.356,3.422,3.356,8.9,0,12.322c-0.413,0.373-0.849,0.72-1.305,1.038c-0.483,0.33-1.007,0.593-1.559,0.784
			c-0.519,0.262-1.077,0.438-1.653,0.521C148.627,212.536,148.077,212.594,147.525,212.61z"/>
	</g>
	<path style="fill:#E4C05C;" d="M95.458,256v69.424c-0.028,9.574-7.782,17.328-17.356,17.356H43.39V238.644h34.712
		C87.675,238.672,95.43,246.426,95.458,256z"/>
	<g>
		<path style="fill:#B19046;" d="M95.458,264.678v17.356H78.102c-4.793,0-8.678-3.885-8.678-8.678c0-4.793,3.885-8.678,8.678-8.678
			H95.458z"/>
		<path style="fill:#B19046;" d="M95.458,299.39v17.356H78.102c-4.793,0-8.678-3.885-8.678-8.678c0-4.793,3.885-8.678,8.678-8.678
			H95.458z"/>
	</g>
	<g>
		<path style="fill:#5E5F62;" d="M43.39,472.949c-2.302,0.001-4.509-0.914-6.137-2.541c-1.628-1.628-2.542-3.835-2.541-6.137V56.407
			H8.678C3.885,56.407,0,52.522,0,47.729s3.885-8.678,8.678-8.678H43.39c2.302-0.001,4.509,0.913,6.137,2.541
			c1.628,1.628,2.542,3.835,2.541,6.137v416.542c0.001,2.302-0.913,4.509-2.541,6.137C47.899,472.036,45.692,472.95,43.39,472.949z"
			/>
		<path style="fill:#5E5F62;" d="M407.864,151.864h26.034c4.793,0,8.678,3.885,8.678,8.678v26.034c0,4.793-3.885,8.678-8.678,8.678
			h-26.034V151.864z"/>
		<path style="fill:#5E5F62;" d="M407.864,229.966h26.034c4.793,0,8.678,3.885,8.678,8.678v26.034c0,4.793-3.885,8.678-8.678,8.678
			h-26.034V229.966z"/>
	</g>
	<path style="fill:#BDC3C7;" d="M199.593,99.797h190.915c9.585,0,17.356,7.771,17.356,17.356v190.915
		c0,9.585-7.771,17.356-17.356,17.356H199.593c-9.585,0-17.356-7.771-17.356-17.356V117.153
		C182.237,107.567,190.008,99.797,199.593,99.797z"/>
	<path style="fill:#95A5A5;" d="M364.475,212.61c0,1.562-0.087,3.124-0.174,4.686c-1.525,22.545-13.924,42.939-33.237,54.671
		c-5.295,3.246-11.021,5.73-17.009,7.376c-27.883,7.824-57.702-2.358-74.978-25.6c-13.148-17.986-16.92-41.168-10.153-62.395
		c1.897-5.861,4.583-11.438,7.984-16.575c12.25-18.992,33.038-30.764,55.626-31.501c0.837-0.072,1.677-0.101,2.517-0.087
		c5.346-0.014,10.676,0.598,15.881,1.822c26.375,6.199,46.737,27.17,52.155,53.717C363.99,203.299,364.455,207.948,364.475,212.61z"
		/>
	<g>
		<path style="fill:#7F8C8D;" d="M300.518,199.94c-1.603,1.417-3.675,2.19-5.814,2.169c-2.453,0.016-4.794-1.028-6.422-2.864
			c-1.554-1.721-2.355-3.991-2.225-6.306c0.13-2.315,1.181-4.481,2.919-6.016c0.434-0.434,12.67-12.757,3.558-43.65
			c0.837-0.072,1.677-0.101,2.517-0.087c5.346-0.014,10.676,0.598,15.881,1.822C319.436,182.411,301.386,199.159,300.518,199.94z"/>
		<path style="fill:#7F8C8D;" d="M279.431,214.519c-1.032,0.369-2.115,0.574-3.211,0.607c-3.498-0.036-6.638-2.152-7.984-5.38
			c-0.521-0.955-7.984-16.315-39.311-18.397c1.897-5.861,4.583-11.438,7.984-16.575c27.422,8.157,31.588,10.761,34.885,13.364
			c5.373,3.898,9.672,9.092,12.496,15.1C286.012,207.694,283.852,212.709,279.431,214.519z"/>
		<path style="fill:#7F8C8D;" d="M290.712,227.883c0.179,4.74-3.505,8.735-8.244,8.938c-1.041,0.087-17.877,1.909-30.46,30.199
			c-4.884-3.828-9.233-8.294-12.93-13.277c17.443-33.063,41.567-34.191,42.696-34.278
			C286.548,219.369,290.522,223.111,290.712,227.883z"/>
		<path style="fill:#7F8C8D;" d="M331.064,271.967c-5.295,3.246-11.021,5.73-17.009,7.376c-25.34-27.769-18.05-50.853-17.703-51.981
			c1.51-4.529,6.405-6.977,10.934-5.467c4.529,1.51,6.977,6.405,5.467,10.934C312.58,233.437,308.241,250.099,331.064,271.967z"/>
		<path style="fill:#7F8C8D;" d="M364.475,212.61c0,1.562-0.087,3.124-0.174,4.686c-9.3,4.123-19.333,6.337-29.505,6.508
			c-9.272,0.402-18.428-2.184-26.121-7.376c-2.418-1.938-3.619-5.018-3.15-8.081c0.469-3.063,2.536-5.643,5.424-6.769
			c2.887-1.125,6.156-0.625,8.574,1.313c0.521,0.347,14.753,10.414,43.563-4.165C363.99,203.299,364.455,207.948,364.475,212.61z"/>
	</g>
	<g>
		<path style="fill:#5E5F62;" d="M216.949,143.186c-2.308,0.022-4.529-0.885-6.161-2.517s-2.539-3.853-2.517-6.161
			c0.014-1.135,0.25-2.257,0.695-3.301c0.44-1.05,1.056-2.018,1.822-2.86c3.479-3.212,8.843-3.212,12.322,0
			c0.766,0.843,1.382,1.81,1.822,2.86c0.445,1.044,0.681,2.166,0.694,3.301c0.022,2.308-0.885,4.529-2.517,6.161
			C221.478,142.302,219.257,143.209,216.949,143.186z"/>
		<path style="fill:#5E5F62;" d="M216.949,299.39c-3.53,0.014-6.721-2.103-8.078-5.362c-1.358-3.259-0.614-7.015,1.882-9.512
			c2.496-2.496,6.253-3.24,9.512-1.882c3.259,1.358,5.377,4.548,5.362,8.078c-0.013,0.582-0.073,1.161-0.178,1.733
			c-0.091,0.545-0.265,1.072-0.517,1.564c-0.173,0.533-0.437,1.031-0.78,1.475c-0.347,0.521-0.695,0.953-1.042,1.39
			C221.445,298.456,219.246,299.354,216.949,299.39z"/>
		<path style="fill:#5E5F62;" d="M373.153,143.186c-2.308,0.022-4.529-0.885-6.161-2.517c-1.632-1.632-2.539-3.853-2.517-6.161
			c0.014-1.135,0.25-2.257,0.695-3.301c0.44-1.05,1.056-2.018,1.822-2.86c2.055-2.023,4.976-2.9,7.805-2.343
			c0.576,0.08,1.134,0.255,1.653,0.517c0.533,0.174,1.032,0.439,1.475,0.784c0.517,0.347,0.958,0.695,1.39,1.042
			c0.766,0.843,1.382,1.81,1.822,2.86c0.445,1.044,0.681,2.166,0.694,3.301c-0.035,2.297-0.933,4.497-2.517,6.161
			c-0.426,0.394-0.891,0.742-1.39,1.038c-0.442,0.345-0.941,0.61-1.475,0.784c-0.519,0.262-1.077,0.438-1.653,0.521
			C374.254,143.113,373.704,143.171,373.153,143.186z"/>
		<path style="fill:#5E5F62;" d="M373.153,299.39c-2.308,0.022-4.529-0.885-6.161-2.517c-1.632-1.632-2.539-3.853-2.517-6.161
			c0.014-1.135,0.25-2.257,0.695-3.301c0.44-1.05,1.056-2.018,1.822-2.86c2.077-1.985,4.978-2.856,7.805-2.343
			c0.576,0.08,1.134,0.255,1.653,0.517c0.533,0.174,1.032,0.439,1.475,0.784c0.517,0.347,0.958,0.695,1.39,1.042
			c0.766,0.843,1.382,1.81,1.822,2.86c0.445,1.044,0.681,2.166,0.694,3.301c-0.013,0.582-0.073,1.161-0.178,1.733
			c-0.091,0.545-0.265,1.072-0.517,1.564c-0.191,0.553-0.453,1.078-0.78,1.564c-0.347,0.432-0.695,0.864-1.042,1.301
			c-0.432,0.347-0.873,0.695-1.39,1.038c-0.443,0.345-0.941,0.61-1.475,0.784c-0.519,0.262-1.077,0.438-1.653,0.521
			C374.254,299.316,373.704,299.374,373.153,299.39z"/>
	</g>
	<circle style="fill:#BDC3C7;" cx="295.051" cy="212.61" r="26.034"/>
</g>
<g>
</g>
<g>
</g>
<g>
</g>
<g>
</g>
<g>
</g>
<g>
</g>
<g>
</g>
<g>
</g>
<g>
</g>
<g>
</g>
<g>
</g>
<g>
</g>
<g>
</g>
<g>
</g>
<g>
</g>
</svg>
