<?xml version="1.0" encoding="iso-8859-1"?>
<!-- Generator: Adobe Illustrator 19.0.0, SVG Export Plug-In . SVG Version: 6.00 Build 0)  -->
<svg version="1.1" id="Capa_1" xmlns="http://www.w3.org/2000/svg" xmlns:xlink="http://www.w3.org/1999/xlink" x="0px" y="0px"
	 viewBox="0 0 512 512" style="enable-background:new 0 0 512 512;" xml:space="preserve">
<g>
	<path style="fill:#527F72;" d="M8.828,0h494.345C508.048,0,512,3.952,512,8.828v494.345c0,4.875-3.952,8.828-8.828,8.828H8.828
		C3.952,512,0,508.048,0,503.172V8.828C0,3.952,3.952,0,8.828,0z"/>
	<g>
		<path style="fill:#E4C05C;" d="M114.759,88.276c-2.341,0.001-4.587-0.929-6.243-2.585c-1.656-1.656-2.585-3.901-2.585-6.243
			v-35.31c0-4.875,3.952-8.828,8.828-8.828c4.875,0,8.828,3.952,8.828,8.828v35.31c0.001,2.341-0.929,4.587-2.585,6.243
			C119.346,87.347,117.1,88.276,114.759,88.276z"/>
		<path style="fill:#E4C05C;" d="M150.069,88.276c-2.341,0.001-4.587-0.929-6.243-2.585c-1.656-1.656-2.585-3.901-2.585-6.243
			v-35.31c0-4.875,3.952-8.828,8.828-8.828s8.828,3.952,8.828,8.828v35.31c0.001,2.341-0.929,4.587-2.585,6.243
			C154.656,87.347,152.41,88.276,150.069,88.276z"/>
		<path style="fill:#E4C05C;" d="M185.379,88.276c-2.341,0.001-4.587-0.929-6.243-2.585c-1.656-1.656-2.585-3.901-2.585-6.243
			v-35.31c0-4.875,3.952-8.828,8.828-8.828c4.875,0,8.828,3.952,8.828,8.828v35.31c0.001,2.341-0.929,4.587-2.585,6.243
			C189.966,87.347,187.721,88.276,185.379,88.276z"/>
		<path style="fill:#E4C05C;" d="M220.69,88.276c-2.341,0.001-4.587-0.929-6.243-2.585c-1.656-1.656-2.585-3.901-2.585-6.243v-35.31
			c0-4.875,3.952-8.828,8.828-8.828s8.828,3.952,8.828,8.828v35.31c0.001,2.341-0.929,4.587-2.585,6.243
			S223.031,88.276,220.69,88.276z"/>
		<path style="fill:#E4C05C;" d="M256,88.276c-2.341,0.001-4.587-0.929-6.243-2.585c-1.656-1.656-2.585-3.901-2.585-6.243v-35.31
			c0-4.875,3.952-8.828,8.828-8.828s8.828,3.952,8.828,8.828v35.31c0.001,2.341-0.929,4.587-2.585,6.243
			C260.587,87.347,258.341,88.276,256,88.276z"/>
		<path style="fill:#E4C05C;" d="M291.31,88.276c-2.341,0.001-4.587-0.929-6.243-2.585c-1.656-1.656-2.585-3.901-2.585-6.243v-35.31
			c0-4.875,3.952-8.828,8.828-8.828s8.828,3.952,8.828,8.828v35.31c0.001,2.341-0.929,4.587-2.585,6.243
			C295.897,87.347,293.652,88.276,291.31,88.276z"/>
		<path style="fill:#E4C05C;" d="M326.621,88.276c-2.341,0.001-4.587-0.929-6.243-2.585c-1.656-1.656-2.585-3.901-2.585-6.243
			v-35.31c0-4.875,3.952-8.828,8.828-8.828s8.828,3.952,8.828,8.828v35.31c0.001,2.341-0.929,4.587-2.585,6.243
			C331.208,87.347,328.962,88.276,326.621,88.276z"/>
		<path style="fill:#E4C05C;" d="M361.931,88.276c-2.341,0.001-4.587-0.929-6.243-2.585c-1.656-1.656-2.585-3.901-2.585-6.243
			v-35.31c0-4.875,3.952-8.828,8.828-8.828s8.828,3.952,8.828,8.828v35.31c0.001,2.341-0.929,4.587-2.585,6.243
			C366.518,87.347,364.272,88.276,361.931,88.276z"/>
		<path style="fill:#E4C05C;" d="M397.241,88.276c-2.341,0.001-4.587-0.929-6.243-2.585c-1.656-1.656-2.585-3.901-2.585-6.243
			v-35.31c0-4.875,3.952-8.828,8.828-8.828c4.875,0,8.828,3.952,8.828,8.828v35.31c0.001,2.341-0.929,4.587-2.585,6.243
			C401.828,87.347,399.583,88.276,397.241,88.276z"/>
		<path style="fill:#E4C05C;" d="M114.759,476.69c-2.341,0.001-4.587-0.929-6.243-2.585c-1.656-1.656-2.585-3.901-2.585-6.243
			v-35.31c0-4.875,3.952-8.828,8.828-8.828c4.875,0,8.828,3.952,8.828,8.828v35.31c0.001,2.341-0.929,4.587-2.585,6.243
			C119.346,475.76,117.1,476.69,114.759,476.69z"/>
		<path style="fill:#E4C05C;" d="M150.069,476.69c-2.341,0.001-4.587-0.929-6.243-2.585c-1.656-1.656-2.585-3.901-2.585-6.243
			v-35.31c0-4.875,3.952-8.828,8.828-8.828s8.828,3.952,8.828,8.828v35.31c0.001,2.341-0.929,4.587-2.585,6.243
			C154.656,475.76,152.41,476.69,150.069,476.69z"/>
		<path style="fill:#E4C05C;" d="M185.379,476.69c-2.341,0.001-4.587-0.929-6.243-2.585c-1.656-1.656-2.585-3.901-2.585-6.243
			v-35.31c0-4.875,3.952-8.828,8.828-8.828c4.875,0,8.828,3.952,8.828,8.828v35.31c0.001,2.341-0.929,4.587-2.585,6.243
			C189.966,475.76,187.721,476.69,185.379,476.69z"/>
		<path style="fill:#E4C05C;" d="M220.69,476.69c-2.341,0.001-4.587-0.929-6.243-2.585c-1.656-1.656-2.585-3.901-2.585-6.243v-35.31
			c0-4.875,3.952-8.828,8.828-8.828s8.828,3.952,8.828,8.828v35.31c0.001,2.341-0.929,4.587-2.585,6.243
			C225.277,475.76,223.031,476.69,220.69,476.69z"/>
		<path style="fill:#E4C05C;" d="M256,476.69c-2.341,0.001-4.587-0.929-6.243-2.585c-1.656-1.656-2.585-3.901-2.585-6.243v-35.31
			c0-4.875,3.952-8.828,8.828-8.828s8.828,3.952,8.828,8.828v35.31c0.001,2.341-0.929,4.587-2.585,6.243
			C260.587,475.76,258.341,476.69,256,476.69z"/>
		<path style="fill:#E4C05C;" d="M291.31,476.69c-2.341,0.001-4.587-0.929-6.243-2.585c-1.656-1.656-2.585-3.901-2.585-6.243v-35.31
			c0-4.875,3.952-8.828,8.828-8.828s8.828,3.952,8.828,8.828v35.31c0.001,2.341-0.929,4.587-2.585,6.243
			C295.897,475.76,293.652,476.69,291.31,476.69z"/>
		<path style="fill:#E4C05C;" d="M326.621,476.69c-2.341,0.001-4.587-0.929-6.243-2.585c-1.656-1.656-2.585-3.901-2.585-6.243
			v-35.31c0-4.875,3.952-8.828,8.828-8.828s8.828,3.952,8.828,8.828v35.31c0.001,2.341-0.929,4.587-2.585,6.243
			C331.208,475.76,328.962,476.69,326.621,476.69z"/>
		<path style="fill:#E4C05C;" d="M361.931,476.69c-2.341,0.001-4.587-0.929-6.243-2.585c-1.656-1.656-2.585-3.901-2.585-6.243
			v-35.31c0-4.875,3.952-8.828,8.828-8.828s8.828,3.952,8.828,8.828v35.31c0.001,2.341-0.929,4.587-2.585,6.243
			C366.518,475.76,364.272,476.69,361.931,476.69z"/>
		<path style="fill:#E4C05C;" d="M397.241,476.69c-2.341,0.001-4.587-0.929-6.243-2.585c-1.656-1.656-2.585-3.901-2.585-6.243
			v-35.31c0-4.875,3.952-8.828,8.828-8.828c4.875,0,8.828,3.952,8.828,8.828v35.31c0.001,2.341-0.929,4.587-2.585,6.243
			C401.828,475.76,399.583,476.69,397.241,476.69z"/>
		<path style="fill:#E4C05C;" d="M467.862,123.586h-35.31c-4.875,0-8.828-3.952-8.828-8.828s3.952-8.828,8.828-8.828h35.31
			c4.875,0,8.828,3.952,8.828,8.828S472.737,123.586,467.862,123.586z"/>
		<path style="fill:#E4C05C;" d="M467.862,158.897h-35.31c-4.875,0-8.828-3.952-8.828-8.828s3.952-8.828,8.828-8.828h35.31
			c4.875,0,8.828,3.952,8.828,8.828S472.737,158.897,467.862,158.897z"/>
		<path style="fill:#E4C05C;" d="M467.862,194.207h-35.31c-4.875,0-8.828-3.952-8.828-8.828c0-4.875,3.952-8.828,8.828-8.828h35.31
			c4.875,0,8.828,3.952,8.828,8.828C476.69,190.255,472.737,194.207,467.862,194.207z"/>
		<path style="fill:#E4C05C;" d="M467.862,229.517h-35.31c-4.875,0-8.828-3.952-8.828-8.828s3.952-8.828,8.828-8.828h35.31
			c4.875,0,8.828,3.952,8.828,8.828S472.737,229.517,467.862,229.517z"/>
		<path style="fill:#E4C05C;" d="M467.862,264.828h-35.31c-4.875,0-8.828-3.952-8.828-8.828s3.952-8.828,8.828-8.828h35.31
			c4.875,0,8.828,3.952,8.828,8.828S472.737,264.828,467.862,264.828z"/>
		<path style="fill:#E4C05C;" d="M467.862,300.138h-35.31c-4.875,0-8.828-3.952-8.828-8.828s3.952-8.828,8.828-8.828h35.31
			c4.875,0,8.828,3.952,8.828,8.828S472.737,300.138,467.862,300.138z"/>
		<path style="fill:#E4C05C;" d="M467.862,335.448h-35.31c-4.875,0-8.828-3.952-8.828-8.828s3.952-8.828,8.828-8.828h35.31
			c4.875,0,8.828,3.952,8.828,8.828S472.737,335.448,467.862,335.448z"/>
		<path style="fill:#E4C05C;" d="M467.862,370.759h-35.31c-4.875,0-8.828-3.952-8.828-8.828s3.952-8.828,8.828-8.828h35.31
			c4.875,0,8.828,3.952,8.828,8.828S472.737,370.759,467.862,370.759z"/>
		<path style="fill:#E4C05C;" d="M467.862,406.069h-35.31c-4.875,0-8.828-3.952-8.828-8.828c0-4.875,3.952-8.828,8.828-8.828h35.31
			c4.875,0,8.828,3.952,8.828,8.828C476.69,402.117,472.737,406.069,467.862,406.069z"/>
		<path style="fill:#E4C05C;" d="M79.448,123.586h-35.31c-4.875,0-8.828-3.952-8.828-8.828s3.952-8.828,8.828-8.828h35.31
			c4.875,0,8.828,3.952,8.828,8.828S84.324,123.586,79.448,123.586z"/>
		<path style="fill:#E4C05C;" d="M79.448,158.897h-35.31c-4.875,0-8.828-3.952-8.828-8.828s3.952-8.828,8.828-8.828h35.31
			c4.875,0,8.828,3.952,8.828,8.828S84.324,158.897,79.448,158.897z"/>
		<path style="fill:#E4C05C;" d="M79.448,194.207h-35.31c-4.875,0-8.828-3.952-8.828-8.828c0-4.875,3.952-8.828,8.828-8.828h35.31
			c4.875,0,8.828,3.952,8.828,8.828C88.276,190.255,84.324,194.207,79.448,194.207z"/>
		<path style="fill:#E4C05C;" d="M79.448,229.517h-35.31c-4.875,0-8.828-3.952-8.828-8.828s3.952-8.828,8.828-8.828h35.31
			c4.875,0,8.828,3.952,8.828,8.828S84.324,229.517,79.448,229.517z"/>
		<path style="fill:#E4C05C;" d="M79.448,264.828h-35.31c-4.875,0-8.828-3.952-8.828-8.828s3.952-8.828,8.828-8.828h35.31
			c4.875,0,8.828,3.952,8.828,8.828S84.324,264.828,79.448,264.828z"/>
		<path style="fill:#E4C05C;" d="M79.448,300.138h-35.31c-4.875,0-8.828-3.952-8.828-8.828s3.952-8.828,8.828-8.828h35.31
			c4.875,0,8.828,3.952,8.828,8.828S84.324,300.138,79.448,300.138z"/>
		<path style="fill:#E4C05C;" d="M79.448,335.448h-35.31c-4.875,0-8.828-3.952-8.828-8.828s3.952-8.828,8.828-8.828h35.31
			c4.875,0,8.828,3.952,8.828,8.828S84.324,335.448,79.448,335.448z"/>
		<path style="fill:#E4C05C;" d="M79.448,370.759h-35.31c-4.875,0-8.828-3.952-8.828-8.828s3.952-8.828,8.828-8.828h35.31
			c4.875,0,8.828,3.952,8.828,8.828S84.324,370.759,79.448,370.759z"/>
		<path style="fill:#E4C05C;" d="M79.448,406.069h-35.31c-4.875,0-8.828-3.952-8.828-8.828c0-4.875,3.952-8.828,8.828-8.828h35.31
			c4.875,0,8.828,3.952,8.828,8.828C88.276,402.117,84.324,406.069,79.448,406.069z"/>
	</g>
	<path style="fill:#BDC3C7;" d="M432.552,88.276v335.448c0,4.875-3.952,8.828-8.828,8.828H88.276c-4.875,0-8.828-3.952-8.828-8.828
		V88.276c0-4.875,3.952-8.828,8.828-8.828h335.448C428.599,79.448,432.552,83.401,432.552,88.276z"/>
	<circle style="fill:#B19046;" cx="150.069" cy="150.069" r="35.31"/>
	<path style="fill:#E4C05C;" d="M150.069,158.897c-2.34-0.017-4.585-0.933-6.268-2.56c-1.614-1.691-2.529-3.93-2.56-6.268
		c-0.033-1.159,0.21-2.31,0.707-3.358c0.405-1.09,1.037-2.082,1.854-2.91c2.526-2.546,6.34-3.311,9.652-1.936
		c3.312,1.375,5.463,4.617,5.442,8.203c-0.013,0.592-0.074,1.181-0.181,1.763c-0.093,0.554-0.27,1.09-0.526,1.59
		c-0.194,0.562-0.461,1.097-0.793,1.591c-0.353,0.44-0.707,0.879-1.06,1.323C154.643,157.946,152.405,158.86,150.069,158.897z"/>
</g>
<g>
</g>
<g>
</g>
<g>
</g>
<g>
</g>
<g>
</g>
<g>
</g>
<g>
</g>
<g>
</g>
<g>
</g>
<g>
</g>
<g>
</g>
<g>
</g>
<g>
</g>
<g>
</g>
<g>
</g>
</svg>
