<?xml version="1.0" encoding="iso-8859-1"?>
<!-- Generator: Adobe Illustrator 19.0.0, SVG Export Plug-In . SVG Version: 6.00 Build 0)  -->
<svg version="1.1" id="Capa_1" xmlns="http://www.w3.org/2000/svg" xmlns:xlink="http://www.w3.org/1999/xlink" x="0px" y="0px"
	 viewBox="0 0 512 512" style="enable-background:new 0 0 512 512;" xml:space="preserve">
<g>
	<path style="fill:#BDC3C7;" d="M123.586,300.138v79.448c0,4.875-3.952,8.828-8.828,8.828H61.793c-4.875,0-8.828-3.952-8.828-8.828
		v-79.448H123.586z"/>
	<g>
		<path style="fill:#95A5A5;" d="M79.448,353.103c-0.015,4.869-3.958,8.813-8.828,8.828H52.966v-17.655h17.655
			C75.49,344.29,79.434,348.234,79.448,353.103z"/>
		<path style="fill:#95A5A5;" d="M123.586,344.276v17.655h-17.655c-4.875,0-8.828-3.952-8.828-8.828s3.952-8.828,8.828-8.828
			H123.586z"/>
	</g>
	<path style="fill:#7F8C8D;" d="M335.448,114.759v-35.31C335.445,35.572,299.877,0.004,256,0H150.069
		c-43.877,0.004-79.445,35.572-79.448,79.448v150.069h35.31V79.448c0.009-24.373,19.765-44.129,44.138-44.138H256
		c24.373,0.009,44.129,19.765,44.138,44.138v35.31H335.448z"/>
	<g>
		<path style="fill:#95A5A5;" d="M52.966,211.862h70.621c4.875,0,8.828,3.952,8.828,8.828v88.276c0,4.875-3.952,8.828-8.828,8.828
			H52.966c-4.875,0-8.828-3.952-8.828-8.828V220.69C44.138,215.814,48.09,211.862,52.966,211.862z"/>
		<path style="fill:#95A5A5;" d="M300.138,97.103h35.31c4.875,0,8.828,3.952,8.828,8.828v70.621H291.31v-70.621
			C291.31,101.056,295.263,97.103,300.138,97.103z"/>
	</g>
	<path style="fill:#F0785A;" d="M185.379,150.069h264.828c9.751,0,17.655,7.904,17.655,17.655v326.621
		c0,9.751-7.904,17.655-17.655,17.655H185.379c-9.751,0-17.655-7.905-17.655-17.655V167.724
		C167.724,157.973,175.629,150.069,185.379,150.069z"/>
	<circle style="fill:#FFFFFF;" cx="317.793" cy="291.31" r="52.966"/>
	<circle style="fill:#67B9CC;" cx="414.897" cy="459.034" r="17.655"/>
	<path style="fill:#BDC3C7;" d="M335.448,300.138h-35.31c-4.875,0-8.828-3.952-8.828-8.828s3.952-8.828,8.828-8.828h35.31
		c4.875,0,8.828,3.952,8.828,8.828S340.324,300.138,335.448,300.138z"/>
	<path style="fill:#F09372;" d="M467.862,167.724v26.483H167.724v-26.483c0.028-9.739,7.916-17.627,17.655-17.655h264.828
		C459.946,150.097,467.834,157.985,467.862,167.724z"/>
</g>
<g>
</g>
<g>
</g>
<g>
</g>
<g>
</g>
<g>
</g>
<g>
</g>
<g>
</g>
<g>
</g>
<g>
</g>
<g>
</g>
<g>
</g>
<g>
</g>
<g>
</g>
<g>
</g>
<g>
</g>
</svg>
