<?xml version="1.0" encoding="iso-8859-1"?>
<!-- Generator: Adobe Illustrator 19.0.0, SVG Export Plug-In . SVG Version: 6.00 Build 0)  -->
<svg version="1.1" id="Capa_1" xmlns="http://www.w3.org/2000/svg" xmlns:xlink="http://www.w3.org/1999/xlink" x="0px" y="0px"
	 viewBox="0 0 512 512" style="enable-background:new 0 0 512 512;" xml:space="preserve">
<g>
	<rect x="194.207" y="327.415" style="fill:#A5A5A4;" width="123.586" height="175.757"/>
	<path style="fill:#5E5F62;" d="M512,26.483V363.17c0.02,2.834-1.315,5.508-3.594,7.193c-2.279,1.686-5.226,2.181-7.93,1.332
		C468.055,360.91,370.882,353.104,256,353.104S43.946,360.91,11.524,371.695c-2.704,0.849-5.651,0.353-7.93-1.332
		C1.315,368.677-0.02,366.004,0,363.17V26.483C0,11.829,114.582,0,256,0S512,11.829,512,26.483z"/>
	<path style="fill:#67B9CC;" d="M476.69,330.354c-56.918-9.125-148.802-12.56-220.69-12.56s-163.776,3.435-220.69,12.56V48.806
		C67.612,42.388,145.108,35.311,256,35.311s188.388,7.078,220.69,13.496V330.354z"/>
	<path style="fill:#5E5F62;" d="M141.242,476.69h229.517c9.751,0,17.655,7.905,17.655,17.655l0,0
		c0,9.751-7.905,17.655-17.655,17.655H141.242c-9.751,0-17.655-7.905-17.655-17.655l0,0
		C123.586,484.594,131.491,476.69,141.242,476.69z"/>
	<path style="fill:#D1D4D1;" d="M275.686,353.104c4.388,4.832,6.812,11.129,6.797,17.655c0,14.626-11.857,26.483-26.483,26.483
		c-14.626,0-26.483-11.857-26.483-26.483c-0.014-6.527,2.41-12.823,6.797-17.655H275.686z"/>
	<g>
		<path style="fill:#B0D3F0;" d="M70.621,132.414c-3.57-0.001-6.788-2.152-8.154-5.45c-1.366-3.298-0.611-7.094,1.913-9.619
			l26.483-26.483c3.456-3.394,9.001-3.369,12.426,0.056c3.425,3.425,3.45,8.97,0.056,12.426l-26.483,26.483
			C75.209,131.486,72.963,132.417,70.621,132.414z"/>
		<path style="fill:#B0D3F0;" d="M123.586,79.449c-3.569-0.014-6.782-2.168-8.151-5.464s-0.626-7.093,1.883-9.631
			c0.827-0.818,1.819-1.451,2.909-1.858c3.298-1.294,7.046-0.57,9.626,1.858c3.414,3.481,3.414,9.054,0,12.534
			c-0.444,0.353-0.884,0.707-1.414,1.056c-0.45,0.351-0.957,0.621-1.5,0.797c-0.501,0.253-1.037,0.432-1.59,0.53
			C124.767,79.373,124.178,79.432,123.586,79.449z"/>
		<path style="fill:#B0D3F0;" d="M79.449,176.552c-3.57-0.001-6.788-2.152-8.154-5.45c-1.366-3.298-0.611-7.094,1.913-9.619
			l97.103-97.103c3.456-3.394,9.001-3.369,12.426,0.056c3.425,3.425,3.45,8.97,0.056,12.426L85.69,173.965
			C84.036,175.624,81.79,176.555,79.449,176.552z"/>
	</g>
</g>
<g>
</g>
<g>
</g>
<g>
</g>
<g>
</g>
<g>
</g>
<g>
</g>
<g>
</g>
<g>
</g>
<g>
</g>
<g>
</g>
<g>
</g>
<g>
</g>
<g>
</g>
<g>
</g>
<g>
</g>
</svg>
