<?xml version="1.0" encoding="iso-8859-1"?>
<!-- Generator: Adobe Illustrator 19.0.0, SVG Export Plug-In . SVG Version: 6.00 Build 0)  -->
<svg version="1.1" id="Capa_1" xmlns="http://www.w3.org/2000/svg" xmlns:xlink="http://www.w3.org/1999/xlink" x="0px" y="0px"
	 viewBox="0 0 512 512" style="enable-background:new 0 0 512 512;" xml:space="preserve">
<g>
	<rect x="238.345" style="fill:#5E5F62;" width="35.31" height="167.724"/>
	<path style="fill:#A5A5A4;" d="M238.345,158.897h35.31c4.875,0,8.828,3.952,8.828,8.828v44.138h-52.966v-44.138
		C229.517,162.849,233.469,158.897,238.345,158.897z"/>
	<path style="fill:#35495E;" d="M512,272.154v188.381c-0.002,4.704-1.876,9.214-5.208,12.535l-33.721,33.721
		c-3.321,3.332-7.831,5.206-12.535,5.208h-38.312c-4.704-0.002-9.214-1.876-12.535-5.208l-3.619-3.619H105.931l-3.619,3.619
		c-3.321,3.332-7.831,5.206-12.535,5.208H51.465c-4.704-0.002-9.214-1.876-12.535-5.208L5.208,473.07
		C1.876,469.75,0.002,465.24,0,460.535V272.154c0.002-4.704,1.876-9.214,5.208-12.535l33.721-33.721
		c3.321-3.332,7.831-5.206,12.535-5.208h117.76c4.704-0.002,9.214-1.876,12.535-5.208l16.066-16.066
		c3.321-3.332,7.831-5.206,12.535-5.208h91.277c4.704,0.002,9.214,1.876,12.535,5.208l16.066,16.066
		c3.321,3.332,7.831,5.206,12.535,5.208h117.76c4.704,0.002,9.214,1.876,12.535,5.208l33.721,33.721
		C510.124,262.94,511.998,267.45,512,272.154z"/>
	<g>
		<path style="fill:#71C285;" d="M61.793,256h17.655c4.875,0,8.828,3.952,8.828,8.828v17.655c0,4.875-3.952,8.828-8.828,8.828
			H61.793c-4.875,0-8.828-3.952-8.828-8.828v-17.655C52.966,259.952,56.918,256,61.793,256z"/>
		<path style="fill:#71C285;" d="M150.069,256h17.655c4.875,0,8.828,3.952,8.828,8.828v17.655c0,4.875-3.952,8.828-8.828,8.828
			h-17.655c-4.875,0-8.828-3.952-8.828-8.828v-17.655C141.241,259.952,145.194,256,150.069,256z"/>
		<path style="fill:#71C285;" d="M220.69,256h17.655c4.875,0,8.828,3.952,8.828,8.828v17.655c0,4.875-3.952,8.828-8.828,8.828
			H220.69c-4.875,0-8.828-3.952-8.828-8.828v-17.655C211.862,259.952,215.814,256,220.69,256z"/>
		<path style="fill:#71C285;" d="M291.31,256h17.655c4.875,0,8.828,3.952,8.828,8.828v17.655c0,4.875-3.952,8.828-8.828,8.828
			H291.31c-4.875,0-8.828-3.952-8.828-8.828v-17.655C282.483,259.952,286.435,256,291.31,256z"/>
		<path style="fill:#71C285;" d="M361.931,256h17.655c4.875,0,8.828,3.952,8.828,8.828v17.655c0,4.875-3.952,8.828-8.828,8.828
			h-17.655c-4.875,0-8.828-3.952-8.828-8.828v-17.655C353.103,259.952,357.056,256,361.931,256z"/>
		<path style="fill:#71C285;" d="M432.552,256h17.655c4.875,0,8.828,3.952,8.828,8.828v17.655c0,4.875-3.952,8.828-8.828,8.828
			h-17.655c-4.875,0-8.828-3.952-8.828-8.828v-17.655C423.724,259.952,427.676,256,432.552,256z"/>
		<path style="fill:#71C285;" d="M150.069,326.621h17.655c4.875,0,8.828,3.952,8.828,8.828v17.655c0,4.875-3.952,8.828-8.828,8.828
			h-17.655c-4.875,0-8.828-3.952-8.828-8.828v-17.655C141.241,330.573,145.194,326.621,150.069,326.621z"/>
		<path style="fill:#71C285;" d="M61.793,326.621h35.31c4.875,0,8.828,3.952,8.828,8.828v17.655c0,4.875-3.952,8.828-8.828,8.828
			h-35.31c-4.875,0-8.828-3.952-8.828-8.828v-17.655C52.966,330.573,56.918,326.621,61.793,326.621z"/>
		<path style="fill:#71C285;" d="M220.69,326.621h17.655c4.875,0,8.828,3.952,8.828,8.828v17.655c0,4.875-3.952,8.828-8.828,8.828
			H220.69c-4.875,0-8.828-3.952-8.828-8.828v-17.655C211.862,330.573,215.814,326.621,220.69,326.621z"/>
		<path style="fill:#71C285;" d="M291.31,326.621h17.655c4.875,0,8.828,3.952,8.828,8.828v17.655c0,4.875-3.952,8.828-8.828,8.828
			H291.31c-4.875,0-8.828-3.952-8.828-8.828v-17.655C282.483,330.573,286.435,326.621,291.31,326.621z"/>
		<path style="fill:#71C285;" d="M361.931,326.621h17.655c4.875,0,8.828,3.952,8.828,8.828v17.655c0,4.875-3.952,8.828-8.828,8.828
			h-17.655c-4.875,0-8.828-3.952-8.828-8.828v-17.655C353.103,330.573,357.056,326.621,361.931,326.621z"/>
		<path style="fill:#71C285;" d="M432.552,326.621h17.655c4.875,0,8.828,3.952,8.828,8.828v17.655c0,4.875-3.952,8.828-8.828,8.828
			h-17.655c-4.875,0-8.828-3.952-8.828-8.828v-17.655C423.724,330.573,427.676,326.621,432.552,326.621z"/>
		<path style="fill:#71C285;" d="M150.069,397.241h17.655c4.875,0,8.828,3.952,8.828,8.828v17.655c0,4.875-3.952,8.828-8.828,8.828
			h-17.655c-4.875,0-8.828-3.952-8.828-8.828v-17.655C141.241,401.194,145.194,397.241,150.069,397.241z"/>
		<path style="fill:#71C285;" d="M61.793,397.241h35.31c4.875,0,8.828,3.952,8.828,8.828v17.655c0,4.875-3.952,8.828-8.828,8.828
			h-35.31c-4.875,0-8.828-3.952-8.828-8.828v-17.655C52.966,401.194,56.918,397.241,61.793,397.241z"/>
		<path style="fill:#71C285;" d="M238.345,432.552H220.69c-4.875,0-8.828-3.952-8.828-8.828v-17.655
			c0-4.875,3.952-8.828,8.828-8.828h88.276c4.875,0,8.828,3.952,8.828,8.828v17.655c0,4.875-3.952,8.828-8.828,8.828H238.345z"/>
		<path style="fill:#71C285;" d="M361.931,397.241h17.655c4.875,0,8.828,3.952,8.828,8.828v17.655c0,4.875-3.952,8.828-8.828,8.828
			h-17.655c-4.875,0-8.828-3.952-8.828-8.828v-17.655C353.103,401.194,357.056,397.241,361.931,397.241z"/>
		<path style="fill:#71C285;" d="M432.552,397.241h17.655c4.875,0,8.828,3.952,8.828,8.828v17.655c0,4.875-3.952,8.828-8.828,8.828
			h-17.655c-4.875,0-8.828-3.952-8.828-8.828v-17.655C423.724,401.194,427.676,397.241,432.552,397.241z"/>
	</g>
	<path style="fill:#2C3E50;" d="M406.069,503.172H105.931l30.102-30.102c3.321-3.332,7.831-5.206,12.535-5.208h214.863
		c4.704,0.002,9.214,1.876,12.535,5.208L406.069,503.172z"/>
</g>
<g>
</g>
<g>
</g>
<g>
</g>
<g>
</g>
<g>
</g>
<g>
</g>
<g>
</g>
<g>
</g>
<g>
</g>
<g>
</g>
<g>
</g>
<g>
</g>
<g>
</g>
<g>
</g>
<g>
</g>
</svg>
