<?xml version="1.0" encoding="iso-8859-1"?>
<!-- Generator: Adobe Illustrator 19.0.0, SVG Export Plug-In . SVG Version: 6.00 Build 0)  -->
<svg version="1.1" id="Capa_1" xmlns="http://www.w3.org/2000/svg" xmlns:xlink="http://www.w3.org/1999/xlink" x="0px" y="0px"
	 viewBox="0 0 503.619 503.619" style="enable-background:new 0 0 503.619 503.619;" xml:space="preserve">
<g>
	
		<rect x="421.79" y="-7.426" transform="matrix(-0.7071 -0.7071 0.7071 -0.7071 707.3763 419.0017)" style="fill:#5E5F62;" width="37.341" height="140.869"/>
	<path style="fill:#A5A5A4;" d="M397.236,78.884l27.337,27.334c3.389,3.389,3.389,8.883,0.001,12.272l-35.815,35.819l-39.61-39.606
		l35.815-35.819C388.353,75.495,393.847,75.495,397.236,78.884z"/>
	<path style="fill:#5E5F62;" d="M309.33,338.551c-7.196,12.872-14.259,25.876-20.993,39.078
		c-6.602,12.674-12.939,25.48-18.815,38.616c-6.272,13.664-9.44,29.374-16.438,42.576c-14.854,27.526-59.48,39.012-88.527,42.708
		c-28.504,4.789-57.783,1.307-84.368-10.033c-2.782-1.299-5.453-2.822-7.988-4.555c-3.165-2.389-6.124-5.038-8.846-7.921
		c-13.137-13.136-26.208-26.338-39.346-39.474c-2.591-2.479-5.017-5.125-7.262-7.921c-8.705-13.55-13.942-29.033-15.25-45.085
		c-1.915-15.838-1.782-31.856,0.396-47.659c3.697-29.044,15.184-73.667,42.712-88.519c13.203-6.997,28.915-10.165,42.58-16.436
		c13.137-5.875,25.944-12.212,38.619-18.813c13.203-6.733,26.208-13.796,39.081-20.991L309.33,338.551z"/>
	<path style="fill:#CC4B4C;" d="M405.494,161.065l-63.089-63.089c-18.837-18.9-46.36-26.253-72.114-19.265
		c-16.187,4.219-30.452,13.83-40.439,27.249l-4.946,6.595l-25.166,33.584c-2.951,3.905-5.814,7.81-8.678,11.715
		c-47.526,64.561-91.195,131.875-130.777,201.589c-13.644,24.013-9.574,54.181,9.945,73.721
		c19.519,19.54,49.683,23.641,73.71,10.022c69.828-39.442,137.178-83.115,201.676-130.777c3.905-2.864,7.81-5.727,11.715-8.678
		l33.584-25.166l6.595-4.946c17.309-12.998,28.13-32.864,29.662-54.456C428.704,197.57,420.796,176.376,405.494,161.065z"/>
	<g>
		<path style="fill:#C2615F;" d="M281.573,116.286l-26.468,26.381l-30.113-30.113h-0.087l4.946-6.595
			c9.988-13.419,24.252-23.03,40.439-27.249l11.281,11.195C288.776,97.224,288.776,108.968,281.573,116.286z"/>
		<path style="fill:#C2615F;" d="M424.846,233.092c-4.272,16.209-13.907,30.493-27.336,40.526l-6.595,4.946v-0.087l-30.199-30.199
			l26.468-26.381c7.319-7.203,19.062-7.203,26.381,0l11.195,11.195H424.846z"/>
	</g>
	<g>
		<path style="fill:#802F34;" d="M189.113,323.006c-3.509-0.001-6.673-2.115-8.016-5.357c-1.343-3.242-0.601-6.974,1.88-9.456
			l140.788-140.776l0.064-0.064l43.996-43.992c2.192-2.192,5.387-3.048,8.381-2.246c2.994,0.802,5.333,3.141,6.136,6.136
			s-0.054,6.189-2.246,8.381l-52.814,52.809l-0.068,0.072L195.249,320.464C193.623,322.094,191.415,323.009,189.113,323.006z"/>
		<path style="fill:#802F34;" d="M255.105,142.667l-26.381,26.468c-7.319,7.203-19.062,7.203-26.381,0l-11.281-11.281
			c2.864-3.905,5.727-7.81,8.678-11.715l25.166-33.584h0.087L255.105,142.667z"/>
		<path style="fill:#802F34;" d="M390.915,278.478v0.087l-33.584,25.166c-3.905,2.951-7.81,5.814-11.715,8.678l-11.281-11.281
			c-3.5-3.497-5.467-8.242-5.467-13.19s1.967-9.693,5.467-13.191l26.381-26.468L390.915,278.478z"/>
	</g>
	<g>
		<path style="fill:#A5A5A4;" d="M95.431,230.055v0.087L77.12,264.853c-18.4,34.88-44.591,65.05-76.54,88.168H0.494
			c0.347-4.686,0.781-9.459,1.388-14.145c3.732-29.071,15.186-73.676,42.696-88.515c13.191-7.029,28.984-10.153,42.609-16.401
			C89.964,232.745,92.654,231.443,95.431,230.055z"/>
		<path style="fill:#A5A5A4;" d="M273.416,408.04c-1.388,2.69-2.69,5.467-3.905,8.244c-6.248,13.624-9.459,29.332-16.401,42.522
			c-14.839,27.509-59.531,39.051-88.515,42.696c-4.686,0.607-9.372,1.041-14.145,1.388v-0.087
			c23.089-31.92,53.231-58.083,88.081-76.453l34.712-18.397L273.416,408.04z"/>
		<path style="fill:#A5A5A4;" d="M314.089,175.224l14.132,14.131c3.389,3.389,3.389,8.883,0.001,12.272l-27.336,27.338
			c-3.389,3.389-8.883,3.389-12.272,0.001l-14.132-14.131c-3.389-3.389-3.389-8.883-0.001-12.272l27.336-27.338
			C305.206,171.836,310.7,171.836,314.089,175.224z"/>
	</g>
</g>
<g>
</g>
<g>
</g>
<g>
</g>
<g>
</g>
<g>
</g>
<g>
</g>
<g>
</g>
<g>
</g>
<g>
</g>
<g>
</g>
<g>
</g>
<g>
</g>
<g>
</g>
<g>
</g>
<g>
</g>
</svg>
