<?xml version="1.0" encoding="iso-8859-1"?>
<!-- Generator: Adobe Illustrator 19.0.0, SVG Export Plug-In . SVG Version: 6.00 Build 0)  -->
<svg version="1.1" id="Capa_1" xmlns="http://www.w3.org/2000/svg" xmlns:xlink="http://www.w3.org/1999/xlink" x="0px" y="0px"
	 viewBox="0 0 512 512" style="enable-background:new 0 0 512 512;" xml:space="preserve">
<g>
	<g>
		<path style="fill:#BDC3C7;" d="M61.784,79.414c-3.126-0.005-6.016-1.662-7.599-4.357c-1.583-2.695-1.624-6.026-0.107-8.759
			L88.414,4.504c2.392-4.212,7.731-5.71,11.965-3.356c4.234,2.353,5.78,7.679,3.466,11.934L69.508,74.875
			C67.95,77.68,64.993,79.418,61.784,79.414z"/>
		<path style="fill:#BDC3C7;" d="M141.233,79.414c-3.126-0.005-6.016-1.662-7.599-4.357c-1.583-2.695-1.624-6.026-0.107-8.759
			l34.336-61.793c2.392-4.212,7.731-5.71,11.965-3.356s5.78,7.679,3.466,11.934l-34.336,61.793
			C147.399,77.68,144.441,79.418,141.233,79.414z"/>
		<path style="fill:#BDC3C7;" d="M450.216,79.414c-3.208,0.004-6.166-1.734-7.724-4.539l-34.336-61.793
			c-2.315-4.255-0.768-9.58,3.466-11.934c4.234-2.353,9.573-0.856,11.965,3.356l34.336,61.793c1.517,2.733,1.476,6.064-0.107,8.759
			C456.231,77.751,453.341,79.409,450.216,79.414z"/>
		<path style="fill:#BDC3C7;" d="M379.595,79.414c-3.208,0.004-6.166-1.734-7.724-4.539l-34.336-61.793
			c-2.315-4.255-0.768-9.58,3.466-11.934c4.234-2.353,9.573-0.856,11.965,3.356l34.336,61.793c1.517,2.733,1.476,6.064-0.107,8.759
			C385.611,77.751,382.721,79.409,379.595,79.414z"/>
	</g>
	<path style="fill:#4482C3;" d="M467.862,61.759H344.276l8.828,35.31H158.897l8.828-35.31H44.138L0,141.207V494.31
		c0,9.751,7.905,17.655,17.655,17.655h476.69c9.751,0,17.655-7.905,17.655-17.655V141.207L467.862,61.759z"/>
	<path style="fill:#BDC3C7;" d="M52.966,185.345h52.966c4.875,0,8.828,3.952,8.828,8.828v211.862c0,4.875-3.952,8.828-8.828,8.828
		H52.966c-4.875,0-8.828-3.952-8.828-8.828V194.172C44.138,189.297,48.09,185.345,52.966,185.345z"/>
	<rect x="44.138" y="282.448" style="fill:#ECF0F1;" width="70.621" height="97.103"/>
	<path style="fill:#BDC3C7;" d="M167.724,185.345h52.966c4.875,0,8.828,3.952,8.828,8.828v211.862c0,4.875-3.952,8.828-8.828,8.828
		h-52.966c-4.875,0-8.828-3.952-8.828-8.828V194.172C158.897,189.297,162.849,185.345,167.724,185.345z"/>
	<rect x="158.897" y="282.448" style="fill:#ECF0F1;" width="70.621" height="97.103"/>
	<path style="fill:#BDC3C7;" d="M291.31,185.345h52.966c4.875,0,8.828,3.952,8.828,8.828v211.862c0,4.875-3.952,8.828-8.828,8.828
		H291.31c-4.875,0-8.828-3.952-8.828-8.828V194.172C282.483,189.297,286.435,185.345,291.31,185.345z"/>
	<rect x="282.483" y="282.448" style="fill:#ECF0F1;" width="70.621" height="97.103"/>
	<path style="fill:#BDC3C7;" d="M406.069,185.345h52.966c4.875,0,8.828,3.952,8.828,8.828v211.862c0,4.875-3.952,8.828-8.828,8.828
		h-52.966c-4.875,0-8.828-3.952-8.828-8.828V194.172C397.241,189.297,401.194,185.345,406.069,185.345z"/>
	<g>
		<rect x="397.241" y="282.448" style="fill:#ECF0F1;" width="70.621" height="97.103"/>
		<path style="fill:#ECF0F1;" d="M70.621,485.483c-2.341,0.001-4.587-0.929-6.243-2.585c-1.656-1.656-2.585-3.901-2.585-6.243
			v-26.483c0-4.875,3.952-8.828,8.828-8.828c4.875,0,8.828,3.952,8.828,8.828v26.483c0.001,2.341-0.929,4.587-2.585,6.243
			C75.208,484.553,72.962,485.483,70.621,485.483z"/>
		<path style="fill:#ECF0F1;" d="M194.207,485.483c-2.341,0.001-4.587-0.929-6.243-2.585c-1.656-1.656-2.585-3.901-2.585-6.243
			v-26.483c0-4.875,3.952-8.828,8.828-8.828s8.828,3.952,8.828,8.828v26.483c0.001,2.341-0.929,4.587-2.585,6.243
			C198.794,484.553,196.548,485.483,194.207,485.483z"/>
		<path style="fill:#ECF0F1;" d="M317.793,485.483c-2.341,0.001-4.587-0.929-6.243-2.585c-1.656-1.656-2.585-3.901-2.585-6.243
			v-26.483c0-4.875,3.952-8.828,8.828-8.828s8.828,3.952,8.828,8.828v26.483c0.001,2.341-0.929,4.587-2.585,6.243
			C322.38,484.553,320.134,485.483,317.793,485.483z"/>
		<path style="fill:#ECF0F1;" d="M432.552,485.483c-2.341,0.001-4.587-0.929-6.243-2.585c-1.656-1.656-2.585-3.901-2.585-6.243
			v-26.483c0-4.875,3.952-8.828,8.828-8.828s8.828,3.952,8.828,8.828v26.483c0.001,2.341-0.929,4.587-2.585,6.243
			C437.139,484.553,434.893,485.483,432.552,485.483z"/>
	</g>
	<polygon style="fill:#285680;" points="512,141.207 0,141.207 44.138,61.759 167.724,61.759 158.897,97.069 353.103,97.069 
		344.276,61.759 467.862,61.759 	"/>
</g>
<g>
</g>
<g>
</g>
<g>
</g>
<g>
</g>
<g>
</g>
<g>
</g>
<g>
</g>
<g>
</g>
<g>
</g>
<g>
</g>
<g>
</g>
<g>
</g>
<g>
</g>
<g>
</g>
<g>
</g>
</svg>
