<?xml version="1.0" encoding="iso-8859-1"?>
<!-- Generator: Adobe Illustrator 19.0.0, SVG Export Plug-In . SVG Version: 6.00 Build 0)  -->
<svg version="1.1" id="Capa_1" xmlns="http://www.w3.org/2000/svg" xmlns:xlink="http://www.w3.org/1999/xlink" x="0px" y="0px"
	 viewBox="0 0 512 512" style="enable-background:new 0 0 512 512;" xml:space="preserve">
<g>
	<g>
		<path style="fill:#7F8C8D;" d="M8.828,335.448h35.31v26.483c0,9.751-7.904,17.655-17.655,17.655s-17.655-7.905-17.655-17.655
			V335.448z"/>
		<path style="fill:#7F8C8D;" d="M467.862,335.448h35.31v26.483c0,9.751-7.905,17.655-17.655,17.655s-17.655-7.905-17.655-17.655
			V335.448z"/>
	</g>
	<path style="fill:#BDC3C7;" d="M511.753,220.69L450.207,44.844l-7.432-21.21C437.814,9.478,424.451,0,409.451,0H102.549
		c-15,0-28.364,9.477-33.324,23.634l-7.432,21.21L0.247,220.69H0v114.759c0,4.875,3.952,8.828,8.828,8.828h494.345
		c4.875,0,8.828-3.952,8.828-8.828V220.69H511.753z"/>
	<path style="fill:#95A5A5;" d="M426.549,344.276h76.623c4.875,0,8.828-3.952,8.828-8.828V220.69H0v114.759
		c0,4.875,3.952,8.828,8.828,8.828h85.451"/>
	<path style="fill:#7F8C8D;" d="M401.39,300.138h22.334c9.751,0,17.655-7.905,17.655-17.655c0-9.751-7.904-17.655-17.655-17.655
		H88.276c-9.751,0-17.655,7.904-17.655,17.655c0,9.751,7.904,17.655,17.655,17.655H401.39z"/>
	<polygon style="fill:#ECF0F1;" points="99.54,150.775 127.603,70.621 384.397,70.621 412.46,150.775 	"/>
	<g>
		<path style="fill:#95A5A5;" d="M211.862,123.586h-52.966c-4.875,0-8.828-3.952-8.828-8.828s3.952-8.828,8.828-8.828h52.966
			c4.875,0,8.828,3.952,8.828,8.828S216.737,123.586,211.862,123.586z"/>
		<path style="fill:#95A5A5;" d="M308.966,123.586h-61.793c-4.875,0-8.828-3.952-8.828-8.828s3.952-8.828,8.828-8.828h61.793
			c4.875,0,8.828,3.952,8.828,8.828S313.841,123.586,308.966,123.586z"/>
		<path style="fill:#95A5A5;" d="M353.103,123.586h-8.828c-4.875,0-8.828-3.952-8.828-8.828s3.952-8.828,8.828-8.828h8.828
			c4.875,0,8.828,3.952,8.828,8.828S357.979,123.586,353.103,123.586z"/>
	</g>
	<path style="fill:#BDC3C7;" d="M388.414,264.828H123.586L61.793,441.379v52.966c0,9.751,7.904,17.655,17.655,17.655h353.103
		c9.751,0,17.655-7.905,17.655-17.655v-52.966L388.414,264.828z"/>
	<path style="fill:#95A5A5;" d="M61.793,441.379h388.414v52.966c0,9.751-7.905,17.655-17.655,17.655H79.448
		c-9.751,0-17.655-7.905-17.655-17.655V441.379z"/>
	<path style="fill:#CC4B4C;" d="M141.241,485.517h-35.31c-4.875,0-8.828-3.952-8.828-8.828s3.952-8.828,8.828-8.828h35.31
		c4.875,0,8.828,3.952,8.828,8.828S146.117,485.517,141.241,485.517z"/>
	<path style="fill:#14A085;" d="M176.552,485.517c-2.348,0.023-4.607-0.9-6.267-2.56c-1.66-1.661-2.583-3.919-2.56-6.267
		c0.014-1.155,0.254-2.296,0.707-3.358c0.426-1.08,1.055-2.067,1.854-2.909c3.539-3.267,8.995-3.267,12.534,0
		c0.799,0.842,1.428,1.83,1.854,2.909c0.453,1.062,0.693,2.203,0.706,3.358c0.023,2.348-0.9,4.607-2.56,6.267
		C181.158,484.617,178.9,485.54,176.552,485.517z"/>
	<ellipse style="fill:#8697CB;" cx="256" cy="335.448" rx="114.759" ry="70.621"/>
	<ellipse style="fill:#556080;" cx="256" cy="335.448" rx="35.31" ry="17.655"/>
</g>
<g>
</g>
<g>
</g>
<g>
</g>
<g>
</g>
<g>
</g>
<g>
</g>
<g>
</g>
<g>
</g>
<g>
</g>
<g>
</g>
<g>
</g>
<g>
</g>
<g>
</g>
<g>
</g>
<g>
</g>
</svg>
