<?xml version="1.0" encoding="iso-8859-1"?>
<!-- Generator: Adobe Illustrator 19.0.0, SVG Export Plug-In . SVG Version: 6.00 Build 0)  -->
<svg version="1.1" id="Capa_1" xmlns="http://www.w3.org/2000/svg" xmlns:xlink="http://www.w3.org/1999/xlink" x="0px" y="0px"
	 viewBox="0 0 512 512" style="enable-background:new 0 0 512 512;" xml:space="preserve">
<g>
	<path style="fill:#71C285;" d="M512,43.39v373.153c-0.014,4.787-3.891,8.664-8.678,8.678H390.508
		c-4.787,0.014-8.664,3.891-8.678,8.678v34.712c-0.014,4.787-3.891,8.664-8.678,8.678h-26.034c-4.787-0.014-8.664-3.891-8.678-8.678
		v-26.034c-0.028-9.574-7.782-17.328-17.356-17.356h-0.347c-9.387,0.015-16.994,7.621-17.009,17.009v26.381
		c-0.014,4.787-3.891,8.664-8.678,8.678h-26.034c-4.787-0.014-8.664-3.891-8.678-8.678v-26.815
		c-0.255-5.019-2.657-9.685-6.594-12.808c-3.937-3.123-9.027-4.401-13.972-3.507c-8.408,1.887-14.323,9.435-14.145,18.05v16.401
		c-0.014,4.787-3.891,8.664-8.678,8.678h-26.034c-4.787-0.014-8.664-3.891-8.678-8.678v-26.034
		c-0.014-4.787-3.891-8.664-8.678-8.678h-43.39c-4.787,0.014-8.664,3.891-8.678,8.678v17.356c-0.014,4.787-3.891,8.664-8.678,8.678
		H86.78c-4.787-0.014-8.664-3.891-8.678-8.678v-17.356c-0.014-4.787-3.891-8.664-8.678-8.678H43.39V34.712h459.932
		C508.109,34.726,511.986,38.603,512,43.39z"/>
	<g>
		<path style="fill:#ECF0F1;" d="M95.458,86.78c-0.014,4.787-3.891,8.664-8.678,8.678H43.39V78.102h43.39
			C91.566,78.116,95.443,81.993,95.458,86.78z"/>
		<path style="fill:#ECF0F1;" d="M130.169,95.458h-8.678c-4.793,0-8.678-3.885-8.678-8.678s3.885-8.678,8.678-8.678h8.678
			c4.793,0,8.678,3.885,8.678,8.678S134.962,95.458,130.169,95.458z"/>
		<path style="fill:#ECF0F1;" d="M95.458,121.492c-0.014,4.787-3.891,8.664-8.678,8.678H43.39v-17.356h43.39
			C91.566,112.828,95.443,116.705,95.458,121.492z"/>
		<path style="fill:#ECF0F1;" d="M130.169,130.169h-8.678c-4.793,0-8.678-3.885-8.678-8.678c0-4.793,3.885-8.678,8.678-8.678h8.678
			c4.793,0,8.678,3.885,8.678,8.678C138.847,126.284,134.962,130.169,130.169,130.169z"/>
		<path style="fill:#ECF0F1;" d="M95.458,156.203c-0.014,4.787-3.891,8.664-8.678,8.678H43.39v-17.356h43.39
			C91.566,147.54,95.443,151.417,95.458,156.203z"/>
		<path style="fill:#ECF0F1;" d="M130.169,164.881h-8.678c-4.793,0-8.678-3.885-8.678-8.678c0-4.793,3.885-8.678,8.678-8.678h8.678
			c4.793,0,8.678,3.885,8.678,8.678C138.847,160.996,134.962,164.881,130.169,164.881z"/>
		<path style="fill:#ECF0F1;" d="M95.458,190.915c-0.014,4.787-3.891,8.664-8.678,8.678H43.39v-17.356h43.39
			C91.566,182.252,95.443,186.128,95.458,190.915z"/>
		<path style="fill:#ECF0F1;" d="M130.169,199.593h-8.678c-4.793,0-8.678-3.885-8.678-8.678s3.885-8.678,8.678-8.678h8.678
			c4.793,0,8.678,3.885,8.678,8.678S134.962,199.593,130.169,199.593z"/>
		<path style="fill:#ECF0F1;" d="M95.458,225.627c-0.014,4.787-3.891,8.664-8.678,8.678H43.39v-17.356h43.39
			C91.566,216.963,95.443,220.84,95.458,225.627z"/>
		<path style="fill:#ECF0F1;" d="M130.169,234.305h-8.678c-4.793,0-8.678-3.885-8.678-8.678s3.885-8.678,8.678-8.678h8.678
			c4.793,0,8.678,3.885,8.678,8.678S134.962,234.305,130.169,234.305z"/>
	</g>
	<g>
		<path style="fill:#5E5F62;" d="M347.119,242.983h104.136c9.585,0,17.356,7.771,17.356,17.356v104.136
			c0,9.585-7.771,17.356-17.356,17.356H347.119c-9.585,0-17.356-7.771-17.356-17.356V260.339
			C329.763,250.754,337.533,242.983,347.119,242.983z"/>
		<path style="fill:#5E5F62;" d="M225.627,295.051h52.068c9.585,0,17.356,7.771,17.356,17.356v52.068
			c0,9.585-7.771,17.356-17.356,17.356h-52.068c-9.585,0-17.356-7.771-17.356-17.356v-52.068
			C208.271,302.821,216.042,295.051,225.627,295.051z"/>
	</g>
	<path style="fill:#ECF0F1;" d="M156.203,295.051L156.203,295.051c9.585,0,17.356,7.771,17.356,17.356v52.068
		c0,9.585-7.771,17.356-17.356,17.356l0,0c-9.585,0-17.356-7.771-17.356-17.356v-52.068
		C138.847,302.821,146.618,295.051,156.203,295.051z"/>
	<path style="fill:#BDC3C7;" d="M173.559,130.169h26.034v52.068h-26.034c-4.793,0-8.678-3.885-8.678-8.678v-34.712
		C164.881,134.055,168.767,130.169,173.559,130.169z"/>
	<g>
		<path style="fill:#ECF0F1;" d="M199.593,182.237l29.433,36.791c3.337,4.171,8.389,6.599,13.73,6.599
			c9.711,0,17.583-7.872,17.583-17.583V104.363c0-9.711-7.872-17.583-17.583-17.583c-5.341,0-10.393,2.428-13.73,6.599
			l-29.433,36.791V182.237z"/>
		<path style="fill:#ECF0F1;" d="M286.373,173.559c-2.302,0.001-4.509-0.913-6.137-2.541c-1.628-1.628-2.542-3.835-2.541-6.137
			v-17.356c0-4.793,3.885-8.678,8.678-8.678c4.793,0,8.678,3.885,8.678,8.678v17.356c0.001,2.302-0.913,4.509-2.541,6.137
			C290.882,172.646,288.675,173.56,286.373,173.559z"/>
		<path style="fill:#ECF0F1;" d="M321.085,190.915c-2.302,0.001-4.509-0.913-6.137-2.541c-1.628-1.628-2.542-3.835-2.541-6.137
			v-52.068c0-4.793,3.885-8.678,8.678-8.678s8.678,3.885,8.678,8.678v52.068c0.001,2.302-0.914,4.509-2.541,6.137
			C325.594,190.002,323.386,190.916,321.085,190.915z"/>
		<path style="fill:#ECF0F1;" d="M355.797,216.949c-2.302,0.001-4.509-0.913-6.137-2.541c-1.628-1.628-2.542-3.835-2.541-6.137
			V104.136c0-4.793,3.885-8.678,8.678-8.678c4.793,0,8.678,3.885,8.678,8.678v104.136c0.001,2.302-0.914,4.509-2.541,6.137
			C360.306,216.036,358.098,216.95,355.797,216.949z"/>
		<path style="fill:#ECF0F1;" d="M459.932,95.458c-0.583-0.016-1.163-0.074-1.737-0.174c-0.542-0.096-1.068-0.272-1.559-0.521
			c-0.555-0.191-1.082-0.454-1.568-0.784c-0.432-0.344-0.864-0.691-1.297-1.038c-1.587-1.662-2.486-3.863-2.517-6.161
			c-0.032-1.14,0.206-2.271,0.695-3.301c0.419-1.061,1.037-2.032,1.822-2.86l1.297-1.042c0.486-0.33,1.013-0.593,1.568-0.784
			c0.491-0.25,1.016-0.424,1.559-0.517c4.084-0.929,8.229,1.29,9.72,5.203c0.485,1.031,0.723,2.162,0.695,3.301
			c0.022,2.308-0.885,4.529-2.517,6.161C464.461,94.573,462.241,95.48,459.932,95.458z"/>
		<path style="fill:#ECF0F1;" d="M459.932,130.169c-0.583-0.016-1.163-0.074-1.737-0.174c-0.542-0.096-1.068-0.272-1.559-0.521
			c-0.555-0.191-1.082-0.454-1.568-0.784c-0.454-0.319-0.887-0.665-1.297-1.038c-0.784-0.83-1.403-1.802-1.822-2.864
			c-0.488-1.029-0.726-2.159-0.694-3.297c0.03-2.298,0.929-4.499,2.517-6.161l1.297-1.042c0.486-0.33,1.013-0.593,1.568-0.784
			c0.491-0.25,1.017-0.424,1.56-0.517c2.858-0.571,5.814,0.306,7.898,2.343c1.584,1.664,2.483,3.864,2.517,6.161
			c0.028,1.138-0.21,2.267-0.695,3.297c-0.42,1.062-1.038,2.034-1.822,2.864C464.428,129.235,462.229,130.134,459.932,130.169z"/>
		<path style="fill:#ECF0F1;" d="M459.932,164.881c-0.583-0.016-1.163-0.074-1.737-0.174c-0.542-0.096-1.068-0.272-1.559-0.521
			c-0.555-0.191-1.082-0.454-1.568-0.784c-0.454-0.319-0.887-0.665-1.297-1.038c-3.356-3.422-3.356-8.9,0-12.322l1.297-1.042
			c0.486-0.33,1.013-0.593,1.568-0.784c0.491-0.25,1.017-0.424,1.56-0.517c2.557-0.545,5.223,0.101,7.247,1.754
			s3.19,4.136,3.168,6.75c-0.017,0.581-0.077,1.16-0.178,1.733c-0.091,0.545-0.265,1.072-0.517,1.564
			c-0.191,0.553-0.453,1.078-0.78,1.564c-0.347,0.432-0.695,0.864-1.042,1.301C464.428,163.947,462.229,164.846,459.932,164.881z"/>
		<path style="fill:#ECF0F1;" d="M459.932,199.593c-0.583-0.016-1.163-0.074-1.737-0.174c-0.542-0.096-1.068-0.272-1.559-0.521
			c-0.555-0.191-1.082-0.454-1.568-0.784c-0.454-0.319-0.887-0.665-1.297-1.038c-3.356-3.422-3.356-8.9,0-12.322l1.297-1.042
			c0.486-0.33,1.013-0.593,1.568-0.784c0.491-0.25,1.017-0.424,1.56-0.517c3.252-0.682,6.608,0.551,8.645,3.176
			c2.037,2.626,2.396,6.183,0.927,9.163C466.296,197.731,463.255,199.611,459.932,199.593z"/>
	</g>
	<path style="fill:#BDC3C7;" d="M43.39,485.966c-2.302,0.001-4.509-0.913-6.137-2.541c-1.628-1.628-2.542-3.835-2.541-6.137V43.39
		H8.678C3.885,43.39,0,39.505,0,34.712s3.885-8.678,8.678-8.678H43.39c2.302-0.001,4.509,0.913,6.137,2.541
		c1.628,1.628,2.542,3.835,2.541,6.137v442.576c0.001,2.302-0.913,4.509-2.541,6.137C47.899,485.053,45.692,485.967,43.39,485.966z"
		/>
</g>
<g>
</g>
<g>
</g>
<g>
</g>
<g>
</g>
<g>
</g>
<g>
</g>
<g>
</g>
<g>
</g>
<g>
</g>
<g>
</g>
<g>
</g>
<g>
</g>
<g>
</g>
<g>
</g>
<g>
</g>
</svg>
