<?xml version="1.0" encoding="iso-8859-1"?>
<!-- Generator: Adobe Illustrator 19.0.0, SVG Export Plug-In . SVG Version: 6.00 Build 0)  -->
<svg version="1.1" id="Capa_1" xmlns="http://www.w3.org/2000/svg" xmlns:xlink="http://www.w3.org/1999/xlink" x="0px" y="0px"
	 viewBox="0 0 512 512" style="enable-background:new 0 0 512 512;" xml:space="preserve">
<g>
	<path style="fill:#B19046;" d="M425.22,403.525h-26.034c-4.793,0-8.678-3.885-8.678-8.678v-34.712c0-4.793,3.885-8.678,8.678-8.678
		c4.793,0,8.678,3.885,8.678,8.678v26.034h17.356c4.793,0,8.678,3.885,8.678,8.678C433.898,399.64,430.013,403.525,425.22,403.525z"
		/>
	<path style="fill:#4482C3;" d="M512,134.508V342.78c-0.028,9.574-7.782,17.328-17.356,17.356H43.39V117.153h451.254
		C504.218,117.181,511.972,124.935,512,134.508z"/>
	<g>
		<path style="fill:#E4C05C;" d="M78.102,360.136h34.712v26.034c0,4.793-3.885,8.678-8.678,8.678H86.78
			c-4.793,0-8.678-3.885-8.678-8.678V360.136z"/>
		<path style="fill:#E4C05C;" d="M147.525,360.136h52.068v26.034c0,4.793-3.885,8.678-8.678,8.678h-34.712
			c-4.793,0-8.678-3.885-8.678-8.678V360.136z"/>
		<path style="fill:#E4C05C;" d="M234.305,360.136h130.169v26.034c0,4.793-3.885,8.678-8.678,8.678H242.983
			c-4.793,0-8.678-3.885-8.678-8.678V360.136z"/>
	</g>
	<g>
		<path style="fill:#285680;" d="M477.288,160.542h-34.712c-4.793,0-8.678-3.885-8.678-8.678s3.885-8.678,8.678-8.678h34.712
			c4.793,0,8.678,3.885,8.678,8.678S482.081,160.542,477.288,160.542z"/>
		<path style="fill:#285680;" d="M477.288,334.102h-34.712c-4.793,0-8.678-3.885-8.678-8.678c0-4.793,3.885-8.678,8.678-8.678
			h34.712c4.793,0,8.678,3.885,8.678,8.678C485.966,330.216,482.081,334.102,477.288,334.102z"/>
		<path style="fill:#285680;" d="M112.814,160.542H78.102c-4.793,0-8.678-3.885-8.678-8.678s3.885-8.678,8.678-8.678h34.712
			c4.793,0,8.678,3.885,8.678,8.678S117.606,160.542,112.814,160.542z"/>
		<path style="fill:#285680;" d="M112.814,334.102H78.102c-4.793,0-8.678-3.885-8.678-8.678c0-4.793,3.885-8.678,8.678-8.678h34.712
			c4.793,0,8.678,3.885,8.678,8.678C121.492,330.216,117.606,334.102,112.814,334.102z"/>
		<path style="fill:#285680;" d="M295.051,160.542h-34.712c-4.793,0-8.678-3.885-8.678-8.678s3.885-8.678,8.678-8.678h34.712
			c4.793,0,8.678,3.885,8.678,8.678S299.844,160.542,295.051,160.542z"/>
		<path style="fill:#285680;" d="M295.051,334.102h-34.712c-4.793,0-8.678-3.885-8.678-8.678c0-4.793,3.885-8.678,8.678-8.678
			h34.712c4.793,0,8.678,3.885,8.678,8.678C303.729,330.216,299.844,334.102,295.051,334.102z"/>
		<path style="fill:#285680;" d="M121.492,247.322H43.39c-4.793,0-8.678-3.885-8.678-8.678c0-4.793,3.885-8.678,8.678-8.678h78.102
			c4.793,0,8.678,3.885,8.678,8.678C130.169,243.437,126.284,247.322,121.492,247.322z"/>
		<path style="fill:#285680;" d="M512,229.966v17.356h-78.102c-4.793,0-8.678-3.885-8.678-8.678c0-4.793,3.885-8.678,8.678-8.678
			H512z"/>
	</g>
	<path style="fill:#5E5F62;" d="M43.39,108.475H8.678c-4.793,0-8.678,3.885-8.678,8.678s3.885,8.678,8.678,8.678h26.034v269.017
		c0,4.793,3.885,8.678,8.678,8.678s8.678-3.885,8.678-8.678V117.153C52.068,112.36,48.183,108.475,43.39,108.475z"/>
	<path style="fill:#A5A5A4;" d="M252.182,238.644v1.041c-0.318,22.607-11.658,43.634-30.373,56.32h-0.087
		c-4.968,3.468-10.402,6.214-16.141,8.157h-0.087c-7.301,2.587-14.99,3.908-22.736,3.905c-14.553,0.021-28.74-4.566-40.526-13.104
		c-4.981-3.564-9.474-7.765-13.364-12.496c-10.08-12.378-15.568-27.861-15.534-43.824c-0.04-12.572,3.383-24.912,9.893-35.666
		c11.577-19.355,31.836-31.879,54.324-33.584c1.736-0.086,3.471-0.174,5.207-0.174c4.396,0.005,8.782,0.412,13.104,1.215
		C228.621,176.625,252.302,205.305,252.182,238.644z"/>
	<g>
		<path style="fill:#5E5F62;" d="M188.572,227.797c-1.603,1.417-3.675,2.19-5.814,2.169c-3.621,0.027-6.878-2.196-8.172-5.577
			c-1.295-3.381-0.355-7.211,2.358-9.609c0.347-0.347,11.889-12.062,1.475-41.828c-0.551-1.106-0.848-2.322-0.868-3.558
			c1.736-0.086,3.471-0.174,5.207-0.174c4.396,0.005,8.782,0.412,13.104,1.215C208.271,209.573,189.44,227.016,188.572,227.797z"/>
		<path style="fill:#5E5F62;" d="M169.654,240.814c-1.02,0.41-2.111,0.616-3.211,0.607c-3.484,0.001-6.629-2.085-7.984-5.294
			c-0.434-0.955-7.897-15.707-39.658-15.881c-0.979,0.011-1.951-0.165-2.864-0.521c1.655-5.889,4.108-11.524,7.289-16.748
			c23.344,2.603,33.41,7.723,40.005,12.93c3.341,2.543,6.268,5.587,8.678,9.025c1.032,1.434,1.905,2.976,2.603,4.599
			C176.255,233.989,174.089,239.017,169.654,240.814z"/>
		<path style="fill:#5E5F62;" d="M180.241,251.661c0.014,0.522-0.015,1.045-0.087,1.562c-0.654,4.067-4.046,7.133-8.157,7.376
			c-1.041,0.087-17.443,1.996-28.377,31.848c-0.323,0.909-0.792,1.759-1.388,2.517c-4.981-3.564-9.474-7.765-13.364-12.496
			c11.976-29.071,29.852-36.621,38.096-38.53c1.42-0.373,2.873-0.606,4.339-0.694c2.304-0.079,4.545,0.766,6.223,2.347
			C179.204,247.171,180.182,249.356,180.241,251.661z"/>
		<path style="fill:#5E5F62;" d="M221.722,296.005c-4.968,3.468-10.402,6.214-16.141,8.157h-0.087
			c-25.079-22.823-24.125-43.563-22.91-50.679c0.125-0.856,0.328-1.698,0.607-2.517c0.951-2.959,3.412-5.182,6.451-5.829
			c3.039-0.647,6.193,0.382,8.266,2.697c2.073,2.315,2.749,5.562,1.771,8.512c-0.174,0.521-4.339,16.748,20.306,37.489
			C220.732,294.409,221.327,295.153,221.722,296.005z"/>
		<path style="fill:#5E5F62;" d="M252.182,238.644v1.041c-10.443,5.848-22.141,9.092-34.104,9.459
			c-8.392,0.35-16.673-2.024-23.604-6.769c-2.439-1.916-3.665-4.99-3.213-8.058c0.451-3.068,2.511-5.659,5.398-6.791
			s6.159-0.631,8.576,1.312c0.434,0.26,14.232,9.719,42.088-6.335c0.86-0.484,1.801-0.808,2.777-0.955
			C251.501,227.138,252.2,232.881,252.182,238.644z"/>
	</g>
	<path style="fill:#A5A5A4;" d="M443.097,238.644v1.041c-0.318,22.607-11.658,43.634-30.373,56.32h-0.087
		c-4.968,3.468-10.402,6.214-16.141,8.157h-0.087c-7.301,2.587-14.99,3.908-22.736,3.905c-14.553,0.021-28.74-4.566-40.526-13.104
		c-4.981-3.564-9.474-7.765-13.364-12.496c-10.08-12.378-15.568-27.861-15.534-43.824c-0.04-12.572,3.383-24.912,9.893-35.666
		c11.577-19.355,31.836-31.879,54.324-33.584c1.736-0.086,3.471-0.174,5.207-0.174c4.396,0.005,8.782,0.412,13.104,1.215
		C419.536,176.625,443.217,205.305,443.097,238.644z"/>
	<g>
		<path style="fill:#5E5F62;" d="M379.487,227.797c-1.603,1.417-3.675,2.19-5.814,2.169c-2.475,0-4.836-1.039-6.508-2.864
			c-0.694-0.832-1.25-1.77-1.649-2.777c-1.234-3.362-0.307-7.137,2.343-9.546c0.347-0.347,11.889-12.062,1.475-41.828
			c-0.551-1.106-0.848-2.322-0.868-3.558c1.736-0.086,3.471-0.174,5.207-0.174c4.396,0.005,8.782,0.412,13.104,1.215
			C399.186,209.573,380.355,227.016,379.487,227.797z"/>
		<path style="fill:#5E5F62;" d="M360.569,240.814c-1.02,0.41-2.111,0.616-3.211,0.607c-3.484,0.001-6.629-2.085-7.984-5.294
			c-0.434-0.955-7.897-15.707-39.658-15.881c-0.979,0.011-1.951-0.165-2.864-0.521c1.655-5.889,4.108-11.524,7.29-16.748
			c23.344,2.603,33.41,7.723,40.005,12.93c4.815,3.553,8.689,8.231,11.281,13.624C367.17,233.989,365.004,239.017,360.569,240.814z"
			/>
		<path style="fill:#5E5F62;" d="M371.157,251.661c0.014,0.522-0.015,1.045-0.087,1.562c-0.654,4.067-4.046,7.133-8.157,7.376
			c-1.041,0.087-17.443,1.996-28.377,31.848c-0.323,0.909-0.792,1.759-1.388,2.517c-4.981-3.564-9.474-7.765-13.364-12.496
			c11.976-29.071,29.852-36.621,38.096-38.53c1.42-0.373,2.873-0.606,4.339-0.694c2.308-0.093,4.556,0.747,6.238,2.331
			C370.138,247.158,371.111,249.352,371.157,251.661z"/>
		<path style="fill:#5E5F62;" d="M412.637,296.005c-4.968,3.468-10.402,6.214-16.141,8.157h-0.087
			c-25.079-22.823-24.125-43.563-22.91-50.679c0.125-0.856,0.328-1.698,0.607-2.517c0.951-2.959,3.412-5.182,6.451-5.829
			s6.193,0.382,8.266,2.697c2.073,2.315,2.749,5.562,1.771,8.512c-0.174,0.521-4.339,16.748,20.306,37.489
			C411.647,294.409,412.242,295.153,412.637,296.005z"/>
		<path style="fill:#5E5F62;" d="M443.097,238.644v1.041c-10.443,5.848-22.141,9.092-34.104,9.459
			c-8.392,0.35-16.673-2.024-23.604-6.769c-3.706-2.981-4.309-8.395-1.35-12.118c2.959-3.723,8.37-4.357,12.11-1.419
			c0.434,0.26,14.232,9.719,42.088-6.335c0.86-0.484,1.801-0.808,2.777-0.955C442.416,227.138,443.115,232.881,443.097,238.644z"/>
	</g>
	<g>
		<circle style="fill:#D1D4D1;" cx="182.237" cy="238.644" r="26.034"/>
		<circle style="fill:#D1D4D1;" cx="373.153" cy="238.644" r="26.034"/>
	</g>
</g>
<g>
</g>
<g>
</g>
<g>
</g>
<g>
</g>
<g>
</g>
<g>
</g>
<g>
</g>
<g>
</g>
<g>
</g>
<g>
</g>
<g>
</g>
<g>
</g>
<g>
</g>
<g>
</g>
<g>
</g>
</svg>
