<?xml version="1.0" encoding="iso-8859-1"?>
<!-- Generator: Adobe Illustrator 19.0.0, SVG Export Plug-In . SVG Version: 6.00 Build 0)  -->
<svg version="1.1" id="Capa_1" xmlns="http://www.w3.org/2000/svg" xmlns:xlink="http://www.w3.org/1999/xlink" x="0px" y="0px"
	 viewBox="0 0 512 512" style="enable-background:new 0 0 512 512;" xml:space="preserve">
<g>
	<path style="fill:#BDC3C7;" d="M97.103,0h317.793c14.626,0,26.483,11.857,26.483,26.483v459.034
		c0,14.626-11.857,26.483-26.483,26.483H97.103c-14.626,0-26.483-11.857-26.483-26.483V26.483C70.621,11.857,82.477,0,97.103,0z"/>
	<path style="fill:#E6E7E8;" d="M283.101,323.972c69.383-13.604,118.003-76.437,113.759-147.014
		c-4.244-70.577-60.042-127.13-130.556-132.323C195.79,39.444,132.31,87.214,117.774,156.409s24.356,138.47,90.998,162.091"/>
	<circle style="fill:#E57E25;" cx="256" cy="185.379" r="35.31"/>
	<g>
		<path style="fill:#FFFFFF;" d="M156.168,229.522c-3.734-0.002-7.063-2.353-8.315-5.87c-2.213-6.222-3.884-12.624-4.996-19.134
			c-0.819-4.806,2.413-9.366,7.22-10.185c4.806-0.819,9.366,2.414,10.185,7.22c0.939,5.503,2.351,10.916,4.22,16.177
			c0.958,2.703,0.545,5.703-1.108,8.047C161.722,228.119,159.036,229.516,156.168,229.522L156.168,229.522z"/>
		<path style="fill:#FFFFFF;" d="M151.547,176.552c-0.494,0-0.987-0.04-1.474-0.121c-4.808-0.811-8.049-5.364-7.241-10.172
			C152.031,110.96,199.941,70.47,256,70.621c4.875,0,8.828,3.952,8.828,8.828c0,4.875-3.952,8.828-8.828,8.828
			c-47.431-0.131-87.971,34.125-95.754,80.914C159.528,173.435,155.854,176.545,151.547,176.552z"/>
	</g>
	<g>
		<path style="fill:#7F8C8D;" d="M105.931,44.138c-1.155-0.014-2.296-0.254-3.358-0.707c-1.068-0.449-2.051-1.076-2.91-1.853
			c-1.612-1.692-2.527-3.931-2.56-6.268c0.012-1.154,0.251-2.295,0.703-3.358c0.449-1.069,1.077-2.053,1.857-2.91
			c0.857-0.78,1.841-1.409,2.909-1.858c3.294-1.338,7.066-0.61,9.626,1.858c0.778,0.858,1.405,1.842,1.854,2.909
			c0.495,1.049,0.737,2.199,0.706,3.358c0.023,2.348-0.9,4.607-2.56,6.267C110.538,43.238,108.279,44.161,105.931,44.138z"/>
		<path style="fill:#7F8C8D;" d="M406.069,44.138c-2.348,0.023-4.607-0.9-6.267-2.56c-1.66-1.66-2.583-3.919-2.56-6.267
			c0.012-1.154,0.251-2.295,0.703-3.358c0.449-1.069,1.077-2.053,1.857-2.91c3.539-3.267,8.995-3.267,12.534,0
			c0.778,0.858,1.405,1.842,1.854,2.909c0.453,1.062,0.693,2.203,0.707,3.358c0.023,2.348-0.9,4.607-2.56,6.267
			C410.676,43.238,408.417,44.161,406.069,44.138z"/>
		<path style="fill:#7F8C8D;" d="M406.069,485.517c-1.155-0.014-2.296-0.254-3.358-0.707c-1.068-0.449-2.051-1.076-2.909-1.854
			c-3.414-3.481-3.414-9.054,0-12.534c0.857-0.78,1.841-1.409,2.909-1.858c3.289-1.384,7.088-0.651,9.625,1.858
			c2.546,2.525,3.312,6.341,1.937,9.653C412.898,483.387,409.655,485.538,406.069,485.517z"/>
		<path style="fill:#7F8C8D;" d="M256,194.207c-2.337-0.035-4.575-0.949-6.268-2.56c-0.78-0.859-1.409-1.844-1.858-2.914
			c-0.451-1.061-0.69-2.201-0.702-3.354c0.033-2.337,0.947-4.576,2.56-6.268c0.44-0.353,0.879-0.707,1.323-1.06
			c0.491-0.334,1.025-0.602,1.586-0.797c0.501-0.254,1.037-0.431,1.591-0.526c1.162-0.267,2.369-0.267,3.53,0
			c0.553,0.095,1.09,0.272,1.59,0.526c0.563,0.194,1.098,0.462,1.591,0.797c0.44,0.353,0.879,0.707,1.323,1.06
			c1.611,1.693,2.526,3.931,2.56,6.267c0.03,1.158-0.212,2.306-0.707,3.353c-0.449,1.069-1.076,2.054-1.854,2.914
			c-0.444,0.353-0.884,0.707-1.323,1.056c-0.492,0.335-1.027,0.603-1.591,0.797c-0.501,0.253-1.037,0.432-1.59,0.53
			C257.18,194.132,256.591,194.191,256,194.207z"/>
		<path style="fill:#7F8C8D;" d="M247.172,406.069v52.966c0,9.751-7.904,17.655-17.655,17.655H123.586
			c-9.751,0-17.655-7.905-17.655-17.655V353.103c0-9.751,7.904-17.655,17.655-17.655h52.966"/>
	</g>
	<g>
		<path style="fill:#E57E25;" d="M300.138,388.414h97.103c4.875,0,8.828,3.952,8.828,8.828v35.31c0,4.875-3.952,8.828-8.828,8.828
			h-97.103c-4.875,0-8.828-3.952-8.828-8.828v-35.31C291.31,392.366,295.263,388.414,300.138,388.414z"/>
		<path style="fill:#E57E25;" d="M299.255,279.658c0,0-5.914,17.214-14.477,39.901c-2.119,5.561-4.414,11.476-6.797,17.567
			c-13.418,34.074-30.543,73.004-42.814,85.274c-23.393,23.305-59.057,25.423-79.713,4.767s-18.538-56.32,4.767-79.713
			c11.917-11.917,48.199-29.484,80.684-43.697c6.179-2.648,12.182-5.297,17.832-7.68C281.6,286.455,299.255,279.658,299.255,279.658
			z"/>
	</g>
	<path style="fill:#D25627;" d="M284.778,319.559c-2.119,5.561-4.414,11.476-6.797,17.567l-37.076-33.368
		c6.179-2.648,12.182-5.297,17.832-7.68L284.778,319.559z"/>
</g>
<g>
</g>
<g>
</g>
<g>
</g>
<g>
</g>
<g>
</g>
<g>
</g>
<g>
</g>
<g>
</g>
<g>
</g>
<g>
</g>
<g>
</g>
<g>
</g>
<g>
</g>
<g>
</g>
<g>
</g>
</svg>
