<?xml version="1.0" encoding="iso-8859-1"?>
<!-- Generator: Adobe Illustrator 19.0.0, SVG Export Plug-In . SVG Version: 6.00 Build 0)  -->
<svg version="1.1" id="Capa_1" xmlns="http://www.w3.org/2000/svg" xmlns:xlink="http://www.w3.org/1999/xlink" x="0px" y="0px"
	 viewBox="0 0 512 512" style="enable-background:new 0 0 512 512;" xml:space="preserve">
<g>
	<g>
		<path style="fill:#CC4B4C;" d="M35.31,0h158.897c19.501,0,35.31,15.809,35.31,35.31V476.69c0,19.501-15.809,35.31-35.31,35.31
			H35.31C15.809,512,0,496.191,0,476.69V35.31C0,15.809,15.809,0,35.31,0z"/>
		<path style="fill:#CC4B4C;" d="M317.793,0H476.69C496.191,0,512,15.809,512,35.31V476.69c0,19.501-15.809,35.31-35.31,35.31
			H317.793c-19.501,0-35.31-15.809-35.31-35.31V35.31C282.483,15.809,298.292,0,317.793,0z"/>
	</g>
	<circle style="fill:#D1D4D1;" cx="114.759" cy="114.759" r="79.448"/>
	<circle style="fill:#A5A5A4;" cx="114.759" cy="114.759" r="44.138"/>
	<circle style="fill:#D1D4D1;" cx="114.759" cy="308.966" r="79.448"/>
	<circle style="fill:#A5A5A4;" cx="114.759" cy="308.966" r="44.138"/>
	<circle style="fill:#D1D4D1;" cx="397.241" cy="308.966" r="79.448"/>
	<circle style="fill:#A5A5A4;" cx="397.241" cy="308.966" r="44.138"/>
	<circle style="fill:#D1D4D1;" cx="397.241" cy="114.759" r="79.448"/>
	<circle style="fill:#A5A5A4;" cx="397.241" cy="114.759" r="44.138"/>
	<g>
		<path style="fill:#ECF0F1;" d="M132.414,450.207H52.966c-4.875,0-8.828-3.952-8.828-8.828s3.952-8.828,8.828-8.828h79.448
			c4.875,0,8.828,3.952,8.828,8.828S137.289,450.207,132.414,450.207z"/>
		<path style="fill:#ECF0F1;" d="M176.552,450.207h-8.828c-4.875,0-8.828-3.952-8.828-8.828s3.952-8.828,8.828-8.828h8.828
			c4.875,0,8.828,3.952,8.828,8.828S181.427,450.207,176.552,450.207z"/>
	</g>
	<path style="fill:#D1D4D1;" d="M423.724,450.207c0.038,13.477-10.052,24.833-23.44,26.382
		c-13.388,1.548-25.804-7.205-28.843-20.334c-3.04-13.13,4.266-26.449,16.973-30.941c5.694-2.118,11.961-2.118,17.655,0
		C416.679,428.973,423.779,438.984,423.724,450.207z"/>
	<path style="fill:#A5A5A4;" d="M406.069,425.313v16.066c0,4.875-3.952,8.828-8.828,8.828c-4.875,0-8.828-3.952-8.828-8.828v-16.066
		C394.108,423.195,400.375,423.195,406.069,425.313z"/>
	<g>
		<path style="fill:#802F34;" d="M326.621,441.379c-2.337-0.035-4.575-0.949-6.268-2.56c-0.817-0.83-1.45-1.823-1.858-2.914
			c-0.937-2.139-0.937-4.572,0-6.711c0.427-1.08,1.058-2.068,1.858-2.91c2.557-2.467,6.329-3.196,9.621-1.858
			c1.07,0.449,2.056,1.077,2.915,1.858c2.546,2.525,3.312,6.341,1.937,9.653C333.45,439.249,330.207,441.4,326.621,441.379z"/>
		<path style="fill:#802F34;" d="M467.862,441.379c-4.163-0.041-7.72-3.011-8.502-7.1c-0.782-4.089,1.427-8.162,5.281-9.736
			c3.854-1.574,8.283-0.213,10.588,3.255c2.304,3.467,1.844,8.078-1.1,11.022C472.437,440.431,470.199,441.345,467.862,441.379z"/>
	</g>
</g>
<g>
</g>
<g>
</g>
<g>
</g>
<g>
</g>
<g>
</g>
<g>
</g>
<g>
</g>
<g>
</g>
<g>
</g>
<g>
</g>
<g>
</g>
<g>
</g>
<g>
</g>
<g>
</g>
<g>
</g>
</svg>
