<?xml version="1.0" encoding="iso-8859-1"?>
<!-- Generator: Adobe Illustrator 19.0.0, SVG Export Plug-In . SVG Version: 6.00 Build 0)  -->
<svg version="1.1" id="Capa_1" xmlns="http://www.w3.org/2000/svg" xmlns:xlink="http://www.w3.org/1999/xlink" x="0px" y="0px"
	 viewBox="0 0 512 512" style="enable-background:new 0 0 512 512;" xml:space="preserve">
<g>
	<path style="fill:#556080;" d="M423.724,0H88.276C73.65,0,61.793,11.857,61.793,26.483v459.034
		C61.793,500.143,73.65,512,88.276,512h335.448c14.626,0,26.483-11.857,26.483-26.483V26.483C450.207,11.857,438.35,0,423.724,0z"/>
	<path style="fill:#90BAE1;" d="M88.276,0h229.517c14.626,0,26.483,11.857,26.483,26.483v459.034
		c0,14.626-11.857,26.483-26.483,26.483H88.276c-14.626,0-26.483-11.857-26.483-26.483V26.483C61.793,11.857,73.65,0,88.276,0z"/>
	<path style="fill:#8697CB;" d="M308.966,44.138v61.793H97.103V44.138c0.014-4.869,3.958-8.813,8.828-8.828h194.207
		C305.007,35.324,308.951,39.268,308.966,44.138z"/>
	<rect x="97.103" y="105.931" style="fill:#556080;" width="211.862" height="70.621"/>
	<rect x="97.103" y="176.552" style="fill:#8697CB;" width="211.862" height="70.621"/>
	<path style="fill:#556080;" d="M308.966,247.172v220.69c-0.014,4.869-3.958,8.813-8.828,8.828H105.931
		c-4.869-0.014-8.813-3.958-8.828-8.828v-220.69H308.966z"/>
	<path style="fill:#B0D3F0;" d="M158.897,176.552v26.483c0,4.875,3.952,8.828,8.828,8.828h70.621c4.875,0,8.828-3.952,8.828-8.828
		v-26.483H158.897z"/>
	<circle style="fill:#D75E72;" cx="203.034" cy="317.793" r="35.31"/>
	<path style="fill:#F0785A;" d="M203.034,406.069c-3.569-0.014-6.782-2.168-8.151-5.465c-1.369-3.297-0.626-7.092,1.883-9.631
		c2.113-2.019,5.064-2.905,7.94-2.383c0.586,0.081,1.154,0.259,1.681,0.526c0.542,0.177,1.05,0.447,1.5,0.797
		c0.496,0.281,0.944,0.639,1.328,1.06c1.692,1.646,2.647,3.907,2.647,6.267c0,2.361-0.955,4.621-2.647,6.267
		c-0.407,0.395-0.852,0.748-1.328,1.056c-0.45,0.351-0.958,0.62-1.5,0.797c-0.528,0.266-1.096,0.445-1.681,0.53
		C204.154,405.994,203.596,406.053,203.034,406.069z"/>
</g>
<g>
</g>
<g>
</g>
<g>
</g>
<g>
</g>
<g>
</g>
<g>
</g>
<g>
</g>
<g>
</g>
<g>
</g>
<g>
</g>
<g>
</g>
<g>
</g>
<g>
</g>
<g>
</g>
<g>
</g>
</svg>
