<?xml version="1.0" encoding="iso-8859-1"?>
<!-- Generator: Adobe Illustrator 19.0.0, SVG Export Plug-In . SVG Version: 6.00 Build 0)  -->
<svg version="1.1" id="Capa_1" xmlns="http://www.w3.org/2000/svg" xmlns:xlink="http://www.w3.org/1999/xlink" x="0px" y="0px"
	 viewBox="0 0 512 512" style="enable-background:new 0 0 512 512;" xml:space="preserve">
<g>
	<path style="fill:#B0D3F0;" d="M414.897,79.448l-16.312-59.922C395.447,7.999,384.979,0,373.032,0H138.968
		c-11.947,0-22.415,7.999-25.553,19.527L97.103,79.448l-26.483,97.103v211.862c-0.003,9.366,3.717,18.348,10.339,24.971
		c6.623,6.622,15.605,10.342,24.971,10.339h300.138c9.366,0.003,18.348-3.717,24.971-10.339
		c6.622-6.623,10.342-15.605,10.339-24.971V176.552L414.897,79.448z"/>
	<path style="fill:#90BAE1;" d="M388.414,423.724h17.655c9.366,0.003,18.348-3.717,24.971-10.339
		c6.622-6.623,10.342-15.605,10.339-24.971V176.552H70.621v211.862c-0.003,9.366,3.717,18.349,10.339,24.971
		c6.623,6.623,15.605,10.342,24.971,10.339H388.414z"/>
	<polygon style="fill:#ECF0F1;" points="291.31,35.31 256,79.448 229.517,79.448 211.862,141.241 256,141.241 264.828,105.931 
		300.138,105.931 	"/>
	<path style="fill:#D1D4D1;" d="M388.414,326.621H123.586l22.952-84.127c2.112-7.667,9.085-12.978,17.037-12.977h184.85
		c7.952-0.002,14.926,5.31,17.037,12.977L388.414,326.621z"/>
	<path style="fill:#A5A5A4;" d="M123.586,326.621v114.759c0.078,5.958,1.69,11.795,4.679,16.949l20.48,35.84
		c6.266,11.015,17.959,17.822,30.632,17.832h153.247c12.672-0.01,24.366-6.817,30.632-17.832l20.48-35.84
		c2.989-5.154,4.6-10.991,4.679-16.949V326.621H123.586z"/>
	<rect x="123.586" y="379.586" style="fill:#5E5F62;" width="264.828" height="61.793"/>
	<g>
		<path style="fill:#B19046;" d="M194.207,414.897v26.483h-17.655v-26.483c0-4.875,3.952-8.828,8.828-8.828
			C190.255,406.069,194.207,410.021,194.207,414.897z"/>
		<path style="fill:#B19046;" d="M229.517,414.897v26.483h-17.655v-26.483c0-4.875,3.952-8.828,8.828-8.828
			S229.517,410.021,229.517,414.897z"/>
		<path style="fill:#B19046;" d="M264.828,414.897v26.483h-17.655v-26.483c0-4.875,3.952-8.828,8.828-8.828
			S264.828,410.021,264.828,414.897z"/>
		<path style="fill:#B19046;" d="M300.138,414.897v26.483h-17.655v-26.483c0-4.875,3.952-8.828,8.828-8.828
			S300.138,410.021,300.138,414.897z"/>
		<path style="fill:#B19046;" d="M335.448,414.897v26.483h-17.655v-26.483c0-4.875,3.952-8.828,8.828-8.828
			S335.448,410.021,335.448,414.897z"/>
	</g>
</g>
<g>
</g>
<g>
</g>
<g>
</g>
<g>
</g>
<g>
</g>
<g>
</g>
<g>
</g>
<g>
</g>
<g>
</g>
<g>
</g>
<g>
</g>
<g>
</g>
<g>
</g>
<g>
</g>
<g>
</g>
</svg>
