<?xml version="1.0" encoding="iso-8859-1"?>
<!-- Generator: Adobe Illustrator 19.0.0, SVG Export Plug-In . SVG Version: 6.00 Build 0)  -->
<svg version="1.1" id="Capa_1" xmlns="http://www.w3.org/2000/svg" xmlns:xlink="http://www.w3.org/1999/xlink" x="0px" y="0px"
	 viewBox="0 0 512 512" style="enable-background:new 0 0 512 512;" xml:space="preserve">
<g>
	<path style="fill:#B49ACA;" d="M408.717,26.041C404.551,10.657,390.581-0.019,374.643,0H137.357
		c-15.939-0.019-29.908,10.657-34.074,26.041l-19.421,88.717v194.207c-0.003,9.366,3.717,18.348,10.339,24.971
		s15.605,10.342,24.971,10.339h2.472l277.451-0.618c16.815-2.987,29.06-17.614,29.043-34.692V114.759L408.717,26.041z"/>
	<g>
		<path style="fill:#7D6599;" d="M399.095,343.658c16.815-2.987,29.06-17.614,29.043-34.692l0-194.207H83.862v194.207
			c-0.003,9.366,3.717,18.348,10.339,24.971c6.623,6.622,15.605,10.342,24.971,10.339h2.472L399.095,343.658z"/>
		<polygon style="fill:#7D6599;" points="130.119,79.448 137.348,35.355 374.643,35.31 381.881,79.448 		"/>
	</g>
	<path style="fill:#B49ACA;" d="M398.654,341.539v-0.087l-6.444-73.723h-0.088c-7.704-68.281-66.322-119.346-135.014-117.618
		c-68.692,1.728-124.669,55.675-128.931,124.256h-0.088l-5.914,67.084L398.654,341.539z"/>
	<circle style="fill:#BDC3C7;" cx="260.414" cy="370.759" r="141.241"/>
	<path style="fill:#5E5F62;" d="M366.345,370.759c0.052,18.593-4.822,36.867-14.124,52.966h-38.841v38.841
		c-32.799,18.833-73.132,18.833-105.931,0v-38.841h-38.841c-16.502-28.687-18.665-63.433-5.851-93.946
		c12.815-30.513,39.139-53.294,71.175-61.597v23.128h52.966v-23.128C333.675,280.252,366.357,322.448,366.345,370.759z"/>
	<g>
		<rect x="242.759" y="326.621" style="fill:#2C2F38;" width="35.31" height="52.966"/>
		<path style="fill:#2C2F38;" d="M207.448,335.448c-4.163-0.041-7.72-3.011-8.502-7.1c-0.782-4.089,1.427-8.162,5.281-9.736
			s8.283-0.213,10.588,3.255c2.304,3.467,1.844,8.078-1.1,11.022C212.023,334.5,209.785,335.414,207.448,335.448z"/>
		<path style="fill:#2C2F38;" d="M198.621,388.414c-4.163-0.041-7.72-3.011-8.502-7.1c-0.782-4.089,1.427-8.162,5.281-9.736
			c3.854-1.574,8.283-0.213,10.588,3.255c2.304,3.467,1.844,8.078-1.1,11.022C203.196,387.465,200.958,388.379,198.621,388.414z"/>
		<path style="fill:#2C2F38;" d="M313.379,335.448c-4.163-0.041-7.72-3.011-8.502-7.1c-0.782-4.089,1.427-8.162,5.281-9.736
			s8.283-0.213,10.588,3.255c2.304,3.467,1.844,8.078-1.1,11.022C317.954,334.5,315.716,335.414,313.379,335.448z"/>
		<path style="fill:#2C2F38;" d="M322.207,388.414c-2.34-0.017-4.585-0.933-6.268-2.56c-3.055-2.995-3.562-7.734-1.212-11.309
			c2.351-3.575,6.902-4.986,10.863-3.368c3.961,1.618,6.223,5.812,5.399,10.01C330.165,385.386,326.485,388.413,322.207,388.414z"/>
		<path style="fill:#2C2F38;" d="M242.759,441.379c-0.593-0.016-1.183-0.075-1.767-0.177c-0.552-0.098-1.086-0.277-1.586-0.53
			c-0.565-0.194-1.101-0.462-1.595-0.797c-0.44-0.35-0.879-0.703-1.319-1.056c-1.629-1.682-2.546-3.927-2.56-6.268
			c0.014-1.155,0.254-2.296,0.707-3.358c0.426-1.08,1.055-2.067,1.854-2.909l1.319-1.06c0.494-0.335,1.03-0.604,1.595-0.797
			c0.499-0.254,1.034-0.431,1.586-0.526c2.601-0.554,5.313,0.102,7.372,1.784c2.06,1.682,3.245,4.208,3.222,6.867
			c-0.013,0.592-0.074,1.181-0.181,1.763c-0.093,0.554-0.27,1.09-0.526,1.59c-0.176,0.542-0.445,1.049-0.793,1.5
			c-0.353,0.53-0.707,0.97-1.06,1.414C247.332,440.429,245.095,441.343,242.759,441.379z"/>
		<path style="fill:#2C2F38;" d="M278.069,441.379c-1.153-0.014-2.293-0.254-3.353-0.707c-1.08-0.428-2.069-1.057-2.914-1.854
			c-0.401-0.434-0.756-0.908-1.06-1.414c-0.352-0.449-0.62-0.957-0.793-1.5c-0.255-0.501-0.435-1.037-0.535-1.59
			c-0.143-0.576-0.201-1.17-0.172-1.763c-0.009-2.346,0.911-4.599,2.56-6.268c3.515-3.33,9.02-3.33,12.534,0
			c3.414,3.481,3.414,9.054,0,12.534c-0.44,0.353-0.888,0.707-1.414,1.056c-0.45,0.351-0.958,0.62-1.5,0.797
			c-0.528,0.266-1.096,0.445-1.681,0.53C279.189,441.304,278.63,441.363,278.069,441.379z"/>
	</g>
</g>
<g>
</g>
<g>
</g>
<g>
</g>
<g>
</g>
<g>
</g>
<g>
</g>
<g>
</g>
<g>
</g>
<g>
</g>
<g>
</g>
<g>
</g>
<g>
</g>
<g>
</g>
<g>
</g>
<g>
</g>
</svg>
