<?xml version="1.0" encoding="iso-8859-1"?>
<!-- Generator: Adobe Illustrator 19.0.0, SVG Export Plug-In . SVG Version: 6.00 Build 0)  -->
<svg version="1.1" id="Capa_1" xmlns="http://www.w3.org/2000/svg" xmlns:xlink="http://www.w3.org/1999/xlink" x="0px" y="0px"
	 viewBox="0 0 512 512" style="enable-background:new 0 0 512 512;" xml:space="preserve">
<g>
	<path style="fill:#547580;" d="M79.448,218.483L99.065,99.31l76.594-80.946C186.697,6.66,202.067,0.018,218.154,0h75.691
		c16.087,0.018,31.458,6.66,42.495,18.364l76.594,80.946l19.617,119.172H79.448z"/>
	<path style="fill:#3F5C6C;" d="M414.897,381.44c11.338-11.07,17.708-26.261,17.655-42.108V221.661l-76.623-79.978
		c-11.087-11.58-26.429-18.118-42.461-18.097H198.532c-16.031-0.022-31.374,6.517-42.461,18.097l-76.623,79.978v117.672
		c-0.053,15.846,6.317,31.038,17.655,42.108H414.897z"/>
	<path style="fill:#35495E;" d="M97.103,353.103l17.655-105.931l68.935-71.952c9.99-10.427,23.805-16.324,38.246-16.324h68.122
		c14.441,0,28.256,5.896,38.246,16.324l68.935,71.952l17.655,105.931H97.103z"/>
	<path style="fill:#2C3E50;" d="M414.897,353.103v105.931c0,29.252-23.713,52.966-52.966,52.966H150.069
		c-29.252,0-52.966-23.713-52.966-52.966V353.103l68.935-71.952c9.99-10.428,23.805-16.324,38.246-16.324h103.432
		c14.441,0,28.256,5.896,38.246,16.324L414.897,353.103z"/>
	<g>
		<rect x="150.069" y="388.414" style="fill:#2C2F38;" width="35.31" height="70.621"/>
		<rect x="238.345" y="317.793" style="fill:#2C2F38;" width="35.31" height="70.621"/>
		<rect x="326.621" y="388.414" style="fill:#2C2F38;" width="35.31" height="70.621"/>
	</g>
</g>
<g>
</g>
<g>
</g>
<g>
</g>
<g>
</g>
<g>
</g>
<g>
</g>
<g>
</g>
<g>
</g>
<g>
</g>
<g>
</g>
<g>
</g>
<g>
</g>
<g>
</g>
<g>
</g>
<g>
</g>
</svg>
