<?xml version="1.0" encoding="iso-8859-1"?>
<!-- Generator: Adobe Illustrator 19.0.0, SVG Export Plug-In . SVG Version: 6.00 Build 0)  -->
<svg version="1.1" id="Capa_1" xmlns="http://www.w3.org/2000/svg" xmlns:xlink="http://www.w3.org/1999/xlink" x="0px" y="0px"
	 viewBox="0 0 512 512" style="enable-background:new 0 0 512 512;" xml:space="preserve">
<g>
	<g>
		<path style="fill:#E6E7E8;" d="M367.581,185.379l-3.266-17.655l-11.211-61.793h8.828L335.448,0H176.552l-26.483,105.931h8.828
			l-11.211,61.793l-3.266,17.655l-20.833,114.759v132.414c0.015,4.869,3.958,8.813,8.828,8.828h35.31v35.31h44.138v26.483
			c0.015,4.869,3.958,8.813,8.828,8.828h70.621c4.869-0.015,8.813-3.958,8.828-8.828V476.69h44.138v-35.31h35.31
			c4.869-0.015,8.813-3.958,8.828-8.828V300.138L367.581,185.379z"/>
		<rect x="167.724" y="441.379" style="fill:#E6E7E8;" width="176.552" height="35.31"/>
	</g>
	<path style="fill:#BDC3C7;" d="M300.138,476.69v26.483c-0.015,4.869-3.958,8.813-8.828,8.828H220.69
		c-4.869-0.015-8.813-3.958-8.828-8.828V476.69H300.138z"/>
	<path style="fill:#D1D4D1;" d="M388.414,300.138v132.414c-0.015,4.869-3.958,8.813-8.828,8.828H132.414
		c-4.869-0.015-8.813-3.958-8.828-8.828V300.138H388.414z"/>
	<g>
		<path style="fill:#B19046;" d="M167.724,397.241c-2.337-0.035-4.575-0.949-6.268-2.56c-0.38-0.419-0.734-0.861-1.06-1.323
			c-0.335-0.492-0.603-1.027-0.797-1.591c-0.254-0.501-0.431-1.037-0.526-1.59c-0.104-0.582-0.162-1.172-0.176-1.763
			c0.033-2.337,0.947-4.576,2.56-6.268c2.112-2.083,5.123-2.977,8.03-2.383c0.554,0.095,1.09,0.272,1.59,0.526
			c0.563,0.194,1.098,0.462,1.591,0.797c0.44,0.353,0.879,0.707,1.323,1.06c1.612,1.693,2.526,3.931,2.561,6.267
			c-0.016,0.591-0.075,1.18-0.177,1.763c-0.098,0.553-0.277,1.089-0.53,1.59c-0.194,0.563-0.462,1.098-0.797,1.591
			c-0.349,0.44-0.703,0.879-1.056,1.323c-0.444,0.353-0.884,0.707-1.323,1.056c-0.492,0.335-1.027,0.603-1.591,0.797
			c-0.501,0.253-1.037,0.432-1.59,0.53C168.905,397.166,168.315,397.225,167.724,397.241z"/>
		<path style="fill:#B19046;" d="M203.034,397.241c-1.155-0.014-2.296-0.254-3.358-0.707c-1.068-0.449-2.051-1.076-2.909-1.854
			c-0.353-0.444-0.707-0.884-1.06-1.323c-0.335-0.492-0.603-1.027-0.797-1.591c-0.254-0.501-0.431-1.037-0.526-1.59
			c-0.104-0.582-0.163-1.171-0.177-1.763c0.012-1.154,0.251-2.295,0.703-3.358c0.811-2.213,2.554-3.956,4.767-4.767
			c1.611-0.702,3.401-0.886,5.121-0.526c0.554,0.095,1.09,0.272,1.59,0.526c0.563,0.194,1.098,0.462,1.591,0.797
			c0.44,0.353,0.879,0.707,1.323,1.06c0.778,0.858,1.405,1.842,1.854,2.909c0.453,1.062,0.693,2.203,0.707,3.357
			c-0.016,0.591-0.075,1.18-0.177,1.763c-0.098,0.553-0.277,1.089-0.53,1.59c-0.194,0.563-0.462,1.098-0.797,1.591
			c-0.349,0.44-0.703,0.879-1.056,1.323c-0.444,0.353-0.884,0.707-1.323,1.056c-0.492,0.335-1.027,0.603-1.591,0.797
			c-0.501,0.253-1.037,0.432-1.59,0.53C204.215,397.166,203.626,397.225,203.034,397.241z"/>
		<path style="fill:#B19046;" d="M238.345,397.241c-2.337-0.035-4.575-0.949-6.268-2.56c-0.353-0.444-0.707-0.884-1.06-1.323
			c-0.335-0.492-0.603-1.027-0.797-1.591c-0.254-0.501-0.431-1.037-0.526-1.59c-0.104-0.582-0.162-1.172-0.176-1.763
			c0-4.875,3.952-8.828,8.828-8.828c4.875,0,8.828,3.952,8.828,8.828c-0.016,0.591-0.075,1.18-0.177,1.763
			c-0.098,0.553-0.277,1.089-0.53,1.59c-0.194,0.563-0.462,1.098-0.797,1.591c-0.349,0.44-0.703,0.879-1.056,1.323
			C242.919,396.292,240.681,397.206,238.345,397.241z"/>
		<path style="fill:#B19046;" d="M273.655,397.241c-0.593-0.016-1.183-0.075-1.767-0.177c-0.553-0.098-1.089-0.277-1.59-0.53
			c-0.562-0.195-1.095-0.463-1.586-0.797c-0.464-0.323-0.906-0.676-1.324-1.056c-0.799-0.844-1.429-1.833-1.858-2.914
			c-0.451-1.061-0.69-2.201-0.702-3.354c0.033-2.337,0.947-4.576,2.56-6.268c2.536-2.508,6.333-3.242,9.621-1.858
			c1.091,0.407,2.085,1.04,2.915,1.858c1.611,1.693,2.525,3.931,2.56,6.268c-0.014,1.153-0.254,2.293-0.707,3.353
			c-0.449,1.069-1.076,2.054-1.854,2.914C278.229,396.292,275.992,397.206,273.655,397.241z"/>
		<path style="fill:#B19046;" d="M308.966,397.241c-1.155-0.014-2.296-0.254-3.358-0.707c-1.079-0.428-2.066-1.057-2.91-1.854
			c-0.353-0.444-0.707-0.884-1.06-1.323c-0.335-0.492-0.603-1.027-0.797-1.591c-0.254-0.501-0.431-1.037-0.526-1.59
			c-0.236-1.165-0.236-2.365,0-3.53c0.095-0.553,0.272-1.09,0.526-1.59c0.195-0.562,0.463-1.095,0.797-1.586
			c0.353-0.444,0.707-0.884,1.06-1.323c0.842-0.8,1.83-1.43,2.91-1.858c2.142-0.925,4.57-0.925,6.711,0
			c1.081,0.428,2.07,1.059,2.914,1.858c0.353,0.44,0.707,0.879,1.056,1.323c0.334,0.491,0.603,1.025,0.797,1.586
			c0.253,0.501,0.432,1.037,0.53,1.59c0.236,1.165,0.236,2.365,0,3.53c-0.098,0.553-0.277,1.089-0.53,1.59
			c-0.194,0.563-0.462,1.098-0.797,1.591c-0.349,0.44-0.703,0.879-1.056,1.323C313.54,396.292,311.302,397.206,308.966,397.241z"/>
		<path style="fill:#B19046;" d="M344.276,397.241c-1.155-0.014-2.296-0.254-3.358-0.707c-1.079-0.428-2.066-1.057-2.91-1.854
			c-0.353-0.444-0.707-0.884-1.06-1.323c-0.335-0.492-0.603-1.027-0.797-1.591c-0.254-0.501-0.431-1.037-0.526-1.59
			c-0.099-0.583-0.158-1.172-0.177-1.763c0-4.875,3.952-8.828,8.828-8.828s8.828,3.952,8.828,8.828
			c-0.02,0.591-0.079,1.18-0.177,1.763c-0.098,0.553-0.277,1.089-0.53,1.59c-0.194,0.563-0.462,1.098-0.797,1.591
			c-0.349,0.44-0.703,0.879-1.056,1.323C348.85,396.292,346.613,397.206,344.276,397.241z"/>
		<path style="fill:#B19046;" d="M167.724,361.931c-4.875,0-8.828-3.952-8.828-8.828v-52.966c0-4.875,3.952-8.828,8.828-8.828
			s8.828,3.952,8.828,8.828v52.966C176.552,357.979,172.599,361.931,167.724,361.931z"/>
		<path style="fill:#B19046;" d="M203.034,361.931c-4.875,0-8.828-3.952-8.828-8.828v-52.966c0-4.875,3.952-8.828,8.828-8.828
			c4.875,0,8.828,3.952,8.828,8.828v52.966C211.862,357.979,207.91,361.931,203.034,361.931z"/>
		<path style="fill:#B19046;" d="M238.345,361.931c-4.875,0-8.828-3.952-8.828-8.828v-52.966c0-4.875,3.952-8.828,8.828-8.828
			c4.875,0,8.828,3.952,8.828,8.828v52.966C247.172,357.979,243.22,361.931,238.345,361.931z"/>
		<path style="fill:#B19046;" d="M273.655,361.931c-4.875,0-8.828-3.952-8.828-8.828v-52.966c0-4.875,3.952-8.828,8.828-8.828
			s8.828,3.952,8.828,8.828v52.966C282.483,357.979,278.531,361.931,273.655,361.931z"/>
		<path style="fill:#B19046;" d="M308.966,361.931c-4.875,0-8.828-3.952-8.828-8.828v-52.966c0-4.875,3.952-8.828,8.828-8.828
			s8.828,3.952,8.828,8.828v52.966C317.793,357.979,313.841,361.931,308.966,361.931z"/>
		<path style="fill:#B19046;" d="M344.276,361.931c-4.875,0-8.828-3.952-8.828-8.828v-52.966c0-4.875,3.952-8.828,8.828-8.828
			s8.828,3.952,8.828,8.828v52.966C353.103,357.979,349.151,361.931,344.276,361.931z"/>
	</g>
	<path style="fill:#D75E72;" d="M211.862,105.931v70.621c0,4.875-3.952,8.828-8.828,8.828c-4.875,0-8.828-3.952-8.828-8.828v-70.621
		H211.862z"/>
	<path style="fill:#67B9CC;" d="M247.172,105.931v70.621c0,4.875-3.952,8.828-8.828,8.828c-4.875,0-8.828-3.952-8.828-8.828v-70.621
		H247.172z"/>
	<path style="fill:#E57E25;" d="M282.483,105.931v70.621c0,4.875-3.952,8.828-8.828,8.828s-8.828-3.952-8.828-8.828v-70.621H282.483
		z"/>
	<path style="fill:#527F72;" d="M317.793,105.931v70.621c0,4.875-3.952,8.828-8.828,8.828s-8.828-3.952-8.828-8.828v-70.621H317.793
		z"/>
	<polygon style="fill:#D1D4D1;" points="367.581,185.379 144.419,185.379 147.686,167.724 364.314,167.724 	"/>
	<path style="fill:#E4C05C;" d="M344.276,238.345H167.724c-4.875,0-8.828,3.952-8.828,8.828v52.966h17.655V256h17.655v44.138h17.655
		V256h17.655v44.138h17.655V256h17.655v44.138h17.655V256h17.655v44.138h17.655V256h17.655v44.138h17.655v-52.966
		C353.103,242.297,349.151,238.345,344.276,238.345z"/>
	<polygon style="fill:#46B29D;" points="361.931,105.931 150.069,105.931 176.552,0 335.448,0 	"/>
	<polygon style="fill:#14A085;" points="203.034,70.621 207.139,35.31 304.861,35.31 308.966,70.621 	"/>
</g>
<g>
</g>
<g>
</g>
<g>
</g>
<g>
</g>
<g>
</g>
<g>
</g>
<g>
</g>
<g>
</g>
<g>
</g>
<g>
</g>
<g>
</g>
<g>
</g>
<g>
</g>
<g>
</g>
<g>
</g>
</svg>
