<?xml version="1.0" encoding="iso-8859-1"?>
<!-- Generator: Adobe Illustrator 19.0.0, SVG Export Plug-In . SVG Version: 6.00 Build 0)  -->
<svg version="1.1" id="Capa_1" xmlns="http://www.w3.org/2000/svg" xmlns:xlink="http://www.w3.org/1999/xlink" x="0px" y="0px"
	 viewBox="0 0 512 512" style="enable-background:new 0 0 512 512;" xml:space="preserve">
<g>
	<path style="fill:#2C3E50;" d="M498.784,267.098c-2.681-6.703-9.173-11.098-16.392-11.098h-5.702L397.241,70.621l-21.472-59.647
		C373.398,4.39,367.152,0,360.154,0h-0.033c-5.404,0-10.47,2.632-13.578,7.053c-3.108,4.422-3.868,10.079-2.037,15.164
		l17.425,48.404h-44.138l-22.187-59.165C293.022,4.565,286.435,0,279.075,0h-46.151c-7.359,0-13.947,4.565-16.531,11.456
		l-22.187,59.165h-44.138l17.425-48.404c1.831-5.085,1.07-10.743-2.037-15.164C162.349,2.632,157.284,0,151.879,0h-0.033
		c-6.998,0-13.244,4.39-15.615,10.974l-21.472,59.647L35.31,256h-5.702c-7.219,0-13.711,4.395-16.392,11.098L0,300.138v17.655h512
		v-17.655L498.784,267.098z"/>
	<path style="fill:#35495E;" d="M194.207,70.621l22.187-59.165C218.978,4.565,225.565,0,232.925,0h46.151
		c7.359,0,13.947,4.565,16.531,11.456l22.187,59.165H194.207z"/>
	<path style="fill:#B19046;" d="M0,300.138h512v194.207c0,9.751-7.905,17.655-17.655,17.655H17.655C7.904,512,0,504.095,0,494.345
		V300.138z"/>
	<path style="fill:#35495E;" d="M512,300.138H0l13.216-33.04C15.897,260.395,22.389,256,29.608,256h452.783
		c7.219,0,13.712,4.395,16.393,11.098L512,300.138z"/>
	<path style="fill:#F9EAB0;" d="M123.586,370.759h264.828c9.751,0,17.655,7.905,17.655,17.655v70.621
		c0,9.751-7.905,17.655-17.655,17.655H123.586c-9.751,0-17.655-7.905-17.655-17.655v-70.621
		C105.931,378.663,113.836,370.759,123.586,370.759z"/>
	<g>
		<path style="fill:#E4C05C;" d="M406.069,353.103v35.31c-0.028-9.739-7.916-17.627-17.655-17.655H123.586
			c-9.739,0.028-17.627,7.916-17.655,17.655v-35.31c0.028-9.739,7.916-17.627,17.655-17.655h264.828
			C398.153,335.477,406.04,343.365,406.069,353.103z"/>
		<path style="fill:#E4C05C;" d="M141.241,414.897c-1.155-0.014-2.296-0.254-3.358-0.707c-1.068-0.449-2.051-1.076-2.909-1.854
			c-0.38-0.419-0.734-0.861-1.06-1.323c-0.335-0.492-0.603-1.027-0.797-1.591c-0.254-0.501-0.431-1.037-0.526-1.59
			c-0.099-0.583-0.158-1.172-0.177-1.763c0.012-1.154,0.251-2.295,0.703-3.358c0.811-2.213,2.554-3.956,4.767-4.767
			c1.611-0.702,3.401-0.886,5.121-0.526c0.554,0.095,1.09,0.272,1.59,0.526c0.563,0.194,1.098,0.462,1.591,0.797
			c0.44,0.353,0.879,0.707,1.323,1.06c0.778,0.858,1.405,1.842,1.854,2.909c0.453,1.062,0.693,2.203,0.707,3.357
			c-0.02,0.591-0.079,1.18-0.177,1.763c-0.098,0.553-0.277,1.089-0.53,1.59c-0.194,0.563-0.462,1.098-0.797,1.591
			c-0.325,0.462-0.678,0.904-1.056,1.324c-0.444,0.353-0.884,0.707-1.323,1.056c-0.492,0.335-1.027,0.603-1.591,0.797
			c-0.501,0.253-1.037,0.432-1.59,0.53C142.422,414.822,141.833,414.881,141.241,414.897z"/>
		<path style="fill:#E4C05C;" d="M141.241,450.207c-1.155-0.014-2.296-0.254-3.358-0.707c-1.068-0.449-2.051-1.076-2.909-1.854
			c-0.38-0.419-0.734-0.861-1.06-1.323c-0.335-0.492-0.603-1.027-0.797-1.591c-0.254-0.501-0.431-1.037-0.526-1.59
			c-0.104-0.582-0.163-1.171-0.177-1.763c0.012-1.154,0.251-2.295,0.703-3.358c0.811-2.213,2.554-3.956,4.767-4.767
			c3.289-1.384,7.088-0.651,9.626,1.857c0.778,0.858,1.405,1.842,1.854,2.909c0.453,1.062,0.693,2.203,0.706,3.358
			c-0.016,0.591-0.075,1.18-0.177,1.763c-0.098,0.553-0.277,1.089-0.53,1.59c-0.194,0.563-0.462,1.098-0.797,1.591
			c-0.605,0.961-1.418,1.774-2.379,2.379c-0.492,0.335-1.027,0.603-1.591,0.797c-0.501,0.253-1.037,0.432-1.59,0.53
			C142.422,450.132,141.833,450.191,141.241,450.207z"/>
		<path style="fill:#E4C05C;" d="M176.552,414.897c-0.593-0.016-1.183-0.075-1.767-0.177c-0.553-0.098-1.089-0.277-1.59-0.53
			c-0.562-0.195-1.095-0.463-1.586-0.797c-0.464-0.323-0.906-0.676-1.324-1.056c-0.38-0.419-0.734-0.861-1.06-1.323
			c-0.335-0.492-0.603-1.027-0.797-1.591c-0.254-0.501-0.431-1.037-0.526-1.59c-0.104-0.582-0.162-1.172-0.176-1.763
			c0.012-1.154,0.251-2.295,0.703-3.358c0.449-1.069,1.077-2.053,1.857-2.91c0.44-0.353,0.879-0.707,1.323-1.06
			c0.491-0.334,1.025-0.603,1.586-0.797c0.501-0.254,1.037-0.431,1.591-0.526c2.905-0.536,5.892,0.35,8.035,2.383
			c0.778,0.858,1.405,1.842,1.854,2.909c0.453,1.062,0.693,2.203,0.707,3.358c-0.016,0.591-0.075,1.18-0.177,1.763
			c-0.098,0.553-0.277,1.089-0.53,1.59c-0.194,0.563-0.462,1.098-0.797,1.591c-0.349,0.44-0.703,0.879-1.056,1.323
			C181.126,413.947,178.888,414.861,176.552,414.897z"/>
		<path style="fill:#E4C05C;" d="M176.552,450.207c-0.593-0.016-1.183-0.075-1.767-0.177c-0.553-0.098-1.089-0.277-1.59-0.53
			c-0.562-0.195-1.095-0.463-1.586-0.797c-0.444-0.349-0.884-0.703-1.323-1.056c-1.612-1.692-2.527-3.93-2.56-6.267
			c0.012-1.154,0.251-2.295,0.703-3.358c0.449-1.069,1.077-2.053,1.857-2.91c2.561-2.459,6.328-3.187,9.621-1.858
			c1.081,0.428,2.07,1.059,2.915,1.858c0.778,0.858,1.405,1.842,1.854,2.909c0.453,1.062,0.693,2.203,0.706,3.358
			c-0.035,2.337-0.949,4.574-2.56,6.268c-0.846,0.796-1.834,1.425-2.914,1.854C178.858,449.995,177.71,450.237,176.552,450.207z"/>
		<path style="fill:#E4C05C;" d="M211.862,414.897c-2.348,0.023-4.607-0.9-6.267-2.56c-1.66-1.66-2.583-3.919-2.56-6.267
			c0.012-1.154,0.251-2.295,0.703-3.358c0.427-1.08,1.058-2.068,1.857-2.91c0.44-0.353,0.879-0.707,1.323-1.06
			c0.491-0.334,1.025-0.603,1.586-0.797c0.501-0.254,1.037-0.431,1.591-0.526c1.162-0.267,2.369-0.267,3.53,0
			c0.554,0.095,1.09,0.272,1.59,0.526c0.563,0.194,1.098,0.462,1.591,0.797c0.44,0.353,0.879,0.707,1.323,1.06
			c0.797,0.843,1.426,1.831,1.854,2.909c0.453,1.062,0.693,2.203,0.707,3.358c-0.035,2.337-0.949,4.574-2.56,6.268
			c-0.419,0.378-0.861,0.731-1.323,1.056c-0.492,0.335-1.027,0.603-1.591,0.797c-0.501,0.253-1.037,0.432-1.59,0.53
			C213.042,414.817,212.453,414.876,211.862,414.897z"/>
		<path style="fill:#E4C05C;" d="M211.862,450.207c-3.377,0.015-6.467-1.898-7.96-4.927c-1.493-3.029-1.129-6.644,0.939-9.314
			c2.068-2.67,5.478-3.927,8.784-3.238c0.554,0.095,1.09,0.272,1.59,0.526c0.563,0.194,1.098,0.462,1.591,0.797
			c0.44,0.353,0.879,0.707,1.323,1.06c3.414,3.481,3.414,9.054,0,12.534c-0.444,0.353-0.884,0.707-1.323,1.056
			c-0.492,0.335-1.027,0.603-1.591,0.797c-0.501,0.253-1.037,0.432-1.59,0.53C213.042,450.127,212.453,450.186,211.862,450.207z"/>
		<path style="fill:#E4C05C;" d="M247.172,414.897c-0.563-0.016-1.123-0.075-1.677-0.177c-0.585-0.084-1.153-0.263-1.681-0.53
			c-0.562-0.195-1.095-0.463-1.586-0.797c-0.444-0.349-0.884-0.703-1.323-1.056c-1.612-1.692-2.527-3.93-2.56-6.267
			c0.012-1.154,0.251-2.295,0.703-3.358c0.427-1.08,1.058-2.068,1.857-2.91c0.418-0.382,0.86-0.736,1.323-1.06
			c0.491-0.334,1.025-0.603,1.586-0.797c0.527-0.267,1.095-0.445,1.681-0.526c4.126-0.909,8.296,1.344,9.797,5.293
			c0.453,1.062,0.693,2.203,0.707,3.358c0.023,2.348-0.9,4.607-2.56,6.267C251.779,413.997,249.521,414.919,247.172,414.897z"/>
		<path style="fill:#E4C05C;" d="M247.172,450.207c-0.563-0.016-1.123-0.075-1.677-0.177c-0.585-0.084-1.153-0.263-1.681-0.53
			c-0.562-0.195-1.095-0.463-1.586-0.797c-0.444-0.349-0.884-0.703-1.323-1.056c-1.612-1.692-2.527-3.93-2.56-6.267
			c0.012-1.154,0.251-2.295,0.703-3.358c0.427-1.08,1.058-2.068,1.857-2.91c0.44-0.353,0.879-0.707,1.323-1.06
			c0.491-0.334,1.025-0.603,1.586-0.797c0.527-0.267,1.095-0.445,1.681-0.526c2.877-0.522,5.83,0.364,7.944,2.383
			c0.778,0.858,1.405,1.842,1.854,2.909c0.453,1.062,0.693,2.203,0.707,3.358c0.023,2.348-0.9,4.607-2.56,6.267
			C251.779,449.307,249.521,450.23,247.172,450.207z"/>
		<path style="fill:#E4C05C;" d="M282.483,414.897c-1.159,0.031-2.309-0.212-3.358-0.707c-1.068-0.449-2.051-1.076-2.91-1.854
			c-0.799-0.844-1.429-1.833-1.858-2.914c-0.451-1.061-0.69-2.2-0.703-3.353c0.033-2.337,0.947-4.576,2.56-6.268
			c0.857-0.78,1.841-1.409,2.909-1.858c3.289-1.384,7.088-0.651,9.626,1.858c1.611,1.693,2.525,3.931,2.56,6.268
			c0.03,1.158-0.212,2.306-0.707,3.353c-0.429,1.08-1.058,2.068-1.854,2.914C287.057,413.947,284.819,414.861,282.483,414.897z"/>
		<path style="fill:#E4C05C;" d="M282.483,450.207c-1.155-0.014-2.296-0.254-3.358-0.707c-1.068-0.449-2.051-1.076-2.91-1.854
			c-0.353-0.444-0.707-0.884-1.06-1.323c-0.335-0.492-0.603-1.027-0.797-1.591c-0.254-0.501-0.431-1.037-0.526-1.59
			c-0.099-0.583-0.158-1.172-0.177-1.763c0.033-2.337,0.947-4.576,2.56-6.268c0.857-0.78,1.841-1.409,2.909-1.858
			c3.294-1.331,7.063-0.604,9.626,1.858c1.611,1.693,2.525,3.931,2.56,6.268c-0.02,0.591-0.079,1.18-0.177,1.763
			c-0.098,0.553-0.277,1.089-0.53,1.59c-0.194,0.563-0.462,1.098-0.797,1.591c-0.325,0.462-0.678,0.904-1.056,1.324
			C287.057,449.258,284.819,450.172,282.483,450.207z"/>
		<path style="fill:#E4C05C;" d="M317.793,414.897c-3.569-0.014-6.782-2.168-8.151-5.465c-1.369-3.297-0.626-7.092,1.883-9.631
			c2.118-2.073,5.124-2.965,8.03-2.383c0.553,0.095,1.09,0.272,1.59,0.526c0.563,0.194,1.098,0.462,1.591,0.797
			c0.44,0.353,0.879,0.707,1.323,1.06c3.414,3.481,3.414,9.054,0,12.534c-0.444,0.353-0.884,0.707-1.323,1.056
			c-0.492,0.335-1.027,0.603-1.591,0.797c-0.501,0.253-1.037,0.432-1.59,0.53C318.973,414.817,318.384,414.876,317.793,414.897z"/>
		<path style="fill:#E4C05C;" d="M317.793,450.207c-2.348,0.023-4.607-0.9-6.267-2.56c-1.66-1.66-2.583-3.919-2.56-6.267
			c0.018-0.592,0.077-1.183,0.177-1.767c0.095-0.553,0.272-1.09,0.526-1.59c0.195-0.561,0.463-1.095,0.797-1.586
			c0.353-0.444,0.707-0.884,1.06-1.323c3.539-3.267,8.995-3.267,12.534,0c0.353,0.44,0.707,0.879,1.056,1.323
			c0.334,0.491,0.603,1.025,0.797,1.586c0.253,0.501,0.432,1.037,0.53,1.59c0.097,0.585,0.156,1.175,0.177,1.767
			c-0.035,2.337-0.949,4.574-2.56,6.268c-0.444,0.353-0.884,0.707-1.323,1.056c-0.492,0.335-1.027,0.603-1.591,0.797
			c-0.501,0.253-1.037,0.432-1.59,0.53C318.973,450.128,318.384,450.187,317.793,450.207z"/>
		<path style="fill:#E4C05C;" d="M370.759,432.552h-17.655c-4.875,0-8.828-3.952-8.828-8.828c0-4.875,3.952-8.828,8.828-8.828
			h17.655c4.875,0,8.828,3.952,8.828,8.828C379.586,428.599,375.634,432.552,370.759,432.552z"/>
	</g>
	<circle style="fill:#ECF0F1;" cx="52.966" cy="423.724" r="17.655"/>
	<path style="fill:#2C3E50;" d="M264.828,44.138h-17.655c-4.875,0-8.828-3.952-8.828-8.828s3.952-8.828,8.828-8.828h17.655
		c4.875,0,8.828,3.952,8.828,8.828S269.703,44.138,264.828,44.138z"/>
	<g>
		<path style="fill:#35495E;" d="M369.991,211.862H142.009c-5.606,0.161-10.961-2.325-14.455-6.711
			c-3.494-4.386-4.72-10.162-3.309-15.589l17.576-61.793c2.361-7.811,9.606-13.117,17.765-13.01h192.829
			c8.159-0.107,15.404,5.199,17.764,13.01l17.576,61.793c1.411,5.428,0.185,11.203-3.309,15.589
			C380.951,209.537,375.596,212.023,369.991,211.862z"/>
		<path style="fill:#35495E;" d="M114.759,70.621l21.473-59.646C138.602,4.39,144.848,0,151.846,0h0.033
			c5.404,0,10.47,2.632,13.578,7.053s3.868,10.079,2.037,15.164l-17.425,48.404"/>
		<path style="fill:#35495E;" d="M361.931,70.621l-17.426-48.404c-1.831-5.085-1.071-10.743,2.037-15.164
			C349.65,2.631,354.716,0,360.121,0h0.033c6.998,0,13.244,4.39,15.615,10.975l21.473,59.646"/>
	</g>
	<path style="fill:#BDC3C7;" d="M70.621,388.414v35.31c0-9.751-7.904-17.655-17.655-17.655s-17.655,7.904-17.655,17.655v-35.31
		c0-9.751,7.904-17.655,17.655-17.655S70.621,378.663,70.621,388.414z"/>
	<circle style="fill:#ECF0F1;" cx="459.034" cy="423.724" r="17.655"/>
	<path style="fill:#BDC3C7;" d="M476.69,388.414v35.31c0-9.751-7.905-17.655-17.655-17.655s-17.655,7.904-17.655,17.655v-35.31
		c0-9.751,7.905-17.655,17.655-17.655S476.69,378.663,476.69,388.414z"/>
</g>
<g>
</g>
<g>
</g>
<g>
</g>
<g>
</g>
<g>
</g>
<g>
</g>
<g>
</g>
<g>
</g>
<g>
</g>
<g>
</g>
<g>
</g>
<g>
</g>
<g>
</g>
<g>
</g>
<g>
</g>
</svg>
