<?xml version="1.0" encoding="iso-8859-1"?>
<!-- Generator: Adobe Illustrator 19.0.0, SVG Export Plug-In . SVG Version: 6.00 Build 0)  -->
<svg version="1.1" id="Capa_1" xmlns="http://www.w3.org/2000/svg" xmlns:xlink="http://www.w3.org/1999/xlink" x="0px" y="0px"
	 viewBox="0 0 512 512" style="enable-background:new 0 0 512 512;" xml:space="preserve">
<g>
	<g>
		<path style="fill:#2C3E50;" d="M450.921,99.724c-5.824-12.376-18.272-20.275-31.95-20.275h-57.04l-23.481-35.31l-11.829-17.655
			l-7.15-10.77C312.913,5.893,301.883-0.003,290.074,0h-68.149c-11.809-0.003-22.838,5.893-29.396,15.713L179.465,35.31
			l-11.741,17.655l-17.655,26.483h-57.04c-13.678,0-26.126,7.899-31.95,20.275L0,229.517v185.379
			c0,14.626,11.857,26.483,26.483,26.483h459.034c14.626,0,26.483-11.857,26.483-26.483V229.517L450.921,99.724z"/>
		<path style="fill:#2C3E50;" d="M361.931,79.448H150.069l17.655-26.483l11.741-17.655l13.065-19.597
			C199.087,5.893,210.117-0.003,221.926,0h68.149c11.809-0.003,22.838,5.893,29.396,15.713l7.15,10.77l11.829,17.655L361.931,79.448
			z"/>
	</g>
	<path style="fill:#35495E;" d="M512,229.517L450.921,99.724c-5.824-12.376-18.272-20.275-31.949-20.275H93.029
		c-13.678,0-26.125,7.899-31.949,20.275L0,229.517H512z"/>
	<g>
		<path style="fill:#3F5C6C;" d="M220.69,44.138c-0.015,4.869-3.958,8.813-8.828,8.828h-44.138l11.741-17.655h32.397
			C216.731,35.325,220.675,39.269,220.69,44.138z"/>
		<path style="fill:#3F5C6C;" d="M338.45,44.138H291.31c-4.875,0-8.828-3.952-8.828-8.828s3.952-8.828,8.828-8.828h35.31
			L338.45,44.138z"/>
	</g>
	<path style="fill:#D1D4D1;" d="M44.138,388.414l33.298-99.895c1.202-3.605,4.575-6.036,8.375-6.036h340.378
		c3.8,0,7.173,2.431,8.375,6.036l33.298,99.895H44.138z"/>
	<polygon style="fill:#A5A5A4;" points="467.862,388.414 467.862,450.207 406.069,512 44.138,512 44.138,388.414 	"/>
	<g>
		<path style="fill:#D1D4D1;" d="M150.069,494.345V512h-17.655v-17.655c0-4.875,3.952-8.828,8.828-8.828
			S150.069,489.469,150.069,494.345z"/>
		<path style="fill:#D1D4D1;" d="M194.207,494.345V512h-17.655v-17.655c0-4.875,3.952-8.828,8.828-8.828
			C190.255,485.517,194.207,489.469,194.207,494.345z"/>
		<path style="fill:#D1D4D1;" d="M238.345,494.345V512H220.69v-17.655c0-4.875,3.952-8.828,8.828-8.828
			S238.345,489.469,238.345,494.345z"/>
		<path style="fill:#D1D4D1;" d="M282.483,494.345V512h-17.655v-17.655c0-4.875,3.952-8.828,8.828-8.828
			S282.483,489.469,282.483,494.345z"/>
		<path style="fill:#D1D4D1;" d="M326.621,494.345V512h-17.655v-17.655c0-4.875,3.952-8.828,8.828-8.828
			S326.621,489.469,326.621,494.345z"/>
		<path style="fill:#D1D4D1;" d="M370.759,494.345V512h-17.655v-17.655c0-4.875,3.952-8.828,8.828-8.828
			S370.759,489.469,370.759,494.345z"/>
		<path style="fill:#D1D4D1;" d="M150.069,388.414v17.655c0,4.875-3.952,8.828-8.828,8.828s-8.828-3.952-8.828-8.828v-17.655
			H150.069z"/>
		<path style="fill:#D1D4D1;" d="M105.931,388.414v17.655c0,4.875-3.952,8.828-8.828,8.828s-8.828-3.952-8.828-8.828v-17.655
			H105.931z"/>
		<path style="fill:#D1D4D1;" d="M194.207,388.414v17.655c0,4.875-3.952,8.828-8.828,8.828c-4.875,0-8.828-3.952-8.828-8.828
			v-17.655H194.207z"/>
		<path style="fill:#D1D4D1;" d="M238.345,388.414v17.655c0,4.875-3.952,8.828-8.828,8.828s-8.828-3.952-8.828-8.828v-17.655
			H238.345z"/>
		<path style="fill:#D1D4D1;" d="M282.483,388.414v17.655c0,4.875-3.952,8.828-8.828,8.828s-8.828-3.952-8.828-8.828v-17.655
			H282.483z"/>
		<path style="fill:#D1D4D1;" d="M326.621,388.414v17.655c0,4.875-3.952,8.828-8.828,8.828s-8.828-3.952-8.828-8.828v-17.655
			H326.621z"/>
		<path style="fill:#D1D4D1;" d="M370.759,388.414v17.655c0,4.875-3.952,8.828-8.828,8.828s-8.828-3.952-8.828-8.828v-17.655
			H370.759z"/>
		<path style="fill:#D1D4D1;" d="M414.897,388.414v17.655c0,4.875-3.952,8.828-8.828,8.828s-8.828-3.952-8.828-8.828v-17.655
			H414.897z"/>
	</g>
	<path style="fill:#E4C05C;" d="M397.241,432.552H114.759c-4.875,0-8.828,3.952-8.828,8.828v26.483c0,4.875,3.952,8.828,8.828,8.828
		s8.828-3.952,8.828-8.828v-17.655h17.655c0,4.875,3.952,8.828,8.828,8.828s8.828-3.952,8.828-8.828h17.655
		c0,4.875,3.952,8.828,8.828,8.828c4.875,0,8.828-3.952,8.828-8.828h17.655c0,4.875,3.952,8.828,8.828,8.828
		s8.828-3.952,8.828-8.828h17.655c0,4.875,3.952,8.828,8.828,8.828s8.828-3.952,8.828-8.828h17.655c0,4.875,3.952,8.828,8.828,8.828
		s8.828-3.952,8.828-8.828h17.655c0,4.875,3.952,8.828,8.828,8.828s8.828-3.952,8.828-8.828h17.655c0,4.875,3.952,8.828,8.828,8.828
		s8.828-3.952,8.828-8.828h17.655v17.655c0,4.875,3.952,8.828,8.828,8.828c4.875,0,8.828-3.952,8.828-8.828v-26.483
		C406.069,436.504,402.117,432.552,397.241,432.552z"/>
	<g>
		<polygon style="fill:#A5A5A4;" points="150.069,317.793 141.241,353.103 185.379,353.103 185.379,317.793 		"/>
		<polygon style="fill:#A5A5A4;" points="361.931,317.793 370.759,353.103 326.621,353.103 326.621,317.793 		"/>
		<path style="fill:#A5A5A4;" d="M97.103,361.935c-2.837-0.004-5.499-1.369-7.157-3.67c-1.658-2.301-2.111-5.259-1.218-7.951
			l5.884-17.655c1.549-4.614,6.54-7.103,11.157-5.566c4.617,1.538,7.119,6.522,5.593,11.143l-5.884,17.655
			C104.278,359.499,100.905,361.934,97.103,361.935z"/>
		<path style="fill:#A5A5A4;" d="M414.897,361.935c-3.801-0.002-7.175-2.436-8.375-6.043l-5.884-17.655
			c-1.005-2.995-0.334-6.298,1.761-8.662c2.095-2.364,5.293-3.429,8.387-2.793c3.094,0.637,5.612,2.878,6.602,5.878l5.884,17.655
			c0.894,2.692,0.441,5.65-1.218,7.951C420.395,360.567,417.733,361.932,414.897,361.935z"/>
	</g>
</g>
<g>
</g>
<g>
</g>
<g>
</g>
<g>
</g>
<g>
</g>
<g>
</g>
<g>
</g>
<g>
</g>
<g>
</g>
<g>
</g>
<g>
</g>
<g>
</g>
<g>
</g>
<g>
</g>
<g>
</g>
</svg>
