<?xml version="1.0" encoding="iso-8859-1"?>
<!-- Generator: Adobe Illustrator 19.0.0, SVG Export Plug-In . SVG Version: 6.00 Build 0)  -->
<svg version="1.1" id="Capa_1" xmlns="http://www.w3.org/2000/svg" xmlns:xlink="http://www.w3.org/1999/xlink" x="0px" y="0px"
	 viewBox="0 0 512 512" style="enable-background:new 0 0 512 512;" xml:space="preserve">
<g>
	<path style="fill:#4482C3;" d="M493.55,140.535l-7.327-88.276c-0.408-4.579-4.231-8.096-8.828-8.121h-53.672
		c-4.869,0.015-8.813,3.958-8.828,8.828v88.276c0.015,4.869,3.958,8.813,8.828,8.828v88.276l-42.929-78.702
		c-6.187-11.344-18.077-18.402-30.998-18.402h-23.177l-10.336-20.671c-4.486-8.972-13.656-14.639-23.687-14.639h-1.288L273.655,0
		h-35.31L220.69,105.931h-1.288c-10.031,0-19.201,5.667-23.687,14.639l-10.336,20.671h-23.177c-12.921,0-24.811,7.058-30.998,18.402
		l-42.929,78.702v-88.276c4.869-0.015,8.813-3.958,8.828-8.828V52.966c-0.015-4.869-3.958-8.813-8.828-8.828H34.604
		c-4.597,0.025-8.42,3.543-8.828,8.121l-7.327,88.276c-0.203,2.462,0.637,4.897,2.316,6.71c1.679,1.813,4.041,2.838,6.512,2.824
		h8.033l-8.828,167.724v167.724c0,14.626,11.857,26.483,26.483,26.483h406.069c14.626,0,26.483-11.857,26.483-26.483V317.793
		l-8.828-167.724h8.033c2.471,0.013,4.833-1.011,6.512-2.824C492.913,145.432,493.753,142.997,493.55,140.535z"/>
	<path style="fill:#285680;" d="M26.483,317.793h459.034v167.724c0,14.626-11.857,26.483-26.483,26.483H52.966
		c-14.626,0-26.483-11.857-26.483-26.483V317.793z"/>
	<g>
		<path style="fill:#D1D4D1;" d="M340.49,467.862H171.51c-8.764,0.093-16.324-6.133-17.911-14.753l-12.106-70.621
			c-0.81-5.195,0.717-10.483,4.171-14.447s8.483-6.201,13.74-6.11h193.191c5.257-0.091,10.286,2.146,13.74,6.11
			s4.981,9.252,4.171,14.447l-12.106,70.621C356.813,461.729,349.254,467.956,340.49,467.862z"/>
		<circle style="fill:#D1D4D1;" cx="88.276" cy="406.069" r="17.655"/>
		<circle style="fill:#D1D4D1;" cx="423.724" cy="406.069" r="17.655"/>
	</g>
	<g>
		<path style="fill:#B19046;" d="M185.379,406.069c-1.159,0.031-2.309-0.212-3.358-0.707c-1.079-0.428-2.066-1.057-2.91-1.854
			c-0.38-0.419-0.734-0.861-1.06-1.323c-0.335-0.492-0.603-1.027-0.797-1.591c-0.254-0.501-0.431-1.037-0.526-1.59
			c-0.099-0.583-0.158-1.172-0.177-1.763c0.033-2.337,0.947-4.576,2.56-6.268c0.827-0.818,1.819-1.451,2.909-1.858
			c3.294-1.331,7.063-0.604,9.626,1.858c0.797,0.843,1.426,1.831,1.854,2.909c0.453,1.062,0.693,2.203,0.706,3.358
			c-0.02,0.591-0.079,1.18-0.177,1.763c-0.098,0.553-0.277,1.089-0.53,1.59c-0.194,0.563-0.462,1.098-0.797,1.591
			c-0.325,0.462-0.678,0.904-1.056,1.324C189.954,405.12,187.716,406.034,185.379,406.069z"/>
		<path style="fill:#B19046;" d="M203.034,441.379c-4.163-0.041-7.72-3.011-8.502-7.1c-0.782-4.089,1.427-8.162,5.281-9.736
			c3.854-1.574,8.283-0.213,10.588,3.255c2.304,3.467,1.844,8.078-1.1,11.022C207.609,440.431,205.371,441.345,203.034,441.379z"/>
		<path style="fill:#B19046;" d="M238.345,441.379c-4.163-0.041-7.72-3.011-8.502-7.1c-0.782-4.089,1.427-8.162,5.281-9.736
			c3.854-1.574,8.283-0.213,10.588,3.255c2.304,3.467,1.844,8.078-1.1,11.022C242.92,440.431,240.682,441.345,238.345,441.379z"/>
		<path style="fill:#B19046;" d="M273.655,441.379c-4.163-0.041-7.72-3.011-8.502-7.1c-0.782-4.089,1.427-8.162,5.281-9.736
			c3.854-1.574,8.283-0.213,10.588,3.255c2.304,3.467,1.844,8.078-1.1,11.022C278.23,440.431,275.992,441.345,273.655,441.379z"/>
		<path style="fill:#B19046;" d="M308.966,441.379c-4.163-0.041-7.72-3.011-8.502-7.1c-0.782-4.089,1.427-8.162,5.281-9.736
			c3.854-1.574,8.283-0.213,10.588,3.255c2.304,3.467,1.844,8.078-1.1,11.022C313.54,440.431,311.302,441.345,308.966,441.379z"/>
		<path style="fill:#B19046;" d="M220.69,406.069c-2.337-0.035-4.575-0.949-6.268-2.56c-0.353-0.444-0.707-0.884-1.06-1.323
			c-0.335-0.492-0.603-1.027-0.797-1.591c-0.254-0.501-0.431-1.037-0.526-1.59c-0.099-0.583-0.158-1.172-0.176-1.763
			c0.012-1.154,0.251-2.295,0.703-3.358c0.427-1.08,1.058-2.068,1.857-2.91c0.857-0.78,1.841-1.409,2.909-1.858
			c3.289-1.384,7.088-0.651,9.626,1.858c1.611,1.693,2.525,3.931,2.56,6.268c-0.02,0.591-0.079,1.18-0.177,1.763
			c-0.098,0.553-0.277,1.089-0.53,1.59c-0.194,0.563-0.462,1.098-0.797,1.591c-0.349,0.44-0.703,0.879-1.056,1.323
			C225.264,405.119,223.026,406.033,220.69,406.069z"/>
		<path style="fill:#B19046;" d="M256,406.069c-2.337-0.035-4.575-0.949-6.268-2.56c-0.38-0.419-0.734-0.861-1.06-1.323
			c-0.335-0.492-0.603-1.027-0.797-1.591c-0.254-0.501-0.431-1.037-0.526-1.59c-0.099-0.583-0.158-1.172-0.176-1.763
			c0.012-1.154,0.251-2.295,0.703-3.358c0.427-1.08,1.058-2.068,1.857-2.91c0.827-0.818,1.819-1.451,2.909-1.858
			c2.151-0.879,4.561-0.879,6.711,0c1.091,0.407,2.084,1.04,2.914,1.858c1.611,1.693,2.525,3.931,2.56,6.268
			c-0.02,0.591-0.079,1.18-0.177,1.763c-0.098,0.553-0.277,1.089-0.53,1.59c-0.194,0.563-0.462,1.098-0.797,1.591
			c-0.325,0.462-0.678,0.904-1.056,1.324C260.574,405.12,258.337,406.034,256,406.069z"/>
		<path style="fill:#B19046;" d="M291.31,406.069c-3.377,0.015-6.467-1.898-7.96-4.927c-1.493-3.029-1.129-6.644,0.939-9.314
			c2.068-2.67,5.478-3.927,8.784-3.238c0.554,0.095,1.09,0.272,1.59,0.526c0.563,0.194,1.098,0.462,1.591,0.797
			c0.462,0.327,0.904,0.681,1.324,1.06c3.414,3.481,3.414,9.054,0,12.534c-0.419,0.378-0.861,0.731-1.323,1.056
			c-0.492,0.335-1.027,0.603-1.591,0.797c-0.501,0.253-1.037,0.432-1.59,0.53C292.49,405.989,291.901,406.048,291.31,406.069z"/>
		<path style="fill:#B19046;" d="M326.621,406.069c-1.155-0.014-2.296-0.254-3.358-0.707c-1.079-0.428-2.066-1.057-2.909-1.854
			c-3.414-3.481-3.414-9.054,0-12.534c3.514-3.332,9.021-3.332,12.534,0c1.611,1.693,2.526,3.931,2.56,6.268
			c-0.014,1.153-0.254,2.293-0.707,3.353c-0.429,1.08-1.058,2.068-1.854,2.914C331.195,405.119,328.957,406.033,326.621,406.069z"/>
	</g>
	<polygon style="fill:#90BAE1;" points="88.276,317.793 26.483,317.793 35.31,150.069 88.276,150.069 	"/>
	<path style="fill:#4482C3;" d="M97.103,52.966v88.276c-0.015,4.869-3.958,8.813-8.828,8.828H27.277
		c-2.471,0.013-4.833-1.011-6.512-2.824c-1.679-1.813-2.519-4.247-2.316-6.71l7.327-88.276c0.408-4.579,4.231-8.096,8.828-8.121
		h53.672C93.145,44.152,97.089,48.096,97.103,52.966z"/>
	<polygon style="fill:#90BAE1;" points="485.517,317.793 423.724,317.793 423.724,150.069 476.69,150.069 	"/>
	<g>
		<path style="fill:#285680;" d="M317.793,185.379H194.207c-4.875,0-8.828-3.952-8.828-8.828s3.952-8.828,8.828-8.828h123.586
			c4.875,0,8.828,3.952,8.828,8.828S322.668,185.379,317.793,185.379z"/>
		<path style="fill:#285680;" d="M344.276,220.69H167.724c-4.875,0-8.828-3.952-8.828-8.828c0-4.875,3.952-8.828,8.828-8.828
			h176.552c4.875,0,8.828,3.952,8.828,8.828C353.103,216.737,349.151,220.69,344.276,220.69z"/>
		<path style="fill:#285680;" d="M370.759,256H141.241c-4.875,0-8.828-3.952-8.828-8.828s3.952-8.828,8.828-8.828h229.517
			c4.875,0,8.828,3.952,8.828,8.828S375.634,256,370.759,256z"/>
	</g>
	<polygon style="fill:#2C3E50;" points="220.69,105.931 238.345,0 273.655,0 291.31,105.931 	"/>
	<polygon style="fill:#285680;" points="69.738,44.138 66.207,150.069 48.552,150.069 52.083,44.138 	"/>
	<path style="fill:#4482C3;" d="M493.55,140.535c0.203,2.462-0.637,4.897-2.316,6.71c-1.679,1.813-4.041,2.838-6.512,2.824h-60.999
		c-4.869-0.015-8.813-3.958-8.828-8.828V52.966c0.015-4.869,3.958-8.813,8.828-8.828h53.672c4.597,0.025,8.42,3.543,8.828,8.121
		L493.55,140.535z"/>
	<g>
		<polygon style="fill:#285680;" points="463.448,150.069 445.793,150.069 442.262,44.138 459.917,44.138 		"/>
		<path style="fill:#285680;" d="M185.379,141.241l10.336-20.671c4.486-8.972,13.656-14.639,23.687-14.639h73.197
			c10.031,0,19.201,5.667,23.687,14.639l10.336,20.671H185.379z"/>
	</g>
</g>
<g>
</g>
<g>
</g>
<g>
</g>
<g>
</g>
<g>
</g>
<g>
</g>
<g>
</g>
<g>
</g>
<g>
</g>
<g>
</g>
<g>
</g>
<g>
</g>
<g>
</g>
<g>
</g>
<g>
</g>
</svg>
