<?xml version="1.0" encoding="iso-8859-1"?>
<!-- Generator: Adobe Illustrator 19.0.0, SVG Export Plug-In . SVG Version: 6.00 Build 0)  -->
<svg version="1.1" id="Capa_1" xmlns="http://www.w3.org/2000/svg" xmlns:xlink="http://www.w3.org/1999/xlink" x="0px" y="0px"
	 viewBox="0 0 512 512" style="enable-background:new 0 0 512 512;" xml:space="preserve">
<g>
	<path style="fill:#2C3E50;" d="M450.921,99.724c-5.824-12.376-18.272-20.275-31.95-20.275h-57.04l-23.481-35.31l-11.829-17.655
		l-7.15-10.77C312.913,5.893,301.883-0.003,290.074,0h-68.149c-11.809-0.003-22.838,5.893-29.396,15.713L179.465,35.31
		l-11.741,17.655l-17.655,26.483h-57.04c-13.678,0-26.126,7.899-31.95,20.275L0,229.517v185.379
		c0,14.626,11.857,26.483,26.483,26.483h459.034c14.626,0,26.483-11.857,26.483-26.483V229.517L450.921,99.724z"/>
	<path style="fill:#E4C05C;" d="M434.564,288.519c-1.201-3.605-4.575-6.036-8.374-6.036H85.811c-3.8,0-7.173,2.431-8.374,6.036
		l-33.298,99.895v70.621c0.015,4.869,3.958,8.813,8.828,8.828h20.039c6.09,0.026,11.746,3.154,15.006,8.298l19.774,31.691
		c1.593,2.567,4.394,4.134,7.415,4.149h273.214c2.774-0.019,5.383-1.323,7.062-3.531l25.159-33.545
		c3.346-4.432,8.571-7.044,14.124-7.062h24.276c4.869-0.015,8.813-3.958,8.828-8.828v-70.621L434.564,288.519z"/>
	<path style="fill:#B19046;" d="M467.862,388.414v70.621c-0.015,4.869-3.958,8.813-8.828,8.828h-24.276
		c-5.553,0.018-10.778,2.63-14.124,7.062l-25.159,33.545c-1.679,2.208-4.288,3.512-7.062,3.531H115.2
		c-3.021-0.015-5.822-1.582-7.415-4.149L88.011,476.16c-3.26-5.144-8.917-8.272-15.007-8.298H52.966
		c-4.869-0.015-8.813-3.958-8.828-8.828v-70.621H467.862z"/>
	<g>
		<path style="fill:#F9EAB0;" d="M150.069,494.345V512h-17.655v-17.655c0-4.875,3.952-8.828,8.828-8.828
			S150.069,489.469,150.069,494.345z"/>
		<path style="fill:#F9EAB0;" d="M194.207,494.345V512h-17.655v-17.655c0-4.875,3.952-8.828,8.828-8.828
			C190.255,485.517,194.207,489.469,194.207,494.345z"/>
		<path style="fill:#F9EAB0;" d="M238.345,494.345V512H220.69v-17.655c0-4.875,3.952-8.828,8.828-8.828
			S238.345,489.469,238.345,494.345z"/>
		<path style="fill:#F9EAB0;" d="M282.483,494.345V512h-17.655v-17.655c0-4.875,3.952-8.828,8.828-8.828
			S282.483,489.469,282.483,494.345z"/>
		<path style="fill:#F9EAB0;" d="M326.621,494.345V512h-17.655v-17.655c0-4.875,3.952-8.828,8.828-8.828
			S326.621,489.469,326.621,494.345z"/>
		<path style="fill:#F9EAB0;" d="M370.759,494.345V512h-17.655v-17.655c0-4.875,3.952-8.828,8.828-8.828
			S370.759,489.469,370.759,494.345z"/>
		<path style="fill:#F9EAB0;" d="M150.069,388.414v17.655c0,4.875-3.952,8.828-8.828,8.828s-8.828-3.952-8.828-8.828v-17.655
			H150.069z"/>
		<path style="fill:#F9EAB0;" d="M105.931,388.414v17.655c0,4.875-3.952,8.828-8.828,8.828s-8.828-3.952-8.828-8.828v-17.655
			H105.931z"/>
		<path style="fill:#F9EAB0;" d="M194.207,388.414v17.655c0,4.875-3.952,8.828-8.828,8.828c-4.875,0-8.828-3.952-8.828-8.828
			v-17.655H194.207z"/>
		<path style="fill:#F9EAB0;" d="M238.345,388.414v17.655c0,4.875-3.952,8.828-8.828,8.828s-8.828-3.952-8.828-8.828v-17.655
			H238.345z"/>
		<path style="fill:#F9EAB0;" d="M282.483,388.414v17.655c0,4.875-3.952,8.828-8.828,8.828s-8.828-3.952-8.828-8.828v-17.655
			H282.483z"/>
		<path style="fill:#F9EAB0;" d="M326.621,388.414v17.655c0,4.875-3.952,8.828-8.828,8.828s-8.828-3.952-8.828-8.828v-17.655
			H326.621z"/>
		<path style="fill:#F9EAB0;" d="M370.759,388.414v17.655c0,4.875-3.952,8.828-8.828,8.828s-8.828-3.952-8.828-8.828v-17.655
			H370.759z"/>
		<path style="fill:#F9EAB0;" d="M414.897,388.414v17.655c0,4.875-3.952,8.828-8.828,8.828s-8.828-3.952-8.828-8.828v-17.655
			H414.897z"/>
		<path style="fill:#F9EAB0;" d="M379.586,459.034H132.414c-4.875,0-8.828-3.952-8.828-8.828s3.952-8.828,8.828-8.828h247.172
			c4.875,0,8.828,3.952,8.828,8.828S384.462,459.034,379.586,459.034z"/>
	</g>
	<path style="fill:#2C3E50;" d="M361.931,79.448H150.069l17.655-26.483l11.741-17.655l13.065-19.597
		C199.087,5.893,210.117-0.003,221.926,0h68.149c11.809-0.003,22.838,5.893,29.396,15.713l7.15,10.77l11.829,17.655L361.931,79.448z
		"/>
	<path style="fill:#35495E;" d="M512,229.517L450.921,99.724c-5.824-12.376-18.272-20.275-31.949-20.275H93.029
		c-13.678,0-26.125,7.899-31.949,20.275L0,229.517H512z"/>
	<g>
		<path style="fill:#3F5C6C;" d="M220.69,44.138c-0.015,4.869-3.958,8.813-8.828,8.828h-44.138l11.741-17.655h32.397
			C216.731,35.325,220.675,39.269,220.69,44.138z"/>
		<path style="fill:#3F5C6C;" d="M338.45,44.138H291.31c-4.875,0-8.828-3.952-8.828-8.828s3.952-8.828,8.828-8.828h35.31
			L338.45,44.138z"/>
	</g>
</g>
<g>
</g>
<g>
</g>
<g>
</g>
<g>
</g>
<g>
</g>
<g>
</g>
<g>
</g>
<g>
</g>
<g>
</g>
<g>
</g>
<g>
</g>
<g>
</g>
<g>
</g>
<g>
</g>
<g>
</g>
</svg>
