<svg id="Capa_1" enable-background="new 0 0 512 512" height="512" viewBox="0 0 512 512" width="512" xmlns="http://www.w3.org/2000/svg"><g><g><path d="m199.23 449.739 28.927-67.142 27.169-7 28.517 7 28.927 67.142-55.379 8z" fill="#e8edf2"/><path d="m293.829 405.776-9.986-23.179h-55.686l-9.986 23.179z" fill="#c5d3dd"/><path d="m484.061 274.124h-456.123c-15.429 0-27.938 12.508-27.938 27.938v52.596c0 15.43 12.509 27.939 27.939 27.939h456.123c15.43 0 27.939-12.509 27.939-27.939v-52.596c-.001-15.43-12.51-27.938-27.94-27.938z" fill="#01c0fa"/><path d="m459.165 23.124v5c15.43 0 27.935 7.509 27.935 22.939v303.596c0 15.43-12.509 27.939-27.939 27.939h24.9c15.43 0 27.939-12.509 27.939-27.939v-51.274c0-29.181-23.655-280.261-52.835-280.261z" fill="#0290cf"/><path d="m484.061 23.124h-456.123c-15.43 0-27.938 12.508-27.938 27.938v250.262c0 15.43 12.509 27.939 27.939 27.939h456.123c15.43 0 27.939-12.508 27.939-27.939v-250.262c-.001-15.43-12.509-27.938-27.94-27.938z" fill="#e8edf2"/><path d="m510.744 42.754c-.952-3.062-2.417-5.898-4.294-8.408-5.095-6.813-13.227-11.222-22.388-11.222h-24.896c15.427.004 27.935 12.511 27.935 27.939v278.033c14-1.515 24.9-13.368 24.9-27.771v-250.263c-.001-2.893-.441-5.683-1.257-8.308z" fill="#c5d3dd"/><path d="m332.59 449.739h-153.18c-13.733 0-24.866 11.133-24.866 24.866v6.013c0 4.561 3.698 8.259 8.259 8.259h186.393c4.561 0 8.259-3.698 8.259-8.259v-6.013c0-13.733-11.132-24.866-24.865-24.866z" fill="#01c0fa"/><path d="m331.839 449.739h-23.865c14.147 0 25.616 11.469 25.616 25.616v5.013c0 4.699-3.809 8.508-8.508 8.508h23.865c4.699 0 8.508-3.809 8.508-8.508v-5.013c0-14.147-11.468-25.616-25.616-25.616z" fill="#0290cf"/><path d="m237.052 91.816 11.221-6.381v27.152c0 4.267 3.459 7.726 7.726 7.726s7.726-3.459 7.726-7.726v-27.151l11.221 6.381c1.206.686 2.518 1.012 3.812 1.012 2.688-.001 5.3-1.405 6.723-3.908 2.11-3.71.812-8.427-2.897-10.536l-22.767-12.946c-.014-.008-.03-.014-.045-.022-.271-.152-.552-.289-.842-.408-.037-.015-.075-.027-.113-.041-.245-.096-.495-.179-.751-.25-.08-.022-.16-.042-.24-.062-.222-.054-.447-.097-.676-.132-.082-.012-.162-.028-.244-.037-.292-.034-.588-.056-.889-.057-.012 0-.025 0-.037 0-.301.001-.597.023-.889.057-.082.01-.163.025-.244.037-.229.034-.454.078-.676.132-.08.02-.16.039-.24.062-.256.071-.507.154-.752.25-.037.015-.076.026-.113.041-.29.119-.571.256-.842.408-.015.008-.03.013-.045.022l-22.767 12.946c-3.709 2.109-5.007 6.826-2.897 10.536 2.11 3.707 6.828 5.006 10.537 2.895z" fill="#01c0fa"/><path d="m174.665 240.081-23.557 13.576v-12.908c-.028-4.25-3.524-7.676-7.768-7.676-.017 0-.035 0-.052 0-4.267.028-7.617 3.51-7.59 7.777v26.19c0 .017.089.033.09.05.004.311.026.623.067.934.005.038.014.074.02.112.039.263.094.524.161.784.02.078.042.155.065.232.065.222.141.442.228.661.029.074.055.149.087.222.119.276.253.554.407.821.168.29.359.573.564.84.107.139.227.262.341.392.107.121.207.247.321.361.147.148.307.278.464.412.097.083.188.172.29.25.175.134.36.251.544.369.088.056.167.121.257.174l22.595 13.244c1.228.72 2.572 1.062 3.9 1.062 2.652 0 5.235-1.367 6.673-3.82 2.158-3.681.923-8.415-2.759-10.572l-11.137-6.528 23.515-13.576c3.696-2.133 4.962-6.859 2.828-10.554-2.133-3.697-6.858-4.963-10.554-2.829z" fill="#fe9738"/><path d="m376.3 240.85c.028-4.267-3.322-7.749-7.59-7.777-.018 0-.034 0-.052 0-4.243 0-7.74 3.426-7.768 7.676v12.908l-23.557-13.576c-3.695-2.135-8.421-.868-10.554 2.828-2.134 3.696-.868 8.421 2.828 10.554l23.515 13.576-11.137 6.528c-3.682 2.157-4.916 6.891-2.759 10.572 1.438 2.454 4.02 3.82 6.673 3.82 1.327 0 2.673-.342 3.9-1.062l22.595-13.244c.093-.055.176-.122.267-.181.181-.116.362-.23.533-.361.106-.081.2-.173.301-.259.154-.131.31-.259.454-.403.117-.117.22-.246.329-.371.112-.127.229-.247.333-.383.205-.267.396-.55.564-.84.154-.267.288-.545.407-.821.031-.073.058-.148.087-.222.086-.219.163-.439.228-.661.023-.077.044-.154.065-.232.067-.26.121-.521.161-.784.006-.038.015-.074.02-.112.042-.311.064-.623.067-.934 0-.017.089-.033.09-.05z" fill="#0ed2b3"/><path d="m316.096 162.885-56.232-32.469c-2.391-1.38-5.336-1.38-7.727 0l-56.232 32.469c-2.39 1.38-3.863 3.931-3.863 6.691 0 .202.023.399.038.599v64.333c0 2.761 1.472 5.312 3.862 6.692l55.664 32.135c.163.111.319.23.492.329 1.195.69 2.529 1.035 3.863 1.035.013 0 .026-.003.039-.003s.026.003.039.003c1.334 0 2.668-.345 3.863-1.035.172-.1.329-.218.492-.329l55.664-32.135c2.39-1.38 3.862-3.931 3.862-6.692v-64.333c.016-.199.038-.397.038-.599.001-2.76-1.472-5.311-3.862-6.691zm-60.096-16.856 40.76 23.535-40.76 23.531-40.76-23.53zm-48.468 36.952 40.701 23.499v47.064l-40.701-23.497zm56.235 70.564v-47.064l40.701-23.499v47.066z" fill="#c365af"/></g><path d="m77.99 265.015h-36.479c-3.866 0-7-3.134-7-7v-183.354c0-3.866 3.134-7 7-7h36.479c3.866 0 7 3.134 7 7v183.355c0 3.865-3.134 6.999-7 6.999z" fill="#0ed2b3"/><g fill="#d8ecfe"><path d="m62.67 113.567h-5.838c-4.267 0-7.726-3.459-7.726-7.726s3.459-7.726 7.726-7.726h5.838c4.267 0 7.726 3.459 7.726 7.726s-3.459 7.726-7.726 7.726z"/><path d="m62.67 153.898h-5.838c-4.267 0-7.726-3.459-7.726-7.726s3.459-7.726 7.726-7.726h5.838c4.267 0 7.726 3.459 7.726 7.726s-3.459 7.726-7.726 7.726z"/><path d="m62.67 194.23h-5.838c-4.267 0-7.726-3.459-7.726-7.726s3.459-7.726 7.726-7.726h5.838c4.267 0 7.726 3.459 7.726 7.726s-3.459 7.726-7.726 7.726z"/><path d="m62.67 234.562h-5.838c-4.267 0-7.726-3.459-7.726-7.726s3.459-7.726 7.726-7.726h5.838c4.267 0 7.726 3.459 7.726 7.726s-3.459 7.726-7.726 7.726z"/></g><path d="m472.905 57.758h-99.094c-2.845 0-5.151 2.306-5.151 5.151v84.011c0 2.845 2.306 5.151 5.151 5.151h99.094c2.845 0 5.151-2.306 5.151-5.151v-84.011c-.001-2.845-2.307-5.151-5.151-5.151z" fill="#fe9738"/><g fill="#d8ecfe"><path d="m422.327 99.249h-23.694c-4.267 0-7.726-3.459-7.726-7.726s3.459-7.726 7.726-7.726h23.694c4.267 0 7.726 3.459 7.726 7.726s-3.458 7.726-7.726 7.726z"/><path d="m448.082 126.034h-49.449c-4.267 0-7.726-3.459-7.726-7.726s3.459-7.726 7.726-7.726h49.449c4.267 0 7.726 3.459 7.726 7.726s-3.459 7.726-7.726 7.726z"/></g></g></svg>