<svg xmlns="http://www.w3.org/2000/svg" viewBox="0 0 1260 407" height="407" width="1260"><path d="m0 402v-5H17.5 35V362.5 328h31.9 31.9l19.8 34.5 19.8 34.5 20.7 0 20.7 0-11.1-19.2c-6.1-10.6-15-26-19.8-34.2l-8.7-15 5.3-1.2c12.2-2.8 22.3-11.2 26.3-21.9C173.8 300.4 174 297.7 174 275.5c0-22.3-0.2-24.9-2.1-30-2.7-7.3-10.4-15.6-17.7-19.2L148.5 223.5 74.3 223.2 0 223 0 183.7 0 144.5 17.2 144.8c10.8 0.2 17.5-0.1 18.2-0.7 0.6-0.6 3.1-6.5 5.7-13.3L45.7 118.5l29.7-0.3 29.7-0.3 0.9 2.3c0.5 1.2 3 7.3 5.6 13.5l4.7 11.3h18 18l-0.6-2.2C151.3 141.5 138 111.3 122.1 75.5L93.2 10.5H73.4 53.7l-25.8 64C13.7 109.7 1.6 139.4 1.1 140.5 0.5 141.8 0.1 117.5 0.1 71.3L0 0H246.8 493.5L515 21.5 536.5 43H570.2 604V76.8 110.5L625.5 132 647 153.5V76.7 0H953.5 1260V203.5 407H630 0Zm241.1-5.7c0.6-1 4.1-8.7 7.8-17.2l6.7-15.5 39.6-0.3 39.6-0.3 7.5 17.3 7.5 17.3 19.1 0.3C380.3 397.9 388 397.7 388 397.1 388 396.6 371.2 357.3 350.6 309.8L313.2 223.5l-17.9-0.3-17.9-0.3-37.6 86.8c-20.7 47.7-37.4 87.1-37.2 87.5 0.2 0.4 8.7 0.8 18.9 0.8 16.5 0 18.5-0.2 19.5-1.7zM272 326.2c0-0.9 22.5-53 23.1-53.6 0.3-0.3 21.2 46.8 23.7 53.5C319 326.6 308.6 327 295.6 327 282.6 327 272 326.6 272 326.2Zm845 11.6 0.5-59.8 51.5 59.8 51.5 59.8 17.8 0.3 17.8 0.3V310.5 223h-17.5-17.5l-0.3 59.9-0.3 59.9-51.5-59.9-51.5-59.9-18.2 0L1081 223v86.8c0 47.8 0.3 87.1 0.7 87.5 0.4 0.4 8.4 0.6 17.8 0.4L1116.5 397.5ZM572.5 394.9c7.7-2.9 15.5-10.2 19.1-18.1L594.5 370.5V310 249.5l-2.6-5.6c-3.7-7.9-9-13.3-16.7-17.1L568.5 223.5 494.3 223.2 420 223V240.5 258l68.3 0c37.5 0 68.8 0.4 69.5 0.8 1 0.6 1.2 11.6 1 51.7L558.5 361.5 507.3 361.8 456 362V327 292h-18-18v52.5 52.5h73.5c71.8 0 73.6 0 79-2.1zM815 379.5V362H745.5 676v-17-17h69.5 69.5v-18-18h-87-87v52.5 52.5h87 87zm200.5 14.5c7.3-3.6 14.7-11.4 17.6-18.6L1035.5 369.5v-59c0-55.5-0.1-59.3-1.9-64-2.7-7-7.9-13.8-13.4-17.5-9.3-6.1-9-6.1-73.8-5.8L887.5 223.5l-5.6 2.6c-7.9 3.7-13.3 9-17.1 16.7l-3.3 6.6-0.3 58.5c-0.3 57.1-0.2 58.7 1.8 65.4 1.8 6 3 7.8 8.3 13.1 11 11 7 10.4 78.2 10.2l61-0.2zM897.7 361.3C897.3 361 897 337.8 897 309.9c0-45.3 0.2-50.8 1.6-51.3 2.4-0.9 98.7-0.7 100.2 0.2 1 0.6 1.2 11.6 1 51.7L999.5 361.5l-50.6 0.3c-27.8 0.1-50.9 0-51.2-0.4zM815 240.5V223h-87-87v17.5 17.5h87 87zM574.7 133.8C586.4 122.1 596 112.2 596 111.8 596 111.3 582.5 111 566 111H536V80.3 49.5L514 71.5 492 93.5V124.2 155h30.7 30.7zM201.2 103.5 201.5 62.1 219 82.5c15.6 18.2 17.8 20.4 20.5 20.4 2.7 0 5-2.4 20.5-20.5l17.5-20.5 0.3 41.6 0.3 41.6 16.7-0.3L311.5 144.5 311.8 77.3 312 10H297.1 282.2L260.9 34.5C249.3 48 239.6 59 239.4 59 239.2 59 229.6 48 217.9 34.5L196.7 10H181.9 167v66.8c0 36.8 0.3 67.1 0.7 67.5C168 144.7 175.7 145 184.7 145h16.3zM401.5 144c23.1-1.8 38.7-8.1 51-20.4C464.9 111 469.5 98.3 469.4 77 469.3 65.2 469 62.5 466.6 55.3 459.6 34 443.5 19.4 419.5 12.8 412.1 10.8 408.9 10.6 373.8 10.2L336 9.9V76.8c0 36.8 0.3 67.2 0.7 67.6 1 1 51.1 0.8 64.8-0.3zM370 77V35h10.9c22.1 0 34.3 3.4 42.8 11.9 14.3 14.4 14.8 44.5 1 59.8C416.5 115.7 405.9 119 384.8 119H370ZM0 275V258h68.4c57 0 68.6 0.2 69.5 1.4 0.8 0.9 1.1 6.3 0.9 16.8L138.5 291.5 69.3 291.8 0 292ZM57.4 87.8C58.7 84.3 62.8 73.3 66.5 63.3 70.3 53.2 73.6 45 74 45c0.3 0 2.7 5.1 5.3 11.3 2.5 6.2 7.1 17.2 10.1 24.5L94.8 94H74.9 55Z" fill="#fefefe"/><path d="m1 345v-52h68.3c51.8 0 68.6-0.3 69.5-1.2 1.3-1.3 1.8-29.1 0.6-32.2C138.8 258.2 131.8 258 69.9 258H1v-17-17h72.5c70.6 0 72.6 0.1 78 2.1 6.8 2.5 14.9 9.7 18.1 15.9C173 248.8 174 256.5 174 275.5c0 18.5-1 26.7-4.2 32.8-4.9 9.6-15.5 17.1-25.9 18.4-2.7 0.3-4.9 0.7-4.9 0.9 0 0.2 4 7.2 8.9 15.6 4.9 8.4 13.9 24 20 34.6L178.9 397 159.2 397 139.5 397 119.5 362.2 99.5 327.5 67.2 327.2 35 327V362 397H18 1Zm204.5 46.3c1.4-3.2 18.2-42 37.3-86.3l34.9-80.5 17.4-0.3 17.4-0.3 36.7 84.8c20.2 46.6 37 85.6 37.3 86.5 0.6 1.6-0.7 1.8-17.8 1.8h-18.4l-7.5-17.2-7.5-17.2-40.1-0.3-40.1-0.3-7.4 17.3-7.4 17.3-18.7 0.3-18.7 0.3zM320 327.5c0-0.8-23.8-55.6-24.4-56.2-0.3-0.3-0.7-0.4-0.9-0.1-0.3 0.4-11.2 25.6-21.2 48.9L270.1 328h25C308.8 328 320 327.8 320 327.5Zm101 17.6V293h17 17v35 35h51.4c42.2 0 51.6-0.2 52.5-1.4 0.8-1 1.1-15.5 0.9-52.2L559.5 258.5 490.3 258.2 421 258v-17-17l74.3 0.3 74.3 0.3 4.6 2.3c7.4 3.7 12.6 8.7 16.1 16l3.3 6.7V310.5 371.5l-2.9 5.8c-3.6 7.1-9.8 13-17.4 16.5L567.5 396.5 494.3 396.8 421 397.1ZM641 345v-52h86.5 86.5v17 17L744.8 327.2 675.5 327.5v17.5 17.5l69.3 0.3 69.3 0.3V380 397H727.5 641Zm248 50.7C878.5 393.4 869.1 385.8 864.6 376.1 862.5 371.6 862.5 370.7 862.5 310v-61.5l2.5-5c3.2-6.4 10.2-13.4 16.5-16.5l5-2.5h62 62l4.5 2.4c9.7 5.1 15.8 12.6 18.5 22.4 1.5 5.5 1.6 12.6 1.4 63.7l-0.3 57.5-2.7 5.8c-3.5 7.6-11.2 14.9-18.5 17.9L1007.5 396.5 951 396.7c-41.2 0.1-58-0.1-62-1zM999.9 361.6c0.8-1 1.1-15.5 0.9-52.2L1000.5 258.5h-52-52l-0.3 51.4c-0.2 40.5 0 51.6 1 52.2 0.7 0.4 23.8 0.8 51.4 0.8 41.1 0 50.3-0.2 51.3-1.3zM1082 310.5V224l17.8 0.1 17.8 0.1 51.5 60 51.5 60 0.3-60.1 0.3-60.1H1238 1255v86.5 86.5h-17-17l-52.3-60.7-52.3-60.7-0.3 60.7-0.3 60.7H1099 1082v-86.5zM641 241v-17h86.5 86.5v17 17H727.5 641ZM493 123.7V93.5L514 72.5 535 51.5V81.3 111h30.2 30.2L574 132.5 552.5 154H522.8 493Zm132.2 7L605 110.5V76.2 42H570.7 536.5L516 21.5 495.5 1H570.8 646v75c0 41.3-0.1 75-0.3 75-0.1 0-9.4-9.1-20.5-20.3zM1.4 142.3C1.8 141.3 13.8 111.4 28.2 75.8L54.3 11h19.1 19.1l29.2 65.8c16.1 36.2 29.2 66.1 29.2 66.5 0 0.4-7.8 0.7-17.3 0.7L116.5 144 111 130.7 105.5 117.5 75.4 117.2 45.3 117 40.4 130.2 35.5 143.5 18.1 143.8c-16.3 0.3-17.3 0.2-16.7-1.5zM94.7 91.8C84 65.5 74.4 43 73.9 43 73.5 43 61.7 73.2 54.2 93.8 53.9 94.7 58.4 95 74.9 95H96ZM168 77.5V11h14.3 14.3l19.8 22.9c10.9 12.6 20.6 23.7 21.6 24.6 1.7 1.6 2.9 0.4 23.1-22.9L282.3 11H296.6 311V77.5 144H294.5 278L277.8 102.4 277.5 60.8 259.7 81.4c-15.2 17.6-18.2 20.6-20.5 20.5-2.3-0.1-5.6-3.5-20.2-20.5C209.4 70.2 201.2 61 200.8 61 200.4 61 200 79.7 200 102.5V144h-16-16zm169 0V11l34.8 0c30.5 0 35.9 0.3 44.3 2 31.6 6.5 51.3 29.1 52.8 60.6 1.5 34.2-15.1 57.8-46.8 66.4-11.9 3.2-23.4 4.1-55.2 4.1L337 144Zm67.9 41c17.5-4.1 27.2-15.2 30.2-34.5 1.9-12.4-1.6-26.6-9-35.8-1.6-2-5.3-5.1-8.3-6.9C409.5 36.3 402.8 35 385.3 35H370V77.5 120l14.3 0c9.2 0 16.5-0.6 20.7-1.5z"/></svg>