<svg width="680" height="512" viewBox="0 0 680 512" fill="none" xmlns="http://www.w3.org/2000/svg">
<path d="M244 406C326.843 406 394 338.843 394 256C394 173.157 326.843 106 244 106C161.157 106 94 173.157 94 256C94 338.843 161.157 406 244 406Z" fill="#ED5565"/>
<path d="M436 406C518.843 406 586 338.843 586 256C586 173.157 518.843 106 436 106C353.157 106 286 173.157 286 256C286 338.843 353.157 406 436 406Z" fill="#5D9CEC"/>
<path d="M340 371.25C369.823 371.25 394 319.651 394 256C394 192.349 369.823 140.75 340 140.75C310.177 140.75 286 192.349 286 256C286 319.651 310.177 371.25 340 371.25Z" fill="#545C66"/>
<path d="M544.058 370.029C549.581 370.029 554.058 365.552 554.058 360.029C554.058 354.506 549.581 350.029 544.058 350.029C538.535 350.029 534.058 354.506 534.058 360.029C534.058 365.552 538.535 370.029 544.058 370.029Z" fill="#444B55"/>
<path d="M583.42 193.72C579.41 184.241 574.45 175.1 568.67 166.54C562.95 158.069 556.37 150.1 549.14 142.859C541.9 135.62 533.93 129.049 525.46 123.33C516.9 117.55 507.76 112.59 498.28 108.569C478.55 100.229 457.6 96 436 96C414.4 96 393.44 100.229 373.72 108.569C364.24 112.59 355.1 117.549 346.54 123.33C344.304 124.84 342.106 126.413 339.944 128.038C313.194 107.931 279.965 96 244 96C155.776 96 84 167.775 84 256C84 344.225 155.776 416 244 416C279.965 416 313.194 404.069 339.944 383.962C342.106 385.587 344.304 387.16 346.54 388.67C355.1 394.45 364.24 399.41 373.72 403.42C393.44 411.77 414.4 416 436 416L436.02 415.95V416C449.76 416 463.41 414.25 476.6 410.8C489.4 407.45 501.77 402.5 513.36 396.09C518.18 393.42 519.93 387.319 517.27 382.5C515.5 379.31 512.15 377.34 508.51 377.34C506.83 377.34 505.16 377.77 503.68 378.58C503.68 378.58 503.68 378.59 503.67 378.59C483.09 389.979 459.69 396 436 396C406.79 396 378.936 387.103 355.53 370.602C385.408 341.517 404 300.892 404 256C404 211.107 385.407 170.481 355.527 141.396C378.934 124.891 406.789 116 436 116C473.38 116 508.54 130.56 534.99 157C561.43 183.46 575.99 218.62 576 256C576 278.16 570.98 299.34 561.07 318.97C559.87 321.36 559.67 324.07 560.5 326.61C561.34 329.14 563.11 331.201 565.5 332.411C566.91 333.121 568.42 333.48 569.99 333.48C573.79 333.48 577.22 331.371 578.93 327.98C584.45 317.05 588.7 305.48 591.56 293.57C594.51 281.33 596 268.689 596 256C596 234.399 591.77 213.439 583.42 193.72ZM339.946 154.147C345.063 158.97 349.816 164.174 354.164 169.711L299.6 224.275C305.43 199.007 318.216 175.806 337 157C337.969 156.031 338.954 155.083 339.946 154.147ZM375.069 206.805L298.637 283.237C296.904 274.41 296.012 265.351 296.001 256.158L365.55 186.609C369.237 193.04 372.426 199.79 375.069 206.805ZM384 256C384 256.635 383.983 257.267 383.975 257.899L315.136 326.739C311.104 319.874 307.68 312.696 304.892 305.268L381.34 228.82C383.078 237.616 384 246.702 384 256ZM244 396C166.804 396 104 333.196 104 256C104 178.804 166.804 116 244 116C273.872 116 301.585 125.41 324.341 141.413C323.847 141.895 323.347 142.371 322.86 142.859C315.62 150.099 309.05 158.069 303.33 166.54C297.55 175.1 292.59 184.24 288.58 193.72C280.23 213.439 276 234.399 276 256C276 277.6 280.23 298.56 288.58 318.279C292.59 327.759 297.55 336.899 303.33 345.46C309.05 353.93 315.62 361.899 322.86 369.14C323.348 369.628 323.847 370.105 324.342 370.587C301.585 386.59 273.872 396 244 396ZM339.947 357.853C338.954 356.916 337.97 355.969 337 355C333.327 351.323 329.892 347.472 326.684 343.476L379.695 290.465C373.044 316.63 359.013 339.881 339.947 357.853Z" fill="#444B55"/>
<path d="M6.4873 508V455.346H27.0088C30.4805 455.346 33.3607 455.706 35.6494 456.426C37.9382 457.146 39.9183 458.651 41.5898 460.939C43.2614 463.228 44.0972 465.916 44.0972 469.001C44.0972 471.907 43.2485 474.44 41.5513 476.601C39.854 478.735 37.5138 480.098 34.5308 480.689C38.2339 481.332 41.0369 482.837 42.9399 485.203C44.8429 487.569 45.7944 490.372 45.7944 493.612C45.7944 497.675 44.4572 501.095 41.7827 503.873C39.134 506.624 35.0451 508 29.5161 508H6.4873ZM15.4751 477.449H27.0474C29.4132 477.449 31.2777 476.742 32.6406 475.328C34.0293 473.913 34.7236 472.113 34.7236 469.927C34.7236 467.51 33.9393 465.736 32.3706 464.604C30.8019 463.447 28.9632 462.868 26.8545 462.868H15.4751V477.449ZM15.4751 500.092H27.7417C30.339 500.092 32.3835 499.411 33.875 498.048C35.3923 496.685 36.1509 494.846 36.1509 492.532C36.1509 490.32 35.3794 488.507 33.8364 487.093C32.3192 485.678 30.3005 484.971 27.7803 484.971H15.4751V500.092ZM95.5166 508H85.4873L77.3096 486.36H63.9629V508H54.4736V455.346H77.3096C83.6615 455.346 88.3289 456.786 91.312 459.667C94.2951 462.521 95.7866 466.224 95.7866 470.776C95.7866 477.539 92.6235 482.194 86.2974 484.74L95.5166 508ZM63.9629 478.761H75.7666C79.1868 478.761 81.7327 478.041 83.4043 476.601C85.0758 475.16 85.9116 473.18 85.9116 470.66C85.9116 468.346 85.0887 466.481 83.4429 465.067C81.797 463.627 79.4954 462.907 76.5381 462.907H63.9629V478.761ZM146.55 508H136.405L132.201 495.463H111.949L107.822 508H99.7212L117.195 455.346H128.883L146.55 508ZM129.655 487.864L121.979 464.373L114.302 487.864H129.655ZM194.305 508H183.697L172.588 481.191L162.404 494.692V508H152.915V455.346H162.404V483.004C163.613 481.127 164.487 479.828 165.027 479.108L182.501 455.346H192.106L179.608 472.666L194.305 508ZM230.681 508H221.191V455.346H242.754C248.901 455.346 253.452 456.902 256.41 460.014C259.393 463.1 260.884 466.751 260.884 470.969C260.884 475.778 259.277 479.674 256.062 482.657C252.848 485.64 248.772 487.131 243.834 487.131H230.681V508ZM230.681 478.992H241.906C244.837 478.992 247.075 478.272 248.618 476.832C250.161 475.392 250.932 473.476 250.932 471.084C250.932 468.924 250.212 467.073 248.772 465.53C247.358 463.987 244.786 463.215 241.057 463.215H230.681V478.992ZM309.604 508H299.574L291.396 486.36H278.05V508H268.561V455.346H291.396C297.748 455.346 302.416 456.786 305.399 459.667C308.382 462.521 309.874 466.224 309.874 470.776C309.874 477.539 306.71 482.194 300.384 484.74L309.604 508ZM278.05 478.761H289.854C293.274 478.761 295.82 478.041 297.491 476.601C299.163 475.16 299.999 473.18 299.999 470.66C299.999 468.346 299.176 466.481 297.53 465.067C295.884 463.627 293.582 462.907 290.625 462.907H278.05V478.761ZM353.54 508H319.324V455.346H353.192V463.177H328.813V477.449H348.409V485.087H328.813V499.822H353.54V508ZM371.515 508H361.756V455.346H395.045V463.485H371.515V477.874H390.031V485.781H371.515V508ZM436.088 508H401.873V455.346H435.741V463.177H411.362V477.449H430.958V485.087H411.362V499.822H436.088V508ZM485.348 508H475.318L467.141 486.36H453.794V508H444.305V455.346H467.141C473.493 455.346 478.16 456.786 481.143 459.667C484.126 462.521 485.618 466.224 485.618 470.776C485.618 477.539 482.455 482.194 476.128 484.74L485.348 508ZM453.794 478.761H465.598C469.018 478.761 471.564 478.041 473.235 476.601C474.907 475.16 475.743 473.18 475.743 470.66C475.743 468.346 474.92 466.481 473.274 465.067C471.628 463.627 469.326 462.907 466.369 462.907H453.794V478.761ZM529.284 508H495.068V455.346H528.937V463.177H504.558V477.449H524.153V485.087H504.558V499.822H529.284V508ZM577.27 508H568.051L548.069 474.363C547.761 473.849 547.259 473.013 546.565 471.856C546.256 471.342 545.781 470.532 545.138 469.426V508H537.5V455.346H547.992L566.431 486.36C566.585 486.617 567.704 488.507 569.787 492.03V455.346H577.27V508ZM618.313 489.716L627.108 490.68C626.542 495.952 624.498 500.298 620.975 503.718C617.477 507.113 612.874 508.81 607.165 508.81C602.356 508.81 598.447 507.601 595.438 505.184C592.455 502.767 590.154 499.488 588.534 495.348C586.914 491.207 586.104 486.643 586.104 481.654C586.104 473.63 588.007 467.111 591.812 462.097C595.618 457.056 600.852 454.536 607.512 454.536C612.733 454.536 617.079 456.143 620.55 459.358C624.022 462.572 626.208 467.176 627.108 473.167L618.313 474.093C616.693 466.147 613.118 462.174 607.589 462.174C604.041 462.174 601.276 463.833 599.296 467.15C597.341 470.442 596.364 475.225 596.364 481.5C596.364 487.877 597.419 492.699 599.527 495.965C601.636 499.205 604.426 500.825 607.898 500.825C610.675 500.825 613.041 499.732 614.996 497.546C616.95 495.361 618.056 492.75 618.313 489.716ZM652.914 455.346V491.683C652.914 497.726 651.603 502.098 648.979 504.798C646.382 507.473 642.229 508.81 636.52 508.81C633.228 508.81 630.67 508.54 628.844 508V500.362C631.724 500.568 633.756 500.671 634.938 500.671C638.102 500.671 640.262 500.079 641.419 498.896C642.576 497.714 643.155 495.309 643.155 491.683V455.346H652.914ZM673.513 508H664.023V455.346H673.513V508Z" fill="#444B55"/>
</svg>
