<svg width="512" height="512" viewBox="0 0 512 512" fill="none" xmlns="http://www.w3.org/2000/svg">
<path d="M150 114.452V456.409C150 469.384 160.616 480 173.591 480H338.849C351.706 480 362.44 469.384 362.44 456.409V114.452H150Z" fill="#545C66"/>
<path d="M256.279 208.817C269.254 208.817 279.87 219.433 279.87 232.409C279.87 245.502 269.254 256 256.279 256C243.197 256 232.688 245.502 232.688 232.409C232.688 219.433 243.197 208.817 256.279 208.817Z" fill="#5D9CEC"/>
<path d="M362.44 55.5914V79.0648H150V55.5914C150 42.6161 160.616 32 173.591 32H338.849C351.706 32 362.44 42.6161 362.44 55.5914Z" fill="#545C66"/>
<path d="M150 79.0647H362.44V114.452H150V79.0647Z" fill="#656D78"/>
<path d="M303.438 362.232H209.073C202.55 362.232 197.277 356.959 197.277 350.436C197.277 343.913 202.55 338.641 209.073 338.641H303.438C309.962 338.641 315.234 343.913 315.234 350.436C315.234 356.959 309.962 362.232 303.438 362.232Z" fill="#434A54"/>
<path d="M303.438 397.619H209.073C202.55 397.619 197.277 392.347 197.277 385.824C197.277 379.301 202.55 374.028 209.073 374.028H303.438C309.961 374.028 315.234 379.301 315.234 385.824C315.234 392.347 309.961 397.619 303.438 397.619Z" fill="#434A54"/>
<path d="M303.438 433.006H209.073C202.55 433.006 197.277 427.733 197.277 421.21C197.277 414.687 202.55 409.415 209.073 409.415H303.438C309.961 409.415 315.234 414.687 315.234 421.21C315.234 427.733 309.961 433.006 303.438 433.006Z" fill="#434A54"/>
</svg>
