<svg width="512" height="512" viewBox="0 0 512 512" fill="none" xmlns="http://www.w3.org/2000/svg">
<path d="M472 32H40C35.6 32 32 35.6 32 40V472C32 476.4 35.6 480 40 480H472C476.4 480 480 476.4 480 472V40C480 35.6 476.4 32 472 32ZM56.208 64.152C51.784 64.152 48.168 60.568 48.168 56.152C48.168 51.736 51.704 48.152 56.12 48.152H56.208C60.624 48.152 64.208 51.736 64.208 56.152C64.208 60.568 60.624 64.152 56.208 64.152ZM456.24 464C451.816 464 448.2 460.424 448.2 456C448.2 451.576 451.736 448 456.152 448H456.24C460.656 448 464.24 451.576 464.24 456C464.24 460.424 460.656 464 456.24 464ZM456.24 64.152C451.816 64.152 448.2 60.568 448.2 56.152C448.2 51.736 451.736 48.152 456.152 48.152H456.24C460.656 48.152 464.24 51.736 464.24 56.152C464.24 60.568 460.656 64.152 456.24 64.152Z" fill="#1E4D55"/>
<path d="M408 96H104C99.6 96 96 99.6 96 104V408C96 412.4 99.6 416 104 416H184H328H408C412.4 416 416 412.4 416 408V104C416 99.6 412.4 96 408 96Z" fill="white"/>
<path d="M32 472C32 476.4 35.6 480 40 480H80L32 432V472Z" fill="#EEB67B"/>
<path d="M256 144C291.36 144 320 172.64 320 208C320 243.36 291.36 271.992 256 271.992C220.64 271.992 192 243.36 192 208C192 172.64 220.64 144 256 144V144ZM288 208C288 190.312 273.68 176 256 176C238.32 176 224 190.312 224 208C224 225.672 238.32 240 256 240C273.68 240 288 225.672 288 208Z" fill="#057FC9"/>
<path d="M408 72C425.6 72 440 86.4 440 104V408C440 425.6 425.6 440 408 440H344L328 416H408C412.4 416 416 412.4 416 408V104C416 99.6 412.4 96 408 96H104C99.6 96 96 99.6 96 104V408C96 412.4 99.6 416 104 416H184L168 440H104C86.4 440 72 425.6 72 408V104C72 86.4 86.4 72 104 72H408Z" fill="#E6E9ED"/>
<path d="M352 312.008H160C155.576 312.008 152 308.432 152 304.008C152 299.584 155.576 296.008 160 296.008H352C356.424 296.008 360 299.584 360 304.008C360 308.432 356.424 312.008 352 312.008Z" fill="#E6E9ED"/>
<path d="M352 335.992H160C155.576 335.992 152 332.416 152 327.992C152 323.568 155.576 319.992 160 319.992H352C356.424 319.992 360 323.568 360 327.992C360 332.416 356.424 335.992 352 335.992Z" fill="#E6E9ED"/>
<path d="M296 359.992H216C211.576 359.992 208 356.416 208 351.992C208 347.568 211.576 343.992 216 343.992H296C300.424 343.992 304 347.568 304 351.992C304 356.416 300.424 359.992 296 359.992Z" fill="#E6E9ED"/>
<g clip-path="url(#clip0)">
<path d="M462.529 267.395L488.629 260.508C497.125 258.267 497.125 246.211 488.629 243.967L462.529 237.081C459.551 236.295 457.227 233.97 456.441 230.992L449.554 204.893C447.313 196.4 435.257 196.4 433.016 204.893L426.129 230.992C425.343 233.97 423.016 236.295 420.041 237.081L393.941 243.967C385.446 246.208 385.446 258.265 393.941 260.508L420.041 267.395C423.016 268.179 425.343 270.505 426.129 273.483L433.016 299.583C435.257 308.076 447.313 308.076 449.554 299.583L456.441 273.483C457.227 270.505 459.554 268.181 462.529 267.395V267.395Z" fill="#FF8040"/>
<path d="M352.908 225.974L374.552 269.832C377.714 276.241 383.832 280.683 390.905 281.712L439.305 288.746C457.119 291.334 464.234 313.229 451.342 325.795L416.321 359.932C411.2 364.923 408.866 372.111 410.073 379.157L418.341 427.362C421.385 445.105 402.76 458.636 386.827 450.26L343.535 427.501C337.209 424.173 329.649 424.173 323.321 427.501L280.031 450.26C264.098 458.636 245.473 445.105 248.517 427.362L256.785 379.157C257.992 372.111 255.656 364.923 250.538 359.932L215.516 325.795C202.624 313.229 209.739 291.334 227.553 288.746L275.954 281.712C283.027 280.683 289.144 276.241 292.306 269.832L313.951 225.974C321.92 209.83 344.938 209.83 352.908 225.974V225.974Z" fill="#FFBF3E"/>
<path d="M264.345 427.362L272.613 379.157C273.823 372.111 271.487 364.923 266.368 359.932L231.344 325.795C218.455 313.229 225.567 291.334 243.384 288.746L291.782 281.712C298.857 280.683 304.972 276.241 308.137 269.832L329.781 225.974C332.38 220.706 336.585 217.17 341.343 215.34C331.518 211.559 319.319 215.098 313.951 225.974L292.306 269.832C289.142 276.241 283.027 280.683 275.954 281.712L227.553 288.746C209.739 291.334 202.624 313.229 215.516 325.795L250.538 359.932C255.656 364.923 257.992 372.111 256.785 379.157L248.517 427.362C245.613 444.289 262.43 457.367 277.82 451.262C268.878 447.701 262.464 438.341 264.345 427.362Z" fill="#E8A328"/>
<path d="M402.655 450.26L359.366 427.501C353.753 424.55 347.174 424.222 341.343 426.504C342.088 426.796 342.82 427.124 343.535 427.501L386.827 450.26C392.901 453.454 399.361 453.456 404.869 451.262C404.127 450.968 403.387 450.645 402.655 450.26V450.26Z" fill="#E8A328"/>
<path d="M263.478 459.194L294.633 450.973C304.774 448.298 304.774 433.905 294.633 431.231L263.478 423.01C259.925 422.072 257.15 419.297 256.212 415.743L247.991 384.586C245.316 374.447 230.923 374.447 228.249 384.586L220.027 415.743C219.089 419.297 216.315 422.072 212.761 423.01L181.604 431.231C171.465 433.905 171.465 448.298 181.604 450.973L212.761 459.194C216.315 460.132 219.089 462.907 220.027 466.46L228.246 497.617C230.923 507.756 245.316 507.756 247.991 497.617L256.212 466.46C257.15 462.907 259.925 460.132 263.478 459.194V459.194Z" fill="#FF8040"/>
</g>
<defs>
<clipPath id="clip0">
<rect width="321" height="321" fill="white" transform="translate(174 191)"/>
</clipPath>
</defs>
</svg>
