<svg width="512" height="512" viewBox="0 0 512 512" fill="none" xmlns="http://www.w3.org/2000/svg">
<path d="M472 32H40C35.6 32 32 35.6 32 40V472C32 476.4 35.6 480 40 480H472C476.4 480 480 476.4 480 472V40C480 35.6 476.4 32 472 32ZM56.208 64.152C51.784 64.152 48.168 60.568 48.168 56.152C48.168 51.736 51.704 48.152 56.12 48.152H56.208C60.624 48.152 64.208 51.736 64.208 56.152C64.208 60.568 60.624 64.152 56.208 64.152ZM456.24 464C451.816 464 448.2 460.424 448.2 456C448.2 451.576 451.736 448 456.152 448H456.24C460.656 448 464.24 451.576 464.24 456C464.24 460.424 460.656 464 456.24 464ZM456.24 64.152C451.816 64.152 448.2 60.568 448.2 56.152C448.2 51.736 451.736 48.152 456.152 48.152H456.24C460.656 48.152 464.24 51.736 464.24 56.152C464.24 60.568 460.656 64.152 456.24 64.152Z" fill="#1E4D55"/>
<path d="M408 96H104C99.6 96 96 99.6 96 104V408C96 412.4 99.6 416 104 416H184H328H408C412.4 416 416 412.4 416 408V104C416 99.6 412.4 96 408 96Z" fill="white"/>
<path d="M32 472C32 476.4 35.6 480 40 480H80L32 432V472Z" fill="#EEB67B"/>
<path d="M256 144C291.36 144 320 172.64 320 208C320 243.36 291.36 271.992 256 271.992C220.64 271.992 192 243.36 192 208C192 172.64 220.64 144 256 144V144ZM288 208C288 190.312 273.68 176 256 176C238.32 176 224 190.312 224 208C224 225.672 238.32 240 256 240C273.68 240 288 225.672 288 208Z" fill="#057FC9"/>
<path d="M408 72C425.6 72 440 86.4 440 104V408C440 425.6 425.6 440 408 440H344L328 416H408C412.4 416 416 412.4 416 408V104C416 99.6 412.4 96 408 96H104C99.6 96 96 99.6 96 104V408C96 412.4 99.6 416 104 416H184L168 440H104C86.4 440 72 425.6 72 408V104C72 86.4 86.4 72 104 72H408Z" fill="#E6E9ED"/>
<path d="M352 312.008H160C155.576 312.008 152 308.432 152 304.008C152 299.584 155.576 296.008 160 296.008H352C356.424 296.008 360 299.584 360 304.008C360 308.432 356.424 312.008 352 312.008Z" fill="#E6E9ED"/>
<path d="M352 335.992H160C155.576 335.992 152 332.416 152 327.992C152 323.568 155.576 319.992 160 319.992H352C356.424 319.992 360 323.568 360 327.992C360 332.416 356.424 335.992 352 335.992Z" fill="#E6E9ED"/>
<path d="M296 359.992H216C211.576 359.992 208 356.416 208 351.992C208 347.568 211.576 343.992 216 343.992H296C300.424 343.992 304 347.568 304 351.992C304 356.416 300.424 359.992 296 359.992Z" fill="#E6E9ED"/>
</svg>
