<svg width="512" height="512" viewBox="0 0 512 512" fill="none" xmlns="http://www.w3.org/2000/svg">
<path d="M252 344H92C90.832 344 89.464 344 88 344V376.016L95.992 384.016H252C256.4 384.016 260 380.408 260 376.016V352C260 347.592 256.4 344 252 344Z" fill="#A0D468"/>
<path d="M80 376.016V344C78.536 344 77.168 344 76 344H68C63.6 344 60 347.592 60 352V376.016C60 380.408 63.6 384.016 68 384.016H72.008L80 376.016Z" fill="#A0D468"/>
<path d="M28.016 168.456H12C7.576 168.456 4 164.88 4 160.456C4 156.04 7.576 152.456 12 152.456H28.016C32.44 152.456 36.016 156.04 36.016 160.456C36.016 164.88 32.44 168.456 28.016 168.456Z" fill="#CCD1D9"/>
<path d="M72.0159 120.008C74.2159 120.008 76.0159 123.608 76.0159 128.008V352.008C76.0159 356.4 74.2159 360.008 72.0159 360.008C69.8159 360.008 40.3919 360.008 35.9919 360.008H27.9919C23.5919 360.008 19.9919 356.4 19.9919 352.008V168.488C19.9919 164.088 19.9919 156.888 19.9919 152.488V128.008C19.9919 123.608 23.5919 120.008 27.9919 120.008H35.9919H72.0159Z" fill="#CCD1D9"/>
<path d="M468 120.008H420H372H324H276H228H180H132H84H60V360.016H84H260H499.992L508 351.968V120.008H468Z" fill="#ED5565"/>
<path d="M108 96.0081L84 120.008H60V104.008L68 96.0081H108Z" fill="#545C66"/>
<path d="M300 96.0081L276 120.008H228L252 96.0081H300Z" fill="#545C66"/>
<path d="M252 96.0081L228 120.008H180L204 96.0081H252Z" fill="#656D78"/>
<path d="M204 96.0081L180 120.008H132L156 96.0081H204Z" fill="#545C66"/>
<path d="M348 96.0081L324 120.008H276L300 96.0081H348Z" fill="#656D78"/>
<path d="M156 96.0081L132 120.008H84L108 96.0081H156Z" fill="#656D78"/>
<path d="M492 96.0081L468 120.008H420L443.92 96.0081H492Z" fill="#545C66"/>
<path d="M396 96.0081L372 120.008H324L348 96.0081H396Z" fill="#545C66"/>
<path d="M443.92 96.0081L420 120.008H372L396 96.0081H443.92Z" fill="#656D78"/>
<path d="M508 104.008V120.008H468L492 96.0081H500L508 104.008Z" fill="#656D78"/>
<path d="M179.92 151.936C194.88 151.936 210 155.768 223.92 163.768C230.72 167.688 236.88 172.408 242.16 177.856C242.16 177.856 219.52 178.016 219.432 200.576C219.352 221.936 199.032 223.056 196.952 223.128C192.632 218.728 186.552 216.008 179.912 216.008C179.912 216.008 195.832 200.088 179.912 184.088C163.992 168.088 179.912 152.088 179.912 152.088V151.936H179.92Z" fill="#545C66"/>
<path d="M163.04 256.976C167.36 261.296 173.36 263.936 179.92 263.936C179.92 263.936 164 279.864 179.92 295.936C195.2 311.296 181.2 326.736 180 328.016C165.04 328.016 149.84 324.176 136 316.176C129.2 312.256 123.12 307.536 117.84 302.256C119.52 302.176 140.32 301.304 140.392 279.616C140.472 257.056 162.952 257.056 162.952 257.056L163.04 256.976Z" fill="#545C66"/>
<path d="M155.92 240.088C155.92 246.728 158.64 252.648 163.04 256.968L162.96 257.048C162.96 257.048 140.472 257.048 140.4 279.608C140.32 301.296 119.528 302.168 117.848 302.248C101.12 285.608 92.008 263.128 91.928 240.088H92.008C92.008 240.088 108.008 255.928 124.008 240.088C140 224.168 155.92 240.088 155.92 240.088Z" fill="#434A54"/>
<path d="M242.168 302.168C242.08 300.088 240.8 279.68 219.44 279.528C196.888 279.448 196.8 256.968 196.8 256.968C201.208 252.728 203.848 246.728 203.928 240.16C205.208 241.36 220.408 255.288 235.76 240.08C251.848 224.16 267.928 240.08 267.928 240.08C267.928 254.96 264.168 270.08 256.168 283.928C252.24 290.736 247.52 296.888 242.168 302.168Z" fill="#545C66"/>
<path d="M179.92 295.936C164 279.856 179.92 263.936 179.92 263.936C186.56 263.936 192.472 261.296 196.792 256.976C196.792 256.976 196.88 279.456 219.432 279.536C240.792 279.696 242.072 300.096 242.16 302.176C225.52 318.896 202.96 327.944 179.992 328.016C181.2 326.736 195.2 311.296 179.92 295.936V295.936Z" fill="#434A54"/>
<path d="M196.96 223.128C201.28 227.448 203.92 233.368 203.92 240.008V240.168C203.84 246.728 201.2 252.728 196.792 256.976C192.472 261.296 186.56 263.936 179.92 263.936C173.36 263.936 167.36 261.296 163.04 256.976C158.64 252.656 155.92 246.736 155.92 240.096V240.016C155.92 233.376 158.64 227.376 162.96 223.056C167.28 218.736 173.36 216.016 179.92 216.016C186.56 216.008 192.64 218.728 196.96 223.128Z" fill="#656D78"/>
<path d="M155.92 240.008V240.088C155.92 240.088 140 224.168 124 240.088C108 255.928 91.9999 240.088 91.9999 240.088H91.9199C91.9199 225.048 95.7519 209.856 103.752 195.928C107.672 189.12 112.312 183.048 117.672 177.76L117.752 177.848C117.752 177.848 117.84 200.4 140.392 200.48C162.952 200.568 162.952 223.04 162.952 223.04C158.64 227.368 155.92 233.368 155.92 240.008Z" fill="#545C66"/>
<path d="M267.92 240.088C267.92 240.088 251.84 224.168 235.752 240.088C220.392 255.288 205.2 241.368 203.92 240.168C203.92 240.088 203.92 240.088 203.92 240.008C203.92 233.368 201.28 227.448 196.96 223.128C199.04 223.048 219.36 221.936 219.44 200.576C219.528 178.016 242.168 177.856 242.168 177.856C258.88 194.408 267.92 217.048 267.92 240.088V240.088Z" fill="#434A54"/>
<path d="M179.92 184.088C195.84 200.088 179.92 216.008 179.92 216.008C173.36 216.008 167.28 218.728 162.96 223.048C162.96 223.048 162.96 200.568 140.4 200.488C117.848 200.408 117.76 177.856 117.76 177.856L117.68 177.768C134.24 161.048 156.88 151.936 179.92 151.936V152.096C179.92 152.088 164 168.088 179.92 184.088V184.088Z" fill="#434A54"/>
<path d="M476.024 239.976C476.024 254.936 472.192 270.048 464.192 283.976C460.272 290.776 455.552 296.944 450.104 302.224C450.104 302.224 449.944 279.584 427.384 279.488C406.024 279.408 404.904 259.096 404.832 257.016C409.232 252.696 411.952 246.616 411.952 239.976C411.952 239.976 427.872 255.896 443.872 239.976C459.872 224.056 475.872 239.976 475.872 239.976H476.024Z" fill="#545C66"/>
<path d="M370.984 223.088C366.664 227.408 364.024 233.408 364.024 239.968C364.024 239.968 348.104 224.048 332.024 239.968C316.664 255.248 301.224 241.248 299.944 240.048C299.944 225.088 303.784 209.888 311.784 196.048C315.696 189.248 320.416 183.168 325.696 177.888C325.784 179.568 326.656 200.368 348.336 200.44C370.896 200.52 370.896 223 370.896 223L370.984 223.088Z" fill="#545C66"/>
<path d="M387.864 215.976C381.224 215.976 375.304 218.696 370.984 223.096L370.904 223.016C370.904 223.016 370.904 200.528 348.344 200.456C326.664 200.376 325.792 179.584 325.704 177.904C342.344 161.176 364.832 152.064 387.872 151.984V152.064C387.872 152.064 372.032 168.064 387.872 184.064C403.792 200.048 387.864 215.976 387.864 215.976V215.976Z" fill="#434A54"/>
<path d="M325.792 302.216C327.872 302.12 348.272 300.84 348.424 279.48C348.512 256.928 370.984 256.84 370.984 256.84C375.224 261.248 381.224 263.888 387.792 263.968C386.592 265.248 372.664 280.448 387.872 295.808C403.792 311.888 387.872 327.968 387.872 327.968C372.992 327.968 357.872 324.216 344.032 316.216C337.224 312.296 331.064 307.576 325.792 302.216V302.216Z" fill="#545C66"/>
<path d="M332.024 239.976C348.104 224.056 364.024 239.976 364.024 239.976C364.024 246.616 366.664 252.528 370.984 256.848C370.984 256.848 348.504 256.936 348.424 279.488C348.264 300.848 327.872 302.128 325.792 302.224C309.064 285.584 300.024 263.016 299.952 240.056C301.224 241.256 316.664 255.256 332.024 239.976V239.976Z" fill="#434A54"/>
<path d="M404.832 257.008C400.512 261.328 394.592 263.968 387.952 263.968C387.872 263.968 387.872 263.968 387.792 263.968C381.232 263.888 375.232 261.248 370.984 256.84C366.664 252.52 364.024 246.608 364.024 239.968C364.024 233.408 366.664 227.408 370.984 223.088C375.304 218.688 381.224 215.968 387.864 215.968H387.944C394.584 215.968 400.584 218.688 404.904 223.008C409.224 227.328 411.944 233.408 411.944 239.968C411.944 246.616 409.224 252.688 404.832 257.008V257.008Z" fill="#656D78"/>
<path d="M387.944 215.976H387.864C387.864 215.976 403.784 200.056 387.864 184.056C372.024 168.056 387.864 152.056 387.864 152.056V151.976C402.904 151.976 418.096 155.808 432.024 163.808C438.832 167.728 444.904 172.368 450.192 177.728L450.104 177.808C450.104 177.808 427.552 177.896 427.472 200.448C427.384 223.008 404.912 223.008 404.912 223.008C400.584 218.688 394.584 215.976 387.944 215.976V215.976Z" fill="#545C66"/>
<path d="M387.864 327.968C387.864 327.968 403.784 311.888 387.864 295.808C372.664 280.448 386.584 265.248 387.784 263.968H387.944C394.584 263.968 400.504 261.328 404.824 257.008C404.904 259.088 406.016 279.4 427.376 279.48C449.936 279.576 450.096 302.216 450.096 302.216C433.544 318.936 410.904 327.968 387.864 327.968V327.968Z" fill="#434A54"/>
<path d="M443.864 239.976C427.864 255.896 411.944 239.976 411.944 239.976C411.944 233.416 409.224 227.336 404.904 223.016C404.904 223.016 427.384 223.016 427.464 200.456C427.544 177.904 450.096 177.816 450.096 177.816L450.184 177.736C466.904 194.296 476.016 216.936 476.016 239.976H475.856C475.864 239.976 459.864 224.048 443.864 239.976V239.976Z" fill="#434A54"/>
<path d="M28.0161 415.984C23.5921 415.984 20.0161 412.408 20.0161 407.984V127.832C20.0161 123.408 23.5921 119.832 28.0161 119.832C32.4401 119.832 36.0161 123.408 36.0161 127.832V407.984C36.0161 412.408 32.4401 415.984 28.0161 415.984Z" fill="#E6E9ED"/>
<path d="M68 112.008C72.4183 112.008 76 108.426 76 104.008C76 99.5898 72.4183 96.0081 68 96.0081C63.5817 96.0081 60 99.5898 60 104.008C60 108.426 63.5817 112.008 68 112.008Z" fill="#545C66"/>
<path d="M500 112.008C504.418 112.008 508 108.426 508 104.008C508 99.5898 504.418 96.0081 500 96.0081C495.582 96.0081 492 99.5898 492 104.008C492 108.426 495.582 112.008 500 112.008Z" fill="#656D78"/>
<path d="M500 359.968C504.418 359.968 508 356.386 508 351.968C508 347.55 504.418 343.968 500 343.968C495.582 343.968 492 347.55 492 351.968C492 356.386 495.582 359.968 500 359.968Z" fill="#ED5565"/>
<path d="M72.0081 384.016C76.4263 384.016 80.0081 380.434 80.0081 376.016C80.0081 371.598 76.4263 368.016 72.0081 368.016C67.5898 368.016 64.0081 371.598 64.0081 376.016C64.0081 380.434 67.5898 384.016 72.0081 384.016Z" fill="#A0D468"/>
<path d="M95.9919 384.016C100.41 384.016 103.992 380.434 103.992 376.016C103.992 371.598 100.41 368.016 95.9919 368.016C91.5737 368.016 87.9919 371.598 87.9919 376.016C87.9919 380.434 91.5737 384.016 95.9919 384.016Z" fill="#A0D468"/>
<g clip-path="url(#clip0)">
<path d="M462.529 267.395L488.629 260.508C497.125 258.267 497.125 246.211 488.629 243.967L462.529 237.081C459.551 236.295 457.227 233.97 456.441 230.992L449.554 204.893C447.313 196.4 435.257 196.4 433.016 204.893L426.129 230.992C425.343 233.97 423.016 236.295 420.041 237.081L393.941 243.967C385.446 246.208 385.446 258.265 393.941 260.508L420.041 267.395C423.016 268.179 425.343 270.505 426.129 273.483L433.016 299.583C435.257 308.076 447.313 308.076 449.554 299.583L456.441 273.483C457.227 270.505 459.554 268.181 462.529 267.395V267.395Z" fill="#FF8040"/>
<path d="M352.908 225.974L374.552 269.832C377.714 276.241 383.832 280.683 390.905 281.712L439.305 288.746C457.119 291.334 464.234 313.229 451.342 325.795L416.321 359.932C411.2 364.923 408.866 372.111 410.073 379.157L418.341 427.362C421.385 445.105 402.76 458.636 386.827 450.26L343.535 427.501C337.209 424.173 329.649 424.173 323.321 427.501L280.031 450.26C264.098 458.636 245.473 445.105 248.517 427.362L256.785 379.157C257.992 372.111 255.656 364.923 250.538 359.932L215.516 325.795C202.624 313.229 209.739 291.334 227.553 288.746L275.954 281.712C283.027 280.683 289.144 276.241 292.306 269.832L313.951 225.974C321.92 209.83 344.938 209.83 352.908 225.974V225.974Z" fill="#FFBF3E"/>
<path d="M264.345 427.362L272.613 379.157C273.823 372.111 271.487 364.923 266.368 359.932L231.344 325.795C218.455 313.229 225.567 291.334 243.384 288.746L291.782 281.712C298.857 280.683 304.972 276.241 308.137 269.832L329.781 225.974C332.38 220.706 336.585 217.17 341.343 215.34C331.518 211.559 319.319 215.098 313.951 225.974L292.306 269.832C289.142 276.241 283.027 280.683 275.954 281.712L227.553 288.746C209.739 291.334 202.624 313.229 215.516 325.795L250.538 359.932C255.656 364.923 257.992 372.111 256.785 379.157L248.517 427.362C245.613 444.289 262.43 457.367 277.82 451.262C268.878 447.701 262.464 438.341 264.345 427.362Z" fill="#E8A328"/>
<path d="M402.655 450.26L359.366 427.501C353.753 424.55 347.174 424.222 341.343 426.504C342.088 426.796 342.82 427.124 343.535 427.501L386.827 450.26C392.901 453.454 399.361 453.456 404.869 451.262C404.127 450.968 403.387 450.645 402.655 450.26V450.26Z" fill="#E8A328"/>
<path d="M263.478 459.194L294.633 450.973C304.774 448.298 304.774 433.905 294.633 431.231L263.478 423.01C259.925 422.072 257.15 419.297 256.212 415.743L247.991 384.586C245.316 374.447 230.923 374.447 228.249 384.586L220.027 415.743C219.089 419.297 216.315 422.072 212.761 423.01L181.604 431.231C171.465 433.905 171.465 448.298 181.604 450.973L212.761 459.194C216.315 460.132 219.089 462.907 220.027 466.46L228.246 497.617C230.923 507.756 245.316 507.756 247.991 497.617L256.212 466.46C257.15 462.907 259.925 460.132 263.478 459.194V459.194Z" fill="#FF8040"/>
</g>
<defs>
<clipPath id="clip0">
<rect width="321" height="321" fill="white" transform="translate(174 191)"/>
</clipPath>
</defs>
</svg>
