<svg height="512pt" viewBox="-26 0 512 512.00019" width="512pt" xmlns="http://www.w3.org/2000/svg"><path d="m460.28125 420.476562c0-108.480468-103.035156-302.464843-230.140625-302.464843-127.101563 0-230.140625 193.984375-230.140625 302.464843 0 108.480469 103.039062 90.382813 230.140625 90.382813 127.105469 0 230.140625 18.097656 230.140625-90.382813zm0 0" fill="#ff8040"/><path d="m103.734375 420.480469c0 74.066406 26.386719 89.121093 65.34375 91.226562-97.46875 1.675781-169.07421875-.792969-169.07421875-91.226562 0-108.480469 103.03515575-302.46875 230.14062475-302.46875-69.8125 0-126.410156 193.988281-126.410156 302.46875zm0 0" fill="#e86328"/><path d="m285.28125 76.097656c17.195312-38.332031 32.371094-92.347656-55.140625-71.4375-87.511719-20.910156-72.335937 33.105469-55.140625 71.4375" fill="#ff8040"/><path d="m209.976562 76.097656h-34.976562c-15.972656-35.613281-30.214844-84.765625 38.058594-74.785156-12.21875 7.5-7.863282 45.675781-3.082032 74.785156zm0 0" fill="#e86328"/><path d="m285.28125 76.097656h-110.28125c-14.988281 0-27.136719 12.152344-27.136719 27.140625 0 14.992188 12.148438 27.140625 27.136719 27.140625h110.28125c14.988281 0 27.140625-12.152344 27.140625-27.140625s-12.152344-27.140625-27.140625-27.140625zm0 0" fill="#357fbc"/><path d="m312.421875 103.238281c0 14.992188-12.148437 27.140625-27.140625 27.140625h-71.308594c-7.5 0-14.28125-3.03125-19.191406-7.949218-4.917969-4.90625-7.949219-11.691407-7.949219-19.191407 0-14.992187 12.148438-27.140625 27.140625-27.140625h71.308594c7.5 0 14.28125 3.03125 19.191406 7.949219 4.917969 4.90625 7.949219 11.691406 7.949219 19.191406zm0 0" fill="#589ce0"/><path d="m240.710938 316.09375v-42.824219c8.003906.84375 13.164062 3.414063 16.9375 5.292969 2.597656 1.296875 4.648437 2.316406 6.632812 2.316406 6.242188 0 9.375-7.761718 9.375-12.105468 0-4.503907-3.890625-8.351563-11.25-11.128907-5.808594-2.191406-13.707031-3.667969-21.695312-4.0625v-10.4375c0-4.382812-3.566407-7.945312-7.945313-7.945312s-7.945313 3.5625-7.945313 7.945312v11.011719c-10.742187 1.414062-19.835937 5.132812-26.3125 10.757812-7.882812 6.84375-11.878906 16.34375-11.878906 28.230469 0 11.75 4 20.808594 12.230469 27.691407 7.089844 5.929687 16.324219 9.519531 25.960937 12.964843v49.574219c-12.1875-1.445312-18.988281-7.226562-23.960937-11.453125-3.117187-2.652344-5.578125-4.746094-8.21875-4.746094-5.183594 0-9.792969 6.769531-9.792969 12.105469 0 5.1875 4.347656 11.121094 11.632813 15.875 8.152343 5.320312 18.925781 8.507812 30.339843 8.984375v11.277344c0 4.378906 3.566407 7.941406 7.945313 7.941406s7.945313-3.5625 7.945313-7.941406v-12.101563c11.101562-1.832031 20.273437-6.46875 26.527343-13.410156 6.765625-7.511719 10.199219-17.515625 10.199219-29.742188 0-27.929687-18.941406-37.402343-36.726562-44.070312zm15.457031 46.378906c0 10.269532-5.34375 17.175782-15.457031 19.984375v-42.042969c7.675781 3.714844 15.457031 9.261719 15.457031 22.058594zm-48.269531-71.429687c0-8.953125 5.847656-14.832031 16.921874-17.007813v36.242188c-10.453124-4.230469-16.921874-8.949219-16.921874-19.234375zm0 0" fill="#ffbf3e"/></svg>