<svg height="511pt" viewBox="0 -20 511.99981 511" width="511pt" xmlns="http://www.w3.org/2000/svg"><path d="m240.960938 356.128906-32.050782 82.117188-8.773437 22.453125c-2.773438 7.09375-9.617188 11.765625-17.238281 11.765625h-15.554688c-13.027344 0-21.976562-13.097656-17.238281-25.230469l13.871093-35.523437 26.960938-69.039063c2.773438-7.101563 9.617188-11.777344 17.242188-11.777344h15.550781c13.027343 0 21.976562 13.101563 17.230469 25.234375zm0 0" fill="#5b5b68"/><path d="m423.804688 472.464844h-15.5625c-7.613282 0-14.457032-4.671875-17.230469-11.765625l-8.773438-22.453125-32.0625-82.117188c-4.734375-12.132812 4.214844-25.234375 17.242188-25.234375h15.550781c7.625 0 14.46875 4.675781 17.230469 11.777344l26.964843 69.039063 13.871094 35.523437c4.734375 12.132813-4.203125 25.230469-17.230468 25.230469zm0 0" fill="#5b5b68"/><path d="m240.960938 356.128906-32.050782 82.117188c-16.09375-7.042969-31.167968-15.980469-44.933594-26.535156l26.960938-69.039063c2.773438-7.101563 9.617188-11.777344 17.242188-11.777344h15.550781c13.027343 0 21.976562 13.101563 17.230469 25.234375zm0 0" fill="#40404c"/><path d="m427.164062 411.710938c-13.769531 10.566406-28.832031 19.503906-44.925781 26.535156l-32.0625-82.117188c-4.734375-12.132812 4.214844-25.234375 17.242188-25.234375h15.550781c7.625 0 14.46875 4.675781 17.230469 11.777344zm0 0" fill="#40404c"/><path d="m512 216.925781c0 119.527344-96.898438 216.425781-216.425781 216.425781-119.527344 0-216.425781-96.898437-216.425781-216.425781 0-119.527343 96.898437-216.425781 216.425781-216.425781 119.527343 0 216.425781 96.898438 216.425781 216.425781zm0 0" fill="#f94141"/><path d="m295.574219 371.515625c-85.242188 0-154.589844-69.347656-154.589844-154.589844 0-85.242187 69.347656-154.589843 154.589844-154.589843 85.242187 0 154.589843 69.347656 154.589843 154.589843 0 85.242188-69.347656 154.589844-154.589843 154.589844zm0 0" fill="#e4e4ef"/><path d="m295.574219 309.679688c-51.144531 0-92.753907-41.609376-92.753907-92.753907s41.609376-92.753906 92.753907-92.753906 92.753906 41.609375 92.753906 92.753906-41.609375 92.753907-92.753906 92.753907zm0 0" fill="#f94141"/><path d="m295.574219 247.84375c-17.046875 0-30.917969-13.867188-30.917969-30.917969s13.871094-30.917969 30.917969-30.917969 30.917969 13.867188 30.917969 30.917969-13.871094 30.917969-30.917969 30.917969zm0 0" fill="#5b5b68"/><path d="m306.007812 216.925781c0 7.195313-5.84375 13.035157-13.039062 13.035157h-274.839844v-26.074219h274.839844c3.597656 0 6.863281 1.460937 9.21875 3.816406.972656.972656 1.785156 2.085937 2.398438 3.316406.910156 1.773438 1.421874 3.777344 1.421874 5.90625zm0 0" fill="#e86328"/><path d="m304.585938 211.019531c-2.15625 4.226563-6.546876 7.125-11.617188 7.125h-274.839844v-14.257812h274.839844c3.597656 0 6.863281 1.460937 9.21875 3.816406.972656.972656 1.785156 2.085937 2.398438 3.316406zm0 0" fill="#ff8040"/><path d="m21.050781 142.109375h60.300781c7.925782 0 15.175782 4.453125 18.757813 11.523437l25.453125 50.253907h-107.433594l-15.832031-31.253907c-7.085937-13.984374 3.078125-30.523437 18.753906-30.523437zm0 0" fill="#5b5b68"/><path d="m21.050781 291.742188h60.300781c7.925782 0 15.175782-4.453126 18.757813-11.523438l25.453125-50.253906h-107.433594l-15.832031 31.253906c-7.085937 13.984375 3.078125 30.523438 18.753906 30.523438zm0 0" fill="#40404c"/></svg>