<svg id="Capa_1" enable-background="new 0 0 512 512" height="512" viewBox="0 0 512 512" width="512" xmlns="http://www.w3.org/2000/svg"><g><path d="m245.754 489.628h52.867l-44.1-96.935h-135.685l-44.1 96.935h52.867l23.657-49.115c1.689-3.507 5.238-5.737 9.131-5.737h52.574c3.893 0 7.442 2.23 9.131 5.737z" fill="#9ec8fc"/><path d="m373.356 361.159-186.678 5.785-186.678-5.785v-229.918c0-4.445 3.603-8.048 8.048-8.048h357.26c4.445 0 8.048 3.603 8.048 8.048z" fill="#407194"/><path d="m365.308 123.193h-30.905c4.445 0 8.048 3.603 8.048 8.048v235.703h30.905v-235.704c0-4.444-3.603-8.047-8.048-8.047z" fill="#365f7e"/><path d="m146.043 197.856v88.639c0 6.698 7.508 10.653 13.032 6.865l64.623-44.32c4.821-3.307 4.821-10.422 0-13.729l-64.623-44.32c-5.524-3.788-13.032.167-13.032 6.865z" fill="#de5791"/><path d="m373.356 361.159h-186.678-186.678v31.938c0 4.445 3.603 8.048 8.048 8.048h357.26c4.445 0 8.048-3.603 8.048-8.048z" fill="#ddebfd"/><path d="m342.45 361.158v31.938c0 4.445-3.603 8.048-8.048 8.048h30.905c4.445 0 8.048-3.603 8.048-8.048v-31.938z" fill="#bed9fd"/><path d="m445.863 19.818v20.251c0 2.856-2.316 5.172-5.172 5.172h-106.85c-2.856 0-5.172-2.316-5.172-5.172v-20.251c0-2.856-2.316-5.172-5.172-5.172h-55.793c-2.856 0-5.172 2.316-5.172 5.172v296.132c0 2.856 2.316 5.172 5.172 5.172h55.793c2.856 0 5.172-2.316 5.172-5.172v-20.251c0-2.856 2.316-5.172 5.172-5.172h106.851c2.856 0 5.172 2.316 5.172 5.172v20.251c0 2.856 2.316 5.172 5.172 5.172h55.793c2.856 0 5.172-2.315 5.172-5.172v-296.132c0-2.856-2.316-5.172-5.172-5.172h-55.793c-2.857 0-5.173 2.316-5.173 5.172z" fill="#ddebfd"/><path d="m506.828 14.646h-30.905c2.856 0 5.172 2.316 5.172 5.172v296.132c0 2.856-2.316 5.172-5.172 5.172h30.905c2.856 0 5.172-2.316 5.172-5.172v-296.132c0-2.856-2.315-5.172-5.172-5.172z" fill="#bed9fd"/><g fill="#5392f9"><path d="m330.763 83.262v59.174c0 2.856 2.316 5.172 5.172 5.172h102.664c2.856 0 5.172-2.316 5.172-5.172v-59.174c0-2.856-2.316-5.172-5.172-5.172h-102.665c-2.856 0-5.171 2.315-5.171 5.172z"/><path d="m330.763 193.332v59.174c0 2.856 2.316 5.172 5.172 5.172h102.664c2.856 0 5.172-2.316 5.172-5.172v-59.174c0-2.856-2.316-5.172-5.172-5.172h-102.665c-2.856 0-5.171 2.316-5.171 5.172z"/></g><path d="m344.155 497.354h-314.954c-4.267 0-7.726-3.459-7.726-7.726s3.459-7.726 7.726-7.726h314.954c4.268 0 7.726 3.459 7.726 7.726 0 4.266-3.458 7.726-7.726 7.726z" fill="#ddebfd"/><g fill="#9ec8fc"><g><path d="m478.932 61.869c-4.268 0-7.726-3.459-7.726-7.726v-2.963c0-4.267 3.459-7.726 7.726-7.726s7.726 3.459 7.726 7.726v2.963c0 4.266-3.459 7.726-7.726 7.726z"/><path d="m478.932 107.958c-4.268 0-7.726-3.459-7.726-7.726v-2.963c0-4.267 3.459-7.726 7.726-7.726s7.726 3.459 7.726 7.726v2.963c0 4.266-3.459 7.726-7.726 7.726z"/><path d="m478.932 154.047c-4.268 0-7.726-3.459-7.726-7.726v-2.963c0-4.267 3.459-7.726 7.726-7.726s7.726 3.459 7.726 7.726v2.963c0 4.267-3.459 7.726-7.726 7.726z"/><path d="m478.932 200.136c-4.268 0-7.726-3.459-7.726-7.726v-2.963c0-4.267 3.459-7.726 7.726-7.726s7.726 3.459 7.726 7.726v2.963c0 4.267-3.459 7.726-7.726 7.726z"/><path d="m478.932 246.225c-4.268 0-7.726-3.459-7.726-7.726v-2.963c0-4.267 3.459-7.726 7.726-7.726s7.726 3.459 7.726 7.726v2.963c0 4.267-3.459 7.726-7.726 7.726z"/><path d="m478.932 292.314c-4.268 0-7.726-3.459-7.726-7.726v-2.963c0-4.267 3.459-7.726 7.726-7.726s7.726 3.459 7.726 7.726v2.963c0 4.267-3.459 7.726-7.726 7.726z"/></g><g><path d="m295.601 61.869c-4.268 0-7.726-3.459-7.726-7.726v-2.963c0-4.267 3.459-7.726 7.726-7.726 4.268 0 7.726 3.459 7.726 7.726v2.963c0 4.266-3.459 7.726-7.726 7.726z"/><path d="m295.601 107.958c-4.268 0-7.726-3.459-7.726-7.726v-2.963c0-4.267 3.459-7.726 7.726-7.726 4.268 0 7.726 3.459 7.726 7.726v2.963c0 4.266-3.459 7.726-7.726 7.726z"/><path d="m295.601 154.047c-4.268 0-7.726-3.459-7.726-7.726v-2.963c0-4.267 3.459-7.726 7.726-7.726 4.268 0 7.726 3.459 7.726 7.726v2.963c0 4.267-3.459 7.726-7.726 7.726z"/><path d="m295.601 200.136c-4.268 0-7.726-3.459-7.726-7.726v-2.963c0-4.267 3.459-7.726 7.726-7.726 4.268 0 7.726 3.459 7.726 7.726v2.963c0 4.267-3.459 7.726-7.726 7.726z"/><path d="m295.601 246.225c-4.268 0-7.726-3.459-7.726-7.726v-2.963c0-4.267 3.459-7.726 7.726-7.726 4.268 0 7.726 3.459 7.726 7.726v2.963c0 4.267-3.459 7.726-7.726 7.726z"/><path d="m295.601 292.314c-4.268 0-7.726-3.459-7.726-7.726v-2.963c0-4.267 3.459-7.726 7.726-7.726 4.268 0 7.726 3.459 7.726 7.726v2.963c0 4.267-3.459 7.726-7.726 7.726z"/></g></g></g></svg>